<?xml version="1.0" encoding="utf-8"?>
<!-- Generator: Adobe Illustrator 26.0.2, SVG Export Plug-In . SVG Version: 6.00 Build 0)  -->
<svg version="1.1" id="Layer_1" xmlns="http://www.w3.org/2000/svg" xmlns:xlink="http://www.w3.org/1999/xlink" x="0px" y="0px"
	 viewBox="0 0 601 600" style="enable-background:new 0 0 601 600;" xml:space="preserve">
<style type="text/css">
	.st0{opacity:0.2;fill:url(#Path_00000090288581097110886490000008686874817310105533_);enable-background:new    ;}
	.st1{fill:#F2C94C;}
	.st2{opacity:0.15;fill:#FFFFFF;enable-background:new    ;}
	.st3{opacity:7.000000e-02;fill:url(#Path-5_00000126282113629217394210000000504426858189518222_);enable-background:new    ;}
	.st4{opacity:0.3;fill:url(#Path-6_00000083072015592501490600000002806309120816859284_);enable-background:new    ;}
	.st5{fill:#F2994A;}
	.st6{opacity:0.2;fill:url(#Path-10_00000141433689200315601750000006229045245358233984_);enable-background:new    ;}
	.st7{opacity:0.3;fill:url(#Path-12_00000055676304149906097120000017976928758761045439_);enable-background:new    ;}
	.st8{opacity:0.3;fill:url(#Path-17_00000053522389853139551570000003436356638715665580_);enable-background:new    ;}
	.st9{opacity:0.2;fill:url(#Path-22_00000162351971189953303520000002818199099746211763_);enable-background:new    ;}
	.st10{opacity:5.000000e-02;fill:url(#Path-23_00000084504414307426305180000011427184291614861983_);enable-background:new    ;}
	.st11{opacity:0.3;fill:#FFFFFF;enable-background:new    ;}
</style>
<linearGradient id="Path_00000094577835738856846000000018368930974800697218_" gradientUnits="userSpaceOnUse" x1="-657.7181" y1="841.1909" x2="-657.8701" y2="840.9515" gradientTransform="matrix(167 0 0 -183.4 110007.8984 154486.1875)">
	<stop  offset="0" style="stop-color:#FFFFFF"/>
	<stop  offset="1" style="stop-color:#FFFFFF;stop-opacity:0"/>
</linearGradient>
<path id="Path" style="opacity:0.2;fill:url(#Path_00000094577835738856846000000018368930974800697218_);enable-background:new    ;" d="
	M212.4,236.9l-112.3-64.8v58.5l112.3,64.8V236.9z"/>
<path id="Path-2" class="st1" d="M122.9,204.9c0,4.8-2.8,7.1-6.4,5c-3.5-2-6.4-7.6-6.4-12.4s2.8-7.1,6.4-5
	C120.1,194.5,122.9,200,122.9,204.9z"/>
<path id="Path-3" class="st2" d="M128.8,201l41,23.6v9.1l-41-23.5V201z"/>
<path id="Path-4" class="st2" d="M128.9,220.6l72,41.5v9.1l-72-41.5V220.6z"/>
<linearGradient id="Path-5_00000062873495954873897090000008539231850509255053_" gradientUnits="userSpaceOnUse" x1="-658.0187" y1="840.9392" x2="-658.6973" y2="840.5094" gradientTransform="matrix(187.2 0 0 -511.3 123617.8984 430065.5938)">
	<stop  offset="0" style="stop-color:#FFFFFF"/>
	<stop  offset="1" style="stop-color:#FFFFFF;stop-opacity:0"/>
</linearGradient>
<path id="Path-5" style="opacity:7.000000e-02;fill:url(#Path-5_00000062873495954873897090000008539231850509255053_);enable-background:new    ;" d="
	M300.7,48l125.9,72.7v271.2l-125.9-72.6V48z"/>
<linearGradient id="Path-6_00000013895865477408775030000014841840446126852523_" gradientUnits="userSpaceOnUse" x1="-657.943" y1="840.9625" x2="-658.6216" y2="840.5327" gradientTransform="matrix(187.2 0 0 -511.3 123574.6016 430102)">
	<stop  offset="0" style="stop-color:#FFFFFF"/>
	<stop  offset="1" style="stop-color:#FFFFFF;stop-opacity:0"/>
</linearGradient>
<path id="Path-6" style="opacity:0.3;fill:url(#Path-6_00000013895865477408775030000014841840446126852523_);enable-background:new    ;" d="
	M271.6,72.5l125.9,72.7v271.2l-125.9-72.6V72.5z"/>
<path id="Path-7" class="st2" d="M283.7,223.6L384.9,282v9.1l-101.2-58.4V223.6z"/>
<path id="Path-8" class="st2" d="M290.8,245.8l87,50.2v9.1l-87-50.2V245.8z"/>
<path id="Path-9" class="st5" d="M238.7,281.5v-30.3l74.3,42.9v30.3L238.7,281.5z"/>
<linearGradient id="Path-10_00000011751496874179926030000004957630198725333122_" gradientUnits="userSpaceOnUse" x1="-659.281" y1="841.2166" x2="-658.4315" y2="841.0787" gradientTransform="matrix(99.2154 0 0 -234.0256 65892.6172 197199.8125)">
	<stop  offset="0" style="stop-color:#FFFFFF"/>
	<stop  offset="1" style="stop-color:#FFFFFF;stop-opacity:0"/>
</linearGradient>
<path id="Path-10" style="opacity:0.2;fill:url(#Path-10_00000011751496874179926030000004957630198725333122_);enable-background:new    ;" d="
	M498,275c-5.8-9.2-13.8-10.4-14.1-10.5c-0.8-0.1-1.3,0.6-1.3,1.7v24.3c0,8.3-2.8,13.6-8.4,15.9c-0.6,0.3-1,0.9-0.9,1.6
	c0,11.7,0.2,61.9,0.3,77.6c0.1,2.8,1.6,5.4,4,7c12,6.9,46.3,26.8,46.3,26.8c9.1,5.3,15,2,16-8.9l0.1-48.2c0-7.3-1.3-14.9-5.3-21.1
	c-2.3-3.6-5-6.3-7.8-7.9l-23.5-13.5v-22.6C503.5,288.3,501.6,280.9,498,275z"/>
<path id="Path-11" class="st1" d="M441.9,287.3l26.2,15.1v85.8l-26.2-15.1V287.3z"/>
<linearGradient id="Path-12_00000003105677266829704900000007838517606082136753_" gradientUnits="userSpaceOnUse" x1="-657.9039" y1="840.7755" x2="-658.2516" y2="840.5447" gradientTransform="matrix(297.7 0 0 -350.6 196064.2812 294858.0938)">
	<stop  offset="0" style="stop-color:#FFFFFF"/>
	<stop  offset="1" style="stop-color:#FFFFFF;stop-opacity:0"/>
</linearGradient>
<path id="Path-12" style="opacity:0.3;fill:url(#Path-12_00000003105677266829704900000007838517606082136753_);enable-background:new    ;" d="
	M249.9,124L49.8,8.4l0.1,104.3l182.5,105.3l17.7,26.2L249.9,124z"/>
<path id="Path-13" class="st2" d="M198.5,119.6l-43.9-25.3v9.1l43.9,25.3V119.6z"/>
<path id="Path-14" class="st2" d="M198.5,138L89.8,75.3v9.1l108.6,62.7V138z"/>
<path id="Path-15" class="st2" d="M198.5,156.3l-131-75.7v9.1l131,75.7V156.3z"/>
<path id="Path-16" class="st5" d="M209.2,135.4c0,8.6,5.1,18.5,11.4,22.1s11.4-0.4,11.4-9s-5.1-18.5-11.4-22.1
	S209.2,126.8,209.2,135.4z"/>
<linearGradient id="Path-17_00000171678521098143263110000001499228560115259828_" gradientUnits="userSpaceOnUse" x1="-658.6097" y1="841.502" x2="-658.5222" y2="840.8597" gradientTransform="matrix(297.7 0 0 -326.9 196490.2031 275452.7188)">
	<stop  offset="0" style="stop-color:#FFFFFF"/>
	<stop  offset="1" style="stop-color:#FFFFFF;stop-opacity:0"/>
</linearGradient>
<path id="Path-17" style="opacity:0.3;fill:url(#Path-17_00000171678521098143263110000001499228560115259828_);enable-background:new    ;" d="
	M336.2,362.4L536.4,478l0.1,104.3L353.9,476.9l-17.6,5.8L336.2,362.4z"/>
<path id="Path-18" class="st2" d="M387.7,417.6l43.9,25.3v9.1l-43.9-25.3V417.6z"/>
<path id="Path-19" class="st2" d="M387.7,435.9l79.2,45.7v9.1L387.7,445V435.9z"/>
<path id="Path-20" class="st2" d="M387.7,454.2l102.4,59.1v9.1l-102.4-59.1V454.2z"/>
<path id="Path-21" class="st1" d="M376.9,420.9c0,8.6-5.1,12.6-11.4,9s-11.4-13.5-11.4-22.1s5.1-12.6,11.4-9
	C371.8,402.4,376.8,412.2,376.9,420.9z"/>
<linearGradient id="Path-22_00000080889305475013842960000014830311205378899636_" gradientUnits="userSpaceOnUse" x1="-657.5659" y1="842.1497" x2="-657.9877" y2="841.9055" gradientTransform="matrix(83.6 0 0 -113.9338 55253.5039 96320.0703)">
	<stop  offset="0" style="stop-color:#FFFFFF"/>
	<stop  offset="1" style="stop-color:#FFFFFF;stop-opacity:0"/>
</linearGradient>
<path id="Path-22" style="opacity:0.2;fill:url(#Path-22_00000080889305475013842960000014830311205378899636_);enable-background:new    ;" d="
	M266.9,344.5c4,2.3,7.3,7.9,7.3,12.6v20.5l13.6,7.8c4,2.3,7.3,7.9,7.3,12.6s-3.2,6.5-7.3,4.2l-13.6-7.8v20.5c0,4.6-3.2,6.5-7.3,4.2
	c-4-2.3-7.3-7.9-7.3-12.6v-20.5l-13.6-7.8c-4-2.3-7.3-7.9-7.3-12.6c0-4.6,3.2-6.5,7.3-4.2l13.6,7.8v-20.5
	C259.6,344.1,262.9,342.2,266.9,344.5z"/>
<linearGradient id="Path-23_00000070087485541104948920000013614855369500176035_" gradientUnits="userSpaceOnUse" x1="-658.0048" y1="841.2723" x2="-658.4944" y2="840.9595" gradientTransform="matrix(87.9575 0 0 -118.028 58223.0508 99452.0391)">
	<stop  offset="0" style="stop-color:#FFFFFF"/>
	<stop  offset="1" style="stop-color:#FFFFFF;stop-opacity:0"/>
</linearGradient>
<path id="Path-23" style="opacity:5.000000e-02;fill:url(#Path-23_00000070087485541104948920000013614855369500176035_);enable-background:new    ;" d="
	M334.3,213.6c-57.7-75.1-15.9-102.2,0-58.2C350.3,130,392,205.8,334.3,213.6z"/>
<path id="Path-24" class="st11" d="M320.8,227c-57.7-75.1-15.9-102.2,0-58.2C336.8,143.5,378.5,219.3,320.8,227z"/>
</svg>
