<?xml version="1.0" encoding="utf-8"?>
<!-- Generator: Adobe Illustrator 26.0.2, SVG Export Plug-In . SVG Version: 6.00 Build 0)  -->
<svg version="1.1" id="Layer_1" xmlns="http://www.w3.org/2000/svg" xmlns:xlink="http://www.w3.org/1999/xlink" x="0px" y="0px"
	 viewBox="0 0 601 600" style="enable-background:new 0 0 601 600;" xml:space="preserve">
<style type="text/css">
	.st0{opacity:0.2;fill:url(#Path_00000165214395297774067870000012060826538919646872_);enable-background:new    ;}
	.st1{opacity:0.4;fill:#FFFFFF;enable-background:new    ;}
	.st2{opacity:0.3;fill:url(#Path-4_00000152223357956788351400000012386211022981325750_);enable-background:new    ;}
	.st3{opacity:0.3;fill:url(#Path-5_00000029044072819538434180000011560947968913459632_);enable-background:new    ;}
	.st4{opacity:0.3;fill:url(#Path-6_00000047019917463185100820000011799844192997327518_);enable-background:new    ;}
	.st5{fill:#EF4D4D;}
	.st6{opacity:0.3;fill:url(#Path-8_00000109748224555020500830000016888654979301645192_);enable-background:new    ;}
	.st7{fill:#EF4B4B;}
	.st8{opacity:0.3;fill:url(#Path-10_00000165230988105339917000000006395015777865160102_);enable-background:new    ;}
	.st9{opacity:0.3;fill:url(#Path-11_00000114782774078901444650000001287925566733398968_);enable-background:new    ;}
	.st10{opacity:0.3;fill:url(#Path-13_00000115477325260059302510000006279562593613550994_);enable-background:new    ;}
	.st11{opacity:0.15;fill:#FFFFFF;enable-background:new    ;}
	.st12{opacity:0.2;fill:#FFFFFF;enable-background:new    ;}
	.st13{opacity:0.2;fill:url(#Path-20_00000116935657665844024690000012297710940379371148_);enable-background:new    ;}
	.st14{opacity:0.2;fill:url(#Path-24_00000170242014342043772380000015507056938538898049_);enable-background:new    ;}
</style>
<g id="Illustration" transform="translate(0 -0.408)">
	
		<linearGradient id="Path_00000031170319574124512240000014501666514653012644_" gradientUnits="userSpaceOnUse" x1="-658.2159" y1="842.1921" x2="-658.0796" y2="841.6754" gradientTransform="matrix(128.0003 0 0 -192.3094 84424.8672 162260.0781)">
		<stop  offset="0" style="stop-color:#FFFFFF"/>
		<stop  offset="1" style="stop-color:#FFFFFF;stop-opacity:0"/>
	</linearGradient>
	
		<path id="Path" style="opacity:0.2;fill:url(#Path_00000031170319574124512240000014501666514653012644_);enable-background:new    ;" d="
		M147.1,364.9c0,29.4,15.1,43.3,33.7,31.1c18.7-12.2,33.7-46,33.7-75.4c0-29.4-15.1-43.3-33.7-31.1
		C162.2,301.8,147,335.5,147.1,364.9z"/>
	<path id="Shape" class="st1" d="M163.2,376.9c0-29.4,15.1-63.2,33.7-75.4c18.7-12.2,33.7,1.7,33.7,31.1
		c0.1,29.4-15.1,63.2-33.7,75.4c-4.6,3-9,4.4-13,4.4C171.8,412.5,163.3,399.1,163.2,376.9z"/>
	<path id="Path-2" class="st1" d="M200.1,352.4l-3.3,2.2v-10.4c0.6-0.5,1.2-0.9,1.8-1.3c0.7-0.5,1.3-0.9,1.9-1.3
		c1.8-1.2,3.2-1.7,4.1-1.5s1.4,1.2,1.4,3.1c0,1.8-0.5,3.6-1.4,5C203.6,349.6,202.2,351,200.1,352.4z"/>
	<path id="Path-3" class="st1" d="M196.7,375v-12.4l4.3-2.8c2-1.3,3.4-1.8,4.5-1.5c1.1,0.2,1.6,1.4,1.6,3.7c0.1,2.3-0.6,4.6-1.9,6.4
		c-1.4,1.9-3.1,3.4-5,4.6c-0.7,0.5-1.3,0.8-1.9,1.2C197.8,374.5,197.3,374.8,196.7,375z"/>
	
		<linearGradient id="Path-4_00000179603746271923782860000005911900447215032462_" gradientUnits="userSpaceOnUse" x1="-659.0337" y1="841.2476" x2="-657.9531" y2="840.9188" gradientTransform="matrix(79.9015 0 0 -454.8379 52840.8555 382708.125)">
		<stop  offset="0" style="stop-color:#FFFFFF"/>
		<stop  offset="1" style="stop-color:#FFFFFF;stop-opacity:0"/>
	</linearGradient>
	
		<path id="Path-4" style="opacity:0.3;fill:url(#Path-4_00000179603746271923782860000005911900447215032462_);enable-background:new    ;" d="
		M242.9,18.8c-3.3,2.2-6,7.4-6,11.8v115.9l-30.2,19.9v119.6c0,4.3,2.7,6.1,6,3.9c3.3-2.2,6-7.4,6-11.8V174.1l30.2-19.9V22.6
		C248.9,18.3,246.2,16.5,242.9,18.8z"/>
	
		<linearGradient id="Path-5_00000177474128673080247460000014313876950737190791_" gradientUnits="userSpaceOnUse" x1="-657.8448" y1="841.879" x2="-658.5608" y2="842.2999" gradientTransform="matrix(79.9015 0 0 -235.6915 52809.5547 198923.2344)">
		<stop  offset="0" style="stop-color:#FFFFFF"/>
		<stop  offset="1" style="stop-color:#FFFFFF;stop-opacity:0"/>
	</linearGradient>
	
		<path id="Path-5" style="opacity:0.3;fill:url(#Path-5_00000177474128673080247460000014313876950737190791_);enable-background:new    ;" d="
		M226.4,522.2c-3.3,2.2-6,0.4-6-3.9v-86.9l-30.3,19.9v-56.9c0-4.3,2.7-9.6,6-11.8c3.3-2.2,6-0.4,6,3.9v41.2l30.2-19.9v102.5
		C232.4,514.8,229.7,520.1,226.4,522.2z"/>
	
		<linearGradient id="Path-6_00000011719617603697709000000013470245746598908300_" gradientUnits="userSpaceOnUse" x1="-658.1936" y1="841.4114" x2="-654.8342" y2="841.0438" gradientTransform="matrix(22.6 0 0 -357.8915 15017.2002 301278.4062)">
		<stop  offset="0" style="stop-color:#FFFFFF"/>
		<stop  offset="1" style="stop-color:#FFFFFF;stop-opacity:0"/>
	</linearGradient>
	
		<path id="Path-6" style="opacity:0.3;fill:url(#Path-6_00000011719617603697709000000013470245746598908300_);enable-background:new    ;" d="
		M180,103.8c-3.3,2.2-6,7.4-6,11.8v197.2c0,4.3,2.7,6.1,6,3.9c3.3-2.2,6-7.4,6-11.8V107.7C185.9,103.4,183.2,101.6,180,103.8z"/>
	<path id="Path-7" class="st5" d="M213.8,512.3c0,11.9,6.1,17.5,13.7,12.5c7.5-4.9,13.7-18.6,13.7-30.5s-6.1-17.5-13.7-12.5
		S213.8,500.4,213.8,512.3z"/>
	
		<linearGradient id="Path-8_00000040573484851272340780000011978543276691325865_" gradientUnits="userSpaceOnUse" x1="-657.9802" y1="842.013" x2="-657.0414" y2="841.4045" gradientTransform="matrix(79.9 0 0 -213.5915 52651.8008 180028.125)">
		<stop  offset="0" style="stop-color:#FFFFFF"/>
		<stop  offset="1" style="stop-color:#FFFFFF;stop-opacity:0"/>
	</linearGradient>
	
		<path id="Path-8" style="opacity:0.3;fill:url(#Path-8_00000040573484851272340780000011978543276691325865_);enable-background:new    ;" d="
		M113.5,202.7c3.3-2.2,6-0.4,6,3.9v58.6l30.2-19.9v71.9c0,4.3-2.7,9.6-6,11.8c-3.3,2.2-6,0.4-6-3.9v-56.3l-30.2,19.9v-74.2
		C107.6,210.1,110.2,204.9,113.5,202.7z"/>
	<path id="Path-9" class="st7" d="M100.1,223.3c0,11.8,6.1,17.3,13.5,12.4c7.4-4.9,13.5-18.4,13.5-30.1s-6.1-17.3-13.5-12.4
		S100.1,211.6,100.1,223.3z"/>
	
		<linearGradient id="Path-10_00000051384427713220748910000007413342476876590499_" gradientUnits="userSpaceOnUse" x1="-658.316" y1="842.2897" x2="-657.7205" y2="842.2897" gradientTransform="matrix(200 0 0 -206.1712 131699.3125 174121.7344)">
		<stop  offset="0" style="stop-color:#FFFFFF"/>
		<stop  offset="1" style="stop-color:#FFFFFF;stop-opacity:0"/>
	</linearGradient>
	
		<path id="Path-10" style="opacity:0.3;fill:url(#Path-10_00000051384427713220748910000007413342476876590499_);enable-background:new    ;" d="
		M55.7,522.8c0-4.3,2.7-9.6,6-11.8l46.9-30.8v-44.7l46.6-30.6c3.3-2.2,6-0.4,6,3.9s-2.7,9.6-6,11.8l-34.7,22.8v44.7l-58.8,38.7
		C58.4,529,55.7,527.2,55.7,522.8z"/>
	
		<linearGradient id="Path-11_00000138540901507271329510000008345762975771389847_" gradientUnits="userSpaceOnUse" x1="-654.8605" y1="841.9075" x2="-657.2948" y2="842.2654" gradientTransform="matrix(22.6 0 0 -266.1736 14996.2998 224650.1406)">
		<stop  offset="0" style="stop-color:#FFFFFF"/>
		<stop  offset="1" style="stop-color:#FFFFFF;stop-opacity:0"/>
	</linearGradient>
	
		<path id="Path-11" style="opacity:0.3;fill:url(#Path-11_00000138540901507271329510000008345762975771389847_);enable-background:new    ;" d="
		M169,587.9c3.3-2.2,6-7.4,6-11.8V434c0-4.3-2.7-6.1-6-3.9c-3.3,2.2-6,7.4-6,11.8V584C163,588.3,165.7,590.1,169,587.9z"/>
	<path id="Path-12" class="st7" d="M48.5,528c0,11.9,6.1,17.5,13.7,12.5c7.5-4.9,13.7-18.6,13.7-30.5s-6.1-17.5-13.7-12.5
		C54.6,502.5,48.5,516.1,48.5,528z"/>
	
		<linearGradient id="Path-13_00000103266437171356357780000016966957998289632696_" gradientUnits="userSpaceOnUse" x1="-659.2042" y1="841.7674" x2="-658.7185" y2="841.4211" gradientTransform="matrix(162.8 0 0 -395.6 107561.8984 333317.625)">
		<stop  offset="0" style="stop-color:#FFFFFF"/>
		<stop  offset="1" style="stop-color:#FFFFFF;stop-opacity:0"/>
	</linearGradient>
	
		<path id="Path-13" style="opacity:0.3;fill:url(#Path-13_00000103266437171356357780000016966957998289632696_);enable-background:new    ;" d="
		M340.4,289.4l-85.8,56.4v180.9l85.8-56.4V289.4z"/>
	<path id="Path-14" class="st11" d="M326.8,404.4L275.7,438v7.1l51.1-33.6V404.4z"/>
	<path id="Path-15" class="st11" d="M321.5,422.1L281,448.7v7.1l40.5-26.6V422.1z"/>
	<path id="Path-16" class="st5" d="M307.6,454.2l59.7-39.2v20.2l-59.7,39.2V454.2z"/>
	<path id="Path-17" class="st12" d="M278.9,363.9l13.3,12l9-13.1l11.7,11.5l4.6-3.8L300.3,354l-8.7,13.1l-9.6-8.2L278.9,363.9z"/>
	<path id="Path-18" class="st5" d="M268.9,363.6c0,6.8,3.5,10,7.7,7.1c4.3-2.8,7.7-10.6,7.7-17.3c0-6.8-3.5-10-7.7-7.1
		C272.4,349,268.9,356.8,268.9,363.6z"/>
	<path id="Path-19" class="st5" d="M308.8,376.6c0,6.8,3.5,10,7.7,7.1c4.3-2.8,7.7-10.6,7.7-17.3c0-6.8-3.5-10-7.7-7.1
		C312.3,362.1,308.8,369.9,308.8,376.6z"/>
	
		<linearGradient id="Path-20_00000024709636629333467690000007475753704259907003_" gradientUnits="userSpaceOnUse" x1="-657.726" y1="842.4379" x2="-657.6083" y2="842.2526" gradientTransform="matrix(154.8 0 0 -170 101893.2031 143603.7656)">
		<stop  offset="0" style="stop-color:#FFFFFF"/>
		<stop  offset="1" style="stop-color:#FFFFFF;stop-opacity:0"/>
	</linearGradient>
	
		<path id="Path-20" style="opacity:0.2;fill:url(#Path-20_00000024709636629333467690000007475753704259907003_);enable-background:new    ;" d="
		M45.5,407.7l81.6-53.6v48.4l-81.6,53.6V407.7z"/>
	<path id="Path-21" class="st11" d="M106.2,379.5l-24.6,16.1v5.8l24.6-16.1V379.5z"/>
	<path id="Path-22" class="st11" d="M106.2,391.2l-52.3,34.3v5.9l52.3-34.3V391.2z"/>
	<path id="Path-23" class="st7" d="M110.5,381.2c0,4,2.1,5.9,4.6,4.2c2.6-1.7,4.6-6.3,4.6-10.3c0-4-2.1-5.9-4.6-4.2
		C112.6,372.6,110.5,377.2,110.5,381.2z"/>
	
		<linearGradient id="Path-24_00000012465281206368483280000018363906404334330772_" gradientUnits="userSpaceOnUse" x1="-658.9395" y1="841.8578" x2="-658.8218" y2="841.6725" gradientTransform="matrix(154.8 0 0 -170 102290.3984 143357.2656)">
		<stop  offset="0" style="stop-color:#FFFFFF"/>
		<stop  offset="1" style="stop-color:#FFFFFF;stop-opacity:0"/>
	</linearGradient>
	
		<path id="Path-24" style="opacity:0.2;fill:url(#Path-24_00000012465281206368483280000018363906404334330772_);enable-background:new    ;" d="
		M254.9,259.8l81.6-53.6v48.4l-81.6,53.6V259.8z"/>
	<path id="Path-25" class="st11" d="M315.6,231.6L291,247.7v5.8l24.6-16.1V231.6z"/>
	<path id="Path-26" class="st11" d="M315.5,243.3l-52.3,34.3v5.9l52.3-34.3V243.3z"/>
	<path id="Path-27" class="st7" d="M319.9,233.3c0,4,2.1,5.9,4.6,4.2s4.6-6.3,4.6-10.3s-2.1-5.9-4.6-4.2
		C322,224.7,319.9,229.3,319.9,233.3z"/>
</g>
</svg>
