<?xml version="1.0" encoding="utf-8"?>
<!-- Generator: Adobe Illustrator 26.0.2, SVG Export Plug-In . SVG Version: 6.00 Build 0)  -->
<svg version="1.1" id="Layer_1" xmlns="http://www.w3.org/2000/svg" xmlns:xlink="http://www.w3.org/1999/xlink" x="0px" y="0px"
	 viewBox="0 0 601 600" style="enable-background:new 0 0 601 600;" xml:space="preserve">
<style type="text/css">
	.st0{opacity:7.000000e-02;fill:url(#Path_00000072270147342302278950000007499345788167667876_);enable-background:new    ;}
	.st1{opacity:0.4;fill:url(#Path-2_00000074416146505189655220000000589886424595271297_);enable-background:new    ;}
	.st2{opacity:0.2;fill:#FFFFFF;enable-background:new    ;}
	.st3{fill:#EF4B4B;}
	.st4{opacity:7.000000e-02;fill:url(#Path-6_00000140010142463328120140000005214787243502627492_);enable-background:new    ;}
	.st5{opacity:0.3;fill:url(#Path-7_00000026154377143140262710000006257902849149098400_);enable-background:new    ;}
	.st6{opacity:0.15;fill:#FFFFFF;enable-background:new    ;}
	.st7{opacity:7.000000e-02;fill:url(#Path-14_00000137815675416001783050000005842080881648893867_);enable-background:new    ;}
	.st8{opacity:0.3;fill:url(#Path-15_00000072273664864932360980000006478388020196248208_);enable-background:new    ;}
	.st9{opacity:0.3;fill:url(#Path-22_00000030489260548617071680000013225785354147697557_);enable-background:new    ;}
	.st10{fill:#EF4D4D;}
	.st11{opacity:0.2;fill:url(#Path-28_00000086654948157087121250000014697645677145216424_);enable-background:new    ;}
	.st12{opacity:0.2;fill:url(#Path-29_00000157295846971083428650000006664114874010866079_);enable-background:new    ;}
</style>
<g id="Illustration" transform="translate(-0.2 -0.7)">
	
		<linearGradient id="Path_00000047028097359472019860000004509310452031207823_" gradientUnits="userSpaceOnUse" x1="-658.0768" y1="841.6027" x2="-658.477" y2="841.2438" gradientTransform="matrix(491.9 0 0 -520.7546 324282.75 438410.6562)">
		<stop  offset="0" style="stop-color:#FFFFFF"/>
		<stop  offset="1" style="stop-color:#FFFFFF;stop-opacity:0"/>
	</linearGradient>
	
		<path id="Path" style="opacity:7.000000e-02;fill:url(#Path_00000047028097359472019860000004509310452031207823_);enable-background:new    ;" d="
		M537.9,263.9c0,2.9-0.1,5.7-0.3,8.4c27.4,20.8,48.4,65.4,48.4,104.7c0,42.8-25,62.9-55.9,45.1c-0.1-0.1-0.1-0.1-0.2-0.1
		L336.1,310.1c-0.1-0.1-0.1-0.1-0.3-0.1c-34.7-20-62.8-75.2-62.8-123.2c0-45,24.7-67.8,56.3-54c3.9-30.9,24.6-44.2,49.5-29.7
		c12,6.9,23,19.1,31.6,33.7c12.5-18.5,33.7-23.2,57.8-9.4C506.7,149.5,537.9,210.7,537.9,263.9z"/>
	
		<linearGradient id="Path-2_00000057108345168463895250000014350222716099707544_" gradientUnits="userSpaceOnUse" x1="-658.0398" y1="841.6362" x2="-658.4401" y2="841.2773" gradientTransform="matrix(491.9 0 0 -520.7546 324232.75 438458.6562)">
		<stop  offset="0" style="stop-color:#FFFFFF"/>
		<stop  offset="1" style="stop-color:#FFFFFF;stop-opacity:0"/>
	</linearGradient>
	
		<path id="Path-2" style="opacity:0.4;fill:url(#Path-2_00000057108345168463895250000014350222716099707544_);enable-background:new    ;" d="
		M506.1,294.4c0,2.9-0.1,5.7-0.3,8.4c27.4,20.8,48.4,65.4,48.4,104.7c0,42.8-25,62.9-55.9,45.1c-0.1-0.1-0.1-0.1-0.2-0.1
		L304.3,340.7c-0.1-0.1-0.1-0.1-0.3-0.1c-34.7-20-62.8-75.2-62.8-123.2c0-45,24.7-67.8,56.3-54c3.9-30.9,24.6-44.2,49.5-29.7
		c12,6.9,23,19.1,31.6,33.7c12.5-18.5,33.7-23.2,57.8-9.4C474.9,180.1,506.1,241.2,506.1,294.4z"/>
	<path id="Path-3" className="st2" d="M199.1,348.9l-29.5-17.1v-10l29.5,17.1c3.5,2.2,6.6,5.1,8.9,8.5c3.5,4.9,5.5,10.8,5.5,16.9
		c0,7-1.8,11-5.2,12.2c-3.2,1.1-6.9-0.8-9.3-2.1l-12.2-7l-0.1-0.1c-1-0.6-2.7-1.2-4-0.8c-1.1,0.3-2.3,1.4-2.3,5.3
		c0,3.9,1.2,6.3,2.2,7.7c1,1.5,2.4,2.7,3.9,3.6l0.1,0.1l37.1,21.4v10l-36.9-21.3c-3.7-2.1-6.9-5.1-9.4-8.6
		c-3.8-5.2-5.8-11.5-5.8-17.9c0-6.8,2.4-10.3,5.8-11.3c3.2-0.9,6.8,0.4,9.4,2l12,6.9c1.7,1,3.1,1.5,3.9,1.1c0.6-0.2,1.9-1.1,1.9-6.2
		c0-2.4-0.7-4.8-2-6.9C201.8,351,200.6,349.8,199.1,348.9z"/>
	<path id="Path-4" className="st3" d="M176,329.4c0,8.2-4.8,12.1-10.8,8.7c-5.9-3.4-10.8-12.9-10.8-21.1c0-8.2,4.8-12.1,10.8-8.7
		C171.2,311.7,176,321.2,176,329.4z"/>
	<path id="Path-5" className="st3" d="M239,417.8c0,8.2-4.8,12.1-10.8,8.7c-5.9-3.4-10.8-12.9-10.8-21.1c0-8.2,4.8-12.1,10.8-8.7
		C234.1,400.1,239,409.6,239,417.8z"/>
	
		<linearGradient id="Path-6_00000049915071962155533880000012631947129915898755_" gradientUnits="userSpaceOnUse" x1="-658.3462" y1="841.8469" x2="-658.3227" y2="841.3086" gradientTransform="matrix(300 0 0 -331.8 197885.2031 279539.25)">
		<stop  offset="0" style="stop-color:#FFFFFF"/>
		<stop  offset="1" style="stop-color:#FFFFFF;stop-opacity:0"/>
	</linearGradient>
	
		<path id="Path-6" style="opacity:7.000000e-02;fill:url(#Path-6_00000049915071962155533880000012631947129915898755_);enable-background:new    ;" d="
		M289.8,206.4l190.8,110.1v101L289.8,307.4L289.8,206.4z"/>
	
		<linearGradient id="Path-7_00000132780756302181921350000005464951102523248797_" gradientUnits="userSpaceOnUse" x1="-658.2977" y1="841.8688" x2="-658.2741" y2="841.3306" gradientTransform="matrix(299.9 0 0 -331.8 197779.3125 279559.25)">
		<stop  offset="0" style="stop-color:#FFFFFF"/>
		<stop  offset="1" style="stop-color:#FFFFFF;stop-opacity:0"/>
	</linearGradient>
	
		<path id="Path-7" style="opacity:0.3;fill:url(#Path-7_00000132780756302181921350000005464951102523248797_);enable-background:new    ;" d="
		M264.3,219.2l190.8,110.1v101L264.3,320.1V219.2z"/>
	<path id="Path-8" className="st3" d="M281.4,279.3c0,8.1,4.8,17.5,10.8,20.9c5.9,3.4,10.8-0.4,10.8-8.5c0-8.1-4.8-17.5-10.8-20.9
		C286.3,267.3,281.4,271.1,281.4,279.3z"/>
	<path id="Path-9" className="st6" d="M308.3,295c0,3.8,2.2,8.1,5,9.7c2.7,1.6,5-0.2,5-3.9c0-3.8-2.2-8.1-5-9.7
		C310.6,289.5,308.3,291.2,308.3,295z"/>
	<path id="Path-10" className="st6" d="M323.7,303.8c0,3.8,2.2,8.1,5,9.7c2.7,1.6,5-0.2,5-3.9c0-3.8-2.2-8.1-5-9.7
		C325.9,298.3,323.7,300.1,323.7,303.8z"/>
	<path id="Path-11" className="st6" d="M407,321v57.5l-7.5-4.3v-57.5L407,321z"/>
	<path id="Path-12" className="st6" d="M423.4,330.6V388l-7.5-4.3v-57.5L423.4,330.6z"/>
	<path id="Path-13" className="st6" d="M439.9,340.1v57.5l-7.5-4.3v-57.5L439.9,340.1z"/>
	
		<linearGradient id="Path-14_00000127742233717916804330000011283420184582584241_" gradientUnits="userSpaceOnUse" x1="-658.3461" y1="842.0847" x2="-658.3226" y2="841.5464" gradientTransform="matrix(299.9 0 0 -331.8 197819.3125 279756.1562)">
		<stop  offset="0" style="stop-color:#FFFFFF"/>
		<stop  offset="1" style="stop-color:#FFFFFF;stop-opacity:0"/>
	</linearGradient>
	
		<path id="Path-14" style="opacity:7.000000e-02;fill:url(#Path-14_00000127742233717916804330000011283420184582584241_);enable-background:new    ;" d="
		M289.8,344.4l190.8,110.1v101L289.8,445.4V344.4z"/>
	
		<linearGradient id="Path-15_00000033338513340550414060000011797732539827052165_" gradientUnits="userSpaceOnUse" x1="-658.2977" y1="842.1077" x2="-658.2741" y2="841.5694" gradientTransform="matrix(299.9 0 0 -331.8 197779.3125 279777.1562)">
		<stop  offset="0" style="stop-color:#FFFFFF"/>
		<stop  offset="1" style="stop-color:#FFFFFF;stop-opacity:0"/>
	</linearGradient>
	
		<path id="Path-15" style="opacity:0.3;fill:url(#Path-15_00000033338513340550414060000011797732539827052165_);enable-background:new    ;" d="
		M264.3,357.8l190.8,110.1v101L264.3,458.8V357.8z"/>
	<path id="Path-16" className="st3" d="M281.4,417.9c0,8.1,4.8,17.5,10.8,20.9c5.9,3.4,10.8-0.4,10.8-8.5s-4.8-17.5-10.8-20.9
		C286.3,406,281.4,409.8,281.4,417.9z"/>
	<path id="Path-17" className="st6" d="M308.3,433.7c0,3.8,2.2,8.1,5,9.7c2.7,1.6,5-0.2,5-3.9c0-3.8-2.2-8.1-5-9.7
		C310.6,428.2,308.3,429.9,308.3,433.7z"/>
	<path id="Path-18" className="st6" d="M323.6,442.6c0,3.8,2.2,8.1,5,9.7c2.7,1.6,5-0.2,5-3.9c0-3.8-2.2-8.1-5-9.7
		C325.8,437,323.6,438.7,323.6,442.6z"/>
	<path id="Path-19" className="st6" d="M407,461.6v57.5l-7.5-4.3v-57.5L407,461.6z"/>
	<path id="Path-20" className="st6" d="M423.4,471.2v57.5l-7.5-4.3v-57.5L423.4,471.2z"/>
	<path id="Path-21" className="st6" d="M439.9,480.7v57.5l-7.5-4.3v-57.5L439.9,480.7z"/>
	
		<linearGradient id="Path-22_00000133498564484571264060000016269072073786504095_" gradientUnits="userSpaceOnUse" x1="-657.2612" y1="841.6102" x2="-657.8256" y2="841.2074" gradientTransform="matrix(186.9 0 0 -454.2 123068.6172 382348.25)">
		<stop  offset="0" style="stop-color:#FFFFFF"/>
		<stop  offset="1" style="stop-color:#FFFFFF;stop-opacity:0"/>
	</linearGradient>
	
		<path id="Path-22" style="opacity:0.3;fill:url(#Path-22_00000133498564484571264060000016269072073786504095_);enable-background:new    ;" d="
		M94.9,69.6l118.9,68.7v220.3L94.9,289.8V69.6z"/>
	<path id="Path-23" className="st10" d="M168.3,149.4c0,11-6.4,16.2-14.2,11.6c-7.8-4.6-14.2-17.2-14.2-28.2s6.4-16.2,14.2-11.6
		C161.9,125.8,168.3,138.4,168.3,149.4z"/>
	<path id="Path-24" className="st10" d="M154.1,169.8c-12.7-7.4-23.1-0.4-24.9,15.5c-0.3,2.7,1.8,6.4,4.3,7.9l41.3,24.1
		c2.5,1.5,4.6,0.3,4.3-2.9C177.2,196.3,166.7,177.2,154.1,169.8z"/>
	<path id="Path-25" className="st6" d="M118.7,212.5l70.9,40.9v8.7l-70.9-40.9V212.5z"/>
	<path id="Path-26" className="st6" d="M125.9,233.8l56.2,32.4v8.7l-56.2-32.4V233.8z"/>
	<path id="Path-27" className="st10" d="M140.2,270.2l-82.7-47.8V247l82.7,47.8V270.2z"/>
	
		<linearGradient id="Path-28_00000138559102848057170080000010792383172090383550_" gradientUnits="userSpaceOnUse" x1="-656.879" y1="841.1366" x2="-657.4135" y2="840.9966" gradientTransform="matrix(60.3891 0 0 -128.645 39920.3555 108284.7031)">
		<stop  offset="0" style="stop-color:#FFFFFF"/>
		<stop  offset="1" style="stop-color:#FFFFFF;stop-opacity:0"/>
	</linearGradient>
	
		<path id="Path-28" style="opacity:0.2;fill:url(#Path-28_00000138559102848057170080000010792383172090383550_);enable-background:new    ;" d="
		M239.4,41.6l17.7,34.7c2.4,4.8,2,9.5-0.9,10.7c-2.9,1.1-7.3-1.8-9.7-6.6l-0.2-0.4v38.6c0,4.4-3.1,6.2-6.9,4
		c-3.8-2.2-6.9-7.5-6.9-11.9V72.1l-0.2,0.2c-2.4,2-6.8-0.1-9.7-4.6c-2.9-4.5-3.3-9.7-0.9-11.7L239.4,41.6z"/>
	
		<linearGradient id="Path-29_00000114785247665368964320000005865482111665620659_" gradientUnits="userSpaceOnUse" x1="-657.2933" y1="842.9607" x2="-656.7588" y2="843.1006" gradientTransform="matrix(60.3891 0 0 -128.645 39920.1523 108962.2656)">
		<stop  offset="0" style="stop-color:#FFFFFF"/>
		<stop  offset="1" style="stop-color:#FFFFFF;stop-opacity:0"/>
	</linearGradient>
	
		<path id="Path-29" style="opacity:0.2;fill:url(#Path-29_00000114785247665368964320000005865482111665620659_);enable-background:new    ;" d="
		M239.4,554.6l-17.7-34.7c-2.4-4.8-2-9.5,0.9-10.7c2.9-1.1,7.3,1.8,9.7,6.6l0.2,0.4v-38.6c0-4.4,3.1-6.2,6.9-4
		c3.8,2.2,6.9,7.5,6.9,11.9v38.6l0.2-0.2c2.4-2,6.8,0.1,9.7,4.6c2.9,4.5,3.3,9.7,0.9,11.7L239.4,554.6z"/>
</g>
</svg>
