<?xml version="1.0" encoding="utf-8"?>
<!-- Generator: Adobe Illustrator 26.0.2, SVG Export Plug-In . SVG Version: 6.00 Build 0)  -->
<svg version="1.1" id="Layer_1" xmlns="http://www.w3.org/2000/svg" xmlns:xlink="http://www.w3.org/1999/xlink" x="0px" y="0px"
	 viewBox="0 0 601 600" style="enable-background:new 0 0 601 600;" xml:space="preserve">
<style type="text/css">
	.st0{opacity:7.000000e-02;fill:url(#Path_00000054968570319935969220000005537817484470939824_);enable-background:new    ;}
	.st1{opacity:7.000000e-02;fill:url(#Path-2_00000127726145979999149100000013372510824296172424_);enable-background:new    ;}
	.st2{opacity:0.4;fill:url(#Path-3_00000021110516876857180040000013434075213538924942_);enable-background:new    ;}
	.st3{opacity:0.4;fill:url(#Path-4_00000074404091346533936280000002174292141030763154_);enable-background:new    ;}
	.st4{opacity:0.15;fill:url(#Path-5_00000106827719026518669580000001574883795373150626_);enable-background:new    ;}
	.st5{fill:#EF4D4D;}
	.st6{opacity:0.15;fill:#FFFFFF;enable-background:new    ;}
	.st7{opacity:0.2;fill:url(#Path-10_00000037673750515552542040000005846637583878634927_);enable-background:new    ;}
	.st8{opacity:0.2;fill:#FFFFFF;enable-background:new    ;}
	.st9{opacity:0.15;fill:url(#Path-12_00000143591198004896114720000000560680377331388818_);enable-background:new    ;}
	.st10{fill:#EF4B4B;}
	.st11{opacity:0.2;fill:url(#Path-17_00000042711884405258871160000015890742472454443397_);enable-background:new    ;}
	.st12{opacity:0.3;fill:url(#Path-19_00000111887881649525082260000013910204409533001877_);enable-background:new    ;}
	.st13{opacity:0.2;fill:url(#Path-27_00000049910283975028880360000006328359683288572321_);enable-background:new    ;}
	.st14{opacity:0.5;fill:url(#Path-28_00000096747760427445297000000006295976830444955042_);enable-background:new    ;}
	.st15{opacity:0.5;fill:url(#Path-29_00000158002031961611006150000017717141422028881817_);enable-background:new    ;}
	.st16{opacity:7.000000e-02;fill:url(#Path-30_00000081619028848564525760000005684031729322242495_);enable-background:new    ;}
	.st17{opacity:7.000000e-02;fill:url(#Path-31_00000015326930098910317180000015302587669662105770_);enable-background:new    ;}
</style>
<g id="Illustration" transform="translate(-0.8 197.047)">
	
		<linearGradient id="Path_00000015342366923077606510000005784379032939330209_" gradientUnits="userSpaceOnUse" x1="-657.5135" y1="644.364" x2="-658.4513" y2="643.9852" gradientTransform="matrix(101.057 0 0 -433.4595 66927.0078 279354.125)">
		<stop  offset="0" style="stop-color:#FFFFFF"/>
		<stop  offset="1" style="stop-color:#FFFFFF;stop-opacity:0"/>
	</linearGradient>
	
		<path id="Path" style="opacity:7.000000e-02;fill:url(#Path_00000015342366923077606510000005784379032939330209_);enable-background:new    ;" d="
		M456.5,194.2c-4.9-2.8-8.4-2.9-10.6-0.2c-2.2,2.7-3.3,7.1-3.3,13.5v34.1c0,6.5-0.6,11.9-1.8,16.1c-1.2,4.4-3.2,7.6-6,9.4
		c-2.7,1.9-6.4,2.4-11.1,1.5c-4.6-0.8-10.3-3.2-17.1-7.2l-3.3-1.9v-26.9l4.1,2.3c4.9,2.8,8.1,3.2,9.8,1.1c1.7-2,2.6-6.2,2.6-12.5
		v-30.1c0-7.8,0.8-14,2.3-18.6c1.5-4.6,4.6-7.5,9.1-8.8c-4.6-6.6-7.6-13-9.1-19.3c-1.5-6.3-2.3-13.4-2.3-21.2V95.6
		c0-6.3-0.9-11.5-2.6-15.5c-1.6-4-4.9-7.3-9.8-10.2l-4.1-2.3V40.7l3.3,1.9c6.8,4,12.5,8.2,17.1,12.6c4.4,4.2,8.2,9,11.1,14.3
		c2.8,5.1,4.9,10.6,6,16.4c1.2,6,1.8,12.1,1.8,18.2v34.1c0,6.3,1.1,12.1,3.3,17.2c2.1,5.1,5.8,9.3,10.6,12L456.5,194.2z"/>
	
		<linearGradient id="Path-2_00000011752244010172578760000002990428023055286457_" gradientUnits="userSpaceOnUse" x1="-656.6359" y1="644.3372" x2="-657.5737" y2="643.9584" gradientTransform="matrix(101.057 0 0 -433.4821 66792.7812 279330.0938)">
		<stop  offset="0" style="stop-color:#FFFFFF"/>
		<stop  offset="1" style="stop-color:#FFFFFF;stop-opacity:0"/>
	</linearGradient>
	
		<path id="Path-2" style="opacity:7.000000e-02;fill:url(#Path-2_00000011752244010172578760000002990428023055286457_);enable-background:new    ;" d="
		M332.6,95.2c4.9,2.8,8.4,2.9,10.6,0.2c2.2-2.7,3.3-7.1,3.3-13.5V47.8c0-6.5,0.6-11.9,1.8-16.1c1.2-4.4,3.1-7.6,5.9-9.5
		c2.8-1.8,6.5-2.3,11.1-1.5c4.7,0.9,10.4,3.3,17.3,7.3l3.3,1.9v26.9l-4.1-2.3c-4.9-2.8-8.2-3.2-9.9-1.2c-1.6,2.1-2.5,6.3-2.5,12.6
		v30.1c0,7.8-0.8,14-2.3,18.6c-1.5,4.5-4.6,7.5-9.1,8.8c4.6,6.6,7.6,13,9.1,19.3c1.5,6.3,2.3,13.4,2.3,21.2v30.1
		c0,6.3,0.8,11.5,2.5,15.4c1.7,4,5.1,7.5,9.9,10.3l4.1,2.3v26.9l-3.3-1.9c-6.2-3.5-12.1-7.8-17.3-12.7c-4.4-4.2-8.1-9-11.1-14.3
		c-2.8-5.1-4.7-10.6-5.9-16.3c-1.2-6-1.8-12.1-1.8-18.2v-34.1c0-6.3-1.1-12.1-3.3-17.2c-2.1-5.1-5.8-9.3-10.6-12L332.6,95.2z"/>
	
		<linearGradient id="Path-3_00000040561511695175269440000010028783544927179183_" gradientUnits="userSpaceOnUse" x1="-657.377" y1="644.3878" x2="-658.3148" y2="644.009" gradientTransform="matrix(101.057 0 0 -433.4595 66897.8438 279376)">
		<stop  offset="0" style="stop-color:#FFFFFF"/>
		<stop  offset="1" style="stop-color:#FFFFFF;stop-opacity:0"/>
	</linearGradient>
	
		<path id="Path-3" style="opacity:0.4;fill:url(#Path-3_00000040561511695175269440000010028783544927179183_);enable-background:new    ;" d="
		M441.1,205.7c-4.9-2.8-8.4-2.9-10.6-0.2c-2.2,2.7-3.3,7.1-3.3,13.5v34.1c0,6.5-0.6,11.9-1.8,16.1c-1.2,4.4-3.2,7.6-6,9.4
		c-2.7,1.9-6.4,2.4-11.1,1.5c-4.6-0.8-10.3-3.2-17.1-7.2l-3.3-1.9v-26.9l4.1,2.3c4.9,2.8,8.1,3.2,9.8,1.1c1.7-2,2.6-6.2,2.6-12.5
		V205c0-7.8,0.8-14,2.3-18.6c1.5-4.6,4.6-7.5,9.1-8.8c-4.6-6.6-7.6-13-9.1-19.3c-1.5-6.3-2.3-13.4-2.3-21.2v-30.1
		c0-6.3-0.9-11.5-2.6-15.5c-1.6-4-4.9-7.3-9.8-10.2l-4.1-2.3V52.2l3.3,1.9c6.8,4,12.5,8.2,17.1,12.6c4.4,4.2,8.2,9,11.1,14.3
		c2.8,5.1,4.9,10.6,6,16.4c1.2,6,1.8,12.1,1.8,18.2v34.1c0,6.3,1.1,12.1,3.3,17.2c2.1,5.1,5.8,9.3,10.6,12L441.1,205.7z"/>
	
		<linearGradient id="Path-4_00000179631797332221008720000015622504746028376737_" gradientUnits="userSpaceOnUse" x1="-656.4994" y1="644.3611" x2="-657.4371" y2="643.9823" gradientTransform="matrix(101.057 0 0 -433.4821 66763.6172 279351.9688)">
		<stop  offset="0" style="stop-color:#FFFFFF"/>
		<stop  offset="1" style="stop-color:#FFFFFF;stop-opacity:0"/>
	</linearGradient>
	
		<path id="Path-4" style="opacity:0.4;fill:url(#Path-4_00000179631797332221008720000015622504746028376737_);enable-background:new    ;" d="
		M317.3,106.8c4.9,2.8,8.4,2.9,10.6,0.2c2.2-2.7,3.3-7.1,3.3-13.5V59.4c0-6.5,0.6-11.9,1.8-16.1c1.2-4.4,3.1-7.6,5.9-9.5
		c2.8-1.8,6.5-2.3,11.1-1.5c4.7,0.9,10.4,3.3,17.3,7.3l3.3,1.9v26.9l-4.1-2.3c-4.9-2.8-8.2-3.2-9.9-1.2c-1.6,2.1-2.5,6.3-2.5,12.6
		v30.1c0,7.8-0.8,14-2.3,18.6c-1.5,4.5-4.6,7.5-9.1,8.8c4.6,6.6,7.6,13,9.1,19.3c1.5,6.3,2.3,13.4,2.3,21.2v30.1
		c0,6.3,0.8,11.5,2.5,15.4c1.7,4,5.1,7.5,9.9,10.3l4.1,2.3v26.9l-3.3-1.9c-6.2-3.5-12.1-7.8-17.3-12.7c-4.4-4.2-8.1-9-11.1-14.3
		c-2.8-5.1-4.7-10.6-5.9-16.3c-1.2-6-1.8-12.1-1.8-18.2v-34.1c0-6.3-1.1-12.1-3.3-17.2c-2.1-5.1-5.8-9.3-10.6-12L317.3,106.8z"/>
	
		<linearGradient id="Path-5_00000039839570275726230770000015431103882342791575_" gradientUnits="userSpaceOnUse" x1="-656.6441" y1="644.0193" x2="-657.1467" y2="643.7259" gradientTransform="matrix(171 0 0 -508 112578.1016 327144.8125)">
		<stop  offset="0" style="stop-color:#FFFFFF"/>
		<stop  offset="1" style="stop-color:#FFFFFF;stop-opacity:0"/>
	</linearGradient>
	
		<path id="Path-5" style="opacity:0.15;fill:url(#Path-5_00000039839570275726230770000015431103882342791575_);enable-background:new    ;" d="
		M200.3-69.9l90,52l-0.1,215.6l-90-52L200.3-69.9z"/>
	<path id="Path-6" className="st5" d="M183.4-36.8L255,4.6v19.9l-71.6-41.4V-36.8z"/>
	<path id="Path-7" className="st6" d="M211.4,49.4l68.8,39.7V120l-68.8-39.7V49.4z"/>
	<path id="Path-8" className="st6" d="M211.4,12.1l68.9,39.8V59l-68.9-39.7V12.1z"/>
	<path id="Path-9" className="st6" d="M211.4,26.1L271,60.5v7.2l-59.6-34.4V26.1z"/>
	
		<linearGradient id="Path-10_00000002361843367922213320000017309074617232863118_" gradientUnits="userSpaceOnUse" x1="-656.9994" y1="644.5143" x2="-656.8387" y2="644.0079" gradientTransform="matrix(170.9 0 0 -153.6 112512.375 98927.8828)">
		<stop  offset="0" style="stop-color:#FFFFFF"/>
		<stop  offset="1" style="stop-color:#FFFFFF;stop-opacity:0"/>
	</linearGradient>
	
		<path id="Path-10" style="opacity:0.2;fill:url(#Path-10_00000002361843367922213320000017309074617232863118_);enable-background:new    ;" d="
		M200.3-69.9l90,52V11l-90-52V-69.9z"/>
	<path id="Path-11" className="st8" d="M222.8-42.3c0,4.4-2.6,6.4-5.7,4.6c-3.2-1.8-5.7-6.8-5.7-11.2s2.6-6.4,5.7-4.6
		C220.2-51.7,222.8-46.7,222.8-42.3z"/>
	
		<linearGradient id="Path-12_00000054228573829076166640000006963660394599337907_" gradientUnits="userSpaceOnUse" x1="-657.2252" y1="644.3728" x2="-657.7278" y2="644.0793" gradientTransform="matrix(171 0 0 -508 112788.1016 327524.3125)">
		<stop  offset="0" style="stop-color:#FFFFFF"/>
		<stop  offset="1" style="stop-color:#FFFFFF;stop-opacity:0"/>
	</linearGradient>
	
		<path id="Path-12" style="opacity:0.15;fill:url(#Path-12_00000054228573829076166640000006963660394599337907_);enable-background:new    ;" d="
		M311,130l90,52l-0.1,215.6l-90-52L311,130z"/>
	<path id="Path-13" className="st10" d="M345.2,192.8l71.6,41.3v19.8l-71.7-41.3L345.2,192.8z"/>
	<path id="Path-14" className="st6" d="M322.1,213.3l68.9,39.8v30.8l-68.9-39.8V213.3z"/>
	<path id="Path-15" className="st6" d="M322,257.3l68.9,39.8v7.2L322,264.5V257.3z"/>
	<path id="Path-16" className="st6" d="M322,270.3l59.6,34.4v7.2L322,277.4V270.3z"/>
	
		<linearGradient id="Path-17_00000026883884309966967140000012026369445721076098_" gradientUnits="userSpaceOnUse" x1="-657.5807" y1="645.6828" x2="-657.42" y2="645.177" gradientTransform="matrix(170.9 0 0 -153.6 112722.375 99307.3828)">
		<stop  offset="0" style="stop-color:#FFFFFF"/>
		<stop  offset="1" style="stop-color:#FFFFFF;stop-opacity:0"/>
	</linearGradient>
	
		<path id="Path-17" style="opacity:0.2;fill:url(#Path-17_00000026883884309966967140000012026369445721076098_);enable-background:new    ;" d="
		M311,130l90,52v28.9l-90-52V130z"/>
	<path id="Path-18" className="st8" d="M333.4,157.7c0,4.4-2.6,6.4-5.7,4.6c-3.2-1.8-5.7-6.8-5.7-11.2c0-4.4,2.6-6.4,5.7-4.6
		C330.9,148.3,333.4,153.3,333.4,157.7z"/>
	
		<linearGradient id="Path-19_00000067958829924017239520000014062900892900234129_" gradientUnits="userSpaceOnUse" x1="-656.9727" y1="644.3066" x2="-657.2451" y2="644.1259" gradientTransform="matrix(297.7 0 0 -350.6 195855.0312 226051.125)">
		<stop  offset="0" style="stop-color:#FFFFFF"/>
		<stop  offset="1" style="stop-color:#FFFFFF;stop-opacity:0"/>
	</linearGradient>
	
		<path id="Path-19" style="opacity:0.3;fill:url(#Path-19_00000067958829924017239520000014062900892900234129_);enable-background:new    ;" d="
		M308.4,189.9L151.6,99.4l0.1,81.7l142.9,82.5l13.9,20.5L308.4,189.9z"/>
	<path id="Path-20" className="st6" d="M268.1,186.5l-34.4-19.8v7.2l34.4,19.8V186.5z"/>
	<path id="Path-21" className="st6" d="M268.1,200.9l-85-49.1v7.2l85.1,49.1L268.1,200.9z"/>
	<path id="Path-22" className="st6" d="M268.1,215.3L165.4,156v7.2l102.7,59.3V215.3z"/>
	<path id="Path-23" className="st10" d="M276.5,198.9c0,6.7,4,14.5,8.9,17.3s8.9-0.3,8.9-7.1c0-6.7-4-14.5-8.9-17.3
		C280.5,189,276.5,192.2,276.5,198.9z"/>
	<path id="Path-24" className="st6" d="M154.1,12.1L133.4,0v-7l20.8,12c2.5,1.5,4.6,3.6,6.3,6c2.5,3.5,3.8,7.6,3.9,11.9
		c0,5-1.3,7.7-3.6,8.6c-2.3,0.7-4.9-0.5-6.5-1.5l-8.5-5l-0.1-0.1c-0.7-0.4-1.9-0.8-2.8-0.6c-0.7,0.2-1.6,1-1.6,3.7s0.8,4.4,1.6,5.4
		c0.7,1,1.7,1.9,2.8,2.5l0.1,0.1l26.1,15.1v7l-26-15c-2.6-1.5-4.9-3.5-6.6-6c-2.6-3.7-4.1-8.1-4.1-12.6c0-4.8,1.7-7.3,4.1-8
		c2.2-0.6,4.8,0.3,6.6,1.4l8.5,4.9c1.2,0.7,2.2,1,2.7,0.8c0.5-0.2,1.3-0.8,1.3-4.4c0-1.7-0.5-3.4-1.5-4.8
		C156,13.5,155.1,12.7,154.1,12.1z"/>
	<path id="Path-25" className="st5" d="M139.5,0.8c0,6-3.5,8.8-7.9,6.3c-4.3-2.5-7.9-9.4-7.9-15.4s3.5-8.8,7.9-6.3
		C136-12.1,139.5-5.2,139.5,0.8z"/>
	<path id="Path-26" className="st5" d="M181.1,58.7c0,6-3.5,8.8-7.9,6.3c-4.3-2.5-7.9-9.4-7.9-15.4s3.5-8.8,7.9-6.3
		C177.6,45.9,181.1,52.8,181.1,58.7z"/>
	
		<linearGradient id="Path-27_00000111179318409763182620000002020954684626019990_" gradientUnits="userSpaceOnUse" x1="-655.8787" y1="646.9718" x2="-656.2086" y2="646.7811" gradientTransform="matrix(83.6 0 0 -114.1518 55079.625 74115.4922)">
		<stop  offset="0" style="stop-color:#FFFFFF"/>
		<stop  offset="1" style="stop-color:#FFFFFF;stop-opacity:0"/>
	</linearGradient>
	
		<path id="Path-27" style="opacity:0.2;fill:url(#Path-27_00000111179318409763182620000002020954684626019990_);enable-background:new    ;" d="
		M237.1,241.9c3.2,1.8,5.7,6.2,5.7,9.9v16.1l10.6,6.1c3.2,1.8,5.7,6.2,5.7,9.9c0,3.6-2.6,5.1-5.7,3.3l-10.6-6.1v16.1
		c0,3.6-2.6,5.1-5.7,3.3c-3.2-1.8-5.7-6.2-5.7-9.9v-16.1l-10.6-6.1c-3.2-1.8-5.7-6.2-5.7-9.9c0-3.6,2.6-5.1,5.7-3.3l10.6,6.1v-16.1
		C231.5,241.6,234,240.1,237.1,241.9z"/>
</g>
<linearGradient id="Path-28_00000126296322923942029660000001265277269107564194_" gradientUnits="userSpaceOnUse" x1="-657.3737" y1="841.5687" x2="-657.9153" y2="841.182" gradientTransform="matrix(326.8078 0 0 -333.6975 215452.1875 280984.25)">
	<stop  offset="0" style="stop-color:#FFFFFF"/>
	<stop  offset="1" style="stop-color:#FFFFFF;stop-opacity:0"/>
</linearGradient>
<path id="Path-28" style="opacity:0.5;fill:url(#Path-28_00000126296322923942029660000001265277269107564194_);enable-background:new    ;" d="
	M437.6,196.3c-43.6-25.4-79.6-1.6-86,53.2c-1.1,9.5,6.1,22.1,14.9,27.2l142.2,83c8.7,5.1,16,1,14.9-9.8
	C517.2,287.6,481.1,221.7,437.6,196.3z"/>
<linearGradient id="Path-29_00000019660656571866530660000013929412107029571250_" gradientUnits="userSpaceOnUse" x1="-657.0002" y1="841.0091" x2="-657.9532" y2="840.5518" gradientTransform="matrix(185.7 0 0 -282.0192 122532.0703 237211.6406)">
	<stop  offset="0" style="stop-color:#FFFFFF"/>
	<stop  offset="1" style="stop-color:#FFFFFF;stop-opacity:0"/>
</linearGradient>
<path id="Path-29" style="opacity:0.5;fill:url(#Path-29_00000019660656571866530660000013929412107029571250_);enable-background:new    ;" d="
	M486.1,125c0,37.9-21.9,55.8-48.9,40c-27-15.8-48.9-59.2-48.9-97.1s21.9-55.8,48.9-40C464.3,43.7,486.1,87.2,486.1,125z"/>
<linearGradient id="Path-30_00000155829946601729770030000009293711664157512122_" gradientUnits="userSpaceOnUse" x1="-657.4316" y1="841.5262" x2="-657.9732" y2="841.1395" gradientTransform="matrix(326.8078 0 0 -333.6975 215492.1875 280954.25)">
	<stop  offset="0" style="stop-color:#FFFFFF"/>
	<stop  offset="1" style="stop-color:#FFFFFF;stop-opacity:0"/>
</linearGradient>
<path id="Path-30" style="opacity:7.000000e-02;fill:url(#Path-30_00000155829946601729770030000009293711664157512122_);enable-background:new    ;" d="
	M458.6,180.5c-43.6-25.4-79.6-1.6-86,53.2c-1.1,9.5,6.1,22.1,14.9,27.2l142.2,83c8.7,5.1,16,1,14.9-9.8
	C538.2,271.8,502.2,205.9,458.6,180.5z"/>
<linearGradient id="Path-31_00000154389781907160007800000003412459253830757769_" gradientUnits="userSpaceOnUse" x1="-657.1021" y1="840.9587" x2="-658.0552" y2="840.5015" gradientTransform="matrix(185.7 0 0 -282.0192 122572.0703 237181.6406)">
	<stop  offset="0" style="stop-color:#FFFFFF"/>
	<stop  offset="1" style="stop-color:#FFFFFF;stop-opacity:0"/>
</linearGradient>
<path id="Path-31" style="opacity:7.000000e-02;fill:url(#Path-31_00000154389781907160007800000003412459253830757769_);enable-background:new    ;" d="
	M507.2,109.2c0,37.9-21.9,55.8-48.9,40c-27-15.8-48.9-59.2-48.9-97.1s21.9-55.8,48.9-40C485.4,27.9,507.2,71.4,507.2,109.2z"/>
</svg>
