<?xml version="1.0" encoding="utf-8"?>
<!-- Generator: Adobe Illustrator 26.0.3, SVG Export Plug-In . SVG Version: 6.00 Build 0)  -->
<svg version="1.1" id="Layer_1" xmlns="http://www.w3.org/2000/svg" xmlns:xlink="http://www.w3.org/1999/xlink" x="0px" y="0px"
	 viewBox="0 0 112 96" style="enable-background:new 0 0 112 96;" xml:space="preserve">
<style type="text/css">
	.st0{fill:url(#SVGID_1_);filter:url(#Adobe_OpacityMaskFilter);}
	.st1{mask:url(#mask0_00000030444412759283003460000012221295531454307470_);}
	.st2{opacity:0.1;}
	.st3{fill:none;stroke:#111827;stroke-width:2;}
	.st4{opacity:0.2;}
	.st5{fill:#EE2424;}
	.st6{fill:#FFFFFF;}
	.st7{fill:none;stroke:#121826;stroke-opacity:8.000000e-02;}
	.st8{fill:#F3F4F6;}
	.st9{fill:none;stroke:#EE2424;stroke-width:2;}
	.st10{fill:none;stroke:#EE2424;stroke-width:2;stroke-linecap:round;}
</style>
<defs>
	<filter id="Adobe_OpacityMaskFilter" filterUnits="userSpaceOnUse" x="7" y="0" width="98" height="98">
		<feColorMatrix  type="matrix" values="1 0 0 0 0  0 1 0 0 0  0 0 1 0 0  0 0 0 1 0"/>
	</filter>
</defs>
<mask maskUnits="userSpaceOnUse" x="7" y="0" width="98" height="98" id="mask0_00000030444412759283003460000012221295531454307470_">
	
		<radialGradient id="SVGID_1_" cx="-243.971" cy="448.4147" r="1" gradientTransform="matrix(4.225032e-15 69 72.9204 -4.465087e-15 -32642.5801 16882)" gradientUnits="userSpaceOnUse">
		<stop  offset="0.2319" style="stop-color:#C4C4C4"/>
		<stop  offset="0.7246" style="stop-color:#C4C4C4;stop-opacity:0"/>
	</radialGradient>
	<rect x="4" y="4" class="st0" width="104" height="88"/>
</mask>
<g class="st1">
	<g class="st2">
		<circle class="st3" cx="56" cy="49" r="40"/>
	</g>
	<g class="st2">
		<circle class="st3" cx="56" cy="49" r="48"/>
	</g>
	<g class="st2">
		<circle class="st3" cx="56" cy="49" r="32"/>
	</g>
	<g class="st2">
		<circle class="st3" cx="56" cy="49" r="24"/>
	</g>
	<g class="st2">
		<circle class="st3" cx="56" cy="49" r="16"/>
	</g>
	<g class="st4">
		<path class="st5" d="M34,71h44l5.1-10.2c1.3-2.7-0.6-5.8-3.6-5.8H32.5c-3,0-4.9,3.1-3.6,5.8L34,71z"/>
	</g>
	<g>
		<path class="st6" d="M32,27h48c2.2,0,4,1.8,4,4v32c0,2.2-1.8,4-4,4H32c-2.2,0-4-1.8-4-4V31C28,28.8,29.8,27,32,27z"/>
		<path class="st7" d="M32,26.5h48c2.5,0,4.5,2,4.5,4.5v32c0,2.5-2,4.5-4.5,4.5H32c-2.5,0-4.5-2-4.5-4.5V31
			C27.5,28.5,29.5,26.5,32,26.5z"/>
	</g>
	<path class="st8" d="M83,35L36,66h44c1.7,0,3-1.3,3-3V35z"/>
	<path class="st9" d="M30,47h52"/>
	<path class="st9" d="M56,29v36"/>
	<path class="st9" d="M65.1,42.1c-1.2,1.2-8.6,5.4-9.1,4.9s3.7-7.9,4.9-9.1c1.2-1.2,3.1-1.2,4.2,0C66.3,39.1,66.3,40.9,65.1,42.1z"
		/>
	<path class="st9" d="M47,42.1c1.2,1.2,8.5,5.4,9,4.9s-3.6-7.9-4.8-9.1c-1.2-1.2-3.1-1.2-4.2,0C45.8,39.1,45.8,40.9,47,42.1z"/>
	<path class="st10" d="M61,52l-5-5l-5,5"/>
</g>
</svg>
