<?xml version="1.0" encoding="utf-8"?>
<!-- Generator: Adobe Illustrator 26.0.3, SVG Export Plug-In . SVG Version: 6.00 Build 0)  -->
<svg version="1.1" id="Layer_1" xmlns="http://www.w3.org/2000/svg" xmlns:xlink="http://www.w3.org/1999/xlink" x="0px" y="0px"
	 viewBox="0 0 112 96" style="enable-background:new 0 0 112 96;" xml:space="preserve">
<style type="text/css">
	.st0{fill:url(#SVGID_1_);filter:url(#Adobe_OpacityMaskFilter);}
	.st1{mask:url(#mask0_00000009551457442528323240000015692323886424388483_);}
	.st2{opacity:0.1;}
	.st3{fill:none;stroke:#111827;stroke-width:2;}
	.st4{fill:#FFFFFF;}
	.st5{fill:none;stroke:#121826;stroke-width:0.8889;stroke-opacity:8.000000e-02;}
	.st6{fill:#FFFFFF;filter:url(#Adobe_OpacityMaskFilter_00000031206210435997844390000005307751430222997153_);}
	.st7{mask:url(#mask1_00000016793576608166912090000011020305136675910572_);}
	.st8{fill:#E5E7EB;}
	.st9{fillRule:evenodd;clipRule:evenodd;fill:#EE2424;}
	.st10{fill:none;stroke:#EE2424;stroke-miterlimit:10;}
</style>
<defs>
	<filter id="Adobe_OpacityMaskFilter" filterUnits="userSpaceOnUse" x="7" y="0" width="98" height="98">
		<feColorMatrix  type="matrix" values="1 0 0 0 0  0 1 0 0 0  0 0 1 0 0  0 0 0 1 0"/>
	</filter>
</defs>
<mask maskUnits="userSpaceOnUse" x="7" y="0" width="98" height="98" id="mask0_00000009551457442528323240000015692323886424388483_">
	
		<radialGradient id="SVGID_1_" cx="-243.971" cy="448.4147" r="1" gradientTransform="matrix(4.225032e-15 69 72.9204 -4.465087e-15 -32642.5801 16882)" gradientUnits="userSpaceOnUse">
		<stop  offset="0.2319" style="stop-color:#C4C4C4"/>
		<stop  offset="0.7246" style="stop-color:#C4C4C4;stop-opacity:0"/>
	</radialGradient>
	<rect x="4" y="4" className="st0" width="104" height="88"/>
</mask>
<g className="st1">
	<g className="st2">
		<circle className="st3" cx="56" cy="49" r="40"/>
	</g>
	<g className="st2">
		<circle className="st3" cx="56" cy="49" r="48"/>
	</g>
	<g className="st2">
		<circle className="st3" cx="56" cy="49" r="32"/>
	</g>
	<g className="st2">
		<circle className="st3" cx="56" cy="49" r="16"/>
	</g>
	<g>
		<circle className="st4" cx="56" cy="49" r="24"/>
		<circle className="st5" cx="56" cy="49" r="24.4"/>
	</g>
	<defs>
		
			<filter id="Adobe_OpacityMaskFilter_00000023250905185868694570000008295580896213777030_" filterUnits="userSpaceOnUse" x="27.5" y="22.9" width="60.5" height="45.2">
			<feColorMatrix  type="matrix" values="1 0 0 0 0  0 1 0 0 0  0 0 1 0 0  0 0 0 1 0"/>
		</filter>
	</defs>
	
		<mask maskUnits="userSpaceOnUse" x="27.5" y="22.9" width="60.5" height="45.2" id="mask1_00000016793576608166912090000011020305136675910572_">
		
			<circle style="fill:#FFFFFF;filter:url(#Adobe_OpacityMaskFilter_00000023250905185868694570000008295580896213777030_);" cx="56" cy="49" r="22"/>
	</mask>
	<g className="st7">
		<path className="st8" d="M45.1,43.7l1.9-1.9c0.2-0.2,0.5-0.3,0.8-0.3h1.7c0.5,0,0.9,0.3,1,0.8l0.2,0.8c0,0.2,0.1,0.3,0,0.5l-0.4,1.9
			c-0.1,0.3,0,0.7,0.3,0.9l1.5,1.7c0.4,0.5,0.4,1.2-0.1,1.6l-2,1.5c-0.4,0.3-0.9,0.3-1.2,0.1l-2.6-1.6c-0.2-0.1-0.3-0.2-0.4-0.4
			l-1.5-2.8c-0.1-0.3-0.2-0.6-0.1-0.9l0.6-1.5C44.9,43.9,45,43.8,45.1,43.7z"/>
		<path className="st8" d="M32.6,45.9l-2.3,0.5c-0.4,0.1-0.8,0.4-1.1,0.8l-1.4,2.5c-0.2,0.4-0.3,0.9-0.1,1.3c0.8,2.4,1.9,6.3,1.9,6.9
			c0,0.5,0.5,3.2,0.9,5c0.1,0.6,0.5,1,1,1.2l8.6,3.1c0.1,0.1,0.3,0.1,0.4,0.1l11.4,0.8H56c0.7,0,1.2-0.4,1.5-1l0.6-1.3
			c0.4-0.8,0-1.8-0.8-2.1l-1.1-0.5c-0.3-0.1-0.5-0.3-0.7-0.6l-1.9-2.9l-1.5-1.7c-0.1-0.1-0.2-0.2-0.3-0.3l-2.1-1.4
			c-0.1-0.1-0.2-0.1-0.3-0.2l-2.2-0.9c-0.2-0.1-0.4-0.1-0.7-0.1l-4.6,0.2c-0.9,0-1.6-0.6-1.7-1.5l-0.3-3.7c0-0.4-0.3-0.9-0.6-1.1
			l-2-1.6c-0.1-0.1-0.3-0.2-0.4-0.2L33.5,46C33.2,45.8,32.9,45.8,32.6,45.9z"/>
		<path className="st8" d="M59.4,32.6c1-1.6,2.5-4.4,3.2-6.9c0.4-1.3,2.2-2.7,3.5-2.2l16,6.4c0.3,0.1,0.5,0.3,0.7,0.5l4.9,6.3
			c0.3,0.4,0.4,0.9,0.3,1.4l-3.2,14.3c-0.1,0.4-0.3,0.7-0.6,1l-1.9,1.4c-0.4,0.3-0.8,0.4-1.2,0.3l-2.4-0.4c-0.1,0-0.2,0-0.3-0.1
			l-2.1-0.8c-0.4-0.2-0.8-0.5-1-0.9l-1.4-3.5c-0.1-0.3-0.3-0.5-0.6-0.7l-2.7-1.9c-0.3-0.2-0.6-0.3-0.9-0.3h-7.8
			c-0.4,0-0.8-0.1-1-0.4l-5.5-4.6c-0.3-0.3-0.5-0.6-0.6-1L54.2,38c-0.1-0.6,0.1-1.1,0.6-1.5L59,33C59.2,32.9,59.3,32.7,59.4,32.6z"
			/>
		<path className="st8" d="M52.6,25.6l-0.5-1.3c-0.4-1-1.5-1.6-2.6-1.3l-7.8,1.9c-0.2,0.1-0.4,0.1-0.6,0.2l-5.6,3.4
			c-0.6,0.3-0.9,0.9-1,1.5l-0.9,5.6c0,0.3,0,0.6,0,0.9l0.4,1.5c0.2,0.8,0.8,1.4,1.6,1.6l1.7,0.4c0.2,0,0.4,0.1,0.5,0.1h2
			c0.1,0,0.2,0,0.4,0l2.6-0.4c0.3-0.1,0.6-0.2,0.9-0.4l1.7-1.2c0.4-0.3,0.7-0.7,0.8-1.2l0.9-3c0.2-0.6,0.5-1,1.1-1.3l2.4-1.3
			c0.2-0.1,0.4-0.3,0.6-0.5l0.9-1c0.3-0.3,0.5-0.8,0.5-1.2l0.2-2C52.7,26.2,52.7,25.9,52.6,25.6z"/>
	</g>
</g>
<g>
	<path className="st9" d="M68.7,27.6c1.7-1.1,4-0.7,5.2,1l0.3,0.5c0.4,0.6,1.3,0.6,1.7,0l0.3-0.5c1.1-1.7,3.5-2.1,5.2-1
		c1.7,1.1,2.2,3.4,1,5.1l-6.6,9.2c-0.4,0.6-1.2,0.6-1.6,0l-6.6-9.2C66.5,31,66.9,28.7,68.7,27.6z"/>
	<path className="st10" d="M82.8,33L82.8,33L82.8,33c1.3-1.9,0.8-4.5-1.2-5.8c-1.9-1.3-4.6-0.8-5.9,1.2l-0.3,0.5c-0.2,0.3-0.6,0.3-0.8,0
		l-0.3-0.5c-1.3-1.9-3.9-2.4-5.9-1.2c-1.9,1.3-2.5,3.9-1.2,5.8l0,0l0,0l6.6,9.2c0.6,0.8,1.8,0.8,2.4,0L82.8,33z"/>
</g>
</svg>
