<?xml version="1.0" encoding="utf-8"?>
<!-- Generator: Adobe Illustrator 26.0.3, SVG Export Plug-In . SVG Version: 6.00 Build 0)  -->
<svg version="1.1" id="Layer_1" fill="#dd524c" xmlns="http://www.w3.org/2000/svg" xmlns:xlink="http://www.w3.org/1999/xlink" x="0px" y="0px"
	 viewBox="0 0 56 56" style="enable-background:new 0 0 56 56;" xml:space="preserve">
<path d="M23.5,9.8c0-2.8,2.3-5,5-5h1.7l-0.5-1.5C29.4,2.5,28.7,2,27.8,2c-0.2,0-0.5,0-0.7,0.1L9.5,8.5c-1,0.4-1.6,1.5-1.2,2.6
	l0.9,2.5h14.2L23.5,9.8z"/>
<path d="M28.5,7.8c-1.1,0-2,0.9-2,2v3.8h17.6V9.8c0-1.1-0.9-2-2-2H28.5z"/>
<path d="M49.5,42.7h-7.1c-4.2,0-7.6-3.4-7.6-7.6s3.4-7.6,7.6-7.6h7.1v-6.9c0-2.2-1.8-4-4-4h-39c-2.2,0-4,1.8-4,4v28.8
	c0,2.2,1.8,4,4,4h39c2.2,0,4-1.8,4-4V42.7z"/>
<path d="M52.5,30.6H42.4c-2.5,0-4.5,2-4.5,4.5c0,2.5,2,4.5,4.5,4.5h10.1c0.8,0,1.5-0.7,1.5-1.5v-6C54,31.3,53.3,30.6,52.5,30.6z
	 M42.4,36.7c-0.8,0-1.5-0.7-1.5-1.5c0-0.8,0.7-1.5,1.5-1.5s1.5,0.7,1.5,1.5C43.9,36,43.2,36.7,42.4,36.7z"/>
</svg>
