<?xml version="1.0" encoding="utf-8"?>
<!-- Generator: Adobe Illustrator 25.4.1, SVG Export Plug-In . SVG Version: 6.00 Build 0)  -->
<svg version="1.1" id="Layer_1" xmlns:ev="http://www.w3.org/2001/xml-events"
	 xmlns="http://www.w3.org/2000/svg" xmlns:xlink="http://www.w3.org/1999/xlink" x="0px" y="0px" viewBox="0 0 318.6 318.6"
	 style="enable-background:new 0 0 318.6 318.6;" xml:space="preserve">
<style type="text/css">
	.st0{fill:#F7F7F7;}
	.st1{fill:#002AFE;}
	.st2{fill:#012BFE;}
	.st3{fill:#0023DA;}
	.st4{fill:#0022D7;}
	.st5{fill:#0022D8;}
	.st6{fill:#0022D9;}
	.st7{fill:#0123D9;}
	.st8{fill:#0527DA;}
	.st9{fill:#FDFDFE;}
	.st10{fill:#FCFDFE;}
	.st11{fill:#022BFE;}
	.st12{fill:#1137FD;}
</style>
<g id="_x32_a9vZp_00000055694197218721939310000013160148581028885147_">
	<g>
		<path className="st0" d="M155.16,24.66c-1.16,0-2.32,0-3.47,0c-17.19-0.03-34.39-0.04-51.58-0.11c-6.31-0.03-12.57,0.34-18.85,1.11
			C59.08,28.39,40.4,45.77,36.14,67.6c-2.27,11.64-1.64,23.37-1.6,35.1c0,1.17,0,2.34,0,3.51c0,11.85,0,23.69,0,35.54
			c0,1.16,0,2.33,0,3.49c0,2.54,0,5.08,0,7.62c0,4.28,0,8.56,0,12.84c0,4.46,0,8.92,0,13.39c0,0.97,0,1.94,0,2.91
			c0,12.33-0.25,24.67,0.08,37c0.18,6.96,1.35,13.89,3.97,20.44c4.62,11.53,11.97,20.73,23.02,26.73l0.03-0.02
			c0.26,0.17,0.52,0.34,0.78,0.52c2.04,1.46,4.33,2.37,6.68,3.17l0.13,0c0.27,0.08,0.53,0.15,0.8,0.23
			c3.55,1.67,7.35,2.41,11.2,2.94c14.89,2.07,29.85,0.89,44.79,1.05c0.97,0,1.94,0,2.91,0c11.08,0,22.15,0,33.23,0
			c1.36,0,2.72,0,4.08,0c3.7,0,7.41,0,11.11,0c1.36,0,2.72,0,4.08,0c11.31,0.03,22.63,0.1,33.94,0.08
			c4.25-0.01,8.51,0.32,12.75-0.26c5.45-0.28,10.89-0.6,16.09-2.5c17.13-4.53,28.81-15.16,35.37-31.54
			c0.71-1.04,0.96-2.24,1.21-3.44c0.79-1.68,1.18-3.47,1.54-5.28c2.76-13.95,1.51-28.06,1.63-42.11c0-1.17,0-2.34,0-3.51
			c0-17.29,0-34.59,0-51.88c0-1.17,0-2.34,0-3.51c0-5.24,0-10.48,0-15.73c0-0.97,0-1.95,0-2.92c-0.13-13.55,1.04-27.15-1.08-40.63
			c-1.82-11.58-6.35-21.86-15.16-29.94c-0.59-0.96-1.36-1.72-2.31-2.32c-6.15-5.8-13.47-9.4-21.59-11.5
			c-0.97-0.21-1.94-0.42-2.91-0.63c-3.94-1.13-8.02-1.62-12.05-1.65c-21.84-0.17-43.68-0.1-65.52-0.11c-1.55,0-3.09,0-4.64,0
			C157.51,24.66,156.33,24.66,155.16,24.66z"/>
		<path className="st1" d="M34.54,179.07c0-4.46,0-8.92,0-13.39c1.61,1.42,3.38,2.5,5.48,3.11c4.26,1.22,7.34-0.66,9.87-3.74
			c2.09-2.54,2.77-5.51,1.46-8.66c-1.53-3.71-3.92-6.28-8.33-6.51c-3.32-0.17-6.03,0.91-8.49,2.97c0-2.54,0-5.08,0-7.61
			c0.68,0.03,1.38-0.05,2.03,0.11c12.16,2.94,24.75-5.25,26.67-18.25c1.56-10.53-5.36-21.77-15.77-24.38
			c-4.32-1.08-8.62-0.63-12.93-0.01c-0.04-11.72-0.67-23.45,1.6-35.1c4.26-21.82,22.94-39.21,45.11-41.95
			c6.27-0.77,12.54-1.14,18.85-1.11c17.19,0.07,34.39,0.08,51.58,0.11c0,9.31-0.01,18.63,0,27.94c0,0.95-0.22,2.07,0.85,2.59
			c1.15,0.56,2.04-0.26,2.87-0.9c1.46-1.13,2.27-2.83,3.68-4.08c4.38-3.88,8.09-8.46,12.61-12.22c1.76-1.46,1.97-3.05,0.01-4.85
			c-2.92-2.69-5.59-5.64-8.37-8.49c21.84,0.01,43.68-0.05,65.52,0.11c4.03,0.03,8.11,0.52,12.05,1.65c0,6.89-0.02,13.78,0.01,20.67
			c0,1.19-0.4,2.93,1.43,2.95c1.84,0.02,1.46-1.72,1.47-2.91c0.02-6.7,0.01-13.39,0.01-20.09c8.12,2.11,15.44,5.7,21.59,11.5
			c-1.94,2.03-3.86,4.06-5.81,6.07c-0.78,0.8-1.59,1.53-0.37,2.62c1.11,1,1.73,0.08,2.41-0.57c2.03-1.93,4.05-3.87,6.08-5.81
			c8.82,8.07,13.35,18.36,15.16,29.94c2.12,13.48,0.96,27.08,1.08,40.63c-8.91,0-17.82,0.01-26.74,0.01
			c-8.73-6.12-15.76-5.3-23.07,2.65c-12.08,13.15-24.21,26.25-36.22,39.46c-1.53,1.68-2.27,1.59-3.73,0
			c-4.14-4.5-8.45-8.84-12.7-13.23c-8.28-8.56-17.43-8.23-25.11,0.9c-3.19-2.62-6-5.63-8.78-8.67c0.43-0.63,0.85-1.26,1.29-1.89
			c2.92-4.14,2.95-6.92,0-11.05c-1-1.4-2.16-2.69-3.24-4.02c12.72-0.02,25.45-0.05,38.17-0.08c0.87,0,1.75,0.02,2.62-0.08
			c0.75-0.09,1.26-0.59,1.26-1.37c0-0.78-0.5-1.27-1.25-1.38c-0.67-0.1-1.36-0.08-2.03-0.08c-12.92,0-25.84-0.01-38.75,0.01
			c-0.94,0-1.96-0.29-2.77,0.52c-3.96-2.97-8.05-4.38-12.43-0.82c-1.73,1.41-3.41,2.88-5.02,4.41c-2.6,2.47-5.12,5.01-7.67,7.52
			c-0.38-0.3-0.84-0.53-1.12-0.9c-1.76-2.4-3.33-2.27-5.25-0.02c-1.74,2.04-3.85,3.75-5.8,5.61c-4.36-4.27-8.69-8.56-13.09-12.8
			c-1.46-1.41-2.98-2.8-4.63-3.96c-3.85-2.7-6.6-2.69-10.45-0.1c-2.92,1.96-5.45,4.36-7.54,7.2c-3.24,4.42-3.23,7.48,0.16,11.86
			c1.24,1.6,2.69,3.05,4.11,4.51c4.06,4.15,8.16,8.28,12.24,12.41c-2.06,3.21-1.8,3.74,2.07,4.26c0.26,0.04,0.5,0.24,0.76,0.37
			c-4.92,4.92-9.85,9.84-14.77,14.76c-0.96-0.12-1.48-0.86-2.09-1.46c-2.33-2.31-4.65-4.64-6.98-6.96
			c-0.73-0.72-1.54-1.36-2.48-0.41c-0.94,0.96-0.25,1.76,0.45,2.48c0.61,0.62,1.27,1.19,1.84,1.85c2.11,2.47,5.04,4.2,6.52,7.23
			c-3.98,4.51-6.1,9.24-1.64,14.69c-2.41,1.66-4.19,3.99-6.28,5.98c-0.79,0.75-2.1,1.61-0.88,2.85c1.17,1.18,2.27,0.37,3.24-0.59
			c2-1.96,4.02-3.9,6.03-5.84c0.3,0.23,0.62,0.44,0.9,0.7c7.55,6.76,9.83,6.89,17.9,1.02c1.62,1.52,3.23,3.05,4.85,4.57
			c0.79,0.74,1.74,1.02,2.62,0.31c1.22-0.99,0.05-1.81-0.5-2.41c-1.49-1.63-3.38-2.88-4.64-4.75c3.38-3.41,6.7-6.89,10.18-10.21
			c1.96-1.88,3.73-5.43,6.06-5.08c2.23,0.34,4.02,3.57,5.99,5.54c0.06,0.06,0.09,0.17,0.13,0.26c-2.99,2.15-5.28,5.05-7.91,7.57
			c-0.82,0.79-2.4,1.66-1.12,3.04c1.26,1.35,2.39,0.24,3.43-0.72c2.67-2.49,4.93-5.41,7.93-7.56c1.2,1.12,2.41,2.24,3.59,3.38
			c2.8,2.69,5.33,5.66,8.5,7.95c2.08,1.5,4.26,2.71,6.99,2.28c5.84-0.91,13.77-9.86,14-15.84c2.23,2.15,4.4,4.37,6.72,6.43
			c1.46,1.29,1.35,2.17-0.01,3.5c-4.94,4.8-9.73,9.76-14.67,14.56c-1.36,1.32-1.4,2.16-0.02,3.51c5.62,5.49,11.14,11.09,16.71,16.64
			c0.78,0.77,1.52,2.04,2.82,0.62c1.17-1.28-0.06-1.91-0.75-2.6c-4.65-4.69-9.25-9.42-14.03-13.97c-1.85-1.76-2.19-2.84-0.11-4.77
			c4.76-4.43,9.17-9.22,13.88-13.7c1.72-1.64,1.54-2.6-0.07-4.15c-4.83-4.64-9.45-9.49-14.27-14.14c-1.48-1.43-1.42-2.3,0.02-3.72
			c3.04-2.98,6.26-5.8,8.9-9.18c1,1.18,1.94,2.43,3.02,3.54c8.29,8.61,16.6,17.2,24.91,25.78c6.94,7.18,13.28,7.97,21.84,2.75
			c0.16,0.34,0.41,0.67,0.45,1.03c0.12,1.11,0.58,1.9,1.8,1.79c1.49-0.12,1.09-1.34,1.13-2.23c0.05-1.35,0.01-2.71,0.01-4.06
			c2.71-3.31,5.59-6.46,8.68-9.41c1.73,0.01,3.46,0.04,5.18,0.02c1.12-0.01,1.84-0.55,1.83-1.74c-0.01-1.2-0.75-1.68-1.87-1.71
			c-0.67-0.02-1.34-0.01-2.02-0.01c3.26-3.89,6.69-7.62,10.3-11.18c-0.04,2.43,0.37,4.83,0.99,7.14
			c2.68,9.96,8.83,17.23,17.85,22.03c6.89,3.66,14.26,4.29,21.93,3.07c4.2-0.67,7.8-2.75,11.67-4.18
			c-0.12,14.05,1.12,28.16-1.63,42.11c-0.36,1.8-0.75,3.6-1.54,5.28c-2.15-2.35-3.77-1.77-5.87,0.44
			c-6.08,6.4-12.55,12.44-18.62,18.85c-2.14,2.26-3.24,1.93-5.2-0.11c-6.39-6.64-13.03-13.06-19.49-19.63
			c-1.46-1.48-2.48-1.69-4.05-0.1c-7.28,7.41-14.66,14.72-22.02,22.05c-1.02,1.01-2.14,2.3-1.04,3.49c1.33,1.43,2.4-0.2,3.3-1.1
			c6.61-6.57,13.26-13.11,19.74-19.8c1.66-1.71,2.52-1.5,4.05,0.07c6.44,6.6,13.06,13.02,19.5,19.63c1.92,1.97,3.27,2.11,5.25,0.07
			c6.56-6.75,13.32-13.32,19.91-20.04c1.18-1.2,2.08-1.5,3.34-0.38c-6.56,16.38-18.24,27.01-35.37,31.54
			c-5.52-0.18-11.11-0.8-16.09,2.5c-4.24,0.58-8.5,0.25-12.75,0.26c-11.31,0.03-22.63-0.05-33.94-0.08c3.33-3.4,6.66-6.8,9.99-10.2
			c0.77-0.79,1.63-1.66,0.46-2.69c-1-0.89-1.79-0.07-2.48,0.63c-4.02,4.08-8.04,8.17-12.05,12.25c-3.7,0-7.41,0-11.11,0
			c-3.92-3.99-7.82-7.98-11.76-11.95c-0.78-0.78-1.63-2.06-2.86-0.83c-1.23,1.23,0.07,2.07,0.84,2.86c3.22,3.32,6.47,6.62,9.7,9.92
			c-11.08,0-22.15,0-33.23,0c0-3.98,0.01-7.96,0-11.94c-0.01-3.7-0.01-3.71-3.77-3.71c-21.64,0-43.28,0-64.93,0
			c-0.49,0-0.97,0.01-1.46,0c-0.81,0-1.59,0.12-1.96,0.95c-0.39,0.88,0.25,1.42,0.74,2.04c1.3,1.64,3.41,2.59,4.06,4.77
			c-11.05-6-18.4-15.19-23.02-26.73c-2.63-6.56-3.79-13.49-3.97-20.44c-0.33-12.33-0.08-24.67-0.08-37c3.1-0.86,6.22-0.05,9.33-0.03
			c1.36,0.01,2.92-0.02,3.05-1.46c0.17-1.92-1.68-1.37-2.8-1.39C40.93,179.03,37.73,179.07,34.54,179.07z M97.29,71.2
			c-9.16-0.02-16.34,7.12-16.88,15.73c-0.71,11.12,8.84,18.21,16.6,18.12c9.56-0.12,16.86-7.04,17.18-16.24
			C114.54,78.88,107.05,71.29,97.29,71.2z M229.51,53.71c-14.11-0.57-25.62,10.7-25.79,25.02c-0.18,15.03,12.17,25.54,24.77,25.68
			c15.21,0.16,26.1-11.52,26.33-24.99C255.07,65.02,242.82,52.87,229.51,53.71z M108.79,227.49
			C108.79,227.48,108.79,227.48,108.79,227.49c2.72-0.01,5.44,0,8.15-0.02c0.79,0,1.7-0.08,1.79-1.07c0.09-1.03-0.76-1.54-1.63-1.75
			c-0.64-0.16-1.35-0.09-2.03-0.09c-3.98-0.01-7.96,0-11.94,0c-4.53,0-4.53,0-4.54-4.39c0-4.27,0.03-8.54-0.02-12.81
			c-0.01-0.95,0.52-2.42-1.13-2.51c-1.87-0.11-1.76,1.4-1.77,2.68c-0.01,4.85-0.07,9.71,0.03,14.56c0.04,1.89-0.59,2.56-2.5,2.52
			c-4.85-0.1-9.7-0.04-14.56-0.03c-1.14,0-2.66-0.2-2.66,1.45c0,1.65,1.51,1.45,2.65,1.46c4.46,0.02,8.93,0,13.39,0.01
			c2.41,0.01,3.77,0.91,3.68,3.65c-0.15,4.46-0.05,8.93-0.04,13.39c0,1.26-0.09,2.93,1.57,2.87c1.36-0.05,1.35-1.63,1.35-2.83
			c-0.01-4.66,0.1-9.32-0.05-13.97c-0.08-2.46,0.86-3.3,3.24-3.15C104.12,227.6,106.46,227.49,108.79,227.49z M243.21,201.78
			c0.13-0.56-0.37-0.97-1.01-1.32c-0.92-0.51-1.45,0.08-2.01,0.63c-2.34,2.33-4.81,4.55-6.97,7.04c-1.69,1.95-2.9,1.62-4.46-0.05
			c-2.19-2.34-4.51-4.56-6.79-6.82c-0.67-0.67-1.3-1.57-2.41-0.54c-1.22,1.12-0.37,1.85,0.41,2.63c2.41,2.41,4.8,4.82,7.22,7.22
			c1.23,1.22,1.48,2.26-0.02,3.6c-2.38,2.14-4.61,4.46-6.81,6.79c-0.8,0.84-2.24,1.87-0.94,3.14c1.18,1.16,2.3,0.12,3.23-0.82
			c2.05-2.07,4.23-4.03,6.15-6.22c1.73-1.97,3.06-2.22,4.89-0.09c2.02,2.35,4.36,4.43,6.56,6.63c0.73,0.72,1.54,1.39,2.49,0.44
			c0.95-0.96,0.27-1.77-0.45-2.49c-2.13-2.13-4.16-4.38-6.42-6.36c-2.05-1.79-2.37-3.19-0.12-5.1c2.22-1.88,4.16-4.08,6.22-6.15
			C242.5,203.42,243.13,202.92,243.21,201.78z M206.99,38.98c0.05-0.66-0.24-1.14-0.83-1.4c-0.88-0.39-1.48,0.14-2.04,0.7
			c-2.34,2.33-4.68,4.67-7.01,7c-1.4,1.4-2.62,1.63-4.12-0.06c-1.99-2.25-4.21-4.3-6.36-6.41c-0.87-0.86-1.9-2.25-3.12-0.96
			c-1.04,1.09,0.19,2.1,1.01,2.92c2.26,2.28,4.49,4.58,6.81,6.79c1.38,1.31,1.49,2.46-0.14,3.53c-2.78,1.82-4.23,5.01-7.11,6.76
			c-0.88,0.53-1.97,1.78-0.91,2.91c1.13,1.21,2.28,0.3,3.23-0.66c2.26-2.28,4.59-4.48,6.78-6.83c1.36-1.46,2.42-1.58,3.83-0.06
			c2.25,2.42,4.65,4.69,6.99,7.03c0.7,0.7,1.49,1.5,2.49,0.62c1.15-1.03,0.31-1.9-0.47-2.69c-2.06-2.07-4.12-4.12-6.18-6.19
			c-2.68-2.69-2.78-2.8,0.15-5.39c2.11-1.86,3.87-4.03,5.89-5.97C206.35,40.17,206.9,39.73,206.99,38.98z M45.57,88.9
			c0.68,1.3-0.18,3.44,1.45,4.12c1.38,0.58,2.39-0.94,3.33-1.88c3.04-3.01,6.01-6.08,9.09-9.05c1.31-1.26,1.43-2.18,0.14-3.64
			c-3.08-3.47-6.64-6.43-9.85-9.76c-0.79-0.82-1.56-2-2.92-1.42c-1.41,0.6-1.46,2.06-1.24,3.28C46.69,76.67,45.3,82.76,45.57,88.9z
			 M199.74,118.45c-1.58,0.69-2.55,1.28-3.32,2.18c-1.61,1.88-1.39,5.44,0.49,7.13c2.01,1.81,5.03,1.54,7.02-0.63
			c1.88-2.06,2.14-5.37-0.02-6.72c-2.64-1.65-2.46-2.72-0.14-4.21c0.24-0.15,0.42-0.41,0.58-0.65c1.31-1.87,1.41-3.82,0.12-5.7
			c-1.5-2.17-3.87-2.37-6.02-1.74c-1.88,0.55-2.92,2.12-3.11,4.41C195.06,115.7,197.06,116.97,199.74,118.45z M175,199.06
			c-0.03,3.62,3.19,7.33,6.41,7.38c3.95,0.06,6.96-2.95,7.01-7c0.05-4-2.65-6.86-6.55-6.95C177.83,192.41,175.03,195.09,175,199.06z
			 M162.76,91.03c2.43,0,4.86,0,7.29,0c5.15,0,10.3,0,15.45,0c1.02,0,2.09-0.1,2.2-1.36c0.11-1.29-1.02-1.63-1.96-1.69
			c-1.52-0.09-3.05,0.12-4.58,0.12c-13.51,0.01-27.01,0-40.52,0.02c-1.19,0-2.89-0.34-2.8,1.57c0.08,1.63,1.65,1.32,2.76,1.32
			C147.99,91.04,155.38,91.03,162.76,91.03z M162.42,103.28c7.56,0,15.12,0.01,22.68-0.01c1.15,0,2.61,0.16,2.56-1.54
			c-0.04-1.46-1.38-1.36-2.45-1.37c-14.93-0.01-29.86-0.01-44.79,0c-1.17,0-2.57-0.12-2.66,1.51c-0.1,1.91,1.51,1.38,2.55,1.39
			C147.68,103.3,155.05,103.28,162.42,103.28z M162.8,75.87c-7.66,0-15.32,0-22.98,0.01c-0.95,0-2.12-0.17-2.08,1.31
			c0.03,1.24,0.92,1.58,2.01,1.59c0.29,0,0.58,0.01,0.87,0.01c14.74,0,29.47,0.01,44.21-0.01c1.19,0,2.89,0.35,2.82-1.55
			c-0.06-1.63-1.62-1.34-2.74-1.34C177.54,75.86,170.17,75.87,162.8,75.87z M55.45,226.35c0-7.08,0.01-14.15-0.01-21.23
			c0-1.14,0.16-2.61-1.54-2.55c-1.46,0.05-1.37,1.38-1.37,2.45c-0.01,13.96,0,27.92,0,41.87c0,1.17-0.11,2.57,1.51,2.65
			c1.9,0.09,1.38-1.52,1.39-2.55C55.46,240.11,55.45,233.23,55.45,226.35z M47.28,226.29c0-7.17,0-14.35,0-21.52
			c0-0.99-0.03-2.13-1.31-2.22c-1.51-0.11-1.6,1.1-1.6,2.21c-0.01,14.15,0,28.3,0,42.45c0,1.14,0.13,2.28,1.56,2.33
			c1.7,0.06,1.34-1.33,1.34-2.32C47.29,240.25,47.28,233.27,47.28,226.29z M267.14,205.89c0-1.07,0.01-2.13,0-3.2
			c-0.01-0.94-0.23-1.87-1.35-1.89c-1.11-0.02-1.4,1.02-1.47,1.85c-0.13,1.74-0.22,3.5-0.05,5.23c0.24,2.47-0.49,3.65-3.17,3.3
			c-1.53-0.2-3.1-0.04-4.65-0.03c-0.96,0.01-2.12-0.14-2.06,1.34c0.05,1.23,0.96,1.56,2.04,1.57c1.84,0.01,3.69,0.1,5.53-0.01
			c1.83-0.11,2.4,0.67,2.3,2.39c-0.1,1.74-0.02,3.49-0.01,5.23c0,1.15,0.21,2.23,1.66,2.23c1.51,0,1.22-1.23,1.24-2.14
			c0.04-1.65,0.08-3.3,0-4.94c-0.11-1.97,0.66-2.87,2.7-2.77c1.93,0.1,3.88,0.02,5.82,0.01c0.95-0.01,1.82-0.3,1.86-1.4
			c0.04-1.1-0.79-1.46-1.76-1.49c-1.07-0.03-2.13-0.02-3.2-0.02C267.15,211.15,267.15,211.15,267.14,205.89z M118.34,44.66
			c-0.42-1.91-2-1.4-3.26-1.42c-4.13-0.08-4.17-0.09-4.23-4.27c-0.01-0.58,0.01-1.17-0.06-1.74c-0.12-1.02-0.72-1.57-1.76-1.5
			c-1.08,0.07-1.04,0.92-1.11,1.7c-0.16,1.71,0.68,3.72-0.47,5.08c-1.32,1.55-3.48,0.46-5.25,0.71c-0.82,0.12-1.54,0.32-1.71,1.25
			c-0.12,0.65,0.17,1.19,0.75,1.41c0.53,0.19,1.13,0.22,1.7,0.25c4.8,0.24,4.8,0.23,4.99,4.8c0.01,0.19,0.02,0.39,0,0.58
			c-0.07,1.18,0.54,1.93,1.65,1.95c1.18,0.02,1.17-1.01,1.27-1.9c0.19-1.7-0.78-3.82,0.54-5c1.26-1.14,3.35-0.28,5.06-0.42
			C117.4,46.05,118.16,45.8,118.34,44.66z M195.4,101.46c-0.03,3.31,1.79,5.35,4.75,5.31c2.73-0.03,5.18-2.5,5.17-5.21
			c-0.01-2.41-2.54-4.7-5.22-4.7C197.18,96.86,195.43,98.57,195.4,101.46z M268.31,89.4c-0.07,3.06,1.67,4.95,4.72,5.11
			c2.54,0.13,5.07-2.28,5.11-4.88c0.04-2.53-2.45-4.97-5.1-5C270.29,84.59,268.38,86.52,268.31,89.4z"/>
		<path className="st1" d="M283.96,133.59c0,17.29,0,34.59,0,51.88c-1.36,0.29-2.48,1.05-3.66,1.73c-12.49,7.21-31.34,2.85-39.59-8.95
			c-4.34-6.2-6.28-12.99-6.34-20.44c4.29-4.73,8.64-9.41,12.86-14.21c4.47-5.08,9.6-9.58,13.32-15.31c1.84,0.24,3.66-0.4,5.45-0.33
			C272.48,128.19,278.56,129.88,283.96,133.59z"/>
		<path className="st1" d="M34.54,141.74c0-11.85,0-23.69,0-35.54c3.13-0.41,6.16-1.65,9.42-1.02c9.78,1.87,16.77,9.41,16.21,20.04
			c-0.38,7.21-6.19,14.51-13.13,16.68C42.7,143.27,38.7,142.44,34.54,141.74z"/>
		<path className="st2" d="M126.01,274.03c-14.93-0.16-29.9,1.02-44.79-1.05c-3.85-0.53-7.65-1.26-11.2-2.94
			c-0.2-0.3-0.45-0.42-0.8-0.23c0,0-0.13,0-0.12,0c-0.8-2.9-3.63-4.09-5.28-6.27c-0.43-0.57-1.49-0.94-0.97-1.86
			c0.38-0.67,1.24-0.37,1.89-0.37c19.62-0.01,39.24,0.01,58.86-0.05c1.98-0.01,2.5,0.74,2.44,2.57
			C125.93,267.23,126.01,270.64,126.01,274.03z"/>
		<path className="st3" d="M279.58,239.81c-1.26-1.13-2.17-0.82-3.34,0.38c-6.59,6.73-13.34,13.29-19.91,20.04
			c-1.99,2.04-3.33,1.9-5.25-0.07c-6.43-6.61-13.06-13.03-19.5-19.63c-1.53-1.57-2.39-1.78-4.05-0.07
			c-6.48,6.7-13.13,13.23-19.74,19.8c-0.91,0.9-1.98,2.53-3.3,1.1c-1.1-1.18,0.03-2.47,1.04-3.49c7.36-7.33,14.73-14.65,22.02-22.05
			c1.57-1.59,2.59-1.39,4.05,0.1c6.47,6.58,13.1,12.99,19.49,19.63c1.96,2.04,3.07,2.36,5.2,0.11c6.07-6.41,12.54-12.45,18.62-18.85
			c2.1-2.21,3.72-2.8,5.87-0.44C280.53,237.57,280.28,238.77,279.58,239.81z"/>
		<path className="st4" d="M34.54,152.85c2.45-2.06,5.17-3.14,8.49-2.97c4.41,0.23,6.8,2.8,8.33,6.51c1.3,3.15,0.62,6.12-1.46,8.66
			c-2.53,3.08-5.61,4.96-9.87,3.74c-2.1-0.6-3.87-1.69-5.48-3.11C34.54,161.4,34.54,157.13,34.54,152.85z"/>
		<path className="st5" d="M126.01,274.03c0-3.4-0.08-6.8,0.03-10.2c0.06-1.83-0.46-2.58-2.44-2.57c-19.62,0.06-39.24,0.03-58.86,0.05
			c-0.65,0-1.51-0.3-1.89,0.37c-0.52,0.93,0.54,1.29,0.97,1.86c1.65,2.19,4.48,3.37,5.28,6.27c-2.35-0.8-4.64-1.71-6.68-3.17
			c-0.26-0.17-0.52-0.34-0.78-0.52c0,0-0.03,0.02-0.03,0.02c-0.65-2.18-2.76-3.13-4.06-4.77c-0.49-0.62-1.12-1.16-0.74-2.04
			c0.37-0.84,1.14-0.96,1.96-0.95c0.49,0,0.97,0,1.46,0c21.64,0,43.28,0,64.93,0c3.75,0,3.76,0.01,3.77,3.71
			c0.01,3.98,0,7.96,0,11.94C127.95,274.03,126.98,274.03,126.01,274.03z"/>
		<path className="st1" d="M283.96,114.36c0,5.24,0,10.48,0,15.73c-6.92-4.06-14.41-5.67-22.39-5.21c0.64-3.75-0.33-7.2-1.96-10.52
			C267.73,114.35,275.84,114.35,283.96,114.36z"/>
		<path className="st6" d="M34.54,141.74c4.16,0.7,8.16,1.53,12.51,0.17c6.94-2.17,12.75-9.48,13.13-16.68
			c0.56-10.63-6.44-18.17-16.21-20.04c-3.26-0.62-6.29,0.61-9.42,1.02c0-1.17,0-2.34,0-3.51c4.31-0.61,8.61-1.07,12.93,0.01
			c10.4,2.61,17.33,13.85,15.77,24.38c-1.92,13-14.51,21.19-26.67,18.25c-0.65-0.16-1.35-0.08-2.03-0.11
			C34.54,144.07,34.54,142.91,34.54,141.74z"/>
		<path className="st6" d="M163.33,24.66c2.78,2.84,5.45,5.8,8.37,8.49c1.96,1.8,1.75,3.39-0.01,4.85c-4.53,3.75-8.23,8.34-12.61,12.22
			c-1.41,1.25-2.21,2.95-3.68,4.08c-0.83,0.64-1.72,1.46-2.87,0.9c-1.07-0.52-0.85-1.64-0.85-2.59c-0.01-9.31,0-18.63,0-27.94
			c1.16,0,2.32,0,3.47,0c0,7.45,0,14.91,0.02,22.36c0,0.63-0.27,1.54,0.6,1.72c0.4,0.08,1.01-0.46,1.4-0.85
			c3.65-3.61,7.24-7.28,10.91-10.85c1.12-1.09,1-1.82-0.05-2.85c-3.16-3.13-6.24-6.34-9.35-9.52
			C160.24,24.66,161.79,24.66,163.33,24.66z"/>
		<path className="st6" d="M234.37,157.81c0.05,7.45,2,14.24,6.34,20.44c8.26,11.8,27.1,16.17,39.59,8.95c1.17-0.68,2.3-1.45,3.66-1.73
			c0,1.17,0,2.34,0,3.5c-3.87,1.44-7.47,3.52-11.67,4.18c-7.67,1.22-15.03,0.59-21.93-3.07c-9.03-4.8-15.17-12.07-17.85-22.03
			c-0.62-2.31-1.03-4.71-0.99-7.14C232.47,159.88,233.42,158.85,234.37,157.81z"/>
		<path className="st1" d="M158.69,24.66c3.11,3.18,6.19,6.39,9.35,9.52c1.05,1.04,1.16,1.77,0.05,2.85
			c-3.68,3.58-7.27,7.24-10.91,10.85c-0.39,0.39-1,0.93-1.4,0.85c-0.86-0.18-0.6-1.08-0.6-1.72c-0.02-7.45-0.02-14.91-0.02-22.36
			C156.33,24.66,157.51,24.66,158.69,24.66z"/>
		<path className="st4" d="M283.96,114.36c-8.12,0-16.23,0-24.35,0c-0.8-0.97-1.59-1.94-2.39-2.91c8.91,0,17.82-0.01,26.74-0.01
			C283.96,112.41,283.96,113.38,283.96,114.36z"/>
		<path className="st7" d="M261.57,124.87c7.97-0.46,15.47,1.15,22.39,5.21c0,1.17,0,2.34,0,3.51c-5.41-3.71-11.48-5.4-17.95-5.63
			c-1.79-0.06-3.61,0.57-5.45,0.33C260.9,127.15,261.24,126.01,261.57,124.87z"/>
		<path className="st7" d="M243.81,27.05c0,6.7,0.02,13.39-0.01,20.09c0,1.19,0.37,2.93-1.47,2.91c-1.82-0.02-1.42-1.76-1.43-2.95
			c-0.03-6.89-0.01-13.78-0.01-20.67C241.87,26.63,242.84,26.84,243.81,27.05z"/>
		<path className="st5" d="M177.34,274.03c4.02-4.09,8.03-8.17,12.05-12.25c0.69-0.7,1.48-1.52,2.48-0.63c1.17,1.03,0.31,1.9-0.46,2.69
			c-3.33,3.4-6.66,6.8-9.99,10.2C180.07,274.03,178.7,274.03,177.34,274.03z"/>
		<path className="st5" d="M162.15,274.04c-3.24-3.3-6.48-6.6-9.7-9.92c-0.77-0.79-2.06-1.63-0.84-2.86c1.23-1.24,2.08,0.05,2.86,0.83
			c3.94,3.97,7.84,7.97,11.76,11.95C164.87,274.03,163.51,274.04,162.15,274.04z"/>
		<path className="st6" d="M34.54,179.07c3.19,0,6.39-0.04,9.58,0.03c1.12,0.02,2.97-0.53,2.8,1.39c-0.13,1.44-1.69,1.47-3.05,1.46
			c-3.11-0.02-6.23-0.83-9.33,0.03C34.54,181.01,34.54,180.04,34.54,179.07z"/>
		<path className="st7" d="M267.71,40.86c-2.03,1.94-4.05,3.88-6.08,5.81c-0.69,0.65-1.3,1.57-2.41,0.57c-1.22-1.09-0.41-1.82,0.37-2.62
			c1.95-2.01,3.88-4.05,5.81-6.07C266.35,39.14,267.13,39.91,267.71,40.86z"/>
		<path className="st8" d="M228.12,273.85c4.98-3.31,10.57-2.68,16.09-2.5C239.01,273.25,233.57,273.57,228.12,273.85z"/>
		<path className="st1" d="M61.65,266.13c0.26,0.17,0.52,0.34,0.78,0.52C62.17,266.48,61.91,266.31,61.65,266.13z"/>
		<path className="st5" d="M69.23,269.82c0.34-0.19,0.6-0.07,0.8,0.23C69.76,269.97,69.49,269.9,69.23,269.82z"/>
		<path className="st9" d="M117.78,124.25c2.55-2.51,5.08-5.06,7.67-7.52c1.61-1.53,3.29-3.01,5.02-4.41c4.37-3.55,8.46-2.14,12.43,0.82
			c0.92,0.82,1.84,1.64,2.75,2.46c1.08,1.34,2.24,2.62,3.24,4.02c2.95,4.13,2.92,6.9,0,11.05c-0.44,0.62-0.86,1.26-1.29,1.89
			c-0.63,0.68-1.26,1.36-1.88,2.03c-2.92,2.89-5.84,5.77-8.76,8.66c-0.79,0.78-1.57,1.55-2.36,2.33c-1.03,1.03-2.05,2.06-3.08,3.09
			c-0.83,0.77-1.65,1.54-2.49,2.3c-1.02,0.91-0.44,1.42,0.44,1.88c4.27,4.67,8.78,9.11,13.43,13.4c3,3.51,6.83,6.4,8.23,11.09
			c-0.24,5.98-8.17,14.93-14,15.84c-2.73,0.42-4.91-0.78-6.99-2.28c-3.17-2.29-5.7-5.26-8.5-7.95c-1.19-1.14-2.39-2.25-3.59-3.38
			c-0.6-0.95-1.39-1.72-2.33-2.34c-0.04-0.09-0.06-0.19-0.13-0.26c-1.98-1.97-3.76-5.2-5.99-5.54c-2.32-0.36-4.09,3.2-6.06,5.08
			c-3.47,3.32-6.79,6.8-10.18,10.21c-0.78,0.76-1.55,1.52-2.33,2.28c-8.07,5.87-10.35,5.73-17.9-1.02c-0.28-0.25-0.6-0.46-0.9-0.69
			c-0.7-0.8-1.41-1.6-2.11-2.4c-4.46-5.46-2.35-10.18,1.64-14.69c0.91-0.91,1.82-1.82,2.73-2.73c4.92-4.92,9.85-9.84,14.77-14.76
			c0.89-0.46,1.03-1.04,0.27-1.75c-1.03-0.96-2.06-1.92-3.09-2.88c-4.08-4.13-8.18-8.25-12.24-12.41c-1.42-1.45-2.87-2.9-4.11-4.51
			c-3.39-4.37-3.4-7.44-0.16-11.86c2.08-2.84,4.62-5.24,7.54-7.2c3.85-2.59,6.59-2.6,10.45,0.1c1.66,1.16,3.17,2.55,4.63,3.96
			c4.39,4.23,8.73,8.53,13.08,12.8c0.58,0.97,1.38,1.72,2.32,2.34c0.79,1.45,1.66,1.63,2.83,0.31c1.52-1.72,3.14-3.34,4.71-5.01
			C116.24,125.81,117.01,125.03,117.78,124.25z"/>
		<path className="st10" d="M261.57,124.87c-0.34,1.14-0.68,2.28-1.01,3.42c-3.73,5.72-8.86,10.23-13.32,15.31
			c-4.22,4.8-8.57,9.48-12.86,14.21c-0.95,1.04-1.9,2.07-2.85,3.11c-3.61,3.56-7.04,7.29-10.3,11.18c-1.19,1.01-2.3,2.1-3.13,3.44
			c-3.09,2.95-5.97,6.1-8.68,9.41c-1.13,1.16-2.26,2.32-3.4,3.48c-8.56,5.22-14.9,4.43-21.84-2.75
			c-8.31-8.59-16.62-17.18-24.91-25.78c-1.07-1.12-2.01-2.36-3.02-3.54c-0.48-1.1-0.95-2.2-1.43-3.31c-0.51-3-0.55-5.99,0.26-8.96
			c0.44-0.96,0.88-1.91,1.32-2.87c7.68-9.13,16.83-9.45,25.11-0.9c4.25,4.39,8.57,8.73,12.7,13.23c1.46,1.59,2.2,1.68,3.73,0
			c12.01-13.21,24.14-26.32,36.22-39.46c7.31-7.95,14.35-8.77,23.07-2.65c0.8,0.97,1.59,1.94,2.39,2.91
			C261.24,117.68,262.22,121.12,261.57,124.87z"/>
		<path className="st4" d="M97.29,71.2c9.76,0.08,17.25,7.68,16.9,17.62c-0.32,9.19-7.62,16.12-17.18,16.24
			c-7.76,0.1-17.31-7-16.6-18.12C80.96,78.33,88.13,71.18,97.29,71.2z"/>
		<path className="st6" d="M229.51,53.71c13.31-0.84,25.55,11.31,25.31,25.71c-0.23,13.47-11.12,25.15-26.33,24.99
			c-12.6-0.14-24.94-10.65-24.77-25.68C203.89,64.41,215.41,53.14,229.51,53.71z M251.4,79.33c0.73-12.4-10.16-22.71-22.21-22.66
			c-11.32,0.05-22.38,9.49-22.12,22.59c0.24,12.22,9.68,21.54,22.29,22.19C240.71,102.03,251.39,91.11,251.4,79.33z"/>
		<path className="st7" d="M154.81,153.05c0.48,1.1,0.95,2.2,1.43,3.31c-2.64,3.37-5.86,6.19-8.9,9.18c-1.44,1.41-1.5,2.28-0.02,3.72
			c4.82,4.65,9.44,9.5,14.27,14.14c1.61,1.55,1.79,2.51,0.07,4.15c-4.71,4.48-9.13,9.27-13.88,13.7c-2.07,1.93-1.73,3.01,0.11,4.77
			c4.78,4.55,9.38,9.28,14.03,13.97c0.69,0.69,1.92,1.33,0.75,2.6c-1.3,1.42-2.04,0.15-2.82-0.62
			c-5.57-5.54-11.09-11.15-16.71-16.64c-1.38-1.35-1.34-2.19,0.02-3.51c4.94-4.8,9.73-9.76,14.67-14.56c1.36-1.32,1.47-2.2,0.01-3.5
			c-2.32-2.06-4.49-4.28-6.72-6.43c-1.4-4.69-5.23-7.58-8.23-11.09c0.07-1.32,1.18-1.93,1.94-2.76
			C148.1,159.94,151.93,156.95,154.81,153.05z"/>
		<path className="st4" d="M108.79,227.49c-2.33,0-4.67,0.12-6.99-0.03c-2.38-0.15-3.32,0.69-3.24,3.15c0.14,4.65,0.03,9.31,0.05,13.97
			c0,1.2,0.01,2.78-1.35,2.83c-1.66,0.06-1.57-1.61-1.57-2.87c-0.01-4.46-0.11-8.93,0.04-13.39c0.09-2.75-1.27-3.65-3.68-3.65
			c-4.46-0.01-8.93,0-13.39-0.01c-1.14,0-2.66,0.2-2.65-1.46c0-1.65,1.52-1.44,2.66-1.45c4.85-0.02,9.71-0.08,14.56,0.03
			c1.91,0.04,2.54-0.62,2.5-2.52c-0.1-4.85-0.04-9.7-0.03-14.56c0-1.27-0.1-2.79,1.77-2.68c1.65,0.09,1.12,1.56,1.13,2.51
			c0.05,4.27,0.02,8.54,0.02,12.81c0,4.39,0,4.39,4.54,4.39c3.98,0,7.96,0,11.94,0c0.68,0,1.38-0.07,2.03,0.09
			c0.87,0.21,1.72,0.72,1.63,1.75c-0.09,0.98-1,1.06-1.79,1.07C114.22,227.49,111.5,227.48,108.79,227.49
			C108.79,227.48,108.79,227.48,108.79,227.49z"/>
		<path className="st6" d="M243.21,201.78c-0.09,1.14-0.72,1.64-1.26,2.18c-2.06,2.07-4,4.27-6.22,6.15c-2.26,1.91-1.93,3.31,0.12,5.1
			c2.26,1.98,4.29,4.22,6.42,6.36c0.72,0.72,1.41,1.53,0.45,2.49c-0.95,0.95-1.76,0.28-2.49-0.44c-2.2-2.2-4.54-4.28-6.56-6.63
			c-1.84-2.13-3.17-1.88-4.89,0.09c-1.92,2.19-4.1,4.15-6.15,6.22c-0.93,0.94-2.05,1.97-3.23,0.82c-1.29-1.27,0.15-2.3,0.94-3.14
			c2.2-2.33,4.43-4.65,6.81-6.79c1.5-1.35,1.25-2.38,0.02-3.6c-2.41-2.4-4.81-4.81-7.22-7.22c-0.78-0.78-1.63-1.51-0.41-2.63
			c1.11-1.03,1.74-0.12,2.41,0.54c2.28,2.26,4.6,4.47,6.79,6.82c1.56,1.67,2.76,2,4.46,0.05c2.16-2.49,4.63-4.71,6.97-7.04
			c0.56-0.55,1.09-1.14,2.01-0.63C242.84,200.82,243.34,201.22,243.21,201.78z"/>
		<path className="st4" d="M206.99,38.99c-0.09,0.74-0.64,1.18-1.13,1.64c-2.02,1.94-3.78,4.11-5.89,5.97c-2.93,2.59-2.83,2.7-0.15,5.39
			c2.06,2.06,4.12,4.12,6.18,6.19c0.78,0.79,1.62,1.66,0.47,2.69c-0.99,0.89-1.78,0.09-2.49-0.62c-2.34-2.33-4.74-4.61-6.99-7.03
			c-1.41-1.52-2.47-1.4-3.83,0.06c-2.18,2.34-4.52,4.55-6.78,6.83c-0.95,0.96-2.1,1.86-3.23,0.66c-1.06-1.12,0.03-2.37,0.91-2.91
			c2.88-1.75,4.33-4.94,7.11-6.76c1.63-1.07,1.53-2.22,0.14-3.53c-2.32-2.21-4.55-4.51-6.81-6.79c-0.81-0.82-2.05-1.83-1.01-2.92
			c1.23-1.29,2.25,0.1,3.12,0.96c2.15,2.11,4.37,4.16,6.36,6.41c1.5,1.69,2.72,1.46,4.12,0.06c2.33-2.34,4.67-4.67,7.01-7
			c0.56-0.56,1.16-1.09,2.04-0.7C206.75,37.84,207.04,38.33,206.99,38.99z"/>
		<path className="st5" d="M45.57,88.9c-0.27-6.14,1.12-12.23,0.01-18.34c-0.22-1.22-0.17-2.68,1.24-3.28c1.35-0.58,2.13,0.6,2.92,1.42
			c3.21,3.32,6.77,6.29,9.85,9.76c1.29,1.46,1.17,2.38-0.14,3.64c-3.08,2.97-6.05,6.04-9.09,9.05c-0.95,0.94-1.96,2.46-3.33,1.88
			C45.39,92.34,46.25,90.21,45.57,88.9z M49.75,73.23c-0.66,0.07-0.7,0.58-0.7,1.06c-0.01,3.79-0.06,7.58,0.02,11.36
			c0.04,1.63,0.95,1.12,1.68,0.42c1.54-1.49,3.03-3.01,4.54-4.53c0.42-0.42,0.98-1.07,0.61-1.51c-1.89-2.3-3.9-4.51-5.87-6.74
			C49.97,73.24,49.84,73.25,49.75,73.23z"/>
		<path className="st5" d="M199.74,118.45c-2.67-1.48-4.67-2.75-4.41-5.93c0.19-2.29,1.23-3.86,3.11-4.41c2.15-0.63,4.53-0.43,6.02,1.74
			c1.29,1.88,1.19,3.83-0.12,5.7c-0.17,0.24-0.35,0.5-0.58,0.65c-2.33,1.5-2.5,2.56,0.14,4.21c2.16,1.35,1.9,4.66,0.02,6.72
			c-1.98,2.17-5.01,2.44-7.02,0.63c-1.88-1.69-2.1-5.25-0.49-7.13C197.18,119.72,198.15,119.14,199.74,118.45z"/>
		<path className="st4" d="M175,199.06c0.03-3.98,2.83-6.66,6.87-6.57c3.9,0.09,6.6,2.95,6.55,6.95c-0.05,4.05-3.06,7.05-7.01,7
			C178.19,206.4,174.97,202.69,175,199.06z"/>
		<path className="st4" d="M162.76,91.03c-7.38,0-14.77,0.01-22.15-0.01c-1.12,0-2.68,0.31-2.76-1.32c-0.09-1.91,1.61-1.57,2.8-1.57
			c13.51-0.02,27.01-0.01,40.52-0.02c1.53,0,3.06-0.21,4.58-0.12c0.94,0.06,2.08,0.39,1.96,1.69c-0.11,1.26-1.18,1.36-2.2,1.36
			c-5.15,0-10.3,0-15.45,0C167.62,91.03,165.19,91.03,162.76,91.03z"/>
		<path className="st4" d="M162.42,103.28c-7.37,0-14.73,0.02-22.1-0.02c-1.03-0.01-2.64,0.52-2.55-1.39c0.08-1.63,1.49-1.51,2.66-1.51
			c14.93,0,29.86,0,44.79,0c1.07,0,2.41-0.09,2.45,1.37c0.05,1.7-1.41,1.54-2.56,1.54C177.54,103.28,169.98,103.28,162.42,103.28z"
			/>
		<path className="st4" d="M162.8,75.87c7.37,0,14.74-0.01,22.1,0.01c1.12,0,2.68-0.29,2.74,1.34c0.07,1.9-1.63,1.55-2.82,1.55
			c-14.74,0.02-29.47,0.01-44.21,0.01c-0.29,0-0.58-0.01-0.87-0.01c-1.08-0.01-1.98-0.35-2.01-1.59c-0.03-1.48,1.14-1.31,2.08-1.31
			C147.49,75.87,155.14,75.87,162.8,75.87z"/>
		<path className="st4" d="M55.45,226.35c0,6.88,0.02,13.76-0.02,20.65c-0.01,1.04,0.51,2.65-1.39,2.55c-1.62-0.08-1.51-1.48-1.51-2.65
			c0-13.96,0-27.92,0-41.87c0-1.07-0.09-2.4,1.37-2.45c1.71-0.06,1.54,1.41,1.54,2.55C55.45,212.19,55.45,219.27,55.45,226.35z"/>
		<path className="st4" d="M47.28,226.29c0,6.98,0.01,13.96-0.01,20.94c0,0.99,0.35,2.38-1.34,2.32c-1.43-0.05-1.56-1.19-1.56-2.33
			c0-14.15,0-28.3,0-42.45c0-1.11,0.09-2.32,1.6-2.21c1.28,0.09,1.31,1.22,1.31,2.22C47.28,211.95,47.28,219.12,47.28,226.29z"/>
		<path className="st5" d="M145.66,115.6c-0.92-0.82-1.84-1.64-2.75-2.46c0.8-0.8,1.83-0.51,2.77-0.52c12.92-0.02,25.84-0.01,38.75-0.01
			c0.68,0,1.37-0.02,2.03,0.08c0.74,0.11,1.25,0.6,1.25,1.38c0,0.78-0.51,1.28-1.26,1.37c-0.86,0.1-1.74,0.08-2.62,0.08
			C171.11,115.55,158.39,115.57,145.66,115.6z"/>
		<path className="st6" d="M267.14,205.89c0.01,5.25,0.01,5.25,5.42,5.26c1.07,0,2.13-0.01,3.2,0.02c0.97,0.03,1.8,0.38,1.76,1.49
			c-0.04,1.09-0.91,1.39-1.86,1.4c-1.94,0.02-3.88,0.09-5.82-0.01c-2.04-0.1-2.8,0.8-2.7,2.77c0.09,1.64,0.05,3.3,0,4.94
			c-0.02,0.91,0.27,2.14-1.24,2.14c-1.44,0-1.66-1.08-1.66-2.23c0-1.75-0.09-3.5,0.01-5.23c0.1-1.72-0.47-2.51-2.3-2.39
			c-1.84,0.11-3.68,0.02-5.53,0.01c-1.08,0-1.99-0.33-2.04-1.57c-0.06-1.48,1.1-1.33,2.06-1.34c1.55-0.02,3.12-0.17,4.65,0.03
			c2.69,0.34,3.42-0.83,3.17-3.3c-0.17-1.73-0.08-3.49,0.05-5.23c0.06-0.83,0.35-1.87,1.47-1.85c1.11,0.02,1.33,0.95,1.35,1.89
			C267.15,203.76,267.14,204.83,267.14,205.89z"/>
		<path className="st5" d="M118.34,44.66c-0.18,1.14-0.94,1.39-1.89,1.48c-1.72,0.15-3.8-0.71-5.06,0.42c-1.31,1.18-0.35,3.3-0.54,5
			c-0.1,0.88-0.09,1.92-1.27,1.9c-1.11-0.02-1.72-0.77-1.65-1.95c0.01-0.19,0-0.39,0-0.58c-0.19-4.57-0.19-4.57-4.99-4.8
			c-0.57-0.03-1.17-0.05-1.7-0.25c-0.58-0.22-0.87-0.76-0.75-1.41c0.17-0.93,0.89-1.13,1.71-1.25c1.77-0.26,3.93,0.84,5.25-0.71
			c1.15-1.36,0.31-3.37,0.47-5.08c0.07-0.78,0.03-1.63,1.11-1.7c1.04-0.07,1.64,0.48,1.76,1.5c0.07,0.57,0.05,1.16,0.06,1.74
			c0.06,4.17,0.1,4.19,4.23,4.27C116.33,43.26,117.92,42.75,118.34,44.66z"/>
		<path className="st4" d="M195.4,101.46c0.03-2.89,1.78-4.61,4.7-4.6c2.67,0,5.21,2.29,5.22,4.7c0.01,2.71-2.43,5.18-5.17,5.21
			C197.19,106.81,195.37,104.77,195.4,101.46z"/>
		<path className="st6" d="M268.31,89.4c0.07-2.87,1.98-4.8,4.73-4.77c2.65,0.03,5.14,2.47,5.1,5c-0.04,2.59-2.57,5.01-5.11,4.88
			C269.98,94.35,268.24,92.46,268.31,89.4z"/>
		<path className="st7" d="M117.78,124.25c-0.77,0.78-1.54,1.56-2.31,2.34c-1.01-0.95-1.82-0.88-2.81,0.2c-1.47,1.6-3.14,3.01-4.73,4.5
			c-0.94-0.62-1.73-1.37-2.32-2.34c1.95-1.86,4.06-3.58,5.8-5.61c1.92-2.25,3.49-2.38,5.25,0.02
			C116.94,123.72,117.41,123.95,117.78,124.25z"/>
		<path className="st3" d="M115.72,177.22c0.94,0.62,1.72,1.38,2.33,2.34c-3,2.15-5.26,5.06-7.93,7.56c-1.03,0.96-2.17,2.07-3.43,0.72
			c-1.29-1.38,0.29-2.25,1.12-3.04C110.44,182.27,112.73,179.37,115.72,177.22z"/>
		<path className="st7" d="M74.49,167.45c-0.91,0.91-1.82,1.82-2.73,2.73c-1.48-3.04-4.41-4.77-6.52-7.24
			c-0.56-0.66-1.23-1.23-1.84-1.85c-0.71-0.72-1.4-1.52-0.45-2.48c0.94-0.95,1.75-0.31,2.48,0.41c2.33,2.32,4.65,4.65,6.98,6.96
			C73.01,166.59,73.53,167.33,74.49,167.45z"/>
		<path className="st7" d="M156.39,141.23c-0.44,0.96-0.88,1.91-1.32,2.87c-3.27-3.02-6.56-6.01-9.35-9.5c0.63-0.68,1.26-1.36,1.88-2.03
			C150.39,135.6,153.2,138.6,156.39,141.23z"/>
		<path className="st7" d="M70.12,184.87c0.7,0.8,1.41,1.6,2.11,2.4c-2.01,1.95-4.04,3.88-6.03,5.84c-0.97,0.95-2.07,1.77-3.24,0.59
			c-1.22-1.24,0.08-2.1,0.88-2.85C65.93,188.86,67.71,186.53,70.12,184.87z"/>
		<path className="st7" d="M91.03,188.99c0.78-0.76,1.55-1.52,2.33-2.28c1.26,1.86,3.15,3.12,4.64,4.75c0.55,0.6,1.72,1.42,0.5,2.41
			c-0.87,0.71-1.82,0.44-2.62-0.31C94.27,192.04,92.65,190.51,91.03,188.99z"/>
		<path className="st3" d="M218.09,175.54c0.83-1.34,1.94-2.43,3.13-3.44c0.67,0,1.34,0,2.02,0.01c1.11,0.03,1.86,0.51,1.87,1.71
			c0.01,1.2-0.71,1.73-1.83,1.74C221.54,175.58,219.82,175.55,218.09,175.54z"/>
		<path className="st8" d="M206.01,188.43c1.13-1.16,2.26-2.32,3.4-3.48c0,1.35,0.04,2.71-0.01,4.06c-0.03,0.89,0.36,2.11-1.13,2.23
			c-1.23,0.1-1.68-0.68-1.8-1.79C206.42,189.1,206.17,188.77,206.01,188.43z"/>
		<path className="st8" d="M86.43,148.06c1.03,0.96,2.06,1.92,3.09,2.88c0.76,0.71,0.63,1.29-0.27,1.75c-0.25-0.13-0.49-0.33-0.76-0.37
			C84.64,151.8,84.37,151.26,86.43,148.06z"/>
		<path className="st11" d="M145.73,134.59c2.79,3.49,6.08,6.49,9.35,9.5c-0.81,2.97-0.77,5.96-0.26,8.96
			c-2.89,3.89-6.71,6.88-9.97,10.42c-0.76,0.83-1.87,1.44-1.94,2.76c-4.65-4.29-9.16-8.73-13.43-13.4c0.78-0.84,1.8-0.55,2.73-0.56
			c3-0.03,6-0.01,8.99-0.01c0.89,0,1.79-0.05,2.14-1.09c0.3-0.9-0.36-1.42-0.87-2c-1.79-2.01-4.07-3.58-5.5-5.93
			C139.89,140.36,142.81,137.48,145.73,134.59z"/>
		<path className="st8" d="M136.97,143.25c1.44,2.34,3.71,3.91,5.5,5.93c0.51,0.57,1.17,1.1,0.87,2c-0.35,1.03-1.24,1.09-2.14,1.09
			c-3,0-6-0.02-8.99,0.01c-0.94,0.01-1.96-0.28-2.73,0.56c-0.88-0.45-1.45-0.97-0.44-1.88c0.84-0.75,1.66-1.53,2.49-2.3
			c1.7,0,3.41,0,5.39,0c-0.97-1.29-1.64-2.19-2.31-3.09C135.39,144.8,136.18,144.02,136.97,143.25z"/>
		<path className="st12" d="M107.94,131.28c1.59-1.49,3.26-2.9,4.73-4.5c0.99-1.08,1.8-1.15,2.81-0.2c-1.58,1.66-3.2,3.29-4.71,5.01
			C109.59,132.92,108.73,132.73,107.94,131.28z"/>
		<path className="st12" d="M134.6,145.57c0.67,0.9,1.34,1.79,2.31,3.09c-1.98,0-3.68,0-5.39,0C132.55,147.63,133.58,146.6,134.6,145.57
			z"/>
		<path className="st1" d="M251.4,79.33c-0.01,11.78-10.69,22.7-22.03,22.12c-12.61-0.65-22.05-9.97-22.29-22.19
			c-0.26-13.1,10.8-22.54,22.12-22.59C241.24,56.62,252.13,66.93,251.4,79.33z"/>
		<path className="st1" d="M49.75,73.23c0.09,0.02,0.23,0.01,0.28,0.06c1.97,2.23,3.98,4.44,5.87,6.74c0.36,0.44-0.19,1.09-0.61,1.51
			c-1.51,1.52-3,3.04-4.54,4.53c-0.72,0.7-1.64,1.21-1.68-0.42c-0.09-3.79-0.04-7.58-0.02-11.36C49.04,73.82,49.09,73.3,49.75,73.23
			z"/>
	</g>
</g>
</svg>
