<svg width="132" height="141" viewBox="0 0 132 141" fill="none" xmlns="http://www.w3.org/2000/svg">
<path d="M65.5666 116.091C93.7394 116.091 116.578 93.1745 116.578 64.9057C116.578 36.6369 93.7394 13.7205 65.5666 13.7205C37.3938 13.7205 14.5552 36.6369 14.5552 64.9057C14.5552 93.1745 37.3938 116.091 65.5666 116.091Z" fill="#EAEEF9"/>
<path d="M123.666 21.9437C124.335 21.3297 124.382 20.2874 123.77 19.6156C123.158 18.9438 122.12 18.8969 121.45 19.5108C120.781 20.1247 120.734 21.167 121.346 21.8389C121.957 22.5107 122.996 22.5576 123.666 21.9437Z" fill="#EAEEF9"/>
<path opacity="0.3" d="M96.4192 41.2399C98.2331 41.2399 99.7036 39.7644 99.7036 37.9443C99.7036 36.1242 98.2331 34.6487 96.4192 34.6487C94.6053 34.6487 93.1348 36.1242 93.1348 37.9443C93.1348 39.7644 94.6053 41.2399 96.4192 41.2399Z" fill="#AAB2C5"/>
<g filter="url(#filter0_d)">
<path d="M74.2816 45.5689C73.8718 47.7547 72.0958 49.8039 69.7733 50.3504C67.9973 50.7602 66.2213 50.3504 64.9918 49.3941V65.2414H50.2374C50.7839 64.1485 50.9205 63.0556 50.7839 61.826C50.5106 59.0937 48.1882 56.9079 45.5925 56.6347C42.0405 56.2248 38.8984 58.9571 38.8984 62.5091C38.8984 63.4654 39.035 64.4217 39.4448 65.1048H22.7778V34.6397C22.7778 28.3554 27.8326 23.3007 34.2535 23.3007H64.8552V39.148C65.9481 38.4649 67.041 38.0551 68.2706 38.0551C71.9592 38.6015 74.9647 41.7437 74.2816 45.5689Z" fill="url(#paint0_linear)"/>
</g>
<g filter="url(#filter1_d)">
<path d="M55.019 85.1871C54.4726 88.8757 57.3415 92.0178 61.0301 92.0178C62.5328 92.0178 63.899 91.4713 64.9919 90.6516V107.045H34.3902C28.1059 107.045 22.9146 101.854 22.9146 95.7064V65.1047H39.4449C39.0351 64.285 38.8985 63.4653 38.8985 62.3724C39.0351 59.5035 41.2209 57.0444 43.9532 56.6346C47.6418 56.2247 50.784 58.957 50.784 62.509C50.784 63.4653 50.6474 64.285 50.2375 65.1047H64.7187V81.4985C63.4891 80.4055 61.8498 79.8591 60.0738 80.1323C57.4781 80.4055 55.4289 82.5914 55.019 85.1871Z" fill="url(#paint1_linear)"/>
</g>
<g filter="url(#filter2_d)">
<path d="M107.069 65.1049V95.4333C107.069 101.718 101.878 106.772 95.5934 106.772H64.9917V90.3786C63.8988 91.3349 62.5327 91.7447 61.0299 91.7447C57.4779 91.7447 54.7456 88.6026 55.0188 84.914C55.4287 82.1817 57.6145 80.1325 60.0736 79.7226C61.8496 79.586 63.6256 80.1325 64.7185 81.0888V64.695H82.3418C81.7953 65.5147 81.6587 66.471 81.6587 67.4273C81.6587 70.8427 84.6642 73.7116 88.3528 73.3017C91.0851 73.0285 93.4076 70.7061 93.6808 68.1104C93.8174 66.8808 93.5442 65.7879 93.1344 64.695L107.069 65.1049Z" fill="url(#paint2_linear)"/>
</g>
<path d="M119.911 52.6728L106.386 50.3503C106.659 51.4432 106.796 52.5362 106.386 53.6291C105.566 56.2247 103.107 58.0007 100.375 57.8641C96.8229 57.5909 94.2272 54.4488 94.7737 51.0334C94.9103 50.0771 95.3201 49.2574 95.8666 48.5743L78.3799 45.4322L81.1122 29.7215C82.2051 30.8144 83.8445 31.4975 85.7571 31.4975C88.2161 31.3609 90.2654 29.8581 90.9484 27.6723C92.3146 24.1203 89.9921 20.2951 86.3035 19.7486C85.074 19.4754 83.8445 19.7486 82.7516 20.1585L85.4839 4.44775L115.539 9.63912C121.823 10.732 125.922 16.6065 124.829 22.7541L119.911 52.6728Z" fill="url(#paint3_linear)"/>
<path d="M126.473 64.1926L131.015 62.8236C131.344 62.7281 131.344 62.2505 131.015 62.155L126.473 60.786C126.356 60.7542 126.271 60.6693 126.24 60.5526L124.871 56.0211C124.775 55.6921 124.297 55.6921 124.202 56.0211L122.833 60.5526C122.801 60.6693 122.716 60.7542 122.6 60.786L118.068 62.155C117.739 62.2505 117.739 62.7281 118.068 62.8236L122.61 64.1926C122.727 64.2244 122.812 64.3093 122.844 64.4261L124.213 68.9682C124.308 69.2971 124.786 69.2971 124.881 68.9682L126.25 64.4261C126.271 64.3093 126.356 64.2244 126.473 64.1926Z" fill="#AAB2C5"/>
<path d="M116.424 24.4522L122.073 22.7495C122.482 22.6307 122.482 22.0367 122.073 21.9179L116.424 20.2152C116.279 20.1756 116.173 20.07 116.133 19.9248L114.431 14.2887C114.312 13.8795 113.718 13.8795 113.599 14.2887L111.896 19.9248C111.857 20.07 111.751 20.1756 111.606 20.2152L105.97 21.9179C105.561 22.0367 105.561 22.6307 105.97 22.7495L111.619 24.4522C111.765 24.4918 111.87 24.5974 111.91 24.7426L113.612 30.3919C113.731 30.8011 114.325 30.8011 114.444 30.3919L116.147 24.7426C116.173 24.5974 116.279 24.4918 116.424 24.4522Z" fill="white"/>
<path d="M75.357 5.26099L78.1958 4.40543C78.4015 4.34575 78.4015 4.0473 78.1958 3.98761L75.357 3.13205C75.2841 3.11216 75.231 3.0591 75.2111 2.98615L74.3555 0.154199C74.2958 -0.0513995 73.9973 -0.0513995 73.9376 0.154199L73.082 2.98615C73.0621 3.0591 73.009 3.11216 72.9361 3.13205L70.1039 3.98761C69.8983 4.0473 69.8983 4.34575 70.1039 4.40543L72.9427 5.26099C73.0157 5.28088 73.0687 5.33394 73.0886 5.4069L73.9443 8.24548C74.004 8.45107 74.3024 8.45107 74.3621 8.24548L75.2177 5.4069C75.231 5.33394 75.2841 5.28088 75.357 5.26099Z" fill="#AAB2C5"/>
<defs>
<filter id="filter0_d" x="0.777832" y="12.3007" width="95.6012" height="85.9407" filterUnits="userSpaceOnUse" color-interpolation-filters="sRGB">
<feFlood flood-opacity="0" result="BackgroundImageFix"/>
<feColorMatrix in="SourceAlpha" type="matrix" values="0 0 0 0 0 0 0 0 0 0 0 0 0 0 0 0 0 0 127 0" result="hardAlpha"/>
<feOffset dy="11"/>
<feGaussianBlur stdDeviation="11"/>
<feColorMatrix type="matrix" values="0 0 0 0 0.397708 0 0 0 0 0.47749 0 0 0 0 0.575 0 0 0 0.27 0"/>
<feBlend mode="normal" in2="BackgroundImageFix" result="effect1_dropShadow"/>
<feBlend mode="normal" in="SourceGraphic" in2="effect1_dropShadow" result="shape"/>
</filter>
<filter id="filter1_d" x="0.914551" y="45.5938" width="86.0774" height="94.4516" filterUnits="userSpaceOnUse" color-interpolation-filters="sRGB">
<feFlood flood-opacity="0" result="BackgroundImageFix"/>
<feColorMatrix in="SourceAlpha" type="matrix" values="0 0 0 0 0 0 0 0 0 0 0 0 0 0 0 0 0 0 127 0" result="hardAlpha"/>
<feOffset dy="11"/>
<feGaussianBlur stdDeviation="11"/>
<feColorMatrix type="matrix" values="0 0 0 0 0.397708 0 0 0 0 0.47749 0 0 0 0 0.575 0 0 0 0.27 0"/>
<feBlend mode="normal" in2="BackgroundImageFix" result="effect1_dropShadow"/>
<feBlend mode="normal" in="SourceGraphic" in2="effect1_dropShadow" result="shape"/>
</filter>
<filter id="filter2_d" x="33" y="53.695" width="96.0691" height="86.0774" filterUnits="userSpaceOnUse" color-interpolation-filters="sRGB">
<feFlood flood-opacity="0" result="BackgroundImageFix"/>
<feColorMatrix in="SourceAlpha" type="matrix" values="0 0 0 0 0 0 0 0 0 0 0 0 0 0 0 0 0 0 127 0" result="hardAlpha"/>
<feOffset dy="11"/>
<feGaussianBlur stdDeviation="11"/>
<feColorMatrix type="matrix" values="0 0 0 0 0.397708 0 0 0 0 0.47749 0 0 0 0 0.575 0 0 0 0.27 0"/>
<feBlend mode="normal" in2="BackgroundImageFix" result="effect1_dropShadow"/>
<feBlend mode="normal" in="SourceGraphic" in2="effect1_dropShadow" result="shape"/>
</filter>
<linearGradient id="paint0_linear" x1="48.5616" y1="22.3305" x2="48.5616" y2="65.6935" gradientUnits="userSpaceOnUse">
<stop stop-color="#FDFEFF"/>
<stop offset="0.9964" stop-color="#ECF0F5"/>
</linearGradient>
<linearGradient id="paint1_linear" x1="43.9395" y1="55.4268" x2="43.9395" y2="107.589" gradientUnits="userSpaceOnUse">
<stop stop-color="#FDFEFF"/>
<stop offset="0.9964" stop-color="#ECF0F5"/>
</linearGradient>
<linearGradient id="paint2_linear" x1="81.0176" y1="63.7217" x2="81.0176" y2="107.226" gradientUnits="userSpaceOnUse">
<stop stop-color="#FDFEFF"/>
<stop offset="0.9964" stop-color="#ECF0F5"/>
</linearGradient>
<linearGradient id="paint3_linear" x1="78.3585" y1="31.1654" x2="125.014" y2="31.1654" gradientUnits="userSpaceOnUse">
<stop stop-color="#B0BACC"/>
<stop offset="1" stop-color="#969EAE"/>
</linearGradient>
</defs>
</svg>
