<svg width="162" height="135" viewBox="0 0 162 135" fill="none" xmlns="http://www.w3.org/2000/svg">
<path d="M80.6828 120.065C114.143 120.065 141.226 93.2328 141.226 60.1268C141.226 27.0208 114.143 0.285034 80.6828 0.285034C47.3203 0.285034 20.1396 27.1173 20.1396 60.2233C20.1396 93.3293 47.3203 120.065 80.6828 120.065Z" fill="#EAEEF9"/>
<path d="M109.625 119.842C100.401 120.131 89.3127 119.842 81.4627 119.745C73.7108 120.035 62.5245 120.131 53.3008 119.842C62.4264 114.726 65.6645 105.171 66.057 98.8972H96.672C97.3589 105.074 100.597 114.726 109.625 119.842Z" fill="#D5DDEA"/>
<g filter="url(#filter0_d)">
<path d="M139.258 18.9794V97.8355C139.258 99.8624 137.688 101.31 135.922 101.31H27.5921C25.7277 101.31 24.2559 99.7658 24.2559 97.8355V18.9794C24.2559 17.1456 25.8259 15.5048 27.5921 15.5048H135.726C137.786 15.6013 139.258 17.1456 139.258 18.9794Z" fill="white"/>
</g>
<path d="M139 18.5148V88H24V18.5148C24 16.6222 25.6103 15 27.3547 15H135.511C137.524 15 139 16.6222 139 18.5148Z" fill="#989FB0"/>
<path d="M134.866 20H28V84H135V20H134.866Z" fill="white"/>
<rect x="32.5581" y="24.6433" width="33.1357" height="24.8662" fill="#EAEEF9"/>
<rect x="73.583" y="24.6433" width="55.2261" height="10.1019" fill="#EAEEF9"/>
<rect x="73.583" y="54.9491" width="55.2261" height="10.1019" fill="#EAEEF9"/>
<rect x="73.583" y="38.6306" width="55.2261" height="4.66242" fill="#EAEEF9"/>
<rect x="73.583" y="68.9363" width="55.2261" height="4.66243" fill="#EAEEF9"/>
<rect x="32.5581" y="54.9491" width="33.1357" height="24.8662" fill="#EAEEF9"/>
<path d="M81.561 96.5806C83.131 96.5806 84.4066 95.4224 84.4066 93.7816C84.4066 92.2373 83.2291 90.9825 81.561 90.9825C79.991 90.9825 78.7153 92.1408 78.7153 93.7816C78.7153 95.3259 79.8928 96.5806 81.561 96.5806Z" fill="#D6DDE8"/>
<path d="M1.98145 120.035H157.019" stroke="#D6DDE8" stroke-width="2" stroke-miterlimit="10" stroke-linecap="round" stroke-linejoin="round"/>
<path d="M12.8786 52.9844C15.1355 52.9844 16.9017 51.247 16.9017 49.0271C16.9017 46.8072 15.1355 45.0698 12.8786 45.0698C10.6217 45.0698 8.85547 46.8072 8.85547 49.0271C8.85547 51.247 10.7198 52.9844 12.8786 52.9844Z" fill="#EAEEF9"/>
<path d="M8.85492 40.1474C10.3268 40.1474 11.6024 38.8926 11.6024 37.4448C11.6024 35.9971 10.3268 34.7423 8.85492 34.7423C7.38305 34.7423 6.10742 35.9971 6.10742 37.4448C6.10742 38.9891 7.38305 40.1474 8.85492 40.1474Z" fill="#EAEEF9"/>
<path d="M152.805 62.9258C155.65 62.9258 157.907 60.7059 157.907 57.9068C157.907 55.1078 155.65 52.8878 152.805 52.8878C149.959 52.8878 147.702 55.1078 147.702 57.9068C147.702 60.7059 149.959 62.9258 152.805 62.9258Z" fill="#EAEEF9"/>
<path d="M106.719 52.2294C106.719 55.5883 106.15 58.6673 104.871 61.6064C102.03 68.8841 95.9195 74.4824 88.3884 77.0016C85.8307 77.8413 83.1309 78.2612 80.289 78.2612C65.6533 78.2612 53.8594 66.6448 53.8594 52.2294C53.8594 37.8139 65.6533 26.1975 80.289 26.1975C94.9248 26.1975 106.719 37.9538 106.719 52.2294Z" fill="url(#paint0_linear)"/>
<path d="M86.2114 48.9437V43.7872C86.2114 40.9745 83.7705 38.6306 80.8415 38.6306C79.377 38.6306 78.0752 39.2556 76.9362 40.1932C75.9598 41.1308 75.3089 42.3808 75.3089 43.9434V49.1C73.8444 50.0375 72.7054 51.1313 71.729 52.6939C70.9154 54.1002 70.4272 55.8191 70.4272 57.5379C70.4272 63.007 74.9835 67.3822 80.6788 67.3822C86.3741 67.3822 90.9304 63.007 90.9304 57.5379C91.0931 53.7877 89.1404 50.6625 86.2114 48.9437ZM81.9806 58.4755V61.1319C81.9806 61.4444 81.6551 61.7569 81.3297 61.7569H80.1906C79.8652 61.7569 79.5397 61.4444 79.5397 61.1319V59.413V58.4755C78.5634 58.0067 78.0752 56.9129 78.2379 55.8191C78.4007 54.8815 79.2143 54.1002 80.1906 53.944C81.8179 53.6315 83.2824 54.8815 83.2824 56.2879C83.2824 57.2254 82.7942 58.0067 81.9806 58.4755ZM83.6078 47.8499C82.6315 47.5374 81.8179 47.3811 80.6788 47.3811C79.7025 47.3811 78.7261 47.5374 77.7498 47.8499V43.9434C77.7498 43.1621 78.0752 42.3808 78.5634 41.9121C79.0516 41.4433 79.8652 41.1308 80.6788 41.1308C82.306 41.1308 83.6078 42.3808 83.6078 43.9434V47.8499Z" fill="white"/>
<defs>
<filter id="filter0_d" x="2.25586" y="4.50476" width="159.002" height="129.805" filterUnits="userSpaceOnUse" color-interpolation-filters="sRGB">
<feFlood flood-opacity="0" result="BackgroundImageFix"/>
<feColorMatrix in="SourceAlpha" type="matrix" values="0 0 0 0 0 0 0 0 0 0 0 0 0 0 0 0 0 0 127 0" result="hardAlpha"/>
<feOffset dy="11"/>
<feGaussianBlur stdDeviation="11"/>
<feColorMatrix type="matrix" values="0 0 0 0 0.397708 0 0 0 0 0.47749 0 0 0 0 0.575 0 0 0 0.27 0"/>
<feBlend mode="normal" in2="BackgroundImageFix" result="effect1_dropShadow"/>
<feBlend mode="normal" in="SourceGraphic" in2="effect1_dropShadow" result="shape"/>
</filter>
<linearGradient id="paint0_linear" x1="53.8352" y1="52.235" x2="106.728" y2="52.235" gradientUnits="userSpaceOnUse">
<stop stop-color="#B0BACC"/>
<stop offset="1" stop-color="#969EAE"/>
</linearGradient>
</defs>
</svg>
