<svg width="100" height="100" viewBox="0 0 512 512" fill="none" xmlns="http://www.w3.org/2000/svg">
<path d="M127.285 447.774H383.926C390.979 447.791 397.779 445.141 402.962 440.356C424.581 420.34 441.877 396.112 453.785 369.162C465.694 342.213 471.963 313.113 472.207 283.651C473.314 163.854 375.932 65.2833 256.131 65.0006C136.261 64.7177 39.0001 161.805 39.0001 281.608C38.9659 311.426 45.1057 340.928 57.0329 368.257C68.96 395.586 86.4163 420.149 108.302 440.4C113.474 445.163 120.254 447.797 127.285 447.774Z" fill="url(#paint0_linear_61_247)"/>
<path d="M146.73 96.9173C166.607 81.073 191.273 72.4437 216.692 72.4413C246.455 72.4413 274.998 84.2644 296.044 105.31C312.061 121.327 322.737 141.689 326.923 163.625C329.113 163.408 331.315 163.298 333.523 163.298C342.294 163.298 350.98 165.026 359.083 168.382C367.187 171.739 374.55 176.659 380.752 182.861C386.954 189.063 391.874 196.426 395.23 204.53C398.587 212.633 400.315 221.318 400.315 230.09C400.315 238.861 398.587 247.546 395.23 255.65C391.874 263.753 386.954 271.116 380.752 277.318C374.55 283.52 367.187 288.44 359.083 291.797C350.98 295.153 342.294 296.881 333.523 296.881H94.0561C84.4027 296.881 74.856 294.863 66.0287 290.956C57.2014 287.049 49.2886 281.339 42.798 274.193C36.3075 267.048 31.3827 258.624 28.3397 249.463C25.2967 240.302 24.2028 230.606 25.1282 220.997C26.0537 211.388 28.9779 202.079 33.7133 193.667C38.4487 185.255 44.8906 177.926 52.6255 172.15C60.3605 166.374 69.2176 162.28 78.6283 160.129C88.039 157.979 97.7954 157.819 107.271 159.662C112.941 134.883 126.853 112.762 146.73 96.9173Z" fill="#E5E9F1"/>
<path d="M334.331 437.27H185.392C181.737 437.27 178.232 435.818 175.648 433.234C173.064 430.65 171.612 427.145 171.612 423.491V185.77C171.612 182.116 173.064 178.611 175.648 176.027C178.232 173.443 181.737 171.991 185.392 171.991H287.588L348.11 232.513V423.491C348.11 427.145 346.659 430.65 344.074 433.234C341.49 435.818 337.985 437.27 334.331 437.27Z" fill="white"/>
<path d="M348.11 232.513H301.367C299.558 232.513 297.766 232.157 296.094 231.465C294.422 230.772 292.903 229.757 291.624 228.478C290.344 227.198 289.329 225.679 288.637 224.007C287.944 222.335 287.588 220.544 287.588 218.734V171.991L348.11 232.513Z" fill="#FF0000"/>
<path d="M258.645 218.123H200.979C198.057 218.123 195.689 220.491 195.689 223.413C195.689 226.335 198.057 228.703 200.979 228.703H258.645C261.566 228.703 263.935 226.335 263.935 223.413C263.935 220.491 261.566 218.123 258.645 218.123Z" fill="#E5E9F1"/>
<path d="M317.423 253.79H200.979C198.057 253.79 195.689 256.158 195.689 259.08V259.08C195.689 262.002 198.057 264.37 200.979 264.37H317.423C320.345 264.37 322.714 262.002 322.714 259.08C322.714 256.158 320.345 253.79 317.423 253.79Z" fill="#E5E9F1"/>
<path d="M317.423 289.457H200.979C198.057 289.457 195.689 291.825 195.689 294.747V294.747C195.689 297.669 198.057 300.037 200.979 300.037H317.423C320.345 300.037 322.714 297.669 322.714 294.747C322.714 291.825 320.345 289.457 317.423 289.457Z" fill="#E5E9F1"/>
<path d="M317.423 325.124H200.979C198.057 325.124 195.689 327.492 195.689 330.414C195.689 333.335 198.057 335.704 200.979 335.704H317.423C320.345 335.704 322.714 333.335 322.714 330.414C322.714 327.492 320.345 325.124 317.423 325.124Z" fill="#E5E9F1"/>
<path d="M317.849 360.791H200.979C198.057 360.791 195.689 363.159 195.689 366.081C195.689 369.002 198.057 371.371 200.979 371.371H317.849C320.771 371.371 323.139 369.002 323.139 366.081C323.139 363.159 320.771 360.791 317.849 360.791Z" fill="#E5E9F1"/>
<path d="M259.752 482.074C287.366 482.074 309.752 459.688 309.752 432.074C309.752 404.459 287.366 382.074 259.752 382.074C232.138 382.074 209.752 404.459 209.752 432.074C209.752 459.688 232.138 482.074 259.752 482.074Z" fill="#FF0000"/>
<path d="M278.987 424.302L262.587 407.902C261.696 407.011 260.487 406.51 259.226 406.51C257.965 406.51 256.756 407.011 255.864 407.902L239.464 424.302C239.022 424.744 238.671 425.268 238.432 425.845C238.193 426.421 238.069 427.04 238.069 427.665C238.069 428.289 238.191 428.908 238.43 429.485C238.669 430.062 239.02 430.586 239.461 431.028C239.903 431.47 240.427 431.82 241.004 432.059C241.582 432.298 242.2 432.421 242.825 432.42C243.449 432.42 244.068 432.297 244.645 432.057C245.222 431.818 245.746 431.467 246.187 431.025L254.472 422.74V454.774C254.474 456.033 254.976 457.241 255.867 458.131C256.758 459.021 257.966 459.521 259.226 459.521C260.485 459.521 261.693 459.021 262.585 458.131C263.476 457.241 263.978 456.033 263.979 454.774V422.74L272.264 431.025C272.705 431.466 273.23 431.817 273.806 432.056C274.383 432.294 275.001 432.417 275.625 432.417C276.25 432.417 276.868 432.294 277.445 432.056C278.021 431.817 278.545 431.467 278.987 431.025C279.428 430.584 279.778 430.06 280.017 429.483C280.256 428.906 280.379 428.288 280.379 427.664C280.379 427.039 280.256 426.421 280.017 425.845C279.778 425.268 279.428 424.744 278.987 424.302Z" fill="white"/>
<path d="M338.193 96.5005C349.872 87.191 364.365 82.1207 379.301 82.1193C396.788 82.1193 413.559 89.0661 425.925 101.432C435.336 110.843 441.609 122.807 444.069 135.696C445.355 135.568 446.649 135.504 447.947 135.504C458.355 135.504 468.337 139.638 475.697 146.998C483.056 154.358 487.191 164.34 487.191 174.748C487.191 185.156 483.056 195.138 475.697 202.498C468.337 209.858 458.355 213.992 447.947 213.992H307.244C301.572 213.993 295.963 212.807 290.776 210.511C285.589 208.215 280.94 204.861 277.126 200.662C273.313 196.464 270.419 191.514 268.631 186.131C266.843 180.748 266.2 175.051 266.744 169.405C267.288 163.76 269.006 158.29 271.788 153.347C274.571 148.404 278.356 144.098 282.901 140.705C287.445 137.311 292.65 134.905 298.179 133.642C303.708 132.378 309.441 132.285 315.009 133.367C318.34 118.808 326.514 105.81 338.193 96.5005Z" fill="#D4D9E3"/>
<defs>
<linearGradient id="paint0_linear_61_247" x1="255.608" y1="65" x2="255.608" y2="447.774" gradientUnits="userSpaceOnUse">
<stop stop-color="#FBFDFE"/>
<stop offset="1" stop-color="#F0F5FA"/>
</linearGradient>
</defs>
</svg>
