<svg width="100" height="100" viewBox="0 0 512 512" fill="none" xmlns="http://www.w3.org/2000/svg">
<path d="M128.037 448H383.957C390.991 448.017 397.772 445.359 402.94 440.559C424.499 420.478 441.746 396.172 453.621 369.137C465.496 342.101 471.747 312.908 471.991 283.351C473.095 163.171 375.986 64.2842 256.521 64.0006C136.988 63.7168 40.0001 161.115 40.0001 281.302C39.966 311.216 46.0885 340.812 57.9822 368.229C69.8759 395.645 87.2832 420.287 109.108 440.603C114.265 445.381 121.026 448.023 128.037 448Z" fill="url(#paint0_linear_61_621)"/>
<g filter="url(#filter0_d_61_621)">
<path d="M368.788 447.27H150.934C145.589 447.27 140.462 445.147 136.683 441.367C132.903 437.587 130.779 432.461 130.779 427.115V79.4013C130.779 74.0559 132.903 68.9294 136.683 65.1496C140.462 61.3698 145.589 59.2464 150.934 59.2464H300.417L388.943 147.772V427.115C388.943 429.762 388.422 432.383 387.409 434.828C386.396 437.274 384.911 439.495 383.04 441.367C381.168 443.239 378.946 444.723 376.501 445.736C374.056 446.749 371.435 447.27 368.788 447.27Z" fill="white"/>
</g>
<path d="M388.943 147.772H320.572C317.925 147.772 315.304 147.251 312.859 146.238C310.414 145.225 308.192 143.741 306.32 141.869C304.449 139.998 302.964 137.776 301.951 135.33C300.938 132.885 300.417 130.264 300.417 127.617V59.2464L388.943 147.772Z" fill="#FF0000"/>
<path d="M258.082 126.723H173.735C169.461 126.723 165.997 130.187 165.997 134.461V134.461C165.997 138.735 169.461 142.199 173.735 142.199H258.082C262.356 142.199 265.82 138.735 265.82 134.461C265.82 130.187 262.356 126.723 258.082 126.723Z" fill="#E5E9F1"/>
<path d="M344.058 178.893H173.735C169.461 178.893 165.997 182.358 165.997 186.631V186.631C165.997 190.905 169.461 194.369 173.735 194.369H344.058C348.332 194.369 351.796 190.905 351.796 186.631C351.796 182.358 348.332 178.893 344.058 178.893Z" fill="#E5E9F1"/>
<path d="M344.058 231.063H173.735C169.461 231.063 165.997 234.528 165.997 238.801V238.801C165.997 243.075 169.461 246.539 173.735 246.539H344.058C348.332 246.539 351.796 243.075 351.796 238.801C351.796 234.528 348.332 231.063 344.058 231.063Z" fill="#E5E9F1"/>
<path d="M344.058 283.233H173.735C169.461 283.233 165.997 286.698 165.997 290.971V290.971C165.997 295.245 169.461 298.709 173.735 298.709H344.058C348.332 298.709 351.796 295.245 351.796 290.971C351.796 286.698 348.332 283.233 344.058 283.233Z" fill="#E5E9F1"/>
<path d="M344.68 335.403H173.735C169.461 335.403 165.997 338.868 165.997 343.141C165.997 347.415 169.461 350.879 173.735 350.879H344.68C348.954 350.879 352.418 347.415 352.418 343.141C352.418 338.868 348.954 335.403 344.68 335.403Z" fill="#E5E9F1"/>
<path d="M265.82 387.268H173.735C169.461 387.268 165.997 390.732 165.997 395.006C165.997 399.28 169.461 402.744 173.735 402.744H265.82C270.094 402.744 273.558 399.28 273.558 395.006C273.558 390.732 270.094 387.268 265.82 387.268Z" fill="#E5E9F1"/>
<path d="M462.603 166.778C465.469 167.944 467.755 170.2 468.957 173.05C470.16 175.901 470.181 179.112 469.015 181.978L459.734 204.802L438.123 196.014L447.404 173.19C448.569 170.324 450.825 168.039 453.676 166.836C456.526 165.634 459.738 165.613 462.603 166.778Z" fill="#FF0000"/>
<path opacity="0.15" d="M462.603 166.778C465.469 167.944 467.755 170.2 468.957 173.05C470.16 175.901 470.181 179.112 469.015 181.978L459.734 204.802L438.123 196.014L447.404 173.19C448.569 170.324 450.825 168.039 453.676 166.836C456.526 165.634 459.738 165.613 462.603 166.778Z" fill="black"/>
<path d="M446.198 185.581L461.232 191.694C462.926 192.383 464.276 193.716 464.987 195.401C465.698 197.086 465.71 198.984 465.021 200.678L368.696 437.567L340.889 426.26L437.214 189.371C437.903 187.677 439.237 186.326 440.922 185.615C442.606 184.905 444.504 184.892 446.198 185.581Z" fill="#FF0000"/>
<path d="M433.74 295.924C433.138 295.679 432.632 295.244 432.297 294.686C431.963 294.128 431.82 293.476 431.888 292.829L433.353 278.972C433.392 278.604 433.499 278.247 433.668 277.917L462.892 221.029C463.055 220.711 463.15 220.363 463.172 220.006C463.193 219.649 463.14 219.292 463.016 218.957C462.891 218.622 462.699 218.316 462.45 218.06C462.201 217.803 461.902 217.601 461.571 217.467L431.52 205.247C430.783 204.947 430.196 204.367 429.888 203.634C429.579 202.901 429.574 202.076 429.873 201.339C430.173 200.602 430.753 200.015 431.485 199.706C432.218 199.396 433.043 199.39 433.78 199.689L463.831 211.909C464.933 212.357 465.93 213.03 466.758 213.884C467.586 214.738 468.227 215.756 468.641 216.871C469.054 217.987 469.231 219.176 469.16 220.364C469.089 221.551 468.772 222.711 468.229 223.77L439.262 280.16L437.855 293.46C437.806 293.923 437.65 294.367 437.399 294.759C437.149 295.151 436.811 295.479 436.412 295.718C436.013 295.957 435.564 296.1 435.1 296.136C434.637 296.172 434.171 296.099 433.74 295.924V295.924Z" fill="#FF0000"/>
<path opacity="0.15" d="M433.74 295.924C433.138 295.679 432.632 295.244 432.297 294.686C431.963 294.128 431.82 293.476 431.888 292.829L433.353 278.972C433.392 278.604 433.499 278.247 433.668 277.917L462.892 221.029C463.055 220.711 463.15 220.363 463.172 220.006C463.193 219.649 463.14 219.292 463.016 218.957C462.891 218.622 462.699 218.316 462.45 218.06C462.201 217.803 461.902 217.601 461.571 217.467L431.52 205.247C430.783 204.947 430.196 204.367 429.888 203.634C429.579 202.901 429.574 202.076 429.873 201.339C430.173 200.602 430.753 200.015 431.485 199.706C432.218 199.396 433.043 199.39 433.78 199.689L463.831 211.909C464.933 212.357 465.93 213.03 466.758 213.884C467.586 214.738 468.227 215.756 468.641 216.871C469.054 217.987 469.231 219.176 469.16 220.364C469.089 221.551 468.772 222.711 468.229 223.77L439.262 280.16L437.855 293.46C437.806 293.923 437.65 294.367 437.399 294.759C437.149 295.151 436.811 295.479 436.412 295.718C436.013 295.957 435.564 296.1 435.1 296.136C434.637 296.172 434.171 296.099 433.74 295.924V295.924Z" fill="black"/>
<path d="M340.89 426.26L337.846 473.591L368.697 437.567L340.89 426.26Z" fill="#FF0000"/>
<path opacity="0.15" d="M340.89 426.26L337.846 473.591L368.697 437.567L340.89 426.26Z" fill="black"/>
<defs>
<filter id="filter0_d_61_621" x="100.779" y="33.2464" width="318.164" height="448.024" filterUnits="userSpaceOnUse" color-interpolation-filters="sRGB">
<feFlood flood-opacity="0" result="BackgroundImageFix"/>
<feColorMatrix in="SourceAlpha" type="matrix" values="0 0 0 0 0 0 0 0 0 0 0 0 0 0 0 0 0 0 127 0" result="hardAlpha"/>
<feOffset dy="4"/>
<feGaussianBlur stdDeviation="15"/>
<feComposite in2="hardAlpha" operator="out"/>
<feColorMatrix type="matrix" values="0 0 0 0 0 0 0 0 0 0 0 0 0 0 0 0 0 0 0.1 0"/>
<feBlend mode="normal" in2="BackgroundImageFix" result="effect1_dropShadow_61_621"/>
<feBlend mode="normal" in="SourceGraphic" in2="effect1_dropShadow_61_621" result="shape"/>
</filter>
<linearGradient id="paint0_linear_61_621" x1="256" y1="64" x2="256" y2="448" gradientUnits="userSpaceOnUse">
<stop stop-color="#FBFDFE"/>
<stop offset="1" stop-color="#F0F5FA"/>
</linearGradient>
</defs>
</svg>
