<svg width="512" height="512" viewBox="0 0 512 512" fill="none" xmlns="http://www.w3.org/2000/svg">
<path d="M128.037 448H383.957C390.991 448.017 397.772 445.359 402.94 440.559C424.499 420.478 441.746 396.172 453.621 369.137C465.496 342.101 471.747 312.908 471.991 283.351C473.095 163.171 375.986 64.2842 256.521 64.0006C136.988 63.7168 40.0001 161.115 40.0001 281.302C39.966 311.216 46.0886 340.812 57.9823 368.229C69.876 395.645 87.2832 420.287 109.108 440.603C114.265 445.381 121.026 448.023 128.037 448Z" fill="url(#paint0_linear_61_637)"/>
<path d="M221.673 104.227L34.7433 172.264C30.3352 173.868 28.0624 178.742 29.6668 183.151L109.575 402.696C111.179 407.104 116.053 409.377 120.462 407.773L307.391 339.736C311.799 338.132 314.072 333.258 312.467 328.849L232.559 109.304C230.955 104.896 226.081 102.623 221.673 104.227Z" fill="#D4D9E3"/>
<path d="M211.535 129.101L58.497 184.803C55.0614 186.053 53.2901 189.852 54.5405 193.287L110.242 346.326C111.492 349.762 115.291 351.533 118.727 350.282L271.765 294.581C275.201 293.331 276.972 289.532 275.722 286.096L220.02 133.058C218.77 129.622 214.971 127.851 211.535 129.101Z" fill="white"/>
<path d="M477.257 172.264L290.327 104.227C285.919 102.623 281.045 104.896 279.441 109.304L199.533 328.849C197.928 333.258 200.201 338.132 204.609 339.736L391.538 407.773C395.947 409.377 400.821 407.104 402.425 402.696L482.333 183.151C483.938 178.743 481.665 173.868 477.257 172.264Z" fill="#D4D9E3"/>
<path d="M453.503 184.803L300.465 129.101C297.029 127.851 293.23 129.622 291.98 133.058L236.279 286.096C235.028 289.532 236.799 293.331 240.235 294.581L393.274 350.282C396.709 351.533 400.508 349.762 401.758 346.326L457.46 193.287C458.71 189.852 456.939 186.053 453.503 184.803Z" fill="white"/>
<path d="M393.273 350.282C394.923 350.883 396.744 350.803 398.335 350.061C399.926 349.319 401.157 347.976 401.758 346.326L418.663 299.879L396.706 252.792C396.034 251.352 395.086 250.059 393.915 248.986C392.744 247.913 391.373 247.081 389.88 246.537C388.388 245.994 386.803 245.75 385.216 245.819C383.629 245.889 382.071 246.27 380.632 246.941L320.283 275.082L308.184 259.516L281.953 309.765L393.273 350.282Z" fill="#E5E9F1"/>
<path d="M394.25 234.256C408.983 234.256 420.926 222.312 420.926 207.58C420.926 192.847 408.983 180.904 394.25 180.904C379.517 180.904 367.574 192.847 367.574 207.58C367.574 222.312 379.517 234.256 394.25 234.256Z" fill="#D4D9E3"/>
<path d="M254.064 139.584C251.161 140.64 248.494 142.259 246.216 144.346C243.938 146.434 242.093 148.949 240.787 151.75C239.481 154.55 238.74 157.58 238.605 160.667C238.47 163.754 238.945 166.837 240.002 169.741L240.019 169.784L222.254 172.519L231.485 197.88L270.159 183.803C276.023 181.669 280.799 177.293 283.436 171.637C286.073 165.982 286.356 159.51 284.222 153.646C282.087 147.782 277.711 143.006 272.055 140.369C266.4 137.732 259.928 137.449 254.064 139.584Z" fill="#D4D9E3"/>
<path d="M204.443 123.584C196.029 126.647 188.903 132.476 184.232 140.115C179.561 147.755 177.622 156.754 178.73 165.64C175.371 166.172 172.161 167.4 169.305 169.246C166.449 171.091 164.01 173.514 162.145 176.358C160.281 179.202 159.031 182.404 158.477 185.759C157.923 189.114 158.077 192.548 158.928 195.841C159.78 199.133 161.31 202.211 163.421 204.877C165.532 207.543 168.177 209.738 171.187 211.321C174.196 212.905 177.504 213.841 180.897 214.071C184.289 214.301 187.693 213.819 190.888 212.656L231.485 197.88C241.337 194.294 249.361 186.941 253.792 177.439C258.223 167.937 258.698 157.063 255.112 147.211C251.526 137.359 244.173 129.334 234.671 124.903C225.169 120.472 214.295 119.998 204.443 123.584Z" fill="#D4D9E3"/>
<path d="M204.443 123.584C196.029 126.647 188.903 132.476 184.232 140.115C179.561 147.755 177.622 156.754 178.73 165.64C175.371 166.172 172.161 167.4 169.305 169.246C166.449 171.091 164.01 173.514 162.145 176.358C160.281 179.202 159.031 182.404 158.477 185.759C157.923 189.114 158.077 192.548 158.928 195.841C159.78 199.133 161.31 202.211 163.421 204.877C165.532 207.543 168.177 209.738 171.187 211.321C174.196 212.905 177.504 213.841 180.897 214.071C184.289 214.301 187.693 213.819 190.888 212.656L231.485 197.88C241.337 194.294 249.361 186.941 253.792 177.439C258.223 167.937 258.698 157.063 255.112 147.211C251.526 137.359 244.173 129.334 234.671 124.903C225.169 120.472 214.295 119.998 204.443 123.584Z" fill="white"/>
<path d="M217.964 200.264C239.797 200.264 257.496 182.565 257.496 160.732C257.496 138.899 239.797 121.2 217.964 121.2C196.131 121.2 178.432 138.899 178.432 160.732C178.432 182.565 196.131 200.264 217.964 200.264Z" fill="#D4D9E3"/>
<path d="M217.964 200.264C239.797 200.264 257.496 182.565 257.496 160.732C257.496 138.899 239.797 121.2 217.964 121.2C196.131 121.2 178.432 138.899 178.432 160.732C178.432 182.565 196.131 200.264 217.964 200.264Z" fill="white"/>
<path d="M290.719 220.843C196.031 262.555 128.756 241.012 85.0469 154.983L92.18 151.359C112.154 190.673 136.349 215.243 166.149 226.473C199.494 239.039 239.186 234.802 287.494 213.521L290.719 220.843Z" fill="#D4D9E3"/>
<path d="M70.0494 235.397L128.095 216.719C128.688 216.528 129.226 216.193 129.66 215.745C130.093 215.297 130.41 214.748 130.581 214.148C130.752 213.548 130.773 212.916 130.641 212.306C130.509 211.696 130.229 211.128 129.826 210.653L99.4207 174.812C99.0171 174.337 98.5025 173.968 97.9223 173.738C97.3422 173.509 96.7145 173.426 96.0947 173.497C95.475 173.569 94.8823 173.791 94.3692 174.146C93.8561 174.501 93.4384 174.977 93.1531 175.532L65.2644 229.756C64.9022 230.461 64.7571 231.256 64.8474 232.043C64.9377 232.83 65.2593 233.572 65.7716 234.176C66.2839 234.78 66.9638 235.218 67.7253 235.435C68.4868 235.653 69.2956 235.639 70.0494 235.397Z" fill="#D4D9E3"/>
<path d="M227.113 297.879L246.171 239.958C246.366 239.365 246.412 238.734 246.304 238.119C246.197 237.505 245.94 236.926 245.556 236.435C245.171 235.943 244.672 235.554 244.101 235.302C243.531 235.05 242.907 234.942 242.285 234.988L195.415 238.479C194.793 238.525 194.192 238.724 193.665 239.059C193.138 239.393 192.702 239.851 192.394 240.394C192.087 240.937 191.919 241.548 191.903 242.171C191.888 242.795 192.027 243.413 192.308 243.97L219.736 298.429C220.093 299.136 220.651 299.722 221.34 300.112C222.029 300.502 222.818 300.678 223.608 300.619C224.398 300.561 225.152 300.269 225.776 299.781C226.4 299.293 226.865 298.631 227.113 297.879Z" fill="#D4D9E3"/>
<path d="M140.081 285.291L183.751 242.735C184.198 242.299 184.53 241.761 184.719 241.166C184.908 240.571 184.947 239.94 184.834 239.326C184.72 238.713 184.457 238.137 184.067 237.649C183.678 237.162 183.175 236.778 182.602 236.532L139.424 217.965C138.851 217.719 138.226 217.618 137.605 217.67C136.983 217.723 136.384 217.928 135.861 218.268C135.337 218.607 134.906 219.071 134.604 219.617C134.302 220.163 134.14 220.775 134.131 221.399L133.286 282.369C133.275 283.161 133.499 283.938 133.93 284.602C134.361 285.267 134.979 285.788 135.706 286.101C136.434 286.414 137.238 286.504 138.016 286.36C138.795 286.215 139.513 285.843 140.081 285.291Z" fill="#D4D9E3"/>
<g filter="url(#filter0_d_61_637)">
<path d="M355.463 95.4735H156.537C151.846 95.4735 148.043 99.2763 148.043 103.967V337.603C148.043 342.294 151.846 346.097 156.537 346.097H355.463C360.154 346.097 363.957 342.294 363.957 337.603V103.967C363.957 99.2763 360.154 95.4735 355.463 95.4735Z" fill="white"/>
</g>
<path d="M337.43 115.38H174.57C170.914 115.38 167.95 118.344 167.95 122V284.86C167.95 288.516 170.914 291.48 174.57 291.48H337.43C341.086 291.48 344.05 288.516 344.05 284.86V122C344.05 118.344 341.086 115.38 337.43 115.38Z" fill="#E5E9F1"/>
<path d="M337.43 291.48C339.186 291.48 340.869 290.783 342.111 289.541C343.352 288.3 344.05 286.616 344.05 284.86V235.433L307.312 198.695C306.189 197.572 304.855 196.681 303.388 196.073C301.92 195.465 300.347 195.152 298.759 195.152C297.171 195.152 295.598 195.465 294.13 196.073C292.663 196.681 291.329 197.572 290.206 198.695L243.122 245.779L226.429 235.29L218.966 291.48H337.43Z" fill="#417A93"/>
<path opacity="0.15" d="M337.43 291.48C339.186 291.48 340.869 290.783 342.111 289.541C343.352 288.3 344.05 286.616 344.05 284.86V235.433L307.312 198.695C306.189 197.572 304.855 196.681 303.388 196.073C301.92 195.465 300.347 195.152 298.759 195.152C297.171 195.152 295.598 195.465 294.13 196.073C292.663 196.681 291.329 197.572 290.206 198.695L243.122 245.779L226.429 235.29L218.966 291.48H337.43Z" fill="black"/>
<path d="M174.57 291.48H337.43C338.608 291.474 339.763 291.151 340.772 290.545L232.14 181.912C231.017 180.789 229.683 179.898 228.216 179.29C226.748 178.682 225.176 178.37 223.587 178.37C221.999 178.37 220.426 178.682 218.958 179.29C217.491 179.898 216.158 180.789 215.034 181.912L167.95 228.996V284.86C167.95 286.616 168.648 288.3 169.889 289.541C171.131 290.783 172.814 291.48 174.57 291.48Z" fill="#417A93"/>
<path d="M289.541 183.725C304.274 183.725 316.217 171.782 316.217 157.049C316.217 142.317 304.274 130.374 289.541 130.374C274.808 130.374 262.865 142.317 262.865 157.049C262.865 171.782 274.808 183.725 289.541 183.725Z" fill="#417A93"/>
<defs>
<filter id="filter0_d_61_637" x="118.043" y="69.4735" width="275.914" height="310.623" filterUnits="userSpaceOnUse" color-interpolation-filters="sRGB">
<feFlood flood-opacity="0" result="BackgroundImageFix"/>
<feColorMatrix in="SourceAlpha" type="matrix" values="0 0 0 0 0 0 0 0 0 0 0 0 0 0 0 0 0 0 127 0" result="hardAlpha"/>
<feOffset dy="4"/>
<feGaussianBlur stdDeviation="15"/>
<feComposite in2="hardAlpha" operator="out"/>
<feColorMatrix type="matrix" values="0 0 0 0 0 0 0 0 0 0 0 0 0 0 0 0 0 0 0.1 0"/>
<feBlend mode="normal" in2="BackgroundImageFix" result="effect1_dropShadow_61_637"/>
<feBlend mode="normal" in="SourceGraphic" in2="effect1_dropShadow_61_637" result="shape"/>
</filter>
<linearGradient id="paint0_linear_61_637" x1="256" y1="64" x2="256" y2="448" gradientUnits="userSpaceOnUse">
<stop stop-color="#FBFDFE"/>
<stop offset="1" stop-color="#F0F5FA"/>
</linearGradient>
</defs>
</svg>
