<svg width="155" height="174" viewBox="0 0 155 174" fill="none" xmlns="http://www.w3.org/2000/svg">
<path d="M19.9572 29.5062C21.5636 28.981 22.4426 27.2454 21.9205 25.6296C21.3984 24.0139 19.6728 23.1298 18.0664 23.6549C16.46 24.1801 15.581 25.9157 16.1031 27.5315C16.6252 29.1472 18.3508 30.0313 19.9572 29.5062Z" fill="#EAEEF9"/>
<path d="M25.7456 19.1489C26.838 18.7918 27.4357 17.6116 27.0806 16.5128C26.7256 15.4141 25.5522 14.8129 24.4598 15.17C23.3675 15.5272 22.7698 16.7073 23.1248 17.8061C23.4799 18.9048 24.6532 19.506 25.7456 19.1489Z" fill="#EAEEF9"/>
<path d="M126.901 30.0282C128.796 28.286 128.928 25.3283 127.196 23.4219C125.464 21.5154 122.524 21.3823 120.628 23.1245C118.733 24.8666 118.6 27.8244 120.333 29.7308C122.065 31.6372 125.005 31.7704 126.901 30.0282Z" fill="#EAEEF9"/>
<path d="M141.75 21.5026C142.548 20.769 142.604 19.5237 141.875 18.721C141.145 17.9183 139.907 17.8622 139.109 18.5958C138.311 19.3293 138.255 20.5747 138.985 21.3774C139.714 22.1801 140.952 22.2361 141.75 21.5026Z" fill="#EAEEF9"/>
<path d="M25.3316 130.81C26.1297 130.076 26.1854 128.831 25.4561 128.028C24.7268 127.226 23.4887 127.169 22.6906 127.903C21.8926 128.637 21.8368 129.882 22.5661 130.685C23.2954 131.487 24.5336 131.543 25.3316 130.81Z" fill="#EAEEF9"/>
<path d="M74.6924 137.316C108.274 137.316 135.497 109.935 135.497 76.158C135.497 42.3814 108.274 15 74.6924 15C41.1112 15 13.8882 42.3814 13.8882 76.158C13.8882 109.935 41.1112 137.316 74.6924 137.316Z" fill="#EAEEF9"/>
<g filter="url(#filter0_d)">
<path d="M36.3672 68.0858L28.415 34.1228C27.8033 31.5387 29.3937 29.0776 31.8406 28.4623L84.3255 15.9108L114.055 36.2147L132.651 110.909C133.263 113.493 131.672 115.954 129.225 116.569L56.7984 133.797C54.2293 134.412 51.7824 132.812 51.1707 130.351L35.7555 65.5017" fill="url(#paint0_linear)"/>
</g>
<g filter="url(#filter1_d)">
<path d="M128.002 65.7477L99.9853 137.365C99.0065 139.826 96.315 140.934 93.8681 139.95L24.9893 111.647C22.5424 110.663 21.4414 107.955 22.4201 105.494L59.4899 13.9419C60.4686 11.4808 63.1602 10.3733 65.607 11.3577L115.645 31.9078L128.002 65.7477Z" fill="url(#paint1_linear)"/>
</g>
<g filter="url(#filter2_d)">
<path d="M120.783 123.583C120.783 126.168 118.704 128.26 116.134 128.26H41.7501C39.1809 128.26 37.1011 126.168 37.1011 123.583V24.6477C37.1011 22.0636 39.1809 19.9717 41.7501 19.9717H95.7031L119.927 46.6745L120.416 91.4663L120.783 123.583Z" fill="url(#paint2_linear)"/>
</g>
<path d="M107.081 99.9568H62.4258C61.6918 99.9568 61.0801 99.3416 61.0801 98.6032C61.0801 97.8649 61.6918 97.2496 62.4258 97.2496H107.081C107.815 97.2496 108.427 97.8649 108.427 98.6032C108.304 99.3416 107.815 99.9568 107.081 99.9568Z" fill="#D6DCE8"/>
<path d="M56.9208 99.9568H49.0909C48.3568 99.9568 47.7451 99.3416 47.7451 98.6032C47.7451 97.8649 48.3568 97.2496 49.0909 97.2496H56.9208C57.6549 97.2496 58.2666 97.8649 58.2666 98.6032C58.2666 99.3416 57.6549 99.9568 56.9208 99.9568Z" fill="#D6DCE8"/>
<path d="M106.958 87.7745H87.0167C86.2826 87.7745 85.6709 87.1592 85.6709 86.4209C85.6709 85.6825 86.2826 85.0673 87.0167 85.0673H106.958C107.693 85.0673 108.304 85.6825 108.304 86.4209C108.182 87.2822 107.693 87.7745 106.958 87.7745Z" fill="#D6DCE8"/>
<path d="M78.5751 87.7745H49.4576C48.7235 87.7745 48.1118 87.1592 48.1118 86.4209C48.1118 85.6825 48.7235 85.0673 49.4576 85.0673H78.5751C79.3091 85.0673 79.9209 85.6825 79.9209 86.4209C79.9209 87.2822 79.3091 87.7745 78.5751 87.7745Z" fill="#D6DCE8"/>
<path d="M107.326 75.7151H99.6182C98.8842 75.7151 98.2725 75.0999 98.2725 74.3615C98.2725 73.6232 98.8842 73.0079 99.6182 73.0079H107.326C108.06 73.0079 108.672 73.6232 108.672 74.3615C108.672 75.0999 108.06 75.7151 107.326 75.7151Z" fill="#D6DCE8"/>
<path d="M92.4 75.7151H49.8248C49.0907 75.7151 48.479 75.0999 48.479 74.3615C48.479 73.6232 49.0907 73.0079 49.8248 73.0079H92.4C93.134 73.0079 93.7457 73.6232 93.7457 74.3615C93.7457 75.0999 93.134 75.7151 92.4 75.7151Z" fill="#D6DCE8"/>
<path d="M73.3146 113.247H70.6231C69.8891 113.247 69.2773 112.631 69.2773 111.893C69.2773 111.155 69.8891 110.539 70.6231 110.539H73.3146C74.0487 110.539 74.6604 111.155 74.6604 111.893C74.5381 112.631 73.9264 113.247 73.3146 113.247Z" fill="#D6DCE8"/>
<path d="M65.7293 113.247H49.8248C49.0907 113.247 48.479 112.631 48.479 111.893C48.479 111.155 49.0907 110.539 49.8248 110.539H65.607C66.341 110.539 66.9527 111.155 66.9527 111.893C67.0751 112.631 66.4633 113.247 65.7293 113.247Z" fill="#D6DCE8"/>
<path d="M107.693 63.6558H80.2881C79.5541 63.6558 78.9424 63.0405 78.9424 62.3022C78.9424 61.5639 79.5541 60.9486 80.2881 60.9486H107.693C108.427 60.9486 109.039 61.5639 109.039 62.3022C109.039 63.0405 108.427 63.6558 107.693 63.6558Z" fill="#D6DCE8"/>
<path d="M71.4796 63.6558H50.192C49.4579 63.6558 48.8462 63.0405 48.8462 62.3022C48.8462 61.5639 49.4579 60.9486 50.192 60.9486H71.3572C72.0913 60.9486 72.703 61.5639 72.703 62.3022C72.703 63.0405 72.2136 63.6558 71.4796 63.6558Z" fill="#D6DCE8"/>
<path d="M86.4051 36.3379H50.6811C49.7023 36.3379 48.9683 35.5995 48.9683 34.6151C48.9683 33.6307 49.7023 32.8923 50.6811 32.8923H86.4051C87.3838 32.8923 88.1179 33.6307 88.1179 34.6151C88.1179 35.4765 87.2615 36.3379 86.4051 36.3379Z" fill="#D6DCE8"/>
<path d="M64.2611 44.9516H50.6811C49.7023 44.9516 48.9683 44.2133 48.9683 43.2289C48.9683 42.2444 49.7023 41.5061 50.6811 41.5061H64.3834C65.3622 41.5061 66.0962 42.2444 66.0962 43.2289C65.9739 44.0902 65.2398 44.9516 64.2611 44.9516Z" fill="#D6DCE8"/>
<path d="M95.7031 19.9716V41.1369C95.7031 44.0902 98.2723 46.5513 101.209 46.5513H119.927" fill="#D5DDEA"/>
<path d="M101.36 73.4985C101.36 76.9745 100.781 80.1608 99.4771 83.2023C96.5805 90.7336 90.3526 96.527 82.6765 99.134C80.0695 100.003 77.3176 100.437 74.4209 100.437C59.5031 100.437 47.4819 88.4163 47.4819 73.4985C47.4819 58.5806 59.5031 46.5594 74.4209 46.5594C89.3388 46.5594 101.36 58.7255 101.36 73.4985Z" fill="url(#paint3_linear)"/>
<path d="M79.9955 69.6333V64.4642C79.9955 61.6447 77.5855 59.2952 74.6936 59.2952C73.2476 59.2952 71.9623 59.9217 70.8377 60.8615C69.8737 61.8014 69.231 63.0545 69.231 64.6209V69.7899C67.7851 70.7298 66.6604 71.8262 65.6964 73.3926C64.8931 74.8024 64.4111 76.5254 64.4111 78.2484C64.4111 83.7307 68.9097 88.1166 74.5329 88.1166C80.1561 88.1166 84.6547 83.7307 84.6547 78.2484C84.8154 74.4891 82.8874 71.3563 79.9955 69.6333ZM75.8182 79.1882V81.8511C75.8182 82.1644 75.4969 82.4776 75.1756 82.4776H74.0509C73.7296 82.4776 73.4083 82.1644 73.4083 81.8511V80.1281V79.1882C72.4443 78.7183 71.9623 77.6218 72.123 76.5254C72.2836 75.5855 73.087 74.8024 74.0509 74.6457C75.6576 74.3324 77.1035 75.5856 77.1035 76.9953C77.1035 77.9351 76.6215 78.7183 75.8182 79.1882ZM77.4249 68.5368C76.4609 68.2236 75.6576 68.0669 74.5329 68.0669C73.5689 68.0669 72.605 68.2236 71.641 68.5368V64.6209C71.641 63.8377 71.9623 63.0545 72.4443 62.5846C72.9263 62.1147 73.7296 61.8014 74.5329 61.8014C76.1395 61.8014 77.4249 63.0545 77.4249 64.6209V68.5368Z" fill="white"/>
<defs>
<filter id="filter0_d" x="6.28369" y="4.91077" width="148.498" height="162.018" filterUnits="userSpaceOnUse" color-interpolation-filters="sRGB">
<feFlood flood-opacity="0" result="BackgroundImageFix"/>
<feColorMatrix in="SourceAlpha" type="matrix" values="0 0 0 0 0 0 0 0 0 0 0 0 0 0 0 0 0 0 127 0" result="hardAlpha"/>
<feOffset dy="11"/>
<feGaussianBlur stdDeviation="11"/>
<feColorMatrix type="matrix" values="0 0 0 0 0.397708 0 0 0 0 0.47749 0 0 0 0 0.575 0 0 0 0.27 0"/>
<feBlend mode="normal" in2="BackgroundImageFix" result="effect1_dropShadow"/>
<feBlend mode="normal" in="SourceGraphic" in2="effect1_dropShadow" result="shape"/>
</filter>
<filter id="filter1_d" x="0.0644531" y="0" width="149.937" height="173.307" filterUnits="userSpaceOnUse" color-interpolation-filters="sRGB">
<feFlood flood-opacity="0" result="BackgroundImageFix"/>
<feColorMatrix in="SourceAlpha" type="matrix" values="0 0 0 0 0 0 0 0 0 0 0 0 0 0 0 0 0 0 127 0" result="hardAlpha"/>
<feOffset dy="11"/>
<feGaussianBlur stdDeviation="11"/>
<feColorMatrix type="matrix" values="0 0 0 0 0.397708 0 0 0 0 0.47749 0 0 0 0 0.575 0 0 0 0.27 0"/>
<feBlend mode="normal" in2="BackgroundImageFix" result="effect1_dropShadow"/>
<feBlend mode="normal" in="SourceGraphic" in2="effect1_dropShadow" result="shape"/>
</filter>
<filter id="filter2_d" x="15.1011" y="8.97168" width="127.682" height="152.288" filterUnits="userSpaceOnUse" color-interpolation-filters="sRGB">
<feFlood flood-opacity="0" result="BackgroundImageFix"/>
<feColorMatrix in="SourceAlpha" type="matrix" values="0 0 0 0 0 0 0 0 0 0 0 0 0 0 0 0 0 0 127 0" result="hardAlpha"/>
<feOffset dy="11"/>
<feGaussianBlur stdDeviation="11"/>
<feColorMatrix type="matrix" values="0 0 0 0 0.397708 0 0 0 0 0.47749 0 0 0 0 0.575 0 0 0 0.27 0"/>
<feBlend mode="normal" in2="BackgroundImageFix" result="effect1_dropShadow"/>
<feBlend mode="normal" in="SourceGraphic" in2="effect1_dropShadow" result="shape"/>
</filter>
<linearGradient id="paint0_linear" x1="80.4988" y1="13.1809" x2="80.4988" y2="135.201" gradientUnits="userSpaceOnUse">
<stop stop-color="#FDFEFF"/>
<stop offset="0.9964" stop-color="#ECF0F5"/>
</linearGradient>
<linearGradient id="paint1_linear" x1="74.9985" y1="8.009" x2="74.9985" y2="141.701" gradientUnits="userSpaceOnUse">
<stop stop-color="#FDFEFF"/>
<stop offset="0.9964" stop-color="#ECF0F5"/>
</linearGradient>
<linearGradient id="paint2_linear" x1="78.9149" y1="17.4669" x2="78.9149" y2="129.427" gradientUnits="userSpaceOnUse">
<stop stop-color="#FDFEFF"/>
<stop offset="0.9964" stop-color="#ECF0F5"/>
</linearGradient>
<linearGradient id="paint3_linear" x1="47.4573" y1="73.5043" x2="101.37" y2="73.5043" gradientUnits="userSpaceOnUse">
<stop stop-color="#B0BACC"/>
<stop offset="1" stop-color="#969EAE"/>
</linearGradient>
</defs>
</svg>
