<svg width="144" height="141" viewBox="0 0 144 141" fill="none" xmlns="http://www.w3.org/2000/svg">
<path d="M71.915 117.003C103.558 117.003 129.168 91.2405 129.168 59.455C129.168 27.6694 103.558 2 71.915 2C40.3653 2 14.6616 27.7621 14.6616 59.5476C14.6616 91.3332 40.3653 117.003 71.915 117.003Z" fill="#EAEEF9"/>
<path d="M6.40267 72.9221C8.53691 72.9221 10.2072 71.2541 10.2072 69.1227C10.2072 66.9913 8.53691 65.3232 6.40267 65.3232C4.26842 65.3232 2.59814 66.9913 2.59814 69.1227C2.59814 71.2541 4.36122 72.9221 6.40267 72.9221Z" fill="#EAEEF9"/>
<path d="M2.59821 60.5971C3.99011 60.5971 5.19642 59.3924 5.19642 58.0023C5.19642 56.6123 3.99011 55.4076 2.59821 55.4076C1.20631 55.4076 0 56.6123 0 58.0023C0 59.485 1.20631 60.5971 2.59821 60.5971Z" fill="#EAEEF9"/>
<path d="M138.726 82.467C141.417 82.467 143.551 80.3356 143.551 77.6482C143.551 74.9608 141.417 72.8294 138.726 72.8294C136.035 72.8294 133.9 74.9608 133.9 77.6482C133.9 80.3356 136.035 82.467 138.726 82.467Z" fill="#EAEEF9"/>
<circle cx="70.6176" cy="29.6048" r="2.23823" fill="#C4C4C4"/>
<g filter="url(#filter0_d)">
<path d="M113.846 107.481H29.8287C26.6976 107.481 24.0884 104.894 24.0884 101.79V16.9294C24.0884 13.8248 26.6976 11.2375 29.8287 11.2375H113.846C116.977 11.2375 119.586 13.8248 119.586 16.9294V101.79C119.586 104.894 116.977 107.481 113.846 107.481Z" fill="url(#paint0_linear)"/>
</g>
<path d="M70.8772 43.0342C77.4699 43.0342 82.8144 37.6897 82.8144 31.0969C82.8144 24.5042 77.4699 19.1597 70.8772 19.1597C64.2844 19.1597 58.9399 24.5042 58.9399 31.0969C58.9399 37.6897 64.2844 43.0342 70.8772 43.0342Z" fill="#D5DDEA"/>
<path d="M70.8773 31.8431C73.3496 31.8431 75.3538 29.8389 75.3538 27.3667C75.3538 24.8944 73.3496 22.8902 70.8773 22.8902C68.4051 22.8902 66.4009 24.8944 66.4009 27.3667C66.4009 29.8389 68.4051 31.8431 70.8773 31.8431Z" fill="#989FB0"/>
<path d="M79.8302 39.3074C77.6656 41.6044 74.6218 43.0341 71.2503 43.0341C67.8788 43.0341 64.8349 41.6044 62.6704 39.3074C63.8656 35.8374 67.2553 33.3351 71.2503 33.3351C75.2452 33.3351 78.635 35.8374 79.8302 39.3074Z" fill="#989FB0"/>
<path d="M103.388 61.6861H38.5928C37.8184 61.6861 37.0439 60.8253 37.0439 59.9644V52.2167C37.0439 51.3558 37.8184 50.495 38.5928 50.495H103.388C104.162 50.495 104.937 51.3558 104.937 52.2167V59.9644C104.937 60.8253 104.162 61.6861 103.388 61.6861Z" fill="#D5DDEA"/>
<path d="M103.388 78.0998H38.5928C37.8184 78.0998 37.0439 77.2389 37.0439 76.3781V68.6303C37.0439 67.7695 37.8184 66.9086 38.5928 66.9086H103.388C104.162 66.9086 104.937 67.7695 104.937 68.6303V76.3781C104.937 77.2389 104.162 78.0998 103.388 78.0998Z" fill="#D5DDEA"/>
<path d="M103.325 84.8145H79.6896C78.8839 84.8145 78.0781 85.4289 78.0781 86.6577V93.4163C78.0781 94.3379 78.6153 95.2595 79.6896 95.2595H103.325C104.131 95.2595 104.937 94.6451 104.937 93.4163V86.6577C104.937 85.6849 104.131 84.8145 103.325 84.8145Z" fill="#D5DDEA"/>
<path d="M97.9375 89.291H85.8239C85.3084 89.291 84.793 89.664 84.793 90.037C84.793 90.4101 85.3084 90.7831 85.8239 90.7831H97.9375C98.453 90.7831 98.9684 90.4101 98.9684 90.037C98.9684 89.4775 98.453 89.291 97.9375 89.291Z" fill="#989FB0"/>
<rect x="41.5205" y="54.9714" width="29.097" height="2.23823" fill="#989FB0"/>
<rect x="41.5205" y="71.3851" width="2.23823" height="2.23823" rx="1.11911" fill="#AAB2C5"/>
<rect x="45.9971" y="71.3851" width="2.23823" height="2.23823" rx="1.11911" fill="#AAB2C5"/>
<rect x="50.4736" y="71.3851" width="2.23823" height="2.23823" rx="1.11911" fill="#AAB2C5"/>
<rect x="54.9497" y="71.3851" width="2.23823" height="2.23823" rx="1.11911" fill="#AAB2C5"/>
<rect x="58.6802" y="71.3851" width="2.23823" height="2.23823" rx="1.11911" fill="#AAB2C5"/>
<rect x="63.1567" y="71.3851" width="2.23823" height="2.23823" rx="1.11911" fill="#AAB2C5"/>
<defs>
<filter id="filter0_d" x="2.08838" y="0.237549" width="139.498" height="140.244" filterUnits="userSpaceOnUse" color-interpolation-filters="sRGB">
<feFlood flood-opacity="0" result="BackgroundImageFix"/>
<feColorMatrix in="SourceAlpha" type="matrix" values="0 0 0 0 0 0 0 0 0 0 0 0 0 0 0 0 0 0 127 0" result="hardAlpha"/>
<feOffset dy="11"/>
<feGaussianBlur stdDeviation="11"/>
<feColorMatrix type="matrix" values="0 0 0 0 0.397708 0 0 0 0 0.47749 0 0 0 0 0.575 0 0 0 0.27 0"/>
<feBlend mode="normal" in2="BackgroundImageFix" result="effect1_dropShadow"/>
<feBlend mode="normal" in="SourceGraphic" in2="effect1_dropShadow" result="shape"/>
</filter>
<linearGradient id="paint0_linear" x1="71.8061" y1="9.01134" x2="71.8061" y2="108.519" gradientUnits="userSpaceOnUse">
<stop stop-color="#FDFEFF"/>
<stop offset="0.9964" stop-color="#ECF0F5"/>
</linearGradient>
</defs>
</svg>
