<svg width="179" height="179" viewBox="0 0 179 179" fill="none" xmlns="http://www.w3.org/2000/svg">
<path d="M86.8643 136.213C116.91 136.213 141.268 111.854 141.268 81.7019C141.268 51.5494 116.802 27.1913 86.8643 27.1913C56.819 27.1913 32.4609 51.5494 32.4609 81.7019C32.4609 111.854 56.819 136.213 86.8643 136.213Z" fill="#EAEEF9"/>
<path d="M119.762 76.0976L122.502 76.9815C122.699 77.0473 122.864 76.8089 122.733 76.6477L120.937 74.3968C120.89 74.3406 120.877 74.2689 120.901 74.1997L121.782 71.4648C121.847 71.2676 121.609 71.1028 121.448 71.2341L119.201 73.0241C119.144 73.0714 119.073 73.0845 119.003 73.0601L116.269 72.1799C116.071 72.1141 115.907 72.3525 116.038 72.5137L117.833 74.7646C117.88 74.8208 117.894 74.8925 117.869 74.9617L116.985 77.7019C116.919 77.8991 117.158 78.0639 117.319 77.9326L119.57 76.1373C119.621 76.0863 119.693 76.0732 119.762 76.0976Z" fill="#D6DCE8"/>
<path d="M130.072 85.4442L132.584 86.2544C132.765 86.3147 132.916 86.0962 132.795 85.9484L131.15 83.8851C131.106 83.8336 131.094 83.7679 131.117 83.7044L131.924 81.1974C131.984 81.0166 131.765 80.8656 131.618 80.9859L129.558 82.6268C129.506 82.6701 129.44 82.6821 129.377 82.6598L126.87 81.8529C126.689 81.7926 126.538 82.0111 126.658 82.1589L128.304 84.2222C128.348 84.2737 128.36 84.3394 128.337 84.4029L127.527 86.9148C127.467 87.0955 127.685 87.2466 127.833 87.1263L129.896 85.4805C129.943 85.4338 130.009 85.4218 130.072 85.4442Z" fill="#D6DCE8"/>
<path d="M86.5534 36.7933L87.9036 38.2834C88 38.392 88.1828 38.3051 88.1596 38.1618L87.8577 36.1738C87.8486 36.1233 87.8657 36.0754 87.9046 36.0419L89.3906 34.6937C89.4992 34.5973 89.4124 34.4144 89.2691 34.4377L87.2851 34.7376C87.2346 34.7467 87.1867 34.7296 87.1532 34.6907L85.805 33.2047C85.7086 33.0961 85.5258 33.183 85.549 33.3263L85.8509 35.3143C85.8599 35.3648 85.8429 35.4127 85.804 35.4461L84.3139 36.7963C84.2053 36.8927 84.2921 37.0756 84.4355 37.0523L86.4235 36.7504C86.472 36.7373 86.52 36.7544 86.5534 36.7933Z" fill="#D6DCE8"/>
<path d="M42.8583 81.9009L45.5112 81.7051C45.7028 81.6931 45.7728 81.4118 45.6092 81.3114L43.3578 79.8946C43.2995 79.8602 43.2661 79.7988 43.266 79.7257L43.1914 76.8729C43.188 76.6663 42.9302 76.6022 42.8304 76.7831L41.4269 79.2679C41.3926 79.3323 41.3343 79.3709 41.2666 79.374L38.6195 79.5712C38.4279 79.5832 38.3579 79.8645 38.5215 79.965L40.7729 81.3817C40.8312 81.4161 40.8646 81.4776 40.8647 81.5506L40.9378 84.4096C40.9411 84.6162 41.1989 84.6804 41.2987 84.4995L42.7038 82.0084C42.7324 81.9425 42.7906 81.904 42.8583 81.9009Z" fill="#D6DCE8"/>
<path d="M92.5305 78.2089L94.3573 78.7981C94.4888 78.842 94.5986 78.683 94.5111 78.5756L93.3142 77.075C93.2827 77.0375 93.2739 76.9898 93.2902 76.9436L93.877 75.1203C93.9209 74.9889 93.7619 74.879 93.6545 74.9665L92.1563 76.1599C92.1189 76.1914 92.0711 76.2001 92.0249 76.1839L90.2016 75.5971C90.0702 75.5532 89.9603 75.7122 90.0478 75.8196L91.2447 77.3202C91.2763 77.3577 91.285 77.4055 91.2687 77.4516L90.6795 79.2784C90.6356 79.4099 90.7945 79.5197 90.902 79.4322L92.4026 78.2353C92.4365 78.2013 92.4843 78.1926 92.5305 78.2089Z" fill="#D6DCE8"/>
<path d="M148.174 64.4309C150.604 64.4309 152.573 62.4612 152.573 60.0314C152.573 57.6017 150.604 55.632 148.174 55.632C145.744 55.632 143.774 57.6017 143.774 60.0314C143.774 62.4612 145.744 64.4309 148.174 64.4309Z" fill="#EAEEF9"/>
<path d="M154.612 47.2623C156.271 47.2623 157.616 45.9172 157.616 44.2578C157.616 42.5985 156.271 41.2533 154.612 41.2533C152.953 41.2533 151.607 42.5985 151.607 44.2578C151.607 45.9172 152.953 47.2623 154.612 47.2623Z" fill="#EAEEF9"/>
<path d="M34.9288 45.9695C36.5882 45.9695 37.9334 44.6243 37.9334 42.965C37.9334 41.3056 36.5882 39.9604 34.9288 39.9604C33.2695 39.9604 31.9243 41.3056 31.9243 42.965C31.9243 44.6243 33.2695 45.9695 34.9288 45.9695Z" fill="#EAEEF9"/>
<path d="M16.5798 103.914C19.6615 103.914 22.1597 101.416 22.1597 98.3342C22.1597 95.2526 19.6615 92.7544 16.5798 92.7544C13.4982 92.7544 11 95.2526 11 98.3342C11 101.416 13.4982 103.914 16.5798 103.914Z" fill="#EAEEF9"/>
<path d="M132.704 22.319C131.794 23.2366 130.309 22.9192 129.416 21.5053C128.364 20.1313 127.681 19.0958 128.431 18.2182C129.288 17.4003 130.611 18.0168 132.146 18.7526C134.052 19.5677 133.508 21.3418 132.704 22.319Z" fill="#DAE2EB"/>
<path d="M121.995 17.6871C122.04 18.8833 123.198 20.3176 124.741 20.017C126.445 19.6764 127.775 19.5156 127.784 18.2196C127.74 17.0234 126.732 16.845 124.824 16.0294C123.181 15.4928 121.899 16.3314 121.995 17.6871Z" fill="#DAE2EB"/>
<path d="M128.616 16.5107C129.419 16.8322 129.95 17.6575 129.837 18.3828C129.835 18.6446 129.778 19.0073 129.67 19.2088C129.121 20.7402 127.933 21.6478 127.023 21.266C125.952 20.9247 125.534 19.3741 126.135 18.0037C126.352 17.6007 126.461 17.3991 126.625 17.0968C127.113 16.4517 127.813 16.1892 128.616 16.5107C128.723 16.571 128.616 16.5107 128.616 16.5107Z" fill="#989FB0"/>
<path d="M125.883 23.4525C113.987 46.9049 96.5254 56.2348 80.5209 61.8064C76.8065 63.1173 72.7645 64.2644 68.9409 63.2812C65.1173 62.298 61.7853 58.4198 62.8231 54.5962C63.7517 51.0457 68.34 49.2977 71.672 50.7179C75.0586 52.1381 76.9158 56.071 76.5881 59.7307C76.2603 63.3904 74.0208 66.6132 71.1804 68.8527C68.2854 71.0923 64.8441 72.4578 61.3483 73.4957C53.6465 75.7898 45.6169 76.8823 38.1336 79.7773C30.5956 82.6723 23.44 87.8615 20.8727 95.4541C19.0156 100.862 19.7803 106.979 22.1837 112.114C24.5871 117.249 28.6838 121.564 33.2721 125.005C40.3185 130.249 49.0035 133.526 57.7432 133.308C66.4828 133.089 75.3317 129.266 80.7394 122.383C86.1471 115.501 87.7311 105.505 83.9075 97.5843C81.2856 92.1221 75.3317 87.643 69.3778 88.9539C64.6803 90.0464 61.239 94.6347 60.7474 99.4961C60.2558 104.358 62.3861 109.164 65.5542 112.77C68.7224 116.429 72.9283 118.997 77.2981 121.236C83.689 124.459 91.227 126.917 97.8363 124.186C104.118 121.618 107.778 115.118 110.181 108.837C112.585 102.555 114.387 95.7272 118.757 90.538C124.001 84.311 132.85 81.416 140.77 83.2732C148.69 85.1303 155.354 91.6851 157.321 99.5508C158.85 105.669 156.993 113.316 151.257 115.992C146.778 118.123 141.262 116.593 137.383 113.534C133.505 110.475 130.883 106.106 128.371 101.845" stroke="#D6DCE8" stroke-width="2" stroke-miterlimit="10" stroke-dasharray="4 4"/>
<g filter="url(#filter0_d)">
<path d="M81.4275 46.1912L81.0882 45.6328C79.58 43.1512 77.0398 41.4873 74.1224 40.8307C70.5878 40.0466 67.3071 37.9043 65.3089 34.6162C61.0861 27.6676 63.7789 18.1862 71.4694 13.9688C78.3405 10.179 86.8872 12.1064 90.901 18.415C93.0775 21.8485 93.502 25.9511 92.4489 29.6943C91.6428 32.512 92.1635 35.4408 93.6339 37.8604L93.9732 38.4187" fill="url(#paint0_linear)"/>
</g>
<g filter="url(#filter1_d)">
<path d="M81.915 46.6047L82.2143 47.0969C83.7107 49.5575 86.6359 50.6991 89.4219 50.1443C90.2518 51.0687 91.7077 51.2615 92.8712 50.5332C94.0346 49.8049 94.5179 48.3983 94.0758 47.2311C95.8144 44.9538 96.1211 41.7892 94.6247 39.3286L94.3254 38.8364" fill="url(#paint1_linear)"/>
</g>
<path fillRule="evenodd" clip-rule="evenodd" d="M76.8126 25.9294C77.0831 25.3865 77.6447 25.0347 78.244 25.0328L81.8452 25.0212L84.3884 21.6316C84.7611 21.1348 85.3876 20.8909 85.977 21.0132C86.5664 21.1355 87.0032 21.6 87.0846 22.191L89.6131 40.5475C89.7245 41.3566 89.1438 42.1392 88.316 42.2956C88.1014 42.3362 87.8912 42.3307 87.6957 42.2861C87.6468 42.4853 87.5562 42.6801 87.4224 42.8578C86.911 43.537 85.961 43.7094 85.3007 43.2429L70.3407 32.6732C69.8591 32.3329 69.6483 31.7287 69.8059 31.1402C69.9634 30.5518 70.4586 30.094 71.0622 29.9789L75.1869 29.1918L76.8126 25.9294ZM86.507 40.3268L84.5702 26.2661L83.7545 27.3533C83.4506 27.7583 82.9725 28.0012 82.4757 28.0028L79.0673 28.0137L77.5287 31.1015C77.3045 31.5515 76.8762 31.8764 76.3833 31.9705L75.0419 32.2264L86.507 40.3268Z" fill="#9BA3B3"/>
<path d="M69.2315 8.88531C68.6632 9.17766 67.9529 8.88531 67.6687 8.3006L65.1115 1.72264C64.8273 1.13793 65.1115 0.407046 65.6797 0.114692C66.248 -0.177662 66.9584 0.114692 67.2425 0.6994L69.7997 7.27736C70.226 8.15442 69.9418 8.73913 69.2315 8.88531Z" fill="#989FB0"/>
<path d="M64.6984 14.6309C64.4185 14.9395 64.1386 15.0938 63.5788 14.9395L57.0014 13.5508C56.4416 13.3965 55.8818 12.7793 56.0217 12.0079C56.1617 11.3907 56.7215 10.7735 57.4212 11.0821L63.9986 12.4707C64.5584 12.625 65.1182 13.2422 64.9782 14.0137C64.8383 14.168 64.8383 14.4766 64.6984 14.6309Z" fill="#989FB0"/>
<path d="M77.8958 8C77.7643 8 77.6328 7.85133 77.3697 7.85133C76.9752 7.40533 76.8437 6.66199 77.2382 6.06732L81.0521 0.417962C81.4466 -0.0280404 82.1042 -0.176708 82.6303 0.269294C83.0248 0.715297 83.1563 1.45863 82.7618 2.0533L78.9479 7.70267C78.5534 7.85133 78.1588 8 77.8958 8Z" fill="#989FB0"/>
<path d="M98.9845 80.0921C98.3596 77.229 97.4541 73.8498 95.985 71.2869C95.1803 69.8764 93.9001 68.815 92.3511 68.3431C90.6509 67.8377 89.0876 68.1088 87.3915 68.4154C84.3792 68.853 81.3744 69.5842 78.425 70.5223C75.7889 71.3026 72.6993 71.9826 70.5395 73.744C67.3994 76.3593 67.9252 79.9142 68.8088 83.7427C69.4337 86.6058 70.3391 89.985 71.8083 92.548C72.9969 94.5947 75.1843 95.8565 77.4372 95.7702C80.4093 95.713 86.4189 94.2506 89.3204 93.3992C91.8237 92.6545 94.6294 91.9767 96.7782 90.44C100.372 87.9248 99.9789 84.3344 98.9845 80.0921ZM79.1119 78.395C78.8347 77.3605 79.2732 76.8735 80.2838 77.194C82.9945 78.0199 85.7901 78.8969 88.5009 79.7228C89.5114 80.0433 89.6777 80.664 88.9813 81.5159C87.0467 83.5865 85.1305 85.726 83.1959 87.7966C82.4146 88.5973 81.8762 88.4459 81.5511 87.4982C81.4402 87.0844 79.3706 79.3605 79.1119 78.395Z" fill="url(#paint2_linear)"/>
<g filter="url(#filter2_d)">
<path d="M99.3766 137.893L73.9854 121.446C72.5254 120.491 72.0996 118.55 73.0497 117.074L88.8174 92.7972C89.7743 91.3377 91.7176 90.9106 93.1942 91.8588L118.585 108.305C120.045 109.26 120.471 111.202 119.521 112.678L103.76 136.971C102.803 138.431 100.837 138.848 99.3766 137.893Z" fill="url(#paint3_linear)"/>
</g>
<path d="M100.333 133.348L78.0088 118.886C77.3779 118.485 77.2077 117.642 77.6102 117.011L90.6493 96.9385C91.0517 96.3078 91.8952 96.1371 92.526 96.5387L114.85 111C115.481 111.402 115.651 112.244 115.249 112.875L102.209 132.948C101.807 133.578 100.964 133.749 100.333 133.348Z" fill="white"/>
<path d="M94.5529 118.807L86.4046 113.526L93.4645 111.547L94.5529 118.807Z" fill="#B0B7C4"/>
<path d="M101.295 123.17L89.5561 115.574L99.7212 112.731L101.295 123.17Z" fill="#CED6E2"/>
<path d="M92.8654 108.376C93.2489 109.313 94.3197 109.761 95.2572 109.377C96.1947 108.993 96.6438 107.922 96.2603 106.986C95.8768 106.049 94.8059 105.602 93.8684 105.986C92.931 106.369 92.4819 107.44 92.8654 108.376Z" fill="#B0B7C4"/>
<g filter="url(#filter3_d)">
<path d="M120.199 85.6434C132.077 89.6644 144.966 83.295 148.987 71.417C153.008 59.5389 146.638 46.6503 134.76 42.6293C122.882 38.6083 109.994 44.9777 105.973 56.8557C101.952 68.7337 108.321 81.6224 120.199 85.6434Z" fill="url(#paint4_linear)"/>
</g>
<path d="M126.53 66.9415C128.08 67.466 129.761 66.6352 130.285 65.0859C130.81 63.5366 129.979 61.8555 128.43 61.331C126.88 60.8065 125.199 61.6373 124.675 63.1866C124.15 64.7359 124.981 66.4171 126.53 66.9415Z" fill="white"/>
<path fillRule="evenodd" clip-rule="evenodd" d="M128.109 62.2782C127.083 61.9308 125.969 62.4811 125.622 63.5073C125.274 64.5335 125.825 65.647 126.851 65.9943C127.877 66.3417 128.99 65.7915 129.338 64.7653C129.685 63.7391 129.135 62.6256 128.109 62.2782ZM123.727 62.866C124.429 60.7935 126.678 59.6822 128.75 60.3838C130.822 61.0854 131.934 63.3341 131.232 65.4066C130.531 67.479 128.282 68.5903 126.209 67.8887C124.137 67.1872 123.026 64.9384 123.727 62.866Z" fill="#989FB0"/>
<path fillRule="evenodd" clip-rule="evenodd" d="M132.544 49.161C133.068 49.3353 133.351 49.9014 133.177 50.4255L129.52 61.4204C129.346 61.9445 128.78 62.228 128.256 62.0537C127.731 61.8794 127.448 61.3132 127.622 60.7892L131.279 49.7942C131.454 49.2702 132.02 48.9867 132.544 49.161Z" fill="#989FB0"/>
<path fillRule="evenodd" clip-rule="evenodd" d="M138.78 64.5447C138.753 65.0963 138.284 65.522 137.733 65.4954L130.554 65.1497C130.002 65.1232 129.577 64.6544 129.603 64.1028C129.63 63.5512 130.098 63.1255 130.65 63.1521L137.829 63.4977C138.38 63.5243 138.806 63.993 138.78 64.5447Z" fill="#989FB0"/>
<path d="M134.086 47.5553C134.542 47.338 134.713 46.7704 134.469 46.2876C134.225 45.8048 133.657 45.5896 133.201 45.8069C132.745 46.0242 132.574 46.5917 132.818 47.0745C133.063 47.5573 133.63 47.7726 134.086 47.5553Z" fill="white"/>
<path fillRule="evenodd" clip-rule="evenodd" d="M133.669 46.7307C133.695 46.7184 133.704 46.6862 133.691 46.6588C133.677 46.6314 133.645 46.6192 133.619 46.6315C133.593 46.6438 133.583 46.676 133.597 46.7034C133.611 46.7308 133.643 46.743 133.669 46.7307ZM131.946 47.4903C131.444 46.4973 131.797 45.3301 132.734 44.8832C133.672 44.4363 134.839 44.8789 135.341 45.8719C135.844 46.8649 135.491 48.0321 134.553 48.479C133.616 48.9259 132.449 48.4833 131.946 47.4903Z" fill="#989FB0"/>
<path d="M122.261 82.436C122.717 82.2187 122.888 81.6512 122.644 81.1685C122.4 80.6857 121.832 80.4705 121.377 80.6877C120.921 80.905 120.749 81.4725 120.994 81.9553C121.238 82.4381 121.805 82.6533 122.261 82.436Z" fill="white"/>
<path fillRule="evenodd" clip-rule="evenodd" d="M121.844 81.6115C121.87 81.5992 121.88 81.567 121.866 81.5396C121.852 81.5122 121.82 81.5 121.794 81.5123C121.768 81.5246 121.758 81.5568 121.772 81.5842C121.786 81.6116 121.818 81.6238 121.844 81.6115ZM120.122 82.3711C119.619 81.3781 119.972 80.2109 120.909 79.7639C121.847 79.317 123.014 79.7597 123.517 80.7527C124.019 81.7457 123.666 82.9129 122.729 83.3598C121.791 83.8068 120.624 83.3641 120.122 82.3711Z" fill="#989FB0"/>
<path d="M110.719 59.1257C111.175 58.9084 111.346 58.3409 111.102 57.8582C110.858 57.3754 110.29 57.1602 109.835 57.3774C109.379 57.5947 109.207 58.1622 109.452 58.645C109.696 59.1278 110.263 59.343 110.719 59.1257Z" fill="white"/>
<path fillRule="evenodd" clip-rule="evenodd" d="M110.302 58.3012C110.328 58.2888 110.338 58.2566 110.324 58.2293C110.31 58.2019 110.278 58.1897 110.252 58.202C110.226 58.2143 110.216 58.2465 110.23 58.2739C110.244 58.3013 110.276 58.3135 110.302 58.3012ZM108.58 59.0608C108.077 58.0678 108.43 56.9005 109.367 56.4536C110.305 56.0067 111.472 56.4494 111.975 57.4424C112.477 58.4353 112.124 59.6026 111.187 60.0495C110.249 60.4965 109.082 60.0538 108.58 59.0608Z" fill="#989FB0"/>
<path d="M145.601 70.9504C146.056 70.7331 146.228 70.1656 145.984 69.6828C145.739 69.2 145.172 68.9847 144.716 69.202C144.26 69.4193 144.089 69.9869 144.333 70.4697C144.577 70.9525 145.145 71.1677 145.601 70.9504Z" fill="white"/>
<path fillRule="evenodd" clip-rule="evenodd" d="M145.183 70.1258C145.209 70.1135 145.219 70.0813 145.205 70.0539C145.191 70.0265 145.159 70.0143 145.133 70.0266C145.107 70.039 145.097 70.0712 145.111 70.0985C145.125 70.1259 145.157 70.1381 145.183 70.1258ZM143.46 70.8854C142.958 69.8925 143.311 68.7252 144.248 68.2783C145.186 67.8314 146.353 68.2741 146.855 69.267C147.358 70.26 147.005 71.4272 146.068 71.8741C145.13 72.3211 143.963 71.8784 143.46 70.8854Z" fill="#989FB0"/>
<g filter="url(#filter4_d)">
<path d="M31.495 66.0834C34.5694 64.0941 38.2466 62.9186 42.1951 62.9186C53.1062 62.9186 61.9376 71.7499 61.9376 82.661C61.9376 93.5722 53.1062 102.404 42.1951 102.404C31.284 102.404 22.4526 93.5722 22.4526 82.6912C22.4526 78.8331 23.5679 75.2463 25.4668 72.2021" fill="url(#paint5_linear)"/>
</g>
<path d="M33.8762 72.865C36.1367 70.9662 39.0303 69.7906 42.2253 69.7906C49.3386 69.7906 55.0955 75.5476 55.0955 82.6609C55.0955 89.7742 49.3386 95.5312 42.2253 95.5312C35.1119 95.5312 29.355 89.7742 29.355 82.6609C29.355 79.5262 30.4702 76.6327 32.3691 74.4022" fill="#D3DBE9"/>
<path d="M38.6989 77.8988C39.6936 77.1754 40.8992 76.7534 42.2254 76.7534C45.5108 76.7534 48.1632 79.4058 48.1632 82.6912C48.1632 85.9766 45.5108 88.629 42.2254 88.629C38.94 88.629 36.2876 85.9766 36.2876 82.6912C36.2876 81.5459 36.6192 80.4608 37.1918 79.5565" fill="white"/>
<path d="M32.1883 68.2235L32.1581 68.8565L31.9722 71.2728L32.0075 71.2375L42.5569 81.787C42.9487 82.1788 42.9487 82.8118 42.5569 83.2036C42.165 83.5954 41.5321 83.5954 41.1402 83.2036L30.5908 72.6542L30.5979 72.6471L27.5164 72.8652C26.7026 72.9255 25.8888 72.6241 25.2859 72.0213L19.3481 66.0835C18.9563 65.6615 19.1974 64.9381 19.8002 64.908L22.5965 64.7269L22.0307 64.0941C21.6389 63.7022 21.6389 63.0693 22.0307 62.6774C22.4225 62.2856 23.0555 62.2856 23.4473 62.6774L24.0725 63.3688L24.2611 60.4772C24.2913 59.8744 25.0147 59.6031 25.4366 60.0251L31.3443 65.993C31.9471 66.5657 32.2485 67.3795 32.1883 68.2235Z" fill="#989FB0"/>
<defs>
<filter id="filter0_d" x="41.3164" y="1.03296" width="74.6566" height="78.1582" filterUnits="userSpaceOnUse" color-interpolation-filters="sRGB">
<feFlood flood-opacity="0" result="BackgroundImageFix"/>
<feColorMatrix in="SourceAlpha" type="matrix" values="0 0 0 0 0 0 0 0 0 0 0 0 0 0 0 0 0 0 127 0" result="hardAlpha"/>
<feOffset dy="11"/>
<feGaussianBlur stdDeviation="11"/>
<feColorMatrix type="matrix" values="0 0 0 0 0.397708 0 0 0 0 0.47749 0 0 0 0 0.575 0 0 0 0.27 0"/>
<feBlend mode="normal" in2="BackgroundImageFix" result="effect1_dropShadow"/>
<feBlend mode="normal" in="SourceGraphic" in2="effect1_dropShadow" result="shape"/>
</filter>
<filter id="filter1_d" x="59.915" y="27.8364" width="57.6694" height="56.1411" filterUnits="userSpaceOnUse" color-interpolation-filters="sRGB">
<feFlood flood-opacity="0" result="BackgroundImageFix"/>
<feColorMatrix in="SourceAlpha" type="matrix" values="0 0 0 0 0 0 0 0 0 0 0 0 0 0 0 0 0 0 127 0" result="hardAlpha"/>
<feOffset dy="11"/>
<feGaussianBlur stdDeviation="11"/>
<feColorMatrix type="matrix" values="0 0 0 0 0.397708 0 0 0 0 0.47749 0 0 0 0 0.575 0 0 0 0.27 0"/>
<feBlend mode="normal" in2="BackgroundImageFix" result="effect1_dropShadow"/>
<feBlend mode="normal" in="SourceGraphic" in2="effect1_dropShadow" result="shape"/>
</filter>
<filter id="filter2_d" x="43.3325" y="72.8495" width="105.91" height="106.064" filterUnits="userSpaceOnUse" color-interpolation-filters="sRGB">
<feFlood flood-opacity="0" result="BackgroundImageFix"/>
<feColorMatrix in="SourceAlpha" type="matrix" values="0 0 0 0 0 0 0 0 0 0 0 0 0 0 0 0 0 0 127 0" result="hardAlpha"/>
<feOffset dy="11"/>
<feGaussianBlur stdDeviation="11"/>
<feColorMatrix type="matrix" values="0 0 0 0 0.397708 0 0 0 0 0.47749 0 0 0 0 0.575 0 0 0 0.27 0"/>
<feBlend mode="normal" in2="BackgroundImageFix" result="effect1_dropShadow"/>
<feBlend mode="normal" in="SourceGraphic" in2="effect1_dropShadow" result="shape"/>
</filter>
<filter id="filter3_d" x="76.6924" y="24.3487" width="101.575" height="101.575" filterUnits="userSpaceOnUse" color-interpolation-filters="sRGB">
<feFlood flood-opacity="0" result="BackgroundImageFix"/>
<feColorMatrix in="SourceAlpha" type="matrix" values="0 0 0 0 0 0 0 0 0 0 0 0 0 0 0 0 0 0 127 0" result="hardAlpha"/>
<feOffset dy="11"/>
<feGaussianBlur stdDeviation="11"/>
<feColorMatrix type="matrix" values="0 0 0 0 0.397708 0 0 0 0 0.47749 0 0 0 0 0.575 0 0 0 0.27 0"/>
<feBlend mode="normal" in2="BackgroundImageFix" result="effect1_dropShadow"/>
<feBlend mode="normal" in="SourceGraphic" in2="effect1_dropShadow" result="shape"/>
</filter>
<filter id="filter4_d" x="0.452637" y="51.9186" width="83.4849" height="83.4849" filterUnits="userSpaceOnUse" color-interpolation-filters="sRGB">
<feFlood flood-opacity="0" result="BackgroundImageFix"/>
<feColorMatrix in="SourceAlpha" type="matrix" values="0 0 0 0 0 0 0 0 0 0 0 0 0 0 0 0 0 0 127 0" result="hardAlpha"/>
<feOffset dy="11"/>
<feGaussianBlur stdDeviation="11"/>
<feColorMatrix type="matrix" values="0 0 0 0 0.397708 0 0 0 0 0.47749 0 0 0 0 0.575 0 0 0 0.27 0"/>
<feBlend mode="normal" in2="BackgroundImageFix" result="effect1_dropShadow"/>
<feBlend mode="normal" in="SourceGraphic" in2="effect1_dropShadow" result="shape"/>
</filter>
<linearGradient id="paint0_linear" x1="70.3384" y1="13.7524" x2="88.2817" y2="42.3995" gradientUnits="userSpaceOnUse">
<stop stop-color="#FDFEFF"/>
<stop offset="0.9964" stop-color="#ECF0F5"/>
</linearGradient>
<linearGradient id="paint1_linear" x1="88.0063" y1="42.5424" x2="93.0219" y2="50.5551" gradientUnits="userSpaceOnUse">
<stop stop-color="#FDFEFF"/>
<stop offset="0.9964" stop-color="#ECF0F5"/>
</linearGradient>
<linearGradient id="paint2_linear" x1="69.2854" y1="85.8451" x2="98.5061" y2="78.0154" gradientUnits="userSpaceOnUse">
<stop stop-color="#B0BACC"/>
<stop offset="1" stop-color="#969EAE"/>
</linearGradient>
<linearGradient id="paint3_linear" x1="119.219" y1="105.473" x2="73.8858" y2="124.039" gradientUnits="userSpaceOnUse">
<stop stop-color="#FDFEFF"/>
<stop offset="0.9964" stop-color="#ECF0F5"/>
</linearGradient>
<linearGradient id="paint4_linear" x1="135.083" y1="41.6296" x2="120.028" y2="86.1024" gradientUnits="userSpaceOnUse">
<stop stop-color="#FDFEFF"/>
<stop offset="0.9964" stop-color="#ECF0F5"/>
</linearGradient>
<linearGradient id="paint5_linear" x1="42.1822" y1="62.0053" x2="42.1822" y2="102.829" gradientUnits="userSpaceOnUse">
<stop stop-color="#FDFEFF"/>
<stop offset="0.9964" stop-color="#ECF0F5"/>
</linearGradient>
</defs>
</svg>
