<svg width="160" height="137" viewBox="0 0 160 137" fill="none" xmlns="http://www.w3.org/2000/svg">
<path d="M78.9293 119.068C109.249 119.068 133.86 94.6895 133.86 64.6263C133.86 34.5631 109.249 10.1842 78.9293 10.1842C48.6098 10.1842 23.999 34.5631 23.999 64.6263C23.999 94.6895 48.6098 119.068 78.9293 119.068Z" fill="#EAEEF9"/>
<path d="M17.4026 58.0579C19.4323 58.0579 21.0815 56.5421 21.0815 54.3947C21.0815 52.2474 19.4323 50.7316 17.4026 50.7316C15.3728 50.7316 13.7236 52.2474 13.7236 54.3947C13.7236 56.5421 15.4997 58.0579 17.4026 58.0579Z" fill="#EAEEF9"/>
<path d="M13.8505 46.4369C15.246 46.4369 16.2609 45.3001 16.2609 43.9106C16.2609 42.6474 15.1191 41.3843 13.8505 41.3843C12.5819 41.3843 11.4402 42.5211 11.4402 43.9106C11.1865 45.4264 12.3282 46.4369 13.8505 46.4369Z" fill="#EAEEF9"/>
<path d="M144.389 67.1527C146.926 67.1527 149.083 65.1316 149.083 62.479C149.083 59.8264 147.053 57.8053 144.389 57.8053C141.852 57.8053 139.695 59.8264 139.695 62.479C139.822 65.1316 141.852 67.1527 144.389 67.1527Z" fill="#EAEEF9"/>
<g filter="url(#filter0_d)">
<path d="M128.912 103.405H29.708C25.6485 103.405 22.3501 100.121 22.3501 96.0789V35.8263C22.3501 31.7842 25.6485 28.5 29.708 28.5H128.785C132.845 28.5 136.143 31.7842 136.143 35.8263V96.0789C136.27 100.121 132.972 103.405 128.912 103.405Z" fill="#D5DDEA"/>
</g>
<path d="M29.708 48.079V38.2264C29.708 36.7106 30.8497 35.5737 32.3721 35.5737H126.375C127.898 35.5737 129.039 36.7106 129.039 38.2264V93.5527C129.039 95.0685 127.898 96.2053 126.375 96.2053H32.3721C30.8497 96.2053 29.708 95.0685 29.708 93.5527V69.5527" fill="white"/>
<path d="M123.981 26.2392C124.093 26.3504 124.204 26.3504 124.316 26.3504C124.987 26.573 125.769 26.1279 125.992 25.349C129.01 18.0052 134.932 8.10225 143.313 4.20782L145.66 7.99098C145.995 8.54732 146.778 8.65859 147.448 8.10225C148.007 7.65717 148.23 6.76701 147.895 6.21067L145.548 2.42751C144.99 1.53735 143.984 1.31481 142.978 1.75989C132.586 5.87686 126.998 16.7813 123.757 24.6814C123.422 25.349 123.534 25.9053 123.981 26.2392Z" fill="#AAB2C5"/>
<path d="M102.525 71.637C103.308 72.3046 103.755 72.6384 103.866 72.7497C103.866 72.7497 103.866 72.7497 105.431 73.9737C108.001 70.9694 113.812 69.5229 117.388 69.8567C117.276 69.8567 119.623 63.2918 119.958 62.7355C121.97 59.0636 124.763 55.8368 127.334 52.6099L120.964 50.162L124.652 45.6L120.852 50.162L117.835 45.3774C115.488 48.3817 113.365 51.4973 110.683 54.1677C108.56 56.2818 105.99 57.8396 103.419 59.2861C104.76 62.4016 104.76 68.4102 102.525 71.637Z" fill="#D5DDEA"/>
<path d="M114.827 62.2045C115.388 61.3211 115.122 60.1529 114.235 59.5952C113.348 59.0376 112.175 59.3016 111.615 60.185C111.055 61.0684 111.32 62.2366 112.207 62.7943C113.094 63.3519 114.267 63.0879 114.827 62.2045Z" fill="#D6DCE8"/>
<path fillRule="evenodd" clip-rule="evenodd" d="M112.461 60.7172C112.198 61.1326 112.321 61.685 112.742 61.9497C113.163 62.2144 113.717 62.0878 113.981 61.6723C114.244 61.2568 114.121 60.7045 113.699 60.4398C113.278 60.1751 112.724 60.3017 112.461 60.7172ZM111.671 63.6388C110.318 62.7882 109.911 61.0041 110.768 59.6528C111.624 58.3015 113.417 57.9 114.77 58.7506C116.124 59.6013 116.531 61.3853 115.674 62.7366C114.817 64.0879 113.025 64.4894 111.671 63.6388Z" fill="#AAB2C5"/>
<path fillRule="evenodd" clip-rule="evenodd" d="M112.695 63.2463L104.649 73.3718L103.083 72.1276L111.129 62.0021L112.695 63.2463Z" fill="#AAB2C5"/>
<path d="M158.511 0.313336C158.847 0.424606 158.958 0.535875 159.182 0.758414C162.534 3.98523 155.047 17.7826 143.761 32.6927C134.932 44.2647 128.451 51.9423 125.881 54.7241C125.21 55.3917 124.205 55.5029 123.311 55.0579C120.182 53.1663 119.623 52.6099 116.27 49.6057C115.6 48.938 115.488 47.8254 115.935 47.0465C117.835 43.8197 123.422 35.5857 132.027 23.9024C143.202 8.99235 154.6 -2.02332 158.511 0.313336Z" fill="#989FB0"/>
<path fillRule="evenodd" clip-rule="evenodd" d="M152.256 11.1874C154.024 12.3437 155.608 12.9225 156.288 13.0072L156.041 14.9918C154.933 14.8539 153.052 14.0975 151.161 12.8615C149.243 11.6076 147.185 9.77778 145.8 7.37834L147.532 6.37817C148.716 8.42951 150.514 10.049 152.256 11.1874Z" fill="#AAB2C5"/>
<path fillRule="evenodd" clip-rule="evenodd" d="M73.5095 60.3256C74.4862 60.8336 74.8687 62.0354 74.3654 63.0145L74.3208 63.1012C73.9497 63.823 73.5912 64.5204 73.2448 65.1941C72.4822 66.7404 71.9086 68.111 71.3278 70.0109C70.4283 72.9537 69.5419 76.391 69.759 78.9858C69.7605 79.0032 69.7617 79.0206 69.7627 79.0381C69.8774 81.0363 70.2974 82.1771 70.7123 82.8166C71.0966 83.4087 71.5362 83.6677 71.9922 83.7974L71.9989 83.7993C72.7488 84.0155 73.2475 83.9154 73.6328 83.7201C74.0711 83.4979 74.536 83.0587 74.989 82.3445C75.4924 81.5509 75.8841 80.5723 76.1747 79.5888C76.2611 78.7474 76.4109 77.8825 76.7973 76.8245C77.1494 75.8604 78.174 75.3193 79.1687 75.5722C80.1634 75.825 80.8052 76.7897 80.6542 77.8049C80.5463 78.5299 80.3772 79.3972 80.1269 80.3139C80.114 80.4663 80.1013 80.6295 80.0875 80.8071C80.0729 80.9943 80.0571 81.1976 80.0385 81.421C79.994 82.6786 80.249 83.4418 80.5253 83.8902C80.7957 84.329 81.1636 84.5946 81.6001 84.7423C82.5863 85.0757 83.8198 84.7689 84.4355 84.24C85.4245 83.3057 85.9763 82.5336 86.3191 81.898C86.5469 81.4757 86.7003 81.0824 86.8301 80.6749C86.8372 80.6509 86.8443 80.627 86.8515 80.6032C86.912 80.4001 86.9705 80.204 87.0226 80.0138C87.3144 78.9484 88.4146 78.3214 89.4799 78.6132C90.5453 78.905 91.1723 80.0051 90.8805 81.0705C90.8608 81.1424 90.8404 81.2165 90.8191 81.2926C90.7496 81.5412 90.6866 81.7591 90.6302 81.9539C90.3661 82.866 90.2483 83.273 90.3044 83.9696C90.3702 84.3433 90.6507 84.5998 91.068 84.6246C91.4325 84.6462 92.3325 84.4635 93.1377 82.9073C93.6452 81.9263 94.852 81.5424 95.833 82.05C96.8141 82.5576 97.1979 83.7643 96.6904 84.7454C95.3389 87.3576 93.1309 88.7539 90.8313 88.6176C89.4902 88.5381 88.2567 87.9214 87.4144 86.9248C87.3285 87.0088 87.2404 87.0932 87.1502 87.178C87.1356 87.1918 87.1207 87.2054 87.1056 87.2187C85.4312 88.7007 82.6841 89.3313 80.3187 88.5315C79.0883 88.1154 77.9458 87.3052 77.1469 86.0321C76.659 86.5218 76.0943 86.9569 75.4415 87.2878C74.0992 87.9683 72.5535 88.1212 70.8944 87.6438C69.5756 87.2679 68.3039 86.4533 67.3569 84.994C66.481 83.6442 65.9568 81.8588 65.7904 79.5902C65.3296 80.458 64.938 81.1836 64.6004 81.7941C63.8186 83.2081 63.2774 84.0969 62.801 84.7277C62.2823 85.4145 61.8574 85.77 61.4533 86.1053C60.5836 86.8653 59.4674 87.3652 58.327 87.5275C57.1854 87.6898 55.8695 87.5294 54.7373 86.7576C53.1339 85.7273 52.5703 83.8901 52.3727 82.3475C52.2113 81.087 52.2487 79.6831 52.3917 78.2834C48.6831 82.1947 44.0655 85.2606 39.0178 87.0955C37.9797 87.4728 36.8322 86.9372 36.4549 85.8991C36.0775 84.861 36.6131 83.7135 37.6512 83.3361C45.1557 80.6082 51.5904 74.7858 54.9129 67.5785C55.3593 66.6102 56.4869 66.1623 57.476 66.5605C58.4651 66.9586 58.968 68.0627 58.6191 69.0703C58.0089 70.8323 56.9721 74.3325 56.5049 77.6038C56.2699 79.2497 56.197 80.7199 56.3403 81.8394C56.4939 83.0388 56.8261 83.3464 56.9035 83.395C56.9311 83.4122 56.9581 83.4301 56.9848 83.4487C57.1123 83.5376 57.3646 83.6241 57.7637 83.5673C58.1658 83.5101 58.5607 83.3239 58.8289 83.0866C58.8448 83.0725 58.8609 83.0587 58.8773 83.0451C59.2278 82.7542 59.3679 82.6364 59.6089 82.3171C59.9017 81.9295 60.3277 81.2551 61.0999 79.8586C62.5244 77.2823 64.9588 72.5617 69.6693 63.4004C70.0195 62.6911 70.3982 61.9643 70.8167 61.1689C71.3292 60.1946 72.5328 59.8177 73.5095 60.3256Z" fill="#989FB0"/>
<path fillRule="evenodd" clip-rule="evenodd" d="M99.354 76.2684C100.459 76.2684 101.354 77.1639 101.354 78.2684V78.3948C101.354 79.4993 100.459 80.3948 99.354 80.3948C98.2494 80.3948 97.354 79.4993 97.354 78.3948V78.2684C97.354 77.1639 98.2494 76.2684 99.354 76.2684Z" fill="#989FB0"/>
<defs>
<filter id="filter0_d" x="0.350098" y="17.5" width="157.797" height="118.905" filterUnits="userSpaceOnUse" color-interpolation-filters="sRGB">
<feFlood flood-opacity="0" result="BackgroundImageFix"/>
<feColorMatrix in="SourceAlpha" type="matrix" values="0 0 0 0 0 0 0 0 0 0 0 0 0 0 0 0 0 0 127 0" result="hardAlpha"/>
<feOffset dy="11"/>
<feGaussianBlur stdDeviation="11"/>
<feColorMatrix type="matrix" values="0 0 0 0 0.397708 0 0 0 0 0.47749 0 0 0 0 0.575 0 0 0 0.27 0"/>
<feBlend mode="normal" in2="BackgroundImageFix" result="effect1_dropShadow"/>
<feBlend mode="normal" in="SourceGraphic" in2="effect1_dropShadow" result="shape"/>
</filter>
</defs>
</svg>
