<svg width="100" height="100" viewBox="0 0 158 162" fill="none" xmlns="http://www.w3.org/2000/svg">
<path d="M78.6745 147.08C111.283 147.08 137.675 120.567 137.675 87.8554C137.675 55.1436 111.283 28.7261 78.6745 28.7261C46.0663 28.7261 19.6738 55.2389 19.6738 87.9507C19.6738 120.758 46.162 147.08 78.6745 147.08Z" fill="#EAEEF9"/>
<path d="M106.857 146.951C97.8678 147.237 87.0622 146.951 79.4122 146.856C71.8578 147.142 60.9565 147.237 51.9678 146.951C60.8609 141.896 64.0165 132.455 64.399 126.256H94.234C94.9034 132.359 98.059 141.801 106.857 146.951Z" fill="#D5DDEA"/>
<g filter="url(#filter0_d)">
<path d="M135.736 47.2894V125.207C135.736 127.209 134.206 128.64 132.484 128.64H26.9143C25.0975 128.64 23.6631 127.114 23.6631 125.207V47.2894C23.6631 45.4774 25.1931 43.8561 26.9143 43.8561H132.293C134.301 43.8561 135.736 45.4774 135.736 47.2894Z" fill="white"/>
</g>
<path d="M135.736 47.2894V114.334H23.6631V47.2894C23.6631 45.4774 25.1931 43.8561 26.9143 43.8561H132.293C134.301 43.8561 135.736 45.4774 135.736 47.2894Z" fill="#FF0000"/>
<path d="M136 46.4185V114H24V46.4185C24 44.5778 25.5683 43 27.2672 43H132.602C134.562 43 136 44.5778 136 46.4185Z" fill="#FF0000"/>
<path d="M131.869 48H28V110H132V48H131.869Z" fill="white"/>
<path d="M82.1852 52.058H77.0215V72.3608H82.1852V52.058Z" fill="#D5DDEA"/>
<path d="M79.5075 123.871C81.0375 123.871 82.2806 122.727 82.2806 121.106C82.2806 119.58 81.1331 118.34 79.5075 118.34C77.9775 118.34 76.7344 119.484 76.7344 121.106C76.7344 122.727 77.8819 123.871 79.5075 123.871Z" fill="#D6DDE8"/>
<path d="M1.95605 147.046H153.044" stroke="#D6DDE8" stroke-width="2" stroke-miterlimit="10" stroke-linecap="round" stroke-linejoin="round"/>
<path d="M12.5979 80.8934C14.7972 80.8934 16.5185 79.1767 16.5185 76.9832C16.5185 74.7897 14.7972 73.0731 12.5979 73.0731C10.3985 73.0731 8.67725 74.7897 8.67725 76.9832C8.67725 79.0813 10.4941 80.8934 12.5979 80.8934Z" fill="#EAEEF9"/>
<path d="M8.6775 68.2092C10.1119 68.2092 11.355 66.9694 11.355 65.5388C11.355 64.1083 10.1119 62.8685 8.6775 62.8685C7.24312 62.8685 6 64.1083 6 65.5388C6 66.9694 7.24312 68.2092 8.6775 68.2092Z" fill="#EAEEF9"/>
<path d="M120.654 36.9279C122.088 36.9279 123.332 35.6881 123.332 34.2576C123.332 32.827 122.088 31.5872 120.654 31.5872C119.22 31.5872 117.977 32.827 117.977 34.2576C117.977 35.6881 119.124 36.9279 120.654 36.9279Z" fill="#EAEEF9"/>
<path d="M148.959 90.7165C151.732 90.7165 153.931 88.523 153.931 85.7573C153.931 82.9915 151.732 80.798 148.959 80.798C146.186 80.798 143.986 82.9915 143.986 85.7573C143.986 88.523 146.186 90.7165 148.959 90.7165Z" fill="#EAEEF9"/>
<path d="M79.5 105C90.2696 105 99 96.2696 99 85.5C99 74.7304 90.2696 66 79.5 66C68.7304 66 60 74.7304 60 85.5C60 96.2696 68.7304 105 79.5 105Z" fill="url(#paint0_linear)"/>
<path d="M58.4703 104.607C53.4022 99.6475 50.5334 92.9716 50.4378 85.9143H52.0634C53.0197 85.9143 53.4978 84.8652 52.924 84.1022L49.4815 79.7152C49.0034 79.143 48.1428 79.143 47.6647 79.7152L44.2222 84.1022C43.6484 84.8652 44.2222 85.9143 45.0828 85.9143H46.5172C46.6128 94.0207 49.9597 101.65 55.7928 107.372C56.1753 107.754 56.6534 107.945 57.1315 107.945C57.6097 107.945 58.0878 107.754 58.4703 107.372C59.2353 106.514 59.2353 105.37 58.4703 104.607Z" fill="#D5DDEA"/>
<path d="M113.55 84.9605H112.02C111.925 76.8541 108.673 69.3199 102.936 63.5977C102.171 62.8347 101.023 62.8347 100.258 63.5977C99.4933 64.3606 99.4933 65.5051 100.258 66.268C105.326 71.2273 108.1 77.9031 108.195 84.9605H106.665C105.709 84.9605 105.231 86.0096 105.805 86.7725L109.247 91.1595C109.725 91.7318 110.586 91.7318 111.064 91.1595L114.506 86.7725C114.985 86.0096 114.506 84.9605 113.55 84.9605Z" fill="#D5DDEA"/>
<g filter="url(#filter1_d)">
<path d="M114.999 43.5669C114.999 50.5248 109.373 56.1516 102.354 56.1516C102.233 56.1516 101.205 56.1516 93.6418 56.1516C88.378 56.1516 79.968 56.1516 66.5363 56.1516H60.1229C51.7129 56.3331 44.9971 49.6173 44.9971 41.5098C44.9971 33.3419 51.7734 26.5655 60.3044 26.989C67.6253 4.11874 101.144 7.32542 103.988 30.9822C110.28 31.7688 114.999 37.0931 114.999 43.5669Z" fill="url(#paint1_linear)"/>
</g>
<path d="M102.354 56.1517C109.312 56.1517 114.999 50.5249 114.999 43.567C114.999 36.6091 109.312 30.9823 102.354 30.9823C95.3963 30.9823 89.709 36.6091 89.709 43.567C89.709 50.5249 95.3963 56.1517 102.354 56.1517Z" fill="url(#paint2_linear)"/>
<path d="M81.7226 56.2726C94.1258 56.2726 104.23 46.2291 104.23 33.8259C104.23 21.4227 94.1258 11.3792 81.7226 11.3792C69.3194 11.3792 59.2153 21.4227 59.2153 33.8259C59.2153 46.2291 69.2589 56.2726 81.7226 56.2726Z" fill="url(#paint3_linear)"/>
<path d="M75.7783 34.3193C76.2564 33.8424 76.2564 33.0795 75.7783 32.6026C75.3002 32.1258 74.7264 32.2212 73.9614 32.2212C76.1608 26.6897 83.3327 25.4499 87.062 29.9323C88.4964 31.4582 90.7914 29.4554 89.4527 27.9295C85.532 23.3518 78.5514 22.7796 73.9614 26.6897C72.2402 28.1203 71.0927 30.0276 70.5189 32.2212C68.9889 32.2212 68.702 32.2212 68.3195 32.6026C67.8414 33.0795 67.8414 33.8424 68.3195 34.3193C72.7183 38.6109 71.5708 38.6109 75.7783 34.3193Z" fill="#939CAD"/>
<path d="M94.521 37.085L91.8435 34.3193C91.3654 33.8425 90.6004 33.8425 90.1223 34.3193L87.3491 37.085C86.871 37.5619 86.871 38.3248 87.3491 38.8017C87.8273 39.2785 88.401 39.1832 89.166 39.1832C86.9666 44.81 79.6035 45.9544 75.8742 41.1859C75.3004 40.423 74.3442 40.3276 73.5792 40.8998C71.1885 42.9026 76.8304 47.2896 81.8029 47.2896C86.6798 47.2896 91.1741 43.9516 92.3216 39.0878C93.8516 39.0878 94.1385 39.0878 94.521 38.7063C94.9991 38.4202 94.9991 37.6572 94.521 37.085Z" fill="#939CAD"/>
<path d="M90.9625 84.3485C90.9625 83.2478 89.9494 83.2478 89.1052 83.0784C88.261 82.9091 88.1766 82.2317 87.8389 81.4697C87.1635 80.115 89.6962 79.353 88.3454 78.0829C87.0791 76.8129 86.3193 75.7121 85.3063 76.4742C84.6309 76.9822 84.1244 77.4902 83.3646 77.1515C82.6048 76.8129 81.845 76.7282 81.7606 75.8815C81.4229 73.6801 81.3385 74.0188 78.3838 74.0188C76.5265 74.0188 77.7928 76.3048 76.3577 76.8129C75.5135 77.0669 75.0069 77.5749 74.3316 77.0669C72.5587 75.7121 72.7276 76.0508 70.617 78.1676C69.8573 78.9296 70.4482 79.607 71.0391 80.369C71.5457 81.0463 71.1236 81.639 70.7859 82.4011C70.2794 83.8405 68 82.5704 68 84.4331C68 85.2798 68 86.1265 68.0844 86.9732C68.4221 87.9893 69.2663 87.5659 70.1949 87.9046C70.1949 87.9046 70.2794 87.9046 70.2794 87.9893C70.2794 87.9893 70.2794 87.9893 70.3638 87.9893C70.617 88.1586 70.7015 88.328 70.7859 88.582C70.7859 88.6666 70.9547 88.9206 70.9547 89.0053C71.208 89.6827 71.4612 90.0214 71.0391 90.614C69.7728 92.3074 69.9417 92.2228 72.1366 94.3395C73.4029 95.6096 74.1627 93.1541 75.5135 93.8315C76.02 94.0855 76.8642 94.2548 77.033 94.8475C77.2019 95.2709 77.1174 95.9482 77.3707 96.3716C77.7928 97.2183 79.0591 96.9643 80.4943 96.9643C82.3515 96.9643 81.0852 94.6782 82.5204 94.1702C84.2088 93.5775 83.8711 93.4081 85.3063 94.4242C86.3193 95.1862 87.1635 93.9162 88.3454 92.8155C89.6117 91.5454 87.1635 90.7834 87.8389 89.4287C88.0078 89.1747 88.0922 88.836 88.1766 88.582C88.4299 87.8199 89.1896 87.8199 89.9494 87.7353C91.3002 87.3966 90.9625 86.1265 90.9625 84.3485ZM79.4812 89.4287C77.2863 89.4287 75.5135 87.6506 75.5135 85.4492C75.5135 83.2478 77.2863 81.4697 79.4812 81.4697C81.6762 81.4697 83.449 83.2478 83.449 85.4492C83.5334 87.6506 81.7606 89.4287 79.4812 89.4287C79.4812 89.4287 79.5657 89.4287 79.4812 89.4287Z" fill="white"/>
<defs>
<filter id="filter0_d" x="1.66309" y="32.8561" width="156.073" height="128.784" filterUnits="userSpaceOnUse" color-interpolation-filters="sRGB">
<feFlood flood-opacity="0" result="BackgroundImageFix"/>
<feColorMatrix in="SourceAlpha" type="matrix" values="0 0 0 0 0 0 0 0 0 0 0 0 0 0 0 0 0 0 127 0" result="hardAlpha"/>
<feOffset dy="11"/>
<feGaussianBlur stdDeviation="11"/>
<feColorMatrix type="matrix" values="0 0 0 0 0.397708 0 0 0 0 0.47749 0 0 0 0 0.575 0 0 0 0.27 0"/>
<feBlend mode="normal" in2="BackgroundImageFix" result="effect1_dropShadow"/>
<feBlend mode="normal" in="SourceGraphic" in2="effect1_dropShadow" result="shape"/>
</filter>
<filter id="filter1_d" x="22.9971" y="0.433838" width="114.002" height="88.7214" filterUnits="userSpaceOnUse" color-interpolation-filters="sRGB">
<feFlood flood-opacity="0" result="BackgroundImageFix"/>
<feColorMatrix in="SourceAlpha" type="matrix" values="0 0 0 0 0 0 0 0 0 0 0 0 0 0 0 0 0 0 127 0" result="hardAlpha"/>
<feOffset dy="11"/>
<feGaussianBlur stdDeviation="11"/>
<feColorMatrix type="matrix" values="0 0 0 0 0.397708 0 0 0 0 0.47749 0 0 0 0 0.575 0 0 0 0.27 0"/>
<feBlend mode="normal" in2="BackgroundImageFix" result="effect1_dropShadow"/>
<feBlend mode="normal" in="SourceGraphic" in2="effect1_dropShadow" result="shape"/>
</filter>
<linearGradient id="paint0_linear" x1="59.9821" y1="85.5042" x2="99.0071" y2="85.5042" gradientUnits="userSpaceOnUse">
<stop stop-color="#B0BACC"/>
<stop offset="1" stop-color="#969EAE"/>
</linearGradient>
<linearGradient id="paint1_linear" x1="79.9983" y1="29.9144" x2="79.9754" y2="56.6373" gradientUnits="userSpaceOnUse">
<stop stop-color="white"/>
<stop offset="0.9964" stop-color="#ECF0F5"/>
</linearGradient>
<linearGradient id="paint2_linear" x1="88.3633" y1="28.2728" x2="99.5732" y2="40.5331" gradientUnits="userSpaceOnUse">
<stop stop-color="#BCCBE1"/>
<stop offset="0.9942" stop-color="white" stop-opacity="0"/>
</linearGradient>
<linearGradient id="paint3_linear" x1="57.1078" y1="23.5257" x2="74.7755" y2="30.4396" gradientUnits="userSpaceOnUse">
<stop stop-color="#E2E8F0"/>
<stop offset="0.9942" stop-color="white" stop-opacity="0"/>
</linearGradient>
</defs>
</svg>
