<svg width="151" height="163" viewBox="0 0 151 163" fill="none" xmlns="http://www.w3.org/2000/svg">
<path d="M134.304 120.469C136.881 120.469 138.97 118.38 138.97 115.803C138.97 113.226 136.881 111.137 134.304 111.137C131.728 111.137 129.639 113.226 129.639 115.803C129.639 118.38 131.728 120.469 134.304 120.469Z" fill="#EAEEF9"/>
<path d="M146.523 46.1395C148.283 46.1395 149.709 44.7129 149.709 42.9532C149.709 41.1934 148.283 39.7668 146.523 39.7668C144.763 39.7668 143.336 41.1934 143.336 42.9532C143.336 44.7129 144.763 46.1395 146.523 46.1395Z" fill="#EAEEF9"/>
<path d="M32.6175 31.7211C34.3772 31.7211 35.8038 30.2945 35.8038 28.5347C35.8038 26.775 34.3772 25.3484 32.6175 25.3484C30.8577 25.3484 29.4312 26.775 29.4312 28.5347C29.4312 30.2945 30.8577 31.7211 32.6175 31.7211Z" fill="#EAEEF9"/>
<path d="M29.5815 115.763C32.8497 115.763 35.499 113.114 35.499 109.846C35.499 106.578 32.8497 103.928 29.5815 103.928C26.3134 103.928 23.6641 106.578 23.6641 109.846C23.6641 113.114 26.3134 115.763 29.5815 115.763Z" fill="#EAEEF9"/>
<path d="M86.817 127.269C118.68 127.269 144.512 101.437 144.512 69.4602C144.512 37.4831 118.566 11.651 86.817 11.651C54.9536 11.651 29.1216 37.4831 29.1216 69.4602C29.1216 101.437 54.9536 127.269 86.817 127.269Z" fill="#EAEEF9"/>
<g filter="url(#filter0_d)">
<path d="M127.972 50.187L122.405 69.6715L120.815 75.1059L106.897 124.016C105.837 127.992 101.595 130.246 97.6189 129.185L74.0254 122.425L49.7692 115.4C45.7927 114.34 43.5394 110.099 44.5998 106.122L62.8914 41.8365L65.6749 32.293C66.6027 29.1119 68.856 26.4609 71.7721 25.0029L98.9443 12.0132C103.053 10.025 107.958 11.4831 110.476 15.3269L126.647 40.6435C128.37 43.427 128.9 46.8733 127.972 50.187Z" fill="url(#paint0_linear)"/>
</g>
<g filter="url(#filter1_d)">
<path d="M59.3122 119.112L24.187 83.9865C21.271 81.0705 21.271 76.2988 24.187 73.3827L78.5316 19.0382C80.9174 16.6523 84.0986 15.4594 87.4123 15.592L117.368 17.4476C121.875 17.7127 125.586 21.2915 125.851 25.9307L127.707 55.8864C127.972 59.2001 126.646 62.5138 124.261 64.7671L69.916 119.112C66.9999 122.028 62.2282 122.028 59.3122 119.112Z" fill="url(#paint1_linear)"/>
</g>
<path d="M113.728 42.3943C117.248 38.8745 117.248 33.1676 113.728 29.6478C110.208 26.1279 104.501 26.1279 100.981 29.6478C97.4613 33.1676 97.4613 38.8745 100.981 42.3943C104.501 45.9142 110.208 45.9142 113.728 42.3943Z" fill="#E5EAF6"/>
<path d="M41.6837 80.4077C41.0209 80.4077 40.3582 80.1426 39.828 79.6124C38.7676 78.552 38.7676 76.9615 39.828 75.9011L74.2904 41.4387C75.3508 40.3783 76.9413 40.3783 78.0017 41.4387C79.0621 42.4991 79.0621 44.0896 78.0017 45.15L43.6719 79.6124C43.1417 80.1426 42.479 80.4077 41.6837 80.4077Z" fill="#E5EAF6"/>
<path d="M50.9615 89.5535C50.2988 89.5535 49.636 89.2884 49.1058 88.7583C48.0455 87.6979 48.0455 86.1073 49.1058 85.0469L83.4357 50.7171C84.4961 49.6567 86.0866 49.6567 87.147 50.7171C88.2074 51.7775 88.2074 53.368 87.147 54.4284L52.8172 88.7583C52.287 89.2884 51.6242 89.5535 50.9615 89.5535Z" fill="#E5EAF6"/>
<path d="M63.8189 102.411C63.1562 102.411 62.4934 102.146 61.9633 101.615C60.9029 100.555 60.9029 98.9644 61.9633 97.904L73.3623 86.5049C74.4227 85.4446 76.0133 85.4446 77.0737 86.5049C78.1341 87.5653 78.1341 89.1559 77.0737 90.2163L65.6746 101.615C65.1444 102.146 64.4817 102.411 63.8189 102.411Z" fill="#E5EAF6"/>
<path d="M138.708 22.4845C138.708 30.1723 134.202 37.1973 127.044 40.2459L126.514 38.9204V37.4624C132.213 34.6789 135.925 28.8468 135.925 22.4845C135.925 13.3387 128.502 5.7835 119.224 5.7835C110.078 5.7835 102.523 13.2062 102.523 22.4845C102.523 24.3402 102.788 26.0633 103.451 27.7864C105.306 33.2209 109.813 37.4624 115.512 38.7879L115.247 40.1133L114.452 41.4388C108.222 39.8483 103.318 35.3416 101.065 29.5095C100.269 27.3888 99.7393 25.0029 99.7393 22.6171C99.8718 11.7481 108.487 3 119.224 3C130.093 3 138.708 11.7481 138.708 22.4845Z" fill="#989FB0"/>
<defs>
<filter id="filter0_d" x="22.3384" y="0.125648" width="128.086" height="162.321" filterUnits="userSpaceOnUse" color-interpolation-filters="sRGB">
<feFlood flood-opacity="0" result="BackgroundImageFix"/>
<feColorMatrix in="SourceAlpha" type="matrix" values="0 0 0 0 0 0 0 0 0 0 0 0 0 0 0 0 0 0 127 0" result="hardAlpha"/>
<feOffset dy="11"/>
<feGaussianBlur stdDeviation="11"/>
<feColorMatrix type="matrix" values="0 0 0 0 0.397708 0 0 0 0 0.47749 0 0 0 0 0.575 0 0 0 0.27 0"/>
<feBlend mode="normal" in2="BackgroundImageFix" result="effect1_dropShadow"/>
<feBlend mode="normal" in="SourceGraphic" in2="effect1_dropShadow" result="shape"/>
</filter>
<filter id="filter1_d" x="0" y="4.582" width="149.74" height="149.717" filterUnits="userSpaceOnUse" color-interpolation-filters="sRGB">
<feFlood flood-opacity="0" result="BackgroundImageFix"/>
<feColorMatrix in="SourceAlpha" type="matrix" values="0 0 0 0 0 0 0 0 0 0 0 0 0 0 0 0 0 0 127 0" result="hardAlpha"/>
<feOffset dy="11"/>
<feGaussianBlur stdDeviation="11"/>
<feColorMatrix type="matrix" values="0 0 0 0 0.397708 0 0 0 0 0.47749 0 0 0 0 0.575 0 0 0 0.27 0"/>
<feBlend mode="normal" in2="BackgroundImageFix" result="effect1_dropShadow"/>
<feBlend mode="normal" in="SourceGraphic" in2="effect1_dropShadow" result="shape"/>
</filter>
<linearGradient id="paint0_linear" x1="86.3538" y1="8.38877" x2="86.3538" y2="130.722" gradientUnits="userSpaceOnUse">
<stop stop-color="#FDFEFF"/>
<stop offset="0.9964" stop-color="#ECF0F5"/>
</linearGradient>
<linearGradient id="paint1_linear" x1="74.8356" y1="13.1367" x2="74.8356" y2="122.438" gradientUnits="userSpaceOnUse">
<stop stop-color="#FDFEFF"/>
<stop offset="0.9964" stop-color="#ECF0F5"/>
</linearGradient>
</defs>
</svg>
