<svg width="171" height="185" viewBox="0 0 171 185" fill="none" xmlns="http://www.w3.org/2000/svg">
<path d="M80.3102 140.78C113.766 140.78 140.89 113.657 140.89 80.0813C140.89 46.5055 113.647 19.3821 80.3102 19.3821C46.8539 19.3821 19.7305 46.5055 19.7305 80.0813C19.7305 113.657 46.8539 140.78 80.3102 140.78Z" fill="#EAEEF9"/>
<path d="M123.359 27.0242C126.065 27.0242 128.258 24.8309 128.258 22.1253C128.258 19.4197 126.065 17.2263 123.359 17.2263C120.653 17.2263 118.46 19.4197 118.46 22.1253C118.46 24.8309 120.653 27.0242 123.359 27.0242Z" fill="#EAEEF9"/>
<path d="M103.639 11.6913C105.486 11.6913 106.984 10.1934 106.984 8.34563C106.984 6.49789 105.486 5 103.639 5C101.791 5 100.293 6.49789 100.293 8.34563C100.293 10.1934 101.791 11.6913 103.639 11.6913Z" fill="#EAEEF9"/>
<path d="M22.4784 40.2923C24.3262 40.2923 25.8241 38.7944 25.8241 36.9467C25.8241 35.099 24.3262 33.6011 22.4784 33.6011C20.6307 33.6011 19.1328 35.099 19.1328 36.9467C19.1328 38.7944 20.6307 40.2923 22.4784 40.2923Z" fill="#F1F3F9"/>
<path d="M20.2133 128.699C23.6448 128.699 26.4266 125.918 26.4266 122.486C26.4266 119.055 23.6448 116.273 20.2133 116.273C16.7818 116.273 14 119.055 14 122.486C14 125.918 16.7818 128.699 20.2133 128.699Z" fill="#EAEEF9"/>
<g filter="url(#filter0_d)">
<path d="M104.775 108.666L98.8493 110.654C98.2811 108.909 96.4141 108.016 94.6689 108.584C92.9237 109.153 91.9903 111.02 92.5991 112.765L86.633 114.753C86.0648 113.008 84.1978 112.075 82.4526 112.684C80.7074 113.252 79.8145 115.119 80.3828 116.864L74.4166 118.853C73.9702 117.513 72.7526 116.661 71.4133 116.62C71.048 116.62 70.6422 116.661 70.2363 116.783C68.4911 117.351 67.5577 119.218 68.1664 120.963L62.2409 122.952C60.4957 117.757 54.8949 114.956 49.6999 116.702C49.5376 116.742 49.4158 116.823 49.2535 116.864L22.751 38.1681C22.9133 38.1275 23.0757 38.0869 23.1974 38.0463C28.3924 36.3011 31.1928 30.6597 29.4476 25.5053L35.3731 23.5166C35.9413 25.2618 37.8083 26.1953 39.5535 25.5865C41.2987 25.0183 42.1916 23.1513 41.6234 21.4061L47.5489 19.4174C48.1171 21.1626 50.0246 22.0961 51.7292 21.4873C53.4744 20.9191 54.4079 19.0522 53.7991 17.307L59.7246 15.3183C60.2928 17.0635 62.1597 17.9564 63.9049 17.3882C65.6501 16.82 66.543 14.953 65.9748 13.2078L71.9815 11.1785C73.7267 16.3735 79.3275 19.1333 84.5225 17.3882L94.466 46.9346L111.025 96.1245C105.83 97.8697 103.03 103.471 104.775 108.666Z" fill="url(#paint0_linear)"/>
</g>
<path d="M96.9419 96.8144L60.8612 108.95C59.1972 109.518 57.3708 108.625 56.8026 106.92L34.8051 41.5772C34.2369 39.9132 35.1298 38.0868 36.8344 37.5186L72.9151 25.3835C74.5792 24.8153 76.4055 25.7082 76.9737 27.4128L98.9712 92.7558C99.5394 94.4199 98.6059 96.2462 96.9419 96.8144Z" fill="#F1F3F9" stroke="#D6DCE8" stroke-width="2" stroke-miterlimit="10"/>
<path d="M38.2949 52.0078L80.5041 37.8028" stroke="#D6DCE8" stroke-width="2" stroke-miterlimit="10" stroke-linejoin="round"/>
<path d="M50.3896 40.7656L64.067 36.1794" stroke="#D6DCE8" stroke-width="2" stroke-miterlimit="10" stroke-linecap="round" stroke-linejoin="round"/>
<path d="M53.2715 96.4086L95.4401 82.2036" stroke="#D6DCE8" stroke-width="2" stroke-miterlimit="10" stroke-linejoin="round"/>
<path d="M76.4268 61.2072L73.667 66.5239C73.5046 66.8486 73.5046 67.2138 73.667 67.4979L76.508 72.7741C76.7921 73.3017 76.5891 73.9105 76.0615 74.1946C75.8586 74.3164 75.6151 74.3569 75.3716 74.3164L69.446 73.3829C69.0808 73.3423 68.7561 73.4235 68.5126 73.7076L64.3728 78.0502C63.967 78.4561 63.3176 78.4967 62.8711 78.0908C62.7088 77.9285 62.5871 77.7256 62.5465 77.482L61.613 71.5565C61.5724 71.2318 61.3289 70.9071 61.0448 70.7854L55.6469 68.1879C55.1193 67.9444 54.9163 67.295 55.1599 66.7674C55.241 66.5645 55.444 66.4021 55.6469 66.2804L61.0042 63.5611C61.3289 63.3988 61.5318 63.1147 61.5724 62.7494L62.3841 56.8239C62.4653 56.2557 62.9929 55.8498 63.5611 55.931C63.8046 55.9716 64.0076 56.0528 64.1699 56.2151L68.3908 60.436C68.6343 60.6795 68.9996 60.8013 69.3243 60.7201L75.2498 59.6243C75.818 59.5026 76.3862 59.9084 76.4674 60.4766C76.5891 60.7607 76.5485 61.0042 76.4268 61.2072Z" fill="url(#paint1_linear)"/>
<path d="M69.6685 97.9915L83.3053 93.4053" stroke="#D6DCE8" stroke-width="2" stroke-miterlimit="10" stroke-linecap="round" stroke-linejoin="round"/>
<g filter="url(#filter1_d)">
<path d="M148.973 60.6119L139.111 143.082C133.672 142.433 128.761 146.329 128.112 151.727L121.902 150.996C122.105 149.17 120.806 147.547 119.021 147.344C117.194 147.141 115.571 148.44 115.368 150.225L109.158 149.495C109.361 147.668 108.062 146.045 106.277 145.842C104.45 145.639 102.827 146.938 102.624 148.724L96.4143 147.993C96.6172 146.167 95.3185 144.543 93.5327 144.34C91.7063 144.137 90.0829 145.436 89.88 147.222L83.6704 146.491C84.3197 141.053 80.4235 136.142 75.0256 135.493C74.8633 135.493 74.7009 135.452 74.5386 135.452L84.4009 52.9818C84.5632 53.0224 84.7256 53.0224 84.8879 53.063C90.3264 53.7124 95.2373 49.8161 95.8867 44.4182L102.096 45.1488C101.893 46.9751 103.192 48.5986 104.978 48.8015C106.764 49.0044 108.428 47.7057 108.631 45.9199L114.84 46.6504C114.637 48.4768 115.936 50.1002 117.722 50.3032C119.548 50.5061 121.172 49.2073 121.375 47.4216L127.584 48.1521C127.381 49.9785 128.68 51.6019 130.466 51.8048C132.292 52.0078 133.916 50.709 134.118 48.9232L140.328 49.6538C139.638 55.0517 143.534 59.9626 148.973 60.6119Z" fill="url(#paint2_linear)"/>
</g>
<path d="M126.123 137.644L88.297 133.139C86.5518 132.936 85.2936 131.312 85.4966 129.567L93.6949 61.099C93.8978 59.3538 95.5213 58.0957 97.2664 58.2986L135.092 62.8036C136.838 63.0065 138.096 64.63 137.893 66.3751L129.735 134.843C129.492 136.588 127.868 137.847 126.123 137.644Z" fill="#F1F3F9" stroke="#D6DCE8" stroke-width="2" stroke-miterlimit="10"/>
<path d="M92.356 72.0166L136.554 77.2928" stroke="#D6DCE8" stroke-width="2" stroke-miterlimit="10" stroke-linejoin="round"/>
<path d="M108.103 67.0652L122.43 68.7698" stroke="#D6DCE8" stroke-width="2" stroke-miterlimit="10" stroke-linecap="round" stroke-linejoin="round"/>
<path d="M100.96 127.051L115.246 128.756" stroke="#D6DCE8" stroke-width="2" stroke-miterlimit="10" stroke-linecap="round" stroke-linejoin="round"/>
<path d="M86.7954 118.569L130.993 123.845" stroke="#D6DCE8" stroke-width="2" stroke-miterlimit="10" stroke-linejoin="round"/>
<path d="M122.857 96.679L118.068 100.332C117.784 100.535 117.621 100.859 117.662 101.225L117.987 107.191C118.027 107.759 117.581 108.287 116.972 108.287C116.729 108.287 116.526 108.246 116.323 108.084L111.371 104.674C111.087 104.471 110.722 104.431 110.397 104.553L104.796 106.704C104.269 106.907 103.619 106.663 103.416 106.095C103.335 105.892 103.335 105.648 103.376 105.405L105.08 99.6824C105.162 99.3577 105.121 98.9924 104.878 98.7083L101.103 94.041C100.738 93.5945 100.819 92.9451 101.265 92.5393C101.428 92.3769 101.671 92.2958 101.915 92.2958L107.921 92.1334C108.287 92.1334 108.571 91.9305 108.774 91.6464L112.061 86.6543C112.386 86.1673 113.035 86.0456 113.522 86.3297C113.725 86.4514 113.847 86.6543 113.928 86.8573L115.917 92.4987C116.039 92.8234 116.323 93.0669 116.647 93.1481L122.451 94.6903C123.019 94.8527 123.344 95.4209 123.222 95.9891C123.182 96.3543 123.06 96.5573 122.857 96.679Z" fill="url(#paint3_linear)"/>
<path d="M146.335 45.1083L147.999 40.928" stroke="#AAB2C5" stroke-width="3" stroke-miterlimit="10" stroke-linecap="round"/>
<path d="M150.434 49.1262L157.374 43.7283" stroke="#AAB2C5" stroke-width="3" stroke-miterlimit="10" stroke-linecap="round"/>
<path d="M153.762 54.1184L157.74 53.469" stroke="#AAB2C5" stroke-width="3" stroke-miterlimit="10" stroke-linecap="round"/>
<defs>
<filter id="filter0_d" x="0.750977" y="0.178535" width="132.274" height="155.773" filterUnits="userSpaceOnUse" color-interpolation-filters="sRGB">
<feFlood flood-opacity="0" result="BackgroundImageFix"/>
<feColorMatrix in="SourceAlpha" type="matrix" values="0 0 0 0 0 0 0 0 0 0 0 0 0 0 0 0 0 0 127 0" result="hardAlpha"/>
<feOffset dy="11"/>
<feGaussianBlur stdDeviation="11"/>
<feColorMatrix type="matrix" values="0 0 0 0 0.397708 0 0 0 0 0.47749 0 0 0 0 0.575 0 0 0 0.27 0"/>
<feBlend mode="normal" in2="BackgroundImageFix" result="effect1_dropShadow"/>
<feBlend mode="normal" in="SourceGraphic" in2="effect1_dropShadow" result="shape"/>
</filter>
<filter id="filter1_d" x="52.5386" y="33.4182" width="118.434" height="151.309" filterUnits="userSpaceOnUse" color-interpolation-filters="sRGB">
<feFlood flood-opacity="0" result="BackgroundImageFix"/>
<feColorMatrix in="SourceAlpha" type="matrix" values="0 0 0 0 0 0 0 0 0 0 0 0 0 0 0 0 0 0 127 0" result="hardAlpha"/>
<feOffset dy="11"/>
<feGaussianBlur stdDeviation="11"/>
<feColorMatrix type="matrix" values="0 0 0 0 0.397708 0 0 0 0 0.47749 0 0 0 0 0.575 0 0 0 0.27 0"/>
<feBlend mode="normal" in2="BackgroundImageFix" result="effect1_dropShadow"/>
<feBlend mode="normal" in="SourceGraphic" in2="effect1_dropShadow" result="shape"/>
</filter>
<linearGradient id="paint0_linear" x1="66.8592" y1="8.59312" x2="66.8592" y2="124.157" gradientUnits="userSpaceOnUse">
<stop stop-color="#FDFEFF"/>
<stop offset="0.9964" stop-color="#ECF0F5"/>
</linearGradient>
<linearGradient id="paint1_linear" x1="55.0477" y1="67.1506" x2="76.6405" y2="67.1506" gradientUnits="userSpaceOnUse">
<stop stop-color="#B0BACC"/>
<stop offset="1" stop-color="#969EAE"/>
</linearGradient>
<linearGradient id="paint2_linear" x1="111.731" y1="41.9361" x2="111.731" y2="152.884" gradientUnits="userSpaceOnUse">
<stop stop-color="#FDFEFF"/>
<stop offset="0.9964" stop-color="#ECF0F5"/>
</linearGradient>
<linearGradient id="paint3_linear" x1="100.863" y1="97.235" x2="123.252" y2="97.235" gradientUnits="userSpaceOnUse">
<stop stop-color="#B0BACC"/>
<stop offset="1" stop-color="#969EAE"/>
</linearGradient>
</defs>
</svg>
