<svg width="174" height="137" viewBox="0 0 174 137" fill="none" xmlns="http://www.w3.org/2000/svg">
<path d="M88.7 117.6C116.7 117.6 139.4 94.9 139.4 66.8C139.4 38.7 116.6 16 88.7 16C60.7 16 38 38.7 38 66.8C38 94.9 60.7 117.6 88.7 117.6Z" fill="#EAEEF9"/>
<path d="M135.7 33.6C137.964 33.6 139.8 31.7644 139.8 29.5C139.8 27.2357 137.964 25.4 135.7 25.4C133.436 25.4 131.6 27.2357 131.6 29.5C131.6 31.7644 133.436 33.6 135.7 33.6Z" fill="#F1F3F9"/>
<path d="M141.7 17.6C143.246 17.6 144.5 16.3464 144.5 14.8C144.5 13.2536 143.246 12 141.7 12C140.154 12 138.9 13.2536 138.9 14.8C138.9 16.3464 140.154 17.6 141.7 17.6Z" fill="#EAEEF9"/>
<path d="M33.8 40.6C35.3464 40.6 36.6 39.3464 36.6 37.8C36.6 36.2536 35.3464 35 33.8 35C32.2536 35 31 36.2536 31 37.8C31 39.3464 32.2536 40.6 33.8 40.6Z" fill="#EAEEF9"/>
<path d="M49.2 118.4C52.0719 118.4 54.4 116.072 54.4 113.2C54.4 110.328 52.0719 108 49.2 108C46.3281 108 44 110.328 44 113.2C44 116.072 46.3281 118.4 49.2 118.4Z" fill="#EAEEF9"/>
<g filter="url(#filter0_d)">
<path d="M152 80.4046C152 93.3259 141.55 103.775 128.517 103.775C128.292 103.775 126.382 103.775 112.337 103.775C102.562 103.775 86.9438 103.775 62 103.775H50.0899C34.4719 104.112 22 91.6406 22 76.5844C22 61.4159 34.5843 48.8316 50.4269 49.6181C64.0224 7.14626 126.27 13.1013 131.55 57.0338C143.236 58.4945 152 68.3821 152 80.4046Z" fill="url(#paint0_linear)"/>
</g>
<path d="M128.517 103.775C141.438 103.775 152 93.326 152 80.4047C152 67.4834 141.438 57.0339 128.517 57.0339C115.595 57.0339 105.034 67.4834 105.034 80.4047C105.034 93.326 115.595 103.775 128.517 103.775Z" fill="url(#paint1_linear)"/>
<path d="M90.202 104C113.236 104 132 85.3484 132 62.3147C132 39.2811 113.236 20.6294 90.202 20.6294C67.1683 20.6294 48.4043 39.2811 48.4043 62.3147C48.4043 85.3484 67.056 104 90.202 104Z" fill="url(#paint2_linear)"/>
<path d="M78.6176 63.5102L80.5724 61.551C81.1425 60.9796 81.1425 60 80.5724 59.4286C80.0023 58.8571 79.0249 58.8571 78.4548 59.4286L76.5 61.3878L74.5452 59.4286C73.9751 58.8571 72.9977 58.8571 72.4276 59.4286C71.8575 60 71.8575 60.9796 72.4276 61.551L74.3824 63.5102L72.4276 65.4694C71.8575 66.0408 71.8575 67.0204 72.4276 67.5918C72.7534 67.9184 73.0792 68 73.4864 68C73.8937 68 74.2195 67.8367 74.5452 67.5918L76.5 65.6327L78.4548 67.5918C78.7805 67.9184 79.1063 68 79.5136 68C79.9208 68 80.2466 67.8367 80.5724 67.5918C81.1425 67.0204 81.1425 66.0408 80.5724 65.4694L78.6176 63.5102Z" fill="#989FB0"/>
<path d="M99.3529 63.5102L101.525 61.551C102.158 60.9796 102.158 60 101.525 59.4286C100.891 58.8571 99.8054 58.8571 99.1719 59.4286L97 61.3878L94.8281 59.4286C94.1946 58.8571 93.1086 58.8571 92.4751 59.4286C91.8416 60 91.8416 60.9796 92.4751 61.551L94.6471 63.5102L92.4751 65.4694C91.8416 66.0408 91.8416 67.0204 92.4751 67.5918C92.8371 67.9184 93.1991 68 93.6516 68C94.1041 68 94.4661 67.8367 94.8281 67.5918L97 65.6327L99.1719 67.5918C99.5339 67.9184 99.8959 68 100.348 68C100.801 68 101.163 67.8367 101.525 67.5918C102.158 67.0204 102.158 66.0408 101.525 65.4694L99.3529 63.5102Z" fill="#989FB0"/>
<path fillRule="evenodd" clip-rule="evenodd" d="M42.7363 24.0521C42.9707 23.13 43.9082 22.5725 44.8303 22.8068L51.3505 24.4642C52.2726 24.6986 52.8301 25.6361 52.5957 26.5582C52.3614 27.4804 51.4238 28.0379 50.5017 27.8035L43.9815 26.1461C43.0594 25.9117 42.5019 24.9742 42.7363 24.0521Z" fill="#989FB0"/>
<path fillRule="evenodd" clip-rule="evenodd" d="M48.2767 5.71515C49.0639 5.1808 50.1352 5.3858 50.6696 6.17302L58.464 17.656C58.9983 18.4432 58.7933 19.5146 58.0061 20.0489C57.2189 20.5833 56.1476 20.3783 55.6132 19.5911L47.8188 8.10806C47.2844 7.32084 47.4894 6.2495 48.2767 5.71515Z" fill="#989FB0"/>
<path fillRule="evenodd" clip-rule="evenodd" d="M62.7351 0.536284C63.6684 0.351547 64.5748 0.958405 64.7595 1.89174L67.4543 15.5061C67.639 16.4394 67.0322 17.3458 66.0988 17.5306C65.1655 17.7153 64.2591 17.1084 64.0744 16.1751L61.3796 2.56073C61.1949 1.6274 61.8018 0.721022 62.7351 0.536284Z" fill="#989FB0"/>
<rect x="76" y="77" width="23" height="3" fill="#989FB0"/>
<path d="M90 78H94V83C94 84.1046 93.1046 85 92 85V85C90.8954 85 90 84.1046 90 83V78Z" fill="#989FB0"/>
<path d="M142.594 34.0647C142.168 35.8614 141.528 37.5889 140.746 39.1783C138.686 42.9098 135.63 45.9503 131.793 47.8161C127.813 49.82 123.123 50.511 118.362 49.6127C107.276 47.3323 100.099 36.8288 102.444 25.9798C104.789 15.1308 115.52 8.15147 126.676 10.4318C130.656 11.2611 134.138 13.1268 137.051 15.8218C141.883 20.6589 143.944 27.5 142.594 34.0647Z" fill="url(#paint3_linear)"/>
<path d="M119.508 20.1442L119.508 20.1442L119.509 20.1522L120.321 30.2291C120.39 31.4288 121.315 32.5 122.5 32.5C123.685 32.5 124.61 31.4288 124.679 30.2291L125.491 20.1522L125.491 20.1522L125.492 20.1431C125.614 18.1862 124.32 16.5 122.5 16.5C120.674 16.5 119.386 18.2551 119.508 20.1442Z" fill="white" stroke="white"/>
<path d="M122.5 36.5C120.835 36.5 119.5 37.835 119.5 39.5C119.5 41.165 120.835 42.5 122.5 42.5C124.165 42.5 125.5 41.165 125.5 39.5C125.5 37.835 124.165 36.5 122.5 36.5Z" fill="white" stroke="white"/>
<defs>
<filter id="filter0_d" x="0" y="9.73096" width="174" height="127.051" filterUnits="userSpaceOnUse" color-interpolation-filters="sRGB">
<feFlood flood-opacity="0" result="BackgroundImageFix"/>
<feColorMatrix in="SourceAlpha" type="matrix" values="0 0 0 0 0 0 0 0 0 0 0 0 0 0 0 0 0 0 127 0" result="hardAlpha"/>
<feOffset dy="11"/>
<feGaussianBlur stdDeviation="11"/>
<feColorMatrix type="matrix" values="0 0 0 0 0.397708 0 0 0 0 0.47749 0 0 0 0 0.575 0 0 0 0.27 0"/>
<feBlend mode="normal" in2="BackgroundImageFix" result="effect1_dropShadow"/>
<feBlend mode="normal" in="SourceGraphic" in2="effect1_dropShadow" result="shape"/>
</filter>
<linearGradient id="paint0_linear" x1="86.9999" y1="55.0509" x2="86.9576" y2="104.677" gradientUnits="userSpaceOnUse">
<stop stop-color="white"/>
<stop offset="0.9964" stop-color="#ECF0F5"/>
</linearGradient>
<linearGradient id="paint1_linear" x1="102.535" y1="52.0023" x2="123.352" y2="74.7704" gradientUnits="userSpaceOnUse">
<stop stop-color="#BCCBE1"/>
<stop offset="0.9942" stop-color="white" stop-opacity="0"/>
</linearGradient>
<linearGradient id="paint2_linear" x1="44.4904" y1="43.1864" x2="77.3007" y2="56.0262" gradientUnits="userSpaceOnUse">
<stop stop-color="#E2E8F0"/>
<stop offset="0.9942" stop-color="white" stop-opacity="0"/>
</linearGradient>
<linearGradient id="paint3_linear" x1="101.981" y1="30.0043" x2="143.007" y2="30.0043" gradientUnits="userSpaceOnUse">
<stop stop-color="#B0BACC"/>
<stop offset="1" stop-color="#969EAE"/>
</linearGradient>
</defs>
</svg>
