<svg width="204" height="165" viewBox="0 0 204 165" fill="none" xmlns="http://www.w3.org/2000/svg">
<g filter="url(#filter0_d)">
<rect x="77.7456" y="33.6416" width="52.7305" height="45.9509" transform="rotate(-12.9538 77.7456 33.6416)" fill="url(#paint0_linear)"/>
</g>
<rect x="83.8979" y="36.8643" width="42.1844" height="4.51976" transform="rotate(-12.9538 83.8979 36.8643)" fill="#D6DCE8"/>
<path d="M75.0725 28.1122C73.9821 25.5751 75.1548 22.6345 77.6918 21.5442L116.95 4.67149C119.487 3.5811 122.428 4.75384 123.518 7.29088L126.006 13.0784L77.5598 33.8997L75.0725 28.1122Z" fill="#D6DCE8"/>
<path fillRule="evenodd" clip-rule="evenodd" d="M74.1538 28.507C72.8454 25.4626 74.2527 21.9339 77.2971 20.6254L116.555 3.75276C119.6 2.4443 123.129 3.85159 124.437 6.89603L127.319 13.6023L77.0361 35.2133L74.1538 28.507ZM78.0868 22.4629C76.0572 23.3352 75.119 25.6877 75.9913 27.7173L78.0839 32.5861L124.692 12.5545L122.6 7.68575C121.727 5.65613 119.375 4.71793 117.345 5.59024L78.0868 22.4629Z" fill="#D6DCE8"/>
<path d="M77.3523 21.6903L76.5588 22.0313C75.1875 22.6207 74.3452 23.9277 74.2824 25.3251L82.6185 31.7257L87.6218 29.5754L77.3523 21.6903Z" fill="white"/>
<path d="M97.2229 25.4489L92.2196 27.5993L81.95 19.7142L86.9534 17.5639L97.2229 25.4489Z" fill="white"/>
<path d="M106.824 21.3225L101.821 23.4729L91.5512 15.5878L96.5546 13.4374L106.824 21.3225Z" fill="white"/>
<path d="M116.425 17.196L111.422 19.3464L101.152 11.4613L106.156 9.31093L116.425 17.196Z" fill="white"/>
<path d="M125.99 13.0416L126.006 13.0785L121.023 15.22L110.754 7.33488L115.757 5.18451L125.99 13.0416Z" fill="white"/>
<g filter="url(#filter1_d)">
<path d="M147.767 123.921L101.174 98.2703L132.731 40.9492C133.758 39.0832 136.099 38.3877 137.974 39.4196L171.475 57.8634L175.823 72.9594L147.767 123.921Z" fill="url(#paint1_linear)"/>
</g>
<path d="M121.607 96.8817L114.559 93.0016C114.296 92.8568 114.346 92.2693 114.657 91.7034C114.969 91.1374 115.439 90.7816 115.702 90.9263L122.75 94.8064C123.013 94.9512 122.963 95.5387 122.652 96.1046C122.288 96.7649 121.87 97.0264 121.607 96.8817Z" fill="#D5DDEA"/>
<path d="M154.215 63.1751L136.669 53.515C136.261 53.2903 136.174 52.6188 136.482 52.0601C136.79 51.5014 137.403 51.2151 137.811 51.4397L155.358 61.0999C155.766 61.3245 155.852 61.996 155.544 62.5547C155.237 63.1134 154.623 63.3998 154.215 63.1751Z" fill="#D6DCE8"/>
<path d="M139.926 61.6183L133.919 58.3107C133.556 58.1111 133.509 57.4611 133.816 56.9024C134.124 56.3437 134.698 56.0358 135.061 56.2354L141.017 59.5145C141.38 59.7141 141.427 60.3641 141.119 60.9228C140.812 61.4815 140.237 61.7894 139.926 61.6183Z" fill="#D6DCE8"/>
<path d="M151.49 98.0092L130.455 86.4289L128.137 85.1526L121.126 81.2925C120.843 81.1369 120.322 81.4136 119.989 82.0188C119.703 82.5376 119.644 83.181 119.983 83.3678L126.995 87.2278L129.313 88.5042L150.347 100.084C150.63 100.24 151.151 99.9634 151.484 99.3581C151.761 98.7217 151.773 98.1648 151.49 98.0092Z" fill="#D6DCE8"/>
<path d="M154.536 92.4746L146.719 88.171L144.056 86.7053L124.173 75.7591C123.89 75.6032 123.369 75.8796 123.036 76.4849C122.75 77.0037 122.691 77.6473 123.031 77.8344L142.914 88.7805L145.576 90.2463L153.393 94.5499C153.677 94.7058 154.198 94.4294 154.531 93.8241C154.808 93.1877 154.819 92.6306 154.536 92.4746Z" fill="#D6DCE8"/>
<path d="M157.253 87.6607L155.221 86.5423L153.19 85.4239L126.837 70.9158C126.555 70.7604 126.034 71.0374 125.701 71.6427C125.416 72.1615 125.356 72.8046 125.694 72.991L152.047 87.4992L154.304 88.7418L156.054 89.7049C156.336 89.8602 156.856 89.5832 157.189 88.9779C157.531 88.4902 157.535 87.8161 157.253 87.6607Z" fill="#D6DCE8"/>
<path d="M160.255 82.1023L153.71 78.499L152.088 77.6058L129.879 65.379C129.599 65.225 129.081 65.5034 128.748 66.1087C128.462 66.6275 128.401 67.2695 128.736 67.4543L150.945 79.6811L152.568 80.5742L159.057 84.1468C159.448 84.3623 159.91 84.0532 160.243 83.4479C160.529 82.9291 160.591 82.2871 160.255 82.1023Z" fill="#D6DCE8"/>
<path d="M171.252 58.2698L168.779 62.7617C167.181 65.6646 168.239 69.3133 171.141 70.9115L175.6 73.3658" fill="#D5DDEA"/>
<g filter="url(#filter2_d)">
<path d="M95.9877 103.163L46.1285 121.68L23.3468 60.3406C22.6052 58.3438 23.6078 56.1172 25.6137 55.3723L61.4639 42.0574L75.7334 48.628L95.9877 103.163Z" fill="url(#paint2_linear)"/>
</g>
<path d="M61.6255 42.4923L63.4108 47.2991C64.5645 50.4055 68.018 51.9884 71.1243 50.8347L75.895 49.0629" fill="#D5DDEA"/>
<path d="M77.5583 82.6447L66.6165 76.8024C64.5437 75.6956 61.9645 76.6775 61.0897 78.9066L57.2317 88.7362L55.1267 87.6203C53.0414 86.5149 50.4542 87.5184 49.5963 89.7653L47.9483 94.0816C46.7144 97.3134 49.7939 100.471 52.9838 99.2449L66.9377 93.8814L77.0677 89.942C80.2516 88.7038 80.5516 84.2428 77.5583 82.6447Z" fill="#D6DCE8"/>
<path d="M49.0644 81.0383C51.6424 79.6819 52.7136 76.7019 51.4988 74.2655C50.2841 71.8291 47.3041 70.9805 44.7261 72.3368C42.1481 73.6932 41.077 76.6732 42.2917 79.1096C43.5065 81.546 46.4865 82.3946 49.0644 81.0383Z" fill="#D6DCE8"/>
<g filter="url(#filter3_d)">
<path d="M135.686 131.323H75.4458V57.212C75.4458 54.7994 77.3884 52.8307 79.8119 52.8307H123.126L135.686 65.4341V131.323Z" fill="url(#paint3_linear)"/>
</g>
<path d="M123.126 53.3561V59.9594C123.126 63.2731 125.813 65.9594 129.126 65.9594H135.686" fill="#D5DDEA"/>
<path d="M97.2062 77.6449C99.7512 75.9906 102.678 75.0999 105.987 75.0999C114.767 75.0999 121.893 82.226 121.893 91.0064C121.893 99.7868 114.767 106.913 105.987 106.913C97.2062 106.913 90.0801 99.7868 90.0801 91.0064C90.0801 85.4073 92.8796 80.5717 97.2062 77.6449Z" fill="url(#paint4_linear)"/>
<path d="M107.098 82.9875L111.866 87.6599C112.51 88.2913 112.51 89.1752 111.866 89.8066C111.222 90.438 110.32 90.438 109.675 89.8066L107.485 87.6599V97.7623C107.485 98.52 106.84 99.2777 105.938 99.2777C105.165 99.2777 104.392 98.6463 104.392 97.7623V87.6599L102.201 89.8066C101.557 90.438 100.655 90.438 100.011 89.8066C99.7529 89.5541 99.624 89.1752 99.624 88.7964C99.624 88.4176 99.7529 88.0387 100.011 87.7862L104.779 83.1138C105.036 82.8612 105.423 82.7349 105.809 82.7349C106.196 82.7349 106.84 82.7349 107.098 82.9875Z" fill="white"/>
<defs>
<filter id="filter0_d" x="55.7456" y="10.8213" width="105.689" height="100.602" filterUnits="userSpaceOnUse" color-interpolation-filters="sRGB">
<feFlood flood-opacity="0" result="BackgroundImageFix"/>
<feColorMatrix in="SourceAlpha" type="matrix" values="0 0 0 0 0 0 0 0 0 0 0 0 0 0 0 0 0 0 127 0" result="hardAlpha"/>
<feOffset dy="11"/>
<feGaussianBlur stdDeviation="11"/>
<feColorMatrix type="matrix" values="0 0 0 0 0.397708 0 0 0 0 0.47749 0 0 0 0 0.575 0 0 0 0.27 0"/>
<feBlend mode="normal" in2="BackgroundImageFix" result="effect1_dropShadow"/>
<feBlend mode="normal" in="SourceGraphic" in2="effect1_dropShadow" result="shape"/>
</filter>
<filter id="filter1_d" x="79.1738" y="26.5605" width="124.015" height="130.361" filterUnits="userSpaceOnUse" color-interpolation-filters="sRGB">
<feFlood flood-opacity="0" result="BackgroundImageFix"/>
<feColorMatrix in="SourceAlpha" type="matrix" values="0 0 0 0 0 0 0 0 0 0 0 0 0 0 0 0 0 0 127 0" result="hardAlpha"/>
<feOffset dy="11"/>
<feGaussianBlur stdDeviation="11"/>
<feColorMatrix type="matrix" values="0 0 0 0 0.397708 0 0 0 0 0.47749 0 0 0 0 0.575 0 0 0 0.27 0"/>
<feBlend mode="normal" in2="BackgroundImageFix" result="effect1_dropShadow"/>
<feBlend mode="normal" in="SourceGraphic" in2="effect1_dropShadow" result="shape"/>
</filter>
<filter id="filter2_d" x="0" y="27.1966" width="117.988" height="127.484" filterUnits="userSpaceOnUse" color-interpolation-filters="sRGB">
<feFlood flood-opacity="0" result="BackgroundImageFix"/>
<feColorMatrix in="SourceAlpha" type="matrix" values="0 0 0 0 0 0 0 0 0 0 0 0 0 0 0 0 0 0 127 0" result="hardAlpha"/>
<feOffset dy="11"/>
<feGaussianBlur stdDeviation="11"/>
<feColorMatrix type="matrix" values="0 0 0 0 0.397708 0 0 0 0 0.47749 0 0 0 0 0.575 0 0 0 0.27 0"/>
<feBlend mode="normal" in2="BackgroundImageFix" result="effect1_dropShadow"/>
<feBlend mode="normal" in="SourceGraphic" in2="effect1_dropShadow" result="shape"/>
</filter>
<filter id="filter3_d" x="53.4458" y="41.8307" width="104.24" height="122.492" filterUnits="userSpaceOnUse" color-interpolation-filters="sRGB">
<feFlood flood-opacity="0" result="BackgroundImageFix"/>
<feColorMatrix in="SourceAlpha" type="matrix" values="0 0 0 0 0 0 0 0 0 0 0 0 0 0 0 0 0 0 127 0" result="hardAlpha"/>
<feOffset dy="11"/>
<feGaussianBlur stdDeviation="11"/>
<feColorMatrix type="matrix" values="0 0 0 0 0.397708 0 0 0 0 0.47749 0 0 0 0 0.575 0 0 0 0.27 0"/>
<feBlend mode="normal" in2="BackgroundImageFix" result="effect1_dropShadow"/>
<feBlend mode="normal" in="SourceGraphic" in2="effect1_dropShadow" result="shape"/>
</filter>
<linearGradient id="paint0_linear" x1="104.094" y1="32.5787" x2="104.094" y2="80.0879" gradientUnits="userSpaceOnUse">
<stop stop-color="#FDFEFF"/>
<stop offset="0.9964" stop-color="#ECF0F5"/>
</linearGradient>
<linearGradient id="paint1_linear" x1="158.651" y1="48.9733" x2="124.095" y2="111.742" gradientUnits="userSpaceOnUse">
<stop stop-color="#FDFEFF"/>
<stop offset="0.9964" stop-color="#ECF0F5"/>
</linearGradient>
<linearGradient id="paint2_linear" x1="46.3552" y1="45.9588" x2="71.3019" y2="113.128" gradientUnits="userSpaceOnUse">
<stop stop-color="#FDFEFF"/>
<stop offset="0.9964" stop-color="#ECF0F5"/>
</linearGradient>
<linearGradient id="paint3_linear" x1="105.546" y1="51.0151" x2="105.546" y2="132.169" gradientUnits="userSpaceOnUse">
<stop stop-color="#FDFEFF"/>
<stop offset="0.9964" stop-color="#ECF0F5"/>
</linearGradient>
<linearGradient id="paint4_linear" x1="90.0655" y1="91.0098" x2="121.899" y2="91.0098" gradientUnits="userSpaceOnUse">
<stop stop-color="#B0BACC"/>
<stop offset="1" stop-color="#969EAE"/>
</linearGradient>
</defs>
</svg>
