<svg width="512" height="512" viewBox="0 0 512 512" fill="none" xmlns="http://www.w3.org/2000/svg">
<path d="M128.037 448H383.957C390.991 448.017 397.772 445.359 402.94 440.559C424.499 420.478 441.746 396.172 453.621 369.137C465.496 342.101 471.747 312.908 471.991 283.351C473.095 163.171 375.986 64.2842 256.521 64.0006C136.988 63.7168 40.0001 161.115 40.0001 281.302C39.966 311.216 46.0886 340.812 57.9823 368.229C69.876 395.645 87.2832 420.287 109.108 440.603C114.265 445.381 121.026 448.023 128.037 448Z" fill="url(#paint0_linear_61_816)"/>
<path d="M82.2196 406.234L61.2449 153.987C60.7724 148.305 62.5764 142.668 66.2601 138.317C69.9437 133.965 75.2051 131.255 80.887 130.782L372.902 106.501C377.707 106.101 382.474 107.627 386.155 110.742C389.835 113.858 392.127 118.307 392.527 123.113L410.489 339.122C410.888 343.928 409.362 348.695 406.247 352.376C403.132 356.056 398.682 358.348 393.876 358.748L101.862 383.029C99.0482 383.263 96.3085 384.049 93.7988 385.341C91.2892 386.634 89.0587 388.409 87.2348 390.563C85.4108 392.718 84.0292 395.211 83.1686 397.9C82.3081 400.588 81.9856 403.42 82.2196 406.234Z" fill="#D4D9E3"/>
<path d="M104.109 171.107L339.55 87.934C341.789 87.1432 344.165 86.8169 346.534 86.9751C348.903 87.1334 351.215 87.7728 353.329 88.8544C355.443 89.936 357.314 91.437 358.828 93.2659C360.342 95.0948 361.468 97.2131 362.136 99.4914L376.496 148.457L104.109 171.107Z" fill="#417A93"/>
<path d="M61.1719 153.106L82.1466 405.352C82.3805 408.166 83.1663 410.905 84.459 413.415C85.7518 415.925 87.5262 418.155 89.681 419.979C91.8358 421.803 94.3287 423.185 97.0175 424.045C99.7062 424.906 102.538 425.228 105.351 424.995L432.51 397.791C437.315 397.391 441.765 395.099 444.881 391.419C447.996 387.738 449.522 382.971 449.122 378.165L431.161 162.156C430.761 157.35 428.469 152.901 424.788 149.785C421.108 146.67 416.341 145.144 411.535 145.544L84.3766 172.748C81.5633 172.982 78.7314 172.659 76.0427 171.799C73.354 170.938 70.8611 169.557 68.7063 167.733C66.5516 165.909 64.7771 163.678 63.4844 161.169C62.1916 158.659 61.4058 155.919 61.1719 153.106Z" fill="#E5E9F1"/>
<path d="M425.633 387.699L412.256 388.812C411.813 388.846 411.375 388.704 411.037 388.417C410.7 388.129 410.489 387.72 410.452 387.278C410.416 386.836 410.555 386.397 410.841 386.058C411.127 385.718 411.536 385.506 411.978 385.467L425.355 384.355C425.798 384.32 426.236 384.462 426.573 384.749C426.911 385.037 427.122 385.446 427.159 385.889C427.195 386.331 427.055 386.769 426.77 387.109C426.484 387.448 426.075 387.66 425.633 387.699ZM389.96 390.666L376.582 391.778C376.14 391.813 375.702 391.671 375.364 391.383C375.026 391.096 374.815 390.686 374.779 390.244C374.742 389.802 374.882 389.363 375.167 389.024C375.453 388.685 375.862 388.472 376.304 388.433L389.681 387.321C389.902 387.302 390.123 387.326 390.334 387.393C390.545 387.459 390.74 387.567 390.91 387.709C391.079 387.852 391.218 388.026 391.319 388.223C391.421 388.419 391.482 388.633 391.501 388.854C391.519 389.074 391.494 389.296 391.426 389.506C391.358 389.716 391.25 389.911 391.107 390.08C390.963 390.248 390.788 390.387 390.592 390.487C390.395 390.588 390.18 390.648 389.96 390.666ZM354.286 393.632L340.908 394.744C340.466 394.779 340.028 394.637 339.69 394.35C339.352 394.062 339.142 393.653 339.105 393.21C339.068 392.768 339.208 392.33 339.494 391.99C339.78 391.651 340.188 391.439 340.63 391.4L354.008 390.287C354.45 390.253 354.888 390.395 355.225 390.683C355.563 390.97 355.773 391.379 355.81 391.821C355.847 392.263 355.707 392.702 355.421 393.041C355.136 393.38 354.728 393.593 354.286 393.632ZM318.612 396.598L305.234 397.711C304.792 397.745 304.354 397.603 304.016 397.316C303.678 397.028 303.468 396.619 303.431 396.177C303.394 395.735 303.534 395.296 303.82 394.957C304.106 394.617 304.514 394.405 304.956 394.366L318.334 393.254C318.776 393.219 319.214 393.361 319.552 393.649C319.889 393.936 320.1 394.346 320.136 394.788C320.173 395.23 320.033 395.668 319.748 396.007C319.462 396.347 319.054 396.559 318.612 396.598ZM282.938 399.565L269.561 400.677C269.34 400.696 269.118 400.672 268.908 400.606C268.697 400.539 268.501 400.432 268.332 400.289C268.163 400.147 268.023 399.972 267.922 399.776C267.82 399.579 267.759 399.365 267.74 399.144C267.722 398.924 267.747 398.702 267.815 398.492C267.883 398.281 267.991 398.086 268.135 397.918C268.278 397.749 268.453 397.611 268.65 397.511C268.847 397.41 269.062 397.35 269.283 397.332L282.66 396.22C282.88 396.201 283.102 396.225 283.313 396.291C283.524 396.358 283.72 396.465 283.889 396.608C284.058 396.75 284.197 396.925 284.299 397.121C284.4 397.318 284.462 397.532 284.48 397.753C284.499 397.973 284.473 398.195 284.406 398.405C284.338 398.616 284.229 398.811 284.086 398.979C283.943 399.147 283.768 399.286 283.571 399.386C283.374 399.487 283.159 399.547 282.938 399.565ZM247.265 402.531L233.887 403.643C233.667 403.663 233.445 403.638 233.234 403.572C233.023 403.505 232.827 403.398 232.658 403.255C232.489 403.113 232.35 402.939 232.248 402.742C232.147 402.546 232.085 402.331 232.067 402.111C232.048 401.89 232.074 401.669 232.141 401.458C232.209 401.248 232.318 401.053 232.461 400.884C232.604 400.716 232.779 400.577 232.976 400.477C233.173 400.376 233.388 400.316 233.609 400.299L246.986 399.186C247.429 399.152 247.867 399.294 248.205 399.581C248.543 399.869 248.753 400.278 248.79 400.72C248.826 401.162 248.687 401.601 248.401 401.94C248.115 402.28 247.706 402.492 247.265 402.531ZM211.591 405.497L198.213 406.61C197.993 406.629 197.771 406.605 197.56 406.538C197.349 406.472 197.154 406.364 196.984 406.222C196.815 406.079 196.676 405.905 196.574 405.708C196.473 405.512 196.411 405.297 196.393 405.077C196.375 404.857 196.4 404.635 196.468 404.424C196.535 404.214 196.644 404.019 196.787 403.851C196.931 403.682 197.106 403.544 197.303 403.443C197.5 403.343 197.715 403.282 197.935 403.265L211.313 402.153C211.755 402.118 212.193 402.26 212.531 402.547C212.869 402.835 213.079 403.244 213.116 403.687C213.153 404.129 213.013 404.567 212.727 404.907C212.441 405.246 212.033 405.458 211.591 405.497ZM175.917 408.464L162.539 409.576C162.319 409.595 162.097 409.571 161.886 409.505C161.675 409.438 161.48 409.33 161.311 409.188C161.141 409.046 161.002 408.871 160.901 408.675C160.799 408.478 160.737 408.264 160.719 408.043C160.701 407.823 160.726 407.601 160.794 407.391C160.862 407.18 160.97 406.985 161.113 406.817C161.257 406.648 161.432 406.51 161.629 406.41C161.826 406.309 162.041 406.249 162.261 406.231L175.639 405.119C176.081 405.084 176.519 405.226 176.857 405.514C177.195 405.801 177.405 406.211 177.442 406.653C177.479 407.095 177.339 407.534 177.053 407.873C176.767 408.212 176.359 408.425 175.917 408.464ZM140.243 411.43L126.866 412.542C126.645 412.562 126.424 412.537 126.213 412.471C126.002 412.404 125.807 412.296 125.638 412.154C125.469 412.012 125.329 411.837 125.228 411.641C125.126 411.444 125.065 411.23 125.046 411.01C125.028 410.789 125.053 410.568 125.121 410.357C125.189 410.147 125.297 409.952 125.44 409.784C125.584 409.615 125.759 409.477 125.956 409.376C126.152 409.276 126.367 409.215 126.587 409.198L139.965 408.085C140.407 408.051 140.845 408.193 141.183 408.48C141.521 408.768 141.732 409.177 141.768 409.619C141.805 410.061 141.665 410.5 141.38 410.839C141.094 411.179 140.685 411.391 140.243 411.43ZM104.569 414.396C99.7268 414.819 94.8742 413.702 90.703 411.206C90.321 410.978 90.0452 410.607 89.9362 410.176C89.8272 409.745 89.894 409.288 90.1217 408.906C90.3495 408.523 90.7197 408.247 91.151 408.138C91.5823 408.029 92.0393 408.095 92.4217 408.323C95.961 410.448 100.079 411.405 104.193 411.06C104.641 411.021 105.087 411.159 105.435 411.445C105.783 411.731 106.005 412.141 106.054 412.589C106.077 412.805 106.057 413.024 105.995 413.233C105.933 413.442 105.83 413.636 105.691 413.804C105.553 413.973 105.383 414.112 105.19 414.213C104.997 414.315 104.786 414.377 104.569 414.396H104.569ZM433.914 370.761C433.47 370.797 433.03 370.657 432.691 370.369C432.351 370.082 432.139 369.671 432.102 369.227L430.99 355.85C430.955 355.407 431.097 354.969 431.385 354.631C431.672 354.294 432.082 354.083 432.524 354.046C432.966 354.01 433.405 354.149 433.744 354.435C434.083 354.721 434.296 355.13 434.334 355.572L435.447 368.949C435.484 369.393 435.343 369.833 435.055 370.172C434.768 370.512 434.357 370.724 433.914 370.761ZM430.947 335.087C430.504 335.124 430.064 334.983 429.724 334.695C429.385 334.408 429.173 333.997 429.136 333.554L428.024 320.176C428.004 319.956 428.029 319.734 428.095 319.523C428.162 319.313 428.27 319.117 428.412 318.948C428.554 318.779 428.729 318.64 428.925 318.538C429.121 318.437 429.336 318.375 429.556 318.357C429.776 318.339 429.998 318.364 430.209 318.432C430.419 318.499 430.614 318.608 430.782 318.751C430.951 318.894 431.089 319.069 431.19 319.266C431.29 319.463 431.351 319.678 431.368 319.898L432.48 333.276C432.517 333.719 432.376 334.159 432.089 334.499C431.801 334.838 431.391 335.05 430.947 335.087H430.947ZM427.981 299.413C427.538 299.45 427.098 299.309 426.758 299.022C426.418 298.734 426.207 298.323 426.17 297.88L425.057 284.502C425.023 284.06 425.165 283.622 425.452 283.284C425.74 282.946 426.149 282.736 426.591 282.699C427.033 282.662 427.472 282.802 427.811 283.088C428.151 283.374 428.363 283.782 428.402 284.224L429.514 297.602C429.551 298.045 429.41 298.485 429.123 298.825C428.835 299.165 428.424 299.376 427.981 299.413ZM425.015 263.739C424.571 263.776 424.131 263.635 423.792 263.348C423.452 263.06 423.24 262.65 423.203 262.206L422.091 248.828C422.072 248.608 422.096 248.386 422.163 248.176C422.229 247.965 422.337 247.769 422.479 247.6C422.622 247.431 422.796 247.292 422.992 247.191C423.189 247.089 423.403 247.027 423.624 247.009C423.844 246.991 424.066 247.016 424.276 247.084C424.486 247.151 424.681 247.26 424.85 247.403C425.018 247.546 425.157 247.721 425.257 247.918C425.358 248.115 425.418 248.33 425.435 248.55L426.548 261.928C426.585 262.371 426.444 262.811 426.156 263.151C425.869 263.491 425.458 263.702 425.015 263.739V263.739ZM422.048 228.065C421.605 228.102 421.165 227.962 420.825 227.674C420.486 227.386 420.274 226.976 420.237 226.532L419.125 213.155C419.105 212.934 419.129 212.712 419.196 212.502C419.263 212.291 419.37 212.095 419.513 211.926C419.655 211.757 419.829 211.617 420.026 211.516C420.222 211.414 420.437 211.353 420.657 211.334C420.878 211.316 421.099 211.341 421.31 211.409C421.52 211.477 421.715 211.585 421.884 211.729C422.052 211.872 422.191 212.047 422.291 212.244C422.391 212.441 422.452 212.656 422.469 212.877L423.582 226.254C423.618 226.698 423.478 227.138 423.19 227.477C422.903 227.817 422.492 228.029 422.048 228.065V228.065ZM419.082 192.392C418.639 192.429 418.199 192.288 417.859 192C417.519 191.713 417.308 191.302 417.271 190.859L416.158 177.481C416.139 177.261 416.163 177.039 416.23 176.828C416.296 176.617 416.404 176.421 416.546 176.252C416.689 176.083 416.863 175.944 417.059 175.842C417.256 175.741 417.47 175.679 417.691 175.661C417.911 175.642 418.133 175.668 418.343 175.735C418.554 175.803 418.749 175.912 418.917 176.055C419.086 176.198 419.224 176.374 419.325 176.57C419.425 176.767 419.486 176.982 419.503 177.203L420.615 190.58C420.652 191.024 420.511 191.464 420.224 191.804C419.936 192.143 419.525 192.355 419.082 192.392ZM407.331 163.292L393.953 164.405C393.733 164.424 393.511 164.4 393.3 164.333C393.089 164.267 392.894 164.159 392.725 164.017C392.555 163.874 392.416 163.7 392.315 163.504C392.213 163.307 392.151 163.093 392.133 162.872C392.115 162.652 392.14 162.43 392.208 162.22C392.275 162.009 392.384 161.814 392.527 161.646C392.671 161.477 392.846 161.339 393.043 161.238C393.24 161.138 393.455 161.077 393.675 161.06L407.053 159.948C407.495 159.913 407.933 160.055 408.271 160.343C408.609 160.63 408.819 161.04 408.856 161.482C408.893 161.924 408.753 162.363 408.467 162.702C408.181 163.041 407.773 163.253 407.331 163.292ZM371.657 166.259L358.28 167.371C358.059 167.39 357.837 167.366 357.626 167.3C357.416 167.233 357.22 167.126 357.051 166.983C356.882 166.841 356.742 166.666 356.641 166.47C356.539 166.273 356.478 166.059 356.459 165.839C356.441 165.618 356.466 165.396 356.534 165.186C356.602 164.975 356.71 164.78 356.854 164.612C356.997 164.444 357.172 164.305 357.369 164.205C357.566 164.104 357.781 164.044 358.001 164.027L371.379 162.914C371.821 162.88 372.259 163.021 372.597 163.309C372.935 163.596 373.146 164.006 373.182 164.448C373.219 164.89 373.079 165.329 372.793 165.668C372.508 166.007 372.099 166.22 371.657 166.259L371.657 166.259ZM335.983 169.225L322.606 170.337C322.385 170.357 322.164 170.333 321.953 170.266C321.742 170.2 321.546 170.092 321.377 169.95C321.208 169.807 321.069 169.633 320.967 169.436C320.865 169.24 320.804 169.025 320.785 168.805C320.767 168.585 320.793 168.363 320.86 168.152C320.928 167.942 321.037 167.747 321.18 167.578C321.323 167.41 321.498 167.272 321.695 167.171C321.892 167.071 322.107 167.01 322.328 166.993L335.705 165.881C335.925 165.861 336.147 165.886 336.358 165.952C336.569 166.019 336.764 166.126 336.933 166.269C337.102 166.411 337.242 166.586 337.343 166.782C337.445 166.978 337.506 167.193 337.525 167.413C337.543 167.633 337.517 167.855 337.45 168.066C337.382 168.276 337.274 168.471 337.13 168.639C336.987 168.808 336.812 168.946 336.615 169.047C336.419 169.147 336.204 169.208 335.983 169.225ZM300.31 172.191L286.932 173.304C286.712 173.323 286.49 173.299 286.279 173.232C286.068 173.165 285.873 173.058 285.704 172.915C285.535 172.773 285.396 172.599 285.294 172.402C285.193 172.206 285.131 171.991 285.113 171.771C285.094 171.551 285.12 171.329 285.187 171.119C285.255 170.908 285.364 170.713 285.507 170.545C285.65 170.377 285.825 170.238 286.022 170.138C286.219 170.037 286.434 169.976 286.654 169.959L300.032 168.847C300.474 168.812 300.912 168.954 301.25 169.242C301.588 169.529 301.798 169.939 301.835 170.381C301.872 170.823 301.732 171.261 301.446 171.601C301.16 171.94 300.752 172.152 300.31 172.191L300.31 172.191ZM264.636 175.158L251.258 176.27C250.816 176.305 250.378 176.163 250.04 175.875C249.702 175.588 249.492 175.178 249.455 174.736C249.418 174.294 249.558 173.855 249.844 173.516C250.13 173.177 250.538 172.964 250.98 172.926L264.358 171.813C264.8 171.779 265.238 171.92 265.576 172.208C265.914 172.495 266.124 172.905 266.161 173.347C266.198 173.789 266.058 174.228 265.772 174.567C265.486 174.906 265.078 175.119 264.636 175.158V175.158ZM228.962 178.124L215.584 179.236C215.142 179.271 214.704 179.129 214.366 178.842C214.028 178.554 213.818 178.145 213.781 177.703C213.744 177.26 213.884 176.822 214.17 176.482C214.456 176.143 214.864 175.931 215.306 175.892L228.684 174.78C228.904 174.76 229.126 174.784 229.337 174.851C229.548 174.917 229.744 175.025 229.913 175.167C230.082 175.31 230.221 175.484 230.323 175.681C230.424 175.877 230.486 176.092 230.504 176.312C230.523 176.532 230.497 176.754 230.429 176.965C230.362 177.175 230.253 177.37 230.11 177.539C229.967 177.707 229.791 177.845 229.594 177.946C229.397 178.046 229.183 178.107 228.962 178.124ZM193.288 181.09L179.911 182.203C179.468 182.237 179.03 182.095 178.692 181.808C178.354 181.521 178.144 181.111 178.107 180.669C178.071 180.227 178.21 179.788 178.496 179.449C178.782 179.109 179.191 178.897 179.633 178.858L193.01 177.746C193.23 177.726 193.452 177.751 193.663 177.817C193.874 177.884 194.07 177.991 194.239 178.134C194.408 178.276 194.547 178.451 194.649 178.647C194.75 178.843 194.812 179.058 194.83 179.278C194.849 179.499 194.823 179.72 194.756 179.931C194.688 180.141 194.579 180.337 194.436 180.505C194.293 180.673 194.118 180.812 193.921 180.912C193.724 181.013 193.509 181.073 193.288 181.09ZM157.615 184.057L144.237 185.169C143.795 185.203 143.357 185.061 143.019 184.774C142.682 184.486 142.471 184.077 142.435 183.635C142.398 183.193 142.538 182.755 142.823 182.415C143.109 182.076 143.517 181.864 143.959 181.825L157.336 180.712C157.557 180.693 157.779 180.717 157.99 180.783C158.2 180.85 158.396 180.958 158.565 181.1C158.734 181.242 158.874 181.417 158.975 181.613C159.077 181.81 159.138 182.024 159.157 182.245C159.175 182.465 159.15 182.687 159.082 182.897C159.014 183.108 158.906 183.303 158.762 183.471C158.619 183.64 158.444 183.778 158.247 183.878C158.05 183.979 157.835 184.039 157.615 184.057V184.057ZM121.941 187.023L108.563 188.135C108.343 188.155 108.121 188.131 107.91 188.064C107.699 187.998 107.504 187.89 107.335 187.748C107.165 187.605 107.026 187.431 106.925 187.234C106.823 187.038 106.761 186.823 106.743 186.603C106.725 186.383 106.75 186.161 106.818 185.95C106.885 185.74 106.994 185.545 107.137 185.376C107.281 185.208 107.456 185.07 107.653 184.969C107.85 184.869 108.065 184.808 108.285 184.791L121.663 183.679C122.105 183.644 122.543 183.786 122.881 184.073C123.219 184.361 123.429 184.77 123.466 185.212C123.503 185.654 123.363 186.093 123.077 186.432C122.791 186.772 122.383 186.984 121.941 187.023ZM86.2671 189.989L85.8136 190.027C81.1328 190.419 76.444 189.371 72.3764 187.022C71.9904 186.8 71.7084 186.434 71.5923 186.004C71.4762 185.575 71.5355 185.116 71.7572 184.73C71.979 184.344 72.3449 184.062 72.7746 183.946C73.2042 183.83 73.6624 183.89 74.0484 184.111C77.5253 186.121 81.5338 187.018 85.5355 186.683L85.989 186.645C86.2091 186.626 86.431 186.65 86.6417 186.716C86.8525 186.783 87.048 186.891 87.217 187.033C87.386 187.176 87.5253 187.35 87.6267 187.546C87.7282 187.743 87.7898 187.957 87.8081 188.177C87.8265 188.398 87.8011 188.619 87.7334 188.83C87.6658 189.04 87.5573 189.235 87.4141 189.404C87.2709 189.572 87.0959 189.71 86.899 189.811C86.7022 189.911 86.4874 189.972 86.2671 189.989H86.2671Z" fill="white"/>
<path opacity="0.15" d="M368.737 314.899L445.151 330.408L441.577 287.429L368.737 314.899Z" fill="black"/>
<path d="M367.706 244.714L440.538 238.658C442.016 238.535 443.482 239.004 444.614 239.962C445.746 240.92 446.451 242.289 446.574 243.767L451.45 302.41C451.573 303.888 451.104 305.355 450.146 306.487C449.188 307.619 447.819 308.324 446.341 308.447L373.509 314.503C364.254 315.272 355.073 312.334 347.985 306.334C340.897 300.334 336.483 291.764 335.713 282.51L335.713 282.51C334.944 273.255 337.882 264.074 343.882 256.986C349.882 249.898 358.451 245.483 367.706 244.714Z" fill="#D4D9E3"/>
<path d="M369.687 303.237C382.695 303.237 393.24 292.693 393.24 279.685C393.24 266.677 382.695 256.132 369.687 256.132C356.68 256.132 346.135 266.677 346.135 279.685C346.135 292.693 356.68 303.237 369.687 303.237Z" fill="#417A93"/>
<defs>
<linearGradient id="paint0_linear_61_816" x1="256" y1="64" x2="256" y2="448" gradientUnits="userSpaceOnUse">
<stop stop-color="#FBFDFE"/>
<stop offset="1" stop-color="#F0F5FA"/>
</linearGradient>
</defs>
</svg>
