<svg width="100" height="95" viewBox="0 0 178 145" fill="none" xmlns="http://www.w3.org/2000/svg">
<path d="M90.0592 110.58C120.485 110.58 145.111 85.8083 145.111 55.2452C145.111 24.6821 120.485 0 90.0592 0C59.723 0 35.0078 24.7712 35.0078 55.3343C35.0078 85.8974 59.723 110.58 90.0592 110.58Z" fill="#EAEEF9"/>
<path fillRule="evenodd" clip-rule="evenodd" d="M13.5 111.847C13.5 111.018 14.1716 110.347 15 110.347H166.018C166.846 110.347 167.518 111.018 167.518 111.847C167.518 112.675 166.846 113.347 166.018 113.347H15C14.1716 113.347 13.5 112.675 13.5 111.847Z" fill="#EAEEF9"/>
<path d="M28.4053 48.6515C30.4574 48.6515 32.0635 47.0476 32.0635 44.9982C32.0635 42.9487 30.4574 41.3448 28.4053 41.3448C26.3531 41.3448 24.7471 42.9487 24.7471 44.9982C24.7471 47.0476 26.4423 48.6515 28.4053 48.6515Z" fill="#EAEEF9"/>
<path d="M24.7468 36.8004C26.0852 36.8004 27.2451 35.642 27.2451 34.3054C27.2451 32.9689 26.0852 31.8105 24.7468 31.8105C23.4085 31.8105 22.2485 32.9689 22.2485 34.3054C22.2485 35.7311 23.4085 36.8004 24.7468 36.8004Z" fill="#EAEEF9"/>
<path d="M155.639 57.8293C158.227 57.8293 160.279 55.7798 160.279 53.1958C160.279 50.6117 158.227 48.5623 155.639 48.5623C153.052 48.5623 151 50.6117 151 53.1958C151 55.7798 153.052 57.8293 155.639 57.8293Z" fill="#EAEEF9"/>
<g filter="url(#filter0_d)">
<path d="M145.378 101.56H155.536C155.536 106.543 151.607 110.568 146.911 110.664C146.911 110.664 146.816 110.664 146.72 110.664H116.054V101.656H139.341L145.378 101.56Z" fill="#EAEEF9"/>
</g>
<path d="M142.791 108.46C142.695 108.364 142.599 108.268 142.504 108.076C141.449 106.831 140.683 105.106 140.683 103.381V49.6202C140.587 44.637 136.85 40.708 132.058 40.6122C132.058 40.6122 131.962 40.6122 131.866 40.6122H101.297V49.6202H88.8389V102.806C88.9347 104.626 89.7013 106.351 90.7555 107.501C94.7803 111.622 91.1388 110.664 95.7386 110.664H147.487C145.666 110.568 144.037 109.705 142.791 108.46Z" fill="#D5DDEA"/>
<g filter="url(#filter1_d)">
<path d="M132.154 40.6122C130.429 40.6122 128.8 41.6663 127.746 42.9121C126.692 44.2537 125.829 46.9369 125.829 48.6619V101.847C125.829 106.926 121.804 110.951 116.917 110.951H74.0811V47.3203C74.1769 45.4995 74.9435 43.7746 75.9976 42.6246C77.3393 41.283 78.5851 40.6122 80.5016 40.6122L124.2 40.5164L131.866 40.6122C132.058 40.6122 132.058 40.6122 132.154 40.6122Z" fill="url(#paint0_linear)"/>
</g>
<path d="M101.488 19.9131C99.6673 20.0089 98.0382 20.8714 96.7925 22.0213C96.6966 22.1172 96.6008 22.213 96.505 22.4047C95.4508 23.6504 94.5884 25.4712 94.5884 27.1961V59.2033H42.8403V26.8128C42.9362 24.9921 43.7028 23.2671 44.7569 22.1172C46.0985 20.7756 47.8235 19.9131 49.8359 19.9131H101.488Z" fill="#E7EBF0"/>
<path d="M111.646 108.843C110.304 107.501 109.634 105.681 109.634 103.764L109.538 29.1127C109.538 24.1296 105.705 20.1047 100.913 20.0089C100.913 20.0089 100.817 20.0089 100.722 20.0089H100.338H100.147H70.056H68.1394V29.1127H57.5981V52.2077H58.4606V103.764C58.4606 105.776 59.3231 107.693 60.473 108.843C61.7188 110.28 63.5396 110.951 65.3603 110.951H116.533C114.617 110.951 112.796 109.993 111.646 108.843Z" fill="#D5DDEA"/>
<g filter="url(#filter2_d)">
<path d="M100.817 19.9131C98.9009 20.0089 97.1759 20.7756 95.9301 22.1172C95.8343 22.213 95.7385 22.3088 95.5468 22.5005C94.3969 23.8421 93.6302 25.4712 93.6302 27.3878V101.752C93.6302 106.926 89.5096 111.047 84.4306 111.047H39.3906V26.9087C39.4865 24.9921 40.2531 23.2671 41.4989 22.0213C42.8405 20.7756 44.6613 19.9131 46.6737 19.9131H91.9053H100.53C100.626 19.9131 100.722 19.9131 100.817 19.9131Z" fill="url(#paint1_linear)"/>
</g>
<path d="M84.4305 32.5626H71.0143C70.5352 32.5626 70.1519 32.1793 70.1519 31.7001C70.1519 31.221 70.5352 30.8376 71.0143 30.8376H84.3347C84.8138 30.8376 85.1971 31.221 85.1971 31.7001C85.2929 32.1793 84.9096 32.5626 84.4305 32.5626Z" fill="#FF0000"/>
<path d="M64.7854 32.5626H47.3444C46.8653 32.5626 46.4819 32.1793 46.4819 31.7001C46.4819 31.221 46.8653 30.8376 47.3444 30.8376H64.7854C65.2646 30.8376 65.6479 31.221 65.6479 31.7001C65.6479 32.1793 65.2646 32.5626 64.7854 32.5626Z" fill="#D6DCE8"/>
<path d="M75.9015 41.2832H58.5563C58.0772 41.2832 57.6938 40.8998 57.6938 40.4207C57.6938 39.9415 58.0772 39.5582 58.5563 39.5582H75.9015C76.3806 39.5582 76.764 39.9415 76.764 40.4207C76.8598 40.8998 76.4765 41.2832 75.9015 41.2832Z" fill="#FF0000"/>
<path d="M52.9984 41.2832H47.3444C46.8653 41.2832 46.4819 40.8998 46.4819 40.4207C46.4819 39.9415 46.8653 39.5582 47.3444 39.5582H52.9984C53.4775 39.5582 53.8608 39.9415 53.8608 40.4207C53.8608 40.8998 53.4775 41.2832 52.9984 41.2832Z" fill="#D6DCE8"/>
<path d="M84.4307 50.0035H73.7936C73.3145 50.0035 72.9312 49.6202 72.9312 49.141C72.9312 48.6619 73.3145 48.2786 73.7936 48.2786H84.4307C84.9099 48.2786 85.2932 48.6619 85.2932 49.141C85.2932 49.6202 84.9099 50.0035 84.4307 50.0035Z" fill="#D6DCE8"/>
<path d="M68.6186 50.0035H47.3444C46.8653 50.0035 46.4819 49.6202 46.4819 49.141C46.4819 48.6619 46.8653 48.2786 47.3444 48.2786H68.6186C69.0977 48.2786 69.4811 48.6619 69.4811 49.141C69.4811 49.6202 69.1936 50.0035 68.6186 50.0035Z" fill="#FF0000"/>
<path d="M75.9018 58.82H64.2106C63.7315 58.82 63.3481 58.4367 63.3481 57.9576C63.3481 57.4784 63.7315 57.0951 64.2106 57.0951H75.9018C76.381 57.0951 76.7643 57.4784 76.7643 57.9576C76.8601 58.3409 76.4768 58.82 75.9018 58.82Z" fill="#FF0000"/>
<path d="M59.1315 58.82H47.3444C46.8653 58.82 46.4819 58.4367 46.4819 57.9576C46.4819 57.4784 46.8653 57.0951 47.3444 57.0951H59.1315C59.6106 57.0951 59.9939 57.4784 59.9939 57.9576C59.9939 58.4367 59.6106 58.82 59.1315 58.82Z" fill="#D6DCE8"/>
<path d="M84.4308 67.5404H76.2853C75.8062 67.5404 75.4229 67.157 75.4229 66.6779C75.4229 66.1987 75.8062 65.8154 76.2853 65.8154H84.4308C84.91 65.8154 85.2933 66.1987 85.2933 66.6779C85.2933 67.157 84.91 67.5404 84.4308 67.5404Z" fill="#FF0000"/>
<path d="M70.9187 67.5404H57.215C56.7359 67.5404 56.3525 67.157 56.3525 66.6779C56.3525 66.1987 56.7359 65.8154 57.215 65.8154H70.9187C71.3978 65.8154 71.7811 66.1987 71.7811 66.6779C71.7811 67.157 71.3978 67.5404 70.9187 67.5404Z" fill="#D6DCE8"/>
<path d="M52.1359 67.5404H47.3444C46.8653 67.5404 46.4819 67.157 46.4819 66.6779C46.4819 66.1987 46.8653 65.8154 47.3444 65.8154H52.1359C52.615 65.8154 52.9984 66.1987 52.9984 66.6779C52.9984 67.157 52.5192 67.5404 52.1359 67.5404Z" fill="#FF0000"/>
<path d="M84.4307 85.1732H73.7936C73.3145 85.1732 72.9312 84.7899 72.9312 84.3107C72.9312 83.8316 73.3145 83.4482 73.7936 83.4482H84.4307C84.9099 83.4482 85.2932 83.8316 85.2932 84.3107C85.2932 84.7899 84.9099 85.1732 84.4307 85.1732Z" fill="#D6DCE8"/>
<path d="M68.6186 85.1732H47.3444C46.8653 85.1732 46.4819 84.7899 46.4819 84.3107C46.4819 83.8316 46.8653 83.4482 47.3444 83.4482H68.6186C69.0977 83.4482 69.4811 83.8316 69.4811 84.3107C69.4811 84.7899 69.1936 85.1732 68.6186 85.1732Z" fill="#FF0000"/>
<path d="M75.9018 93.9895H64.2106C63.7315 93.9895 63.3481 93.6061 63.3481 93.127C63.3481 92.6478 63.7315 92.2645 64.2106 92.2645H75.9018C76.381 92.2645 76.7643 92.6478 76.7643 93.127C76.8601 93.5103 76.4768 93.9895 75.9018 93.9895Z" fill="#FF0000"/>
<path d="M59.1315 93.9895H47.3444C46.8653 93.9895 46.4819 93.6061 46.4819 93.127C46.4819 92.6478 46.8653 92.2645 47.3444 92.2645H59.1315C59.6106 92.2645 59.9939 92.6478 59.9939 93.127C59.9939 93.5103 59.6106 93.9895 59.1315 93.9895Z" fill="#D6DCE8"/>
<path d="M75.9015 76.2608H67.756C67.2769 76.2608 66.8936 75.8775 66.8936 75.3984C66.8936 74.9192 67.2769 74.5359 67.756 74.5359H75.9015C76.3807 74.5359 76.764 74.9192 76.764 75.3984C76.8598 75.8775 76.4765 76.2608 75.9015 76.2608Z" fill="#FF0000"/>
<path d="M62.4855 76.2608H47.3444C46.8653 76.2608 46.4819 75.8775 46.4819 75.3984C46.4819 74.9192 46.8653 74.5359 47.3444 74.5359H62.4855C62.9646 74.5359 63.348 74.9192 63.348 75.3984C63.348 75.8775 62.9646 76.2608 62.4855 76.2608Z" fill="#D6DCE8"/>
<g filter="url(#filter3_d)">
<path d="M64.3064 103.668H76.1893C76.1893 105.681 77.0517 107.502 78.2975 108.843C79.6391 110.185 81.4599 110.951 83.3765 110.951H29.9994C27.9869 110.951 26.1662 110.089 24.9204 108.843C23.5788 107.502 22.7163 105.681 22.7163 103.668H57.8858C57.8858 103.668 64.4981 103.668 64.3064 103.668Z" fill="url(#paint2_linear)"/>
</g>
<g filter="url(#filter4_d)">
<path d="M85.7591 97.3072C80.2563 87.6188 80.7393 83.7616 81.5444 80.5922C82.9669 81.2622 84.0343 81.8789 84.0343 81.8789C83.7853 81.7503 84.0973 79.6951 84.1322 79.5176C84.3729 77.3604 84.5787 75.3807 84.997 73.2501C87.3722 62.5481 94.6509 52.946 103.11 45.7139C104.738 44.4042 106.367 43.0945 108.032 42.0644C108.881 41.4606 109.803 40.9588 110.653 40.355C110.865 40.204 113.204 39.0007 113.061 38.7966C113.31 48.7035 113.508 54.2163 116.683 58.53C113.883 59.7556 112.5 60.2796 109.021 60.3069C114.253 63.9234 115.883 63.0708 115.883 63.0708C115.883 63.0708 115.312 72.0325 101.337 85.4753C103.758 87.1172 104.503 87.046 104.503 87.046C104.503 87.046 96.0905 97.3008 87.605 97.2181C85.7591 97.3072 85.7591 97.3072 85.7591 97.3072Z" fill="url(#paint3_linear)"/>
</g>
<path d="M84.1403 111.227C85.6173 97.6508 86.5432 78.9669 96.5279 62.0963C106.547 45.0483 114.718 36.9519 114.718 36.9519L113.98 38.8515C113.98 38.8515 102.167 51.0625 95.099 69.3748C88.0653 87.5096 87.687 100.611 87.0066 108.732C84.1403 111.227 84.1403 111.227 84.1403 111.227Z" fill="#FF0000"/>
<defs>
<filter id="filter0_d" x="94.0542" y="90.5598" width="83.4818" height="53.1038" filterUnits="userSpaceOnUse" color-interpolation-filters="sRGB">
<feFlood flood-opacity="0" result="BackgroundImageFix"/>
<feColorMatrix in="SourceAlpha" type="matrix" values="0 0 0 0 0 0 0 0 0 0 0 0 0 0 0 0 0 0 127 0" result="hardAlpha"/>
<feOffset dy="11"/>
<feGaussianBlur stdDeviation="11"/>
<feColorMatrix type="matrix" values="0 0 0 0 0.397708 0 0 0 0 0.47749 0 0 0 0 0.575 0 0 0 0.27 0"/>
<feBlend mode="normal" in2="BackgroundImageFix" result="effect1_dropShadow"/>
<feBlend mode="normal" in="SourceGraphic" in2="effect1_dropShadow" result="shape"/>
</filter>
<filter id="filter1_d" x="52.0811" y="29.5164" width="102.073" height="114.435" filterUnits="userSpaceOnUse" color-interpolation-filters="sRGB">
<feFlood flood-opacity="0" result="BackgroundImageFix"/>
<feColorMatrix in="SourceAlpha" type="matrix" values="0 0 0 0 0 0 0 0 0 0 0 0 0 0 0 0 0 0 127 0" result="hardAlpha"/>
<feOffset dy="11"/>
<feGaussianBlur stdDeviation="11"/>
<feColorMatrix type="matrix" values="0 0 0 0 0.397708 0 0 0 0 0.47749 0 0 0 0 0.575 0 0 0 0.27 0"/>
<feBlend mode="normal" in2="BackgroundImageFix" result="effect1_dropShadow"/>
<feBlend mode="normal" in="SourceGraphic" in2="effect1_dropShadow" result="shape"/>
</filter>
<filter id="filter2_d" x="17.3906" y="8.91309" width="105.427" height="135.134" filterUnits="userSpaceOnUse" color-interpolation-filters="sRGB">
<feFlood flood-opacity="0" result="BackgroundImageFix"/>
<feColorMatrix in="SourceAlpha" type="matrix" values="0 0 0 0 0 0 0 0 0 0 0 0 0 0 0 0 0 0 127 0" result="hardAlpha"/>
<feOffset dy="11"/>
<feGaussianBlur stdDeviation="11"/>
<feColorMatrix type="matrix" values="0 0 0 0 0.397708 0 0 0 0 0.47749 0 0 0 0 0.575 0 0 0 0.27 0"/>
<feBlend mode="normal" in2="BackgroundImageFix" result="effect1_dropShadow"/>
<feBlend mode="normal" in="SourceGraphic" in2="effect1_dropShadow" result="shape"/>
</filter>
<filter id="filter3_d" x="0.716309" y="92.6683" width="104.66" height="51.2831" filterUnits="userSpaceOnUse" color-interpolation-filters="sRGB">
<feFlood flood-opacity="0" result="BackgroundImageFix"/>
<feColorMatrix in="SourceAlpha" type="matrix" values="0 0 0 0 0 0 0 0 0 0 0 0 0 0 0 0 0 0 127 0" result="hardAlpha"/>
<feOffset dy="11"/>
<feGaussianBlur stdDeviation="11"/>
<feColorMatrix type="matrix" values="0 0 0 0 0.397708 0 0 0 0 0.47749 0 0 0 0 0.575 0 0 0 0.27 0"/>
<feBlend mode="normal" in2="BackgroundImageFix" result="effect1_dropShadow"/>
<feBlend mode="normal" in="SourceGraphic" in2="effect1_dropShadow" result="shape"/>
</filter>
<filter id="filter4_d" x="59.0562" y="27.7966" width="79.6273" height="102.511" filterUnits="userSpaceOnUse" color-interpolation-filters="sRGB">
<feFlood flood-opacity="0" result="BackgroundImageFix"/>
<feColorMatrix in="SourceAlpha" type="matrix" values="0 0 0 0 0 0 0 0 0 0 0 0 0 0 0 0 0 0 127 0" result="hardAlpha"/>
<feOffset dy="11"/>
<feGaussianBlur stdDeviation="11"/>
<feColorMatrix type="matrix" values="0 0 0 0 0.397708 0 0 0 0 0.47749 0 0 0 0 0.575 0 0 0 0.27 0"/>
<feBlend mode="normal" in2="BackgroundImageFix" result="effect1_dropShadow"/>
<feBlend mode="normal" in="SourceGraphic" in2="effect1_dropShadow" result="shape"/>
</filter>
<linearGradient id="paint0_linear" x1="103.099" y1="38.8871" x2="103.099" y2="111.711" gradientUnits="userSpaceOnUse">
<stop stop-color="#FDFEFF"/>
<stop offset="0.9964" stop-color="#ECF0F5"/>
</linearGradient>
<linearGradient id="paint1_linear" x1="70.084" y1="17.8051" x2="70.084" y2="112.03" gradientUnits="userSpaceOnUse">
<stop stop-color="#FDFEFF"/>
<stop offset="0.9964" stop-color="#ECF0F5"/>
</linearGradient>
<linearGradient id="paint2_linear" x1="53.0266" y1="103.5" x2="53.0266" y2="111.03" gradientUnits="userSpaceOnUse">
<stop stop-color="#FDFEFF"/>
<stop offset="0.9964" stop-color="#ECF0F5"/>
</linearGradient>
<linearGradient id="paint3_linear" x1="89.6111" y1="54.0707" x2="111.087" y2="84.2983" gradientUnits="userSpaceOnUse">
<stop stop-color="#FDFEFF"/>
<stop offset="0.9964" stop-color="#ECF0F5"/>
</linearGradient>
</defs>
</svg>
