<?xml version="1.0" standalone="no"?>
<!DOCTYPE svg PUBLIC "-//W3C//DTD SVG 20010904//EN"
 "http://www.w3.org/TR/2001/REC-SVG-20010904/DTD/svg10.dtd">
<svg version="1.0" xmlns="http://www.w3.org/2000/svg"
 width="1000.000000pt" height="1000.000000pt" viewBox="0 0 1000.000000 1000.000000"
 preserveAspectRatio="xMidYMid meet">
<metadata>
Created by potrace 1.14, written by Peter Selinger 2001-2017
</metadata>
<g transform="translate(0.000000,1000.000000) scale(0.100000,-0.100000)"
fill="#000000" stroke="none">
<path d="M4857 9984 c-1 -1 -60 -5 -132 -8 -71 -3 -168 -11 -215 -16 -47 -6
-107 -13 -135 -16 -27 -3 -75 -9 -105 -14 -30 -5 -71 -12 -90 -15 -19 -3 -57
-10 -85 -15 -27 -5 -61 -11 -75 -14 -21 -3 -86 -19 -222 -52 -10 -2 -28 -6
-40 -9 -102 -22 -478 -145 -583 -190 -16 -7 -75 -32 -130 -55 -270 -115 -551
-268 -800 -433 -98 -65 -261 -184 -311 -226 -17 -14 -48 -39 -70 -56 -134
-103 -358 -313 -519 -487 -98 -105 -112 -122 -234 -273 -428 -531 -749 -1165
-927 -1828 -36 -136 -81 -340 -99 -447 -6 -40 -27 -182 -30 -210 -27 -218 -37
-392 -37 -630 -1 -161 9 -402 17 -475 2 -16 7 -59 10 -95 6 -61 19 -157 31
-225 3 -16 7 -42 9 -57 2 -15 8 -51 14 -80 6 -29 13 -64 15 -78 49 -251 151
-592 256 -855 52 -130 146 -338 183 -407 13 -24 45 -83 72 -133 550 -1025
1517 -1871 2605 -2280 52 -20 104 -40 115 -44 66 -28 385 -122 510 -150 110
-25 270 -58 320 -65 22 -3 54 -8 70 -11 199 -33 220 -34 805 -31 322 2 597 6
612 9 16 3 47 8 70 12 24 4 57 9 73 11 17 3 41 7 55 9 21 3 177 34 255 50 276
59 654 183 940 310 216 96 527 266 710 388 72 48 298 209 305 217 3 3 48 39
100 81 293 234 607 558 833 859 31 41 61 80 66 87 18 21 201 293 201 299 0 3
12 24 27 47 157 239 354 662 468 1002 68 204 153 525 170 645 4 24 8 47 10 50
2 3 6 30 10 60 3 30 10 73 15 95 21 96 25 211 25 740 0 591 0 594 -41 855 -4
28 -45 222 -80 380 -11 53 -68 241 -109 365 -135 403 -337 819 -568 1165 -49
73 -160 230 -184 260 -6 8 -42 53 -79 100 -235 296 -540 597 -853 841 -97 75
-329 236 -446 308 -87 54 -116 71 -175 103 -358 196 -719 345 -1080 447 -144
40 -402 99 -510 115 -120 19 -253 37 -305 42 -33 3 -71 7 -85 10 -54 9 -615
25 -623 18z"/>
</g>
</svg>
