<?xml version="1.0" encoding="utf-8"?>
<!-- Generator: Adobe Illustrator 26.0.3, SVG Export Plug-In . SVG Version: 6.00 Build 0)  -->
<svg version="1.1" id="Layer_1" xmlns="http://www.w3.org/2000/svg" xmlns:xlink="http://www.w3.org/1999/xlink" x="0px" y="0px"
	 viewBox="0 0 1000 300" style="enable-background:new 0 0 1000 300;" xml:space="preserve">
<style type="text/css">
	.st0{fill:#FFFFFF;}
	.st1{fillRule:evenodd;clipRule:evenodd;fill:#FFFFFF;}
</style>
<g>
	<g>
		<path class="st0" d="M120.1,192.3L46.8,77.2v115.1H13.5V21h37.9l68.1,110.2V21h33.5v171.4H120.1z"/>
		<path class="st0" d="M162.6,108.2c0-58.1,29.7-92.9,82.3-92.9c52.6,0,81.8,34.8,81.8,93.7s-29.2,89.3-81.8,89.3
			C192.3,198.3,162.6,166,162.6,108.2z M291.4,109c0-40.5-16.5-61.9-46.5-61.9c-30.2,0-47,21.4-47,61.9s17.3,58.6,47,58.6
			C270.8,167.6,291.4,149.5,291.4,109z"/>
		<path class="st0" d="M469.2,192.3V74.9l-32,117.4h-35.6L369.9,75.4v116.9h-33.3V21h52.6l31,125.7l31-125.7h51.6v171.4H469.2z"/>
		<path class="st0" d="M633.6,192.3L622.8,157h-63.2l-12.1,35.4h-37.9L570.6,21h41.5l60.4,171.4H633.6z M591,59.4h-0.3l-21.9,68.1
			h43.6L591,59.4z"/>
		<path class="st0" d="M679.3,192.3V21h66.3c46.5,0,79.5,31.7,79.5,83.9c0,52.1-29.7,87.5-74.1,87.5H679.3z M743.8,163.2
			c31.2,0,44.6-19.6,44.6-58.3c0-38.7-13.4-54.2-47.7-54.2h-26.6v112.5H743.8z"/>
		<path class="st0" d="M931.7,71.6c-1.8-17.5-12.4-26.1-34.3-26.1c-19.9,0-30.5,7-30.5,20.9c0,9.8,8,16.5,26.6,20.9
			c21.9,5.2,37.4,9.3,50.8,15c15.5,6.5,26.8,17,26.8,44.4c0,32.8-29.4,51.6-64.8,51.6c-49.5,0-74.8-19.6-76.1-57.3h34.6
			c0.3,17.3,16,28.4,36.9,28.4c22.5,0,34.6-9,34.6-23c0-11.4-4.6-18.3-26.6-23c-52.4-11.1-75.6-20.4-75.6-57.3
			c0-28.4,20.9-50.8,63.2-50.8c41.3,0,67.1,22.5,68.4,56.3H931.7z"/>
	</g>
	<g id="XMLID_00000099636001242607902890000012338088095972426403_">
		<path id="XMLID_00000137095568113732097420000003408710640778378152_" class="st1" d="M251.3,184.4
			c-23.5-11.6-49.3-28.2-62.7-49.4c3.1-5.2,13.1-9.4,13.1-9.4c1.3,0.1,3.8,0.3,4.1,0.9c0.1,0.3-3.1,1.3-3,1.6
			c6.2,12.6,17.6,25.5,30.5,32c-14.2-13.4-23-23.6-26.1-31.5l4.3-2.9l0,0c5.2-3.5,5.6-4.5,8.9-6.9c1.9,3.4,13,20,29.3,28.9
			c-9.9-5.6-32.3-31.9-30.4-49.4c2.2,4.8,5.4,7.4,6.3,8.2c-2.5-3.9-5.4-9.3-5.4-12.8c0-1.3-0.1-4,0.8-4.5c6.8-1,12.4-0.9,18.3-1
			c-8-0.7-15.5-0.5-21.2-0.1c-1.1-1.4-0.9-2.4-0.5-3.8c3.4-1.8,10-2.8,18.5-3.2c-4.1-0.5-17.3-1.3-19.6,3.4
			c-0.5-2.4,0.8-6.7,2.6-8.6c3.7-2.5,21.9-2.1,29.2-2.4c-10.2-0.4-22.9-1.9-25.5,0c0.6-1.8,3.6-4.1,5.5-4.8c-0.4,0.6-0.8,1.2-1,1.9
			c4.7-5.8,10.9-8.3,18.6-7.3c-4.5,0.5-8.8,2.2-12.3,5c7.5-3.7,16.9-4,24.7-2.4c4.3,2.2,7.1,6.1,7.6,10.6c-0.9-1-9.4-1.6-21.8,0.2
			c10.4-0.3,16.9-0.4,23.6,1.4c1.4,0.8,2.1,2,2.1,3.7c2.2,3.5,1.2,6.4-2.8,8.8c0.1,10.1,4.9,18.4-5.1,29.6c2.8-2.1,5-4.7,6.6-7.6
			c1.7,3.4,4.4,6.1,7.8,8.1c1.4,0.6,2.8,1.1,4,1.5c6,2,8.7,2.7,11.4,4.2c-5.5,14.2-26,21.7-40.4,29.6l0,3.5l-13.9-5.5l13.8,9.5
			c16.7-7.1,34.5-20,44.7-33.9c-7.9,18.9-25.1,33.8-44.8,43.1v4l-14.7-6.7l14.7,11L251.3,184.4z M301.5,127.4c-3.8-1.3-7-2-7-2
			c2.1-0.6,5.7-1.4,7.9-1.8c2.6,1.3,5.9,2.8,7.5,4.4c-4.6,17.3-23.1,38.8-52.8,52.3C283.4,163.8,297.2,140.6,301.5,127.4
			L301.5,127.4z M226.3,91.8c13.2,0.7,29.8,0.1,37.3-0.5c0.8,15.8-4.4,21.3-8.6,25.7c4.1-1.4,8.9-8,9.6-12.2
			c-0.7,7.1-8.3,17.8-18.7,16.1l13.1,6.8c-7.8-0.2-25.9-5.3-30.1-17.3C228,107.6,225,93.4,226.3,91.8L226.3,91.8z"/>
	</g>
</g>
<g>
	<path class="st0" d="M796.3,257.9c-2.5,13.2-11.6,22-25,22c-15.2,0-26.9-10.4-26.9-30.4c0-19.7,10.4-31.7,27.1-31.7
		c14.5,0,23.7,9.3,24.9,21h-12.2c-1.7-6.6-6.8-10.5-12.6-10.5c-10.1,0-14.8,7.8-14.8,20.5c0,12.9,4.7,20.5,14.2,20.5
		c7.2,0,11.6-4.1,13.2-11.4H796.3z"/>
	<path class="st0" d="M833.2,277.8v-26.1h-22.7v26.1h-12.2v-58.2h12.2v21.9h22.7v-21.9h12.3v58.2H833.2z"/>
	<path class="st0" d="M889.7,277.8l-3.7-12h-21.5l-4.1,12h-12.9l20.8-58.2h14.1l20.5,58.2H889.7z M875.3,232.7L875.3,232.7
		l-7.5,23.1h14.8L875.3,232.7z"/>
	<path class="st0" d="M905.2,277.8v-58.2h12.2v58.2H905.2z"/>
	<path class="st0" d="M957.5,277.8l-24.9-39.1v39.1h-11.3v-58.2h12.9l23.1,37.4v-37.4h11.4v58.2H957.5z"/>
</g>
</svg>
