<?xml version="1.0" encoding="utf-8"?>
<!-- Generator: Adobe Illustrator 26.0.3, SVG Export Plug-In . SVG Version: 6.00 Build 0)  -->
<svg version="1.1" id="Layer_1" xmlns="http://www.w3.org/2000/svg" xmlns:xlink="http://www.w3.org/1999/xlink" x="0px" y="0px"
	 viewBox="0 0 800 800" style="enable-background:new 0 0 800 800;" xml:space="preserve">
<style type="text/css">
	.st0{fill:#EE2424;stroke:#000000;stroke-miterlimit:10;}
	.st1{enable-background:new    ;}
	.st2{fill:#E4E219;}
</style>
<circle class="st0" cx="399.2" cy="399.2" r="391.2"/>
<g class="st1">
	<path class="st2" d="M593,146.1c2.4,3.5,3.3,8,2.9,13.3c-0.4,5.3-2.2,14.3-5.3,26.8c-3.5,14.6-12.8,42.1-27.7,82.6
		c-14.9,40.5-28.5,74.3-40.7,101.4c-13.4,31.1-34.3,70.5-62.8,118.3c-28.5,47.8-56.9,91.3-85.2,130.6c-23.6,33-36.4,49.9-38.3,50.7
		c-2.8,0.8-6.5,0.4-11.2-1.2c-3.2-1.2-4.7-1.9-4.7-2.1c0-0.2,0.6-1.5,1.8-3.8l1.8-3.5l-4.1,3.5c-2.8,2.4-5.5,3.3-8.3,2.9
		c-2.8-0.8-9.8-3.6-21.2-8.6c-11.4-4.9-18.7-8.2-21.8-9.7c-11.4-7.1-18.5-14.3-21.2-21.8c-1.6-3.9-2.6-12.1-2.9-24.5
		c-0.4-12.4,0-24.1,1.2-35.1c4.7-44,17.5-106.2,38.3-186.4c14.9-58.6,26-95.5,33-110.9c2.4-5.5,4.5-8.6,6.5-9.1
		c2-0.6,3.7-0.7,5.3-0.3c1.6,0.4,2.4,2.2,2.4,5.3l-0.6,5.3l2.9-4.7c2-3.1,3.5-4.7,4.7-4.7c1.6,0,4.8,0.8,9.7,2.4
		c4.9,1.6,9.5,3.4,13.9,5.6c4.3,2.2,6.5,3.6,6.5,4.4c0,0.4,0.4,0.6,1.2,0.6c1.2,0,3.8,1.3,8,3.8c4.1,2.6,6.4,4.2,6.8,5
		c0.4,1.2,1.6,1.9,3.5,2.1c2,0.2,4.3,1.2,7.1,2.9c2.7,1.8,4.5,3.6,5.3,5.6c1.2,2,1.8,4.7,1.8,8.3c0,3.5-1.3,7.2-3.8,10.9
		c-2.6,3.7-5.2,6.8-8,9.1c-2.8,2.4-5.3,3.3-7.7,2.9c-1.6,0-2.7,0.2-3.2,0.6c-0.6,0.4-1.5,1.8-2.7,4.1c-6.7,15.3-16.2,41.5-28.6,78.4
		c-12.4,37-21.3,66.5-26.8,88.5c-5.1,20.1-8.5,37.9-10,53.7c-0.4,3.9-0.7,8.7-0.9,14.2c-0.2,5.5-0.4,10-0.6,13.6
		c-0.2,3.5-0.1,5.7,0.3,6.5c0.8,0,6.9-7.5,18.3-22.4c11.4-14.9,21-28.3,28.9-40.1c29.5-43.2,52.6-79.7,69.3-109.4
		c16.7-29.7,31.4-60.8,43.9-93.5c25.2-64.5,42.5-115.6,51.9-153.3c6.3-26,7.3-41.1,2.9-45.4c-2.8-2.7-3.7-5.5-2.9-8.3
		c0.4-1.6,2-2.4,4.7-2.4c2.7,0,4.9,0.8,6.5,2.4c1.6,1.6,2.8,1.8,3.8,0.6c1-1.2,4-0.6,9.1,1.8c3.9,1.6,10.3,5.1,19.2,10.6
		c8.8,5.5,13.9,9.2,15,11.2c0.8,1.2,1.6,1.8,2.4,1.8c1.2,0,2.9,1,5.3,2.9C590,142.1,591.8,144.1,593,146.1z M256.2,538.9l-0.6,0.6
		l0.6,1.8C256.6,540.4,256.6,539.7,256.2,538.9z M257.4,535.9c0-0.8-0.2-1.6-0.6-2.4v1.2L257.4,535.9z M258,530.6
		c0.4-0.8,0.4-1.6,0-2.4l-0.6,1.2L258,530.6z M259.2,525.9c0-0.8-0.2-1.8-0.6-2.9v1.2C258.6,524.9,258.8,525.5,259.2,525.9z
		 M259.7,520.6c0.4-0.8,0.4-1.6,0-2.4l-0.6,1.2L259.7,520.6z M260.3,515.9c0.4-0.8,0.4-1.6,0-2.4l-0.6,1.2L260.3,515.9z
		 M263.3,499.9c2-8.6,2.7-13.2,2.4-13.6l-4.7,24.8C260.9,511.9,261.7,508.2,263.3,499.9z M266.8,484c0-0.8-0.2-1.6-0.6-2.4v1.2
		L266.8,484z M267.4,479.9c0.4-0.4,0.4-1,0-1.8l-0.6,0.6L267.4,479.9z M269.8,470.5c0.8-4.7,1.2-7.5,1.2-8.3l-2.9,13L269.8,470.5z
		 M271.5,459.8c0.4-0.4,0.4-1,0-1.8l-0.6,0.6L271.5,459.8z M273.3,452.2c1.2-2.7,1.6-4.7,1.2-5.9l-1.2,3.5c-0.8,3.2-1.2,5.1-1.2,5.9
		L273.3,452.2z M275.1,444.5c0.4-0.4,0.6-1,0.6-1.8h-0.6l-0.6,0.6L275.1,444.5z M276.3,441c0.4-0.4,0.4-1,0-1.8l-0.6,0.6L276.3,441z
		 M276.8,437.4c0.4-0.4,0.6-1,0.6-1.8h-0.6l-0.6,0.6L276.8,437.4z M278,433.3c0.4-0.4,0.4-1,0-1.8l-0.6,0.6L278,433.3z M279.2,429.8
		c0.4-0.4,0.4-1,0-1.8l-0.6,0.6L279.2,429.8z M279.8,426.2c0.4-0.4,0.4-1,0-1.8l-0.6,0.6L279.8,426.2z M281,422.7
		c0.4-0.4,0.4-1,0-1.8l-0.6,0.6L281,422.7z M321.1,280.5c-0.4,0.8-1.8,4.4-4.1,10.9c-2.4,6.5-3.5,9.9-3.5,10.3l8.3-20.1L321.1,280.5
		z M335.2,565.4c0.4,0,1.3-0.9,2.7-2.7c1.4-1.8,1.9-2.7,1.5-2.7c-0.4,0-1.3,0.9-2.7,2.7C335.3,564.5,334.8,565.4,335.2,565.4z
		 M455.6,374.9c13-27.9,18.9-42.3,17.7-43.1c-0.8,1.2-1.5,2.5-2.1,3.8c-0.6,1.4-1.3,2.7-2.1,3.8c-22,53.1-60.7,120.1-116.2,201.1
		l-10.6,15.9c1.6-1.6,6.3-8.1,14.2-19.5C400.5,476.6,433.5,422.5,455.6,374.9z M457.9,459.8c0.8-1.2,1.5-2.3,2.1-3.2
		c0.6-1,1.1-2.1,1.5-3.2c-0.4,0.4-1.8,2.2-4.1,5.3c-13.8,23.6-30.1,50.1-49,79.6c-1.2,2-1.7,2.9-1.5,2.9c0.2,0,3.2-4.3,9.1-13
		C426.7,512.9,440.6,490.1,457.9,459.8z M476.2,326l-0.6-1.2c-0.4,1.2-0.8,2.4-1.2,3.5v1.2C475.2,328.7,475.8,327.5,476.2,326z"/>
</g>
</svg>
