<?xml version="1.0" encoding="utf-8"?>
<!-- Generator: Adobe Illustrator 26.0.3, SVG Export Plug-In . SVG Version: 6.00 Build 0)  -->
<svg version="1.1" id="Layer_1" xmlns="http://www.w3.org/2000/svg" xmlns:xlink="http://www.w3.org/1999/xlink" x="0px" y="0px"
	 viewBox="0 0 1000 400" style="enable-background:new 0 0 1000 400;" xml:space="preserve">
<style type="text/css">
	.st0{enable-background:new    ;}
	.st1{fill:#FFFFFF;}
	.st2{font-family:'TheMiladiatorRegular';}
	.st3{font-size:99.1782px;}
</style>
<g className="st0">
	<path className="st1" d="M200.1,76.5c0.9,1.4,1.3,3.1,1.2,5.1c-0.2,2.1-0.8,5.5-2.1,10.4c-0.9,3.6-2.9,9.8-6,18.5s-6.5,17.9-10.4,27.7
		c-3.8,9.8-7.3,18.1-10.4,25c-5.2,12-13.4,27.2-24.6,45.7c-11.2,18.5-22.3,35.3-33.3,50.5c-4.5,6.1-8,10.8-10.5,14.2
		c-2.5,3.4-4,5.2-4.5,5.4c-1.1,0.3-2.5,0.1-4.4-0.5c-1.2-0.5-1.8-0.7-1.8-0.8c0-0.1,0.2-0.6,0.7-1.5l0.5-1.4l-1.4,1.4
		c-1.1,0.9-2.2,1.3-3.2,1.1c-1.1-0.3-3.8-1.4-8.3-3.3s-7.3-3.2-8.5-3.8c-4.5-2.7-7.2-5.5-8.3-8.4c-0.6-1.5-1-4.7-1.2-9.5
		c-0.2-4.8,0-9.3,0.5-13.6c1.8-17,6.8-41,15-72c5.8-22.6,10.2-36.9,12.9-42.9c0.9-2.1,1.8-3.3,2.5-3.5c0.8-0.2,1.5-0.3,2.1-0.1
		c0.6,0.2,0.8,0.8,0.7,2.1v2.1l1.2-1.8c0.8-1.2,1.4-1.8,1.8-1.8c1.1-0.1,3.3,0.5,6.7,1.9c3.4,1.4,5.1,2.4,5.1,2.8
		c0,0.2,0.2,0.2,0.5,0.2s0.9,0.2,1.8,0.7s1.8,1,2.7,1.6c0.8,0.6,1.3,1,1.3,1.1c0.2,0.5,0.6,0.7,1.4,0.7c0.5,0.2,0.9,0.3,1.4,0.6
		c0.5,0.2,0.9,0.5,1.4,0.8s0.9,0.6,1.3,1s0.7,0.7,0.8,1c0.5,0.8,0.7,1.8,0.7,3.2s-0.5,2.8-1.5,4.2s-2,2.6-3.1,3.5s-2.1,1.3-3,1.1
		c-0.6,0-1,0.1-1.3,0.2c-0.2,0.2-0.6,0.7-1,1.6c-2.6,5.9-6.3,16-11.2,30.3c-4.8,14.3-8.3,25.7-10.5,34.2c-2,7.8-3.3,14.7-3.9,20.7
		c-0.2,1.5-0.3,3.3-0.3,5.5c-0.1,2.1-0.2,3.9-0.2,5.2c-0.1,1.4,0,2.2,0.1,2.5c0.3,0,2.7-2.9,7.2-8.7s8.2-10.9,11.3-15.5
		c11.5-16.7,20.6-30.8,27.1-42.3s12.3-23.5,17.2-36.1c9.8-24.9,16.6-44.7,20.3-59.3c2.5-10,2.8-15.9,1.2-17.6
		c-1.1-1.1-1.5-2.1-1.2-3.2c0.2-0.6,0.8-0.9,1.8-0.9c1.1,0,1.9,0.3,2.5,0.9c0.6,0.6,1.1,0.7,1.5,0.2s1.6-0.2,3.6,0.7
		c1.5,0.6,4,2,7.5,4.1s5.4,3.6,5.9,4.3c0.3,0.5,0.6,0.7,0.9,0.7c0.5,0,1.2,0.4,2.1,1.1C199,74.9,199.7,75.7,200.1,76.5z M68.4,228.3
		l-0.2,0.2l0.2,0.7C68.5,228.9,68.5,228.6,68.4,228.3z M68.8,227.1c0-0.3-0.1-0.6-0.2-0.9v0.5L68.8,227.1z M69.1,225.1
		c0.2-0.3,0.2-0.6,0-0.9l-0.2,0.5L69.1,225.1z M69.3,223.3c0.2-0.3,0.2-0.7,0-1.1v0.5C69.3,222.9,69.3,223.1,69.3,223.3z
		 M69.8,221.2c0.2-0.3,0.2-0.6,0-0.9l-0.2,0.5L69.8,221.2z M70,219.4c0.2-0.3,0.2-0.6,0-0.9l-0.2,0.5L70,219.4z M71.1,213.2
		c0.8-3.3,1.1-5.1,0.9-5.2c0-0.1-0.2,0.5-0.6,2.1c-0.4,1.5-0.7,3.1-0.9,4.7s-0.3,2.5-0.3,2.8C70.2,217.9,70.5,216.4,71.1,213.2z
		 M72.5,207.1c0-0.3-0.1-0.6-0.2-0.9v0.5L72.5,207.1z M72.8,205.5c0.2-0.1,0.2-0.4,0-0.7l-0.2,0.2L72.8,205.5z M73.7,201.8
		c0.3-1.8,0.5-2.9,0.5-3.2l-1.2,5L73.7,201.8z M74.4,197.7c0.2-0.1,0.2-0.4,0-0.7l-0.2,0.2L74.4,197.7z M75.1,194.8
		c0.5-1.1,0.6-1.8,0.5-2.3l-0.5,1.4c-0.3,1.2-0.5,2-0.5,2.3L75.1,194.8z M75.8,191.8c0.2-0.1,0.2-0.4,0-0.7l-0.2,0.2L75.8,191.8z
		 M76.2,190.4c0.2-0.1,0.2-0.4,0-0.7L76,190L76.2,190.4z M76.5,189.1c0.2-0.1,0.2-0.4,0.2-0.7h-0.2l-0.2,0.2L76.5,189.1z
		 M76.9,187.5c0.2-0.1,0.2-0.4,0-0.7l-0.2,0.2L76.9,187.5z M77.4,186.1c0.2-0.1,0.1-0.4-0.2-0.7l-0.2,0.2L77.4,186.1z M77.6,184.7
		c0.2-0.1,0.2-0.4,0-0.7l-0.2,0.2L77.6,184.7z M78.1,183.4c0.2-0.1,0.2-0.4,0-0.7l-0.2,0.2L78.1,183.4z M93.8,128.4
		c-0.2,0.3-0.7,1.7-1.6,4.2s-1.4,3.8-1.4,4l3.2-7.8L93.8,128.4z M99.3,238.5c0.2,0,0.5-0.3,1-1s0.7-1,0.6-1c-0.2,0-0.5,0.3-1,1
		C99.3,238.2,99.1,238.5,99.3,238.5z M146.4,164.9c5.1-10.8,7.4-16.3,6.9-16.6c0-0.1-0.1-0.1-0.2,0.2c-0.2,0.3-0.3,0.7-0.6,1.3
		c-0.2,0.5-0.5,1-0.8,1.5c-8.6,20.5-23.8,46.4-45.4,77.7l-4.2,6.2c0.6-0.6,2.5-3.1,5.5-7.5C124.8,204.2,137.7,183.3,146.4,164.9z
		 M147.3,197.7c0.3-0.5,0.6-0.9,0.8-1.3c0.2-0.4,0.4-0.8,0.6-1.3c-0.2,0.2-0.7,0.8-1.6,2.1c-5.4,9.1-11.8,19.4-19.1,30.8
		c-0.5,0.8-0.7,1.1-0.6,1.1s1.3-1.7,3.6-5C135.1,218.2,140.5,209.4,147.3,197.7z M154.4,146l-0.2-0.5c-0.3,0.5-0.5,0.9-0.5,1.4v0.5
		C154,147,154.3,146.6,154.4,146z"/>
</g>
<g className="st0">
	<path className="st1" d="M434,102.4c1.7,1.2,2.4,2.6,2.1,4.1c-0.3,0.8-1.2,2-2.5,3.8c-1.4,1.7-2.3,2.8-2.8,3.1c-0.2,0-0.5,0.1-0.9,0.2
		c-0.5,0.2-0.8,0.2-0.9,0.2c-1.8,0.8-4.7,3.6-8.5,8.4c-3.2,4.3-8,11.5-14.3,21.8s-11.8,19.9-16.6,28.8
		c-10.3,18.8-18.8,36.1-25.4,51.6c-6.6,15.6-10.2,26.3-10.6,32.3c-0.2,0.8,0.2,1.3,1.2,1.6c1.8,0.6,2.9,1.6,3.1,2.8
		c0.2,1.3-0.3,3.5-1.7,6.5c-1.1,2.4-2.5,3.8-4.4,4.1c-0.6,0-1.6-0.2-2.9-0.6s-2.2-0.8-2.7-1.3c-0.6-0.5-1.1-0.7-1.5-0.7
		s-1.6-0.5-3.6-1.4s-3.5-1.5-4.6-1.8c-1.8-0.6-3.8-1.7-5.9-3.2s-3.2-2.7-3.3-3.6c-0.2-0.8-0.5-1.1-1-1.1s-0.8-0.1-0.8-0.2
		s-0.8-0.9-2.3-2.3c-2.8-2.6-4.5-4.6-5.3-6.2c-0.8-1.4-1.5-4.8-2.3-10.3c-0.9-6.8-1.2-14.3-0.9-22.3c0.2-3.5,0.2-5.3,0.2-5.5
		c-0.2-0.1-1,0.8-2.4,3c-1.5,2.1-3.3,4.8-5.5,8.1s-4.3,6.3-6.1,9.2c-11.5,17.6-19.8,32.9-24.9,45.8c-2.3,5.5-4.2,8.4-5.5,8.7
		c-0.8,0-1.5-0.1-2.3-0.3c-0.8-0.2-1.3-0.5-1.5-0.9s-0.5-0.5-0.8-0.5c-0.3,0.1-1.3-0.3-3-1c-2.3-0.9-3.6-1.4-3.9-1.6
		c-3.4-1.4-5.5-2.9-6.5-4.6c-0.5-0.8-0.8-1.1-1-1.1s-0.7-0.5-1.3-1.4c-1.1-1.7-1.8-5.9-2.1-12.8c-0.3-6.7-0.2-13,0.5-18.8
		c0.6-5.8,2-13.9,4.2-24c6.5-29.3,16.9-59.6,31.4-90.7c2.3-5,4.2-9,5.5-11.9c3.4-7.6,5.6-11.8,6.7-12.5c0.5-0.3,1.1-0.5,1.8-0.5
		c0.8,0,1.2,0.2,1.4,0.5c0,0.3-0.6,1.6-1.8,3.9c-3.4,6.4-5.6,11.1-6.7,14.1c-0.6,2.1-1.2,3.3-1.8,3.6c-0.9,0.8-3.8,6.9-8.8,18.4
		c-4.9,11.5-8.9,21.6-12,30.4c-1.8,5.3-3.8,11.5-6,18.5s-3.1,10.6-2.8,10.7c0-0.3,0.1-0.6,0.2-0.8c0.2-0.2,0.3-0.5,0.3-0.9
		c0.1-0.4,0.2-0.8,0.2-1.1c0.1-0.4,0.2-0.8,0.3-1.3c2.6-9,5.8-18.4,9.5-28.3c3.5-9.7,8.2-20.8,14-33.3s11-22.9,15.6-31.2
		c1.1-1.7,1.7-2.6,1.8-2.7c0.3-0.1,1.5,0.2,3.5,1s3.6,1.6,4.8,2.2c0.3,0.3,0.7,0.6,1,0.8c0.4,0.2,0.8,0.5,1.3,0.8
		c0.2,0,0.1,0.3-0.1,0.8s-0.3,0.8-0.1,0.8c0.2-0.1,0.4-0.3,0.7-0.5c0.5-0.3,1.5,0.1,3,1.1c1.5,1.1,2.3,1.7,2.2,1.9
		c-0.1,0.2-0.5,1.3-1.3,3.1l-1.4,2.7l1.8-2.5c1.2-1.7,2-2.5,2.3-2.5s1,0.5,2.2,1.4s1.7,1.7,1.7,2.5c0.2,0.8-1,4.2-3.6,10.3
		c-2.5,6.1-4.4,10-5.7,11.9c-0.9,1.2-1.8,1.8-2.8,1.8h-1.4l-3,5.9c-8,15.5-14.7,30.4-20.1,44.7c-0.9,2.7-2.7,8-5.3,15.8
		c-2.6,7.8-3.9,11.8-3.9,12s0.2,0,0.6-0.6c0.4-0.5,0.9-1.3,1.6-2.3s1.4-2.1,2.2-3.3c2.8-4.6,5.6-8.9,8.5-13
		c2.9-4.4,8-11.5,15.3-21.4s11.4-15.2,12.3-16c2-1.8,3.3-2.4,3.9-1.6c0.3,0.3,0.8,0.3,1.4,0c1.7-0.9,5.4-0.3,11.1,1.8
		c3.5,1.2,5.3,1.9,5.3,2.2c0,0.2,0.2,0.3,0.7,0.3c0.6-0.1,1.4,0,2.4,0.5s1.7,0.9,2,1.4c0.8,0.9,0.3,5.3-1.4,13.2
		c-2.6,11.1-4.4,20.4-5.3,28c-0.6,4.3-0.8,6.4-0.6,6.5c0.2,0.1,1.3-1.9,3.3-6c13.1-26.6,27.5-53.7,43.4-81.4
		c5.2-9.4,9.1-16.2,11.7-20.4c2.5-4.2,4.5-7.3,6-9.5c1.5-2.1,3-4,4.5-5.5c1.8-2,3.5-3,5.1-3c0.9,0,1.5,0.2,1.6,0.7l-0.5,0.7
		c-0.5,0.3-0.5,0.5,0,0.5c0.2,0,0.5-0.1,1.2-0.2c0.8-0.6,1.5-0.8,2.1-0.7c1.1,0.2,3,1,5.8,2.6s4.2,2.6,4.2,3.1c0,0.2,0,0.3,0,0.3
		c0,0.1,0.1,0.1,0.2,0.1c0.3,0,1.3,0.5,3,1.6l2.3,1.6l-0.9,0.9l-0.7,1.1l1.6-0.2C432.2,101.9,433.1,102,434,102.4z M274.6,265.2
		c-0.2,0.2-0.7,1.3-1.6,3.3c-0.9,2.1-1.4,3.2-1.4,3.5s0.2,0.2,0.5-0.2c0.2-0.3,0.4-0.9,0.7-1.8C273.4,268.6,274,267,274.6,265.2z
		 M276.9,227.8l0.7-1.6c0,0.2-0.1,0.3-0.2,0.5c-0.5,0.6-0.9,1.2-1.3,1.8s-0.7,1.1-0.9,1.6c-0.2,0.5-0.3,0.6-0.2,0.6
		C275,230.6,275.7,229.6,276.9,227.8z M279.4,223.5c0.3-0.5,0.2-0.5-0.2,0c-0.6,0.6-0.8,0.8-0.5,0.7
		C278.9,224.2,279.1,223.9,279.4,223.5z M302.3,140.5l-0.5,1.6c0.2-0.1,0.5-0.8,1.2-2.1l0.7-1.6
		C303.5,138.6,303.1,139.3,302.3,140.5z M317.3,218.7c0.2-0.1,0.2-0.4,0-0.7l-0.2,0.2L317.3,218.7z M317.5,214.6
		c0.2-0.3,0.2-0.6,0-0.9c-0.2-0.1-0.2-0.2-0.2-0.1c0,0.1,0,0.3,0,0.6L317.5,214.6z M317.5,216.4c0-0.3-0.1-0.6-0.2-0.9v0.5
		L317.5,216.4z M318,208v-1.6l-0.2,1.6c-0.2,0.9-0.2,2.1-0.2,3.4v1.8l0.2-2.1C317.9,209.8,318,208.7,318,208z M343.1,213.9
		c11.1-23.1,24.2-48.1,39.5-75c12.8-22.3,21.4-36.3,25.8-41.9c1.2-1.5,1.8-2.3,1.6-2.3c-0.2-0.1-0.8,0.3-2,1.5
		c-1.2,1.1-2.3,2.4-3.3,3.8c-2.3,3-7.6,11.7-15.9,26s-15.6,27.4-21.9,39.4c-20,37.5-30,57.9-30,61.1c0,0.9,0.2,0.8,0.7-0.2
		c0.2-0.3,0.4-0.8,0.7-1.6C339,222.8,340.7,219.2,343.1,213.9z M415.6,118.4l3.2-5.2c-2.5,2.3-8.2,10.8-17.1,25.5
		c-7.8,12.8-16.1,27.5-24.9,44.2s-15.7,30.9-20.8,42.6c-4.3,10.2-7.2,18.5-8.8,24.8c-0.3,1.4-0.4,1.9-0.2,1.6c0.3-0.3,1-2.1,2.1-5.5
		c3.1-9.6,8.1-21.8,15-36.7c8.6-18.4,16.9-34.6,24.9-48.6C400.3,141.5,409.1,127.2,415.6,118.4z"/>
	<path className="st1" d="M535.5,129.6c0.3,1.2,0.3,3.1,0,5.7c-0.6,4.9-3.1,12.1-7.4,21.8c-4.3,9.7-12,24.8-23.1,45.5
		c-8,14.9-14.2,27.1-18.5,36.5c-7.5,16.3-11.8,26.8-12.9,31.7c-0.2,0.9-1.2,2.2-3,3.9c-1.8,1.7-3.2,2.5-4.2,2.5
		c-0.5-0.2-1.1-0.8-1.8-1.8c-0.8-1.1-1.1-1.9-0.9-2.5c-0.2-1.2-0.4-1.8-0.7-1.8c-0.5,0.3-0.8,0.2-0.9-0.2c-0.2-0.5-0.5-1.4-1.2-2.7
		c-0.8-1.4-1.2-2.2-1.2-2.6s-0.2-0.6-0.5-0.8c-0.9-0.5-1.9-3-3-7.5c-0.5-1.5-0.5-2.7-0.2-3.4c0.2-1.4,0.1-2.1-0.2-2.1
		c-0.3,0.2-0.5,0.2-0.6,0.1c-0.1-0.1-0.1-0.3-0.1-0.8c0.2-2.1,0.9-4.8,2.3-8c2.6-5.9,7.1-15,13.4-27.4c2.2-4.3,3.2-6.4,3.1-6.5
		s-0.7,0-1.7,0.3c-1.1,0.2-8,1.1-20.8,3c-12.8,1.8-19.7,2.8-20.8,3.1c-1.1,0.2-2.6,1.6-4.6,4c-7.4,8.8-14.4,18-21.1,27.6
		s-10,15.2-10,16.9c-0.2,0.3,0.1,1,0.7,1.9c0.6,1,0.8,1.6,0.7,1.9c0,0.9-0.7,2.4-2.2,4.4c-1.5,2.1-2.7,3.3-3.6,3.8
		c-1.5,0.9-3,0.8-4.4-0.5c-0.6-0.5-1.3-1.3-2.1-2.5c-2.3-3.3-4.5-6.2-6.7-8.4c-1.5-1.7-3-4.2-4.4-7.5c-0.5-1.2-0.7-2.2-0.7-3
		s-0.2-1.4-0.7-2.1c-0.5-0.6-0.7-1.8-0.6-3.6s0.7-3.9,1.8-6.3c1.2-2.4,2.2-4.2,3.1-5.6c2.5-4.1,7.5-11.2,15.2-21.4
		c4.6-6.1,6.8-9.2,6.5-9.3c-0.5-0.2-0.8-1.2-1.2-3.2c-0.5-2-0.6-3.9-0.5-5.7v-2.7l1.8-0.7c2.6-1.2,3.8-2.1,3.7-2.7
		c-0.3,0-1.2,0.2-2.8,0.6c-1.5,0.4-2.3,0.5-2.4,0.3c-0.1-0.1,0-0.8,0.1-1.8c0.3-1.2,0.9-2,1.8-2.3s3.6-0.8,8.1-1.4
		c5.2-0.5,8.1-0.8,8.5-1.1c0.6,0,4-3.4,10.2-10.3c14.9-16.1,28.3-29.4,40.1-39.9c14.1-12.8,26.1-21.7,35.8-26.9
		c7.1-3.9,12.1-5.7,15.2-5.2c3.1,0.5,6.2,2.9,9.5,7.3c1.2,1.7,3.1,5,5.5,10C533.8,125,535.2,128.2,535.5,129.6z M375.7,247.2
		c2.6-5.3,8.8-14.1,18.5-26.2c2.8-3.5,4.1-5.5,3.9-6.2c-0.2-0.1-0.9,0.5-2.2,2.1c-1.3,1.5-2.9,3.5-4.8,5.9s-3.8,5-5.8,7.6
		c-1.9,2.7-3.7,5.2-5.3,7.5c-1.6,2.4-2.7,4-3.3,4.9c-0.6,1.1-1.1,2.1-1.5,3.1s-0.7,1.7-0.8,2.2c-0.2,0.5-0.2,0.8,0,0.9
		C374.6,249,375,248.4,375.7,247.2z M417.6,221.2c0.3-0.5,0.2-0.7-0.2-0.7s-4,4.3-10.7,12.9c-6.7,8.6-11.2,14.8-13.5,18.6
		c-0.3,0.6-0.6,1.2-0.9,1.7s-0.6,1.2-0.9,1.9c0.2,0,1.1-1.2,2.8-3.6C400.1,243.6,407.9,233.4,417.6,221.2z M428.5,177.9
		c14.6-16,28.6-29.9,42-41.7s24.5-20.3,33.5-25.3l2.5-1.8c-0.3,0.2-1.6,0.8-3.9,2.1c-9.5,5-21.7,14.1-36.5,27.4
		c-6,5.3-13.2,12.2-21.5,20.7c-3.8,3.8-8.7,8.9-14.5,15.2s-8.8,9.6-9,9.9l0.7,0.2C422.4,184.4,424.6,182.1,428.5,177.9z
		 M445.6,186.7c0.3,0.1,0.5,0,0.7-0.3s0.1-0.5-0.2-0.5c-0.3,0-0.5,0.1-0.7,0.3C445.2,186.4,445.2,186.6,445.6,186.7z M449.6,182.2
		c0.4,0,2.3-1.7,5.7-5.2c15.8-16.6,30.7-30,44.5-40.3c4-2.9,6-4.4,6-4.6l-6.5,4.1c-7.7,5.2-17.4,13.3-29.1,24.4
		c-2.2,2-6,5.8-11.7,11.5c-5.6,5.7-8.7,8.9-9.1,9.5C449.2,182,449.2,182.2,449.6,182.2z M487.3,184.3c0.6-0.3,0.2-0.5-1.2-0.5
		c-1.5,0-5.5,0.2-12,0.5c-11.8,0.6-17.8,1.1-18,1.4c-0.2,0-0.2,0,0,0.1s0.6,0.1,1.3,0.1c0.7,0,1.6,0,2.7-0.1s2.6-0.2,4.6-0.3
		c4.8-0.3,9.7-0.5,14.8-0.7C484.4,184.4,487,184.3,487.3,184.3z M457.6,208l0.5-0.2c-0.2-0.1-0.4-0.1-0.7,0L457.6,208z M459.6,207.8
		l0.2-0.2c-0.2-0.1-0.4-0.1-0.7,0L459.6,207.8z M491.7,175.8c3.2-6.4,7.1-14.2,11.7-23.4c4.5-9.2,6.7-13.9,6.6-14.2
		c-0.3-0.3-3.2,1.7-8.8,5.9c-8,5.8-17.1,13.5-27.2,23.3c-0.8,0.6-1.7,1.5-2.9,2.7c-1.2,1.2-2.4,2.5-3.7,3.8
		c-1.3,1.3-2.5,2.5-3.6,3.6s-2.4,2.5-3.9,4c0.2,0.2,0.4,0.2,0.7,0.2c0.3,0,1.8-0.1,4.6-0.2c3.4-0.1,7.7-0.3,12.9-0.5
		c5.5-0.1,8.8-0.3,9.7-0.5h1.4L491.7,175.8z M461.7,207.5l0.5-0.2c-0.3-0.1-0.6-0.1-0.9,0L461.7,207.5z M465.9,207.1
		c0.2-0.1,0.3-0.2,0.5-0.2c-0.2-0.2-0.5-0.2-0.9,0L465.9,207.1z M467.7,206.8c0.3-0.2,0.5-0.2,0.7-0.2c-0.5-0.1-0.8-0.1-1.2,0
		L467.7,206.8z M473,206.2l2.8-0.5c-0.5-0.2-1.7-0.1-3.7,0.2l-2.5,0.7C470,206.6,471.2,206.5,473,206.2z"/>
	<path className="st1" d="M631.3,289.1c0.5,0,0.8,0.8,1,2.3s0.2,2.5-0.1,3c-0.6,1.1-2.5,2-5.5,2.7c-1.1,0.1-2.1-0.2-3-0.9
		c-1.2-1.1-4.5-1.7-9.9-1.8c-8.5-0.3-26.3,2.2-53.5,7.5c-9.4,1.8-17.8,3.9-25.4,6.4c-4.9,1.5-10.5,3.3-16.8,5.2
		c-10.6,3.2-17.6,5.7-21,7.5c-1.7,0.9-3.7,2.4-6,4.3c-2.5,1.8-4.9,3.5-7.4,5s-4.5,2.8-6.2,3.9c-2.3,1.7-4.2,2.3-5.8,1.8
		c-0.8-0.3-1.4-0.8-1.8-1.4c-2-1.8-3-3.3-3-4.3c-0.2-0.5-0.3-0.6-0.5-0.5c-0.5,0-2.8-3.4-6.9-10.3c-2.2-3.6-3.5-8.3-3.9-13.9
		c-0.2-1.5,0.1-2.6,0.8-3.2c0.7-0.6,2.7-1.6,5.9-3c2-0.9,5.5-2.1,10.6-3.6c5.1-1.7,8-2.6,8.8-2.7l1.2-0.5l-1.4-1.6
		c-0.9-1.1-1.2-1.9-0.9-2.5c0.5-0.8,0.9-1.7,1.4-2.7c0.6-1.2,1.8-3.3,3.5-6.2c7.1-11.4,17.8-32.2,32.1-62.5
		c3.5-7.9,7.5-16,11.8-24.4c9.8-19.9,15.4-31.3,16.6-34.2c0.8-1.7,1.3-2.8,1.7-3.4c0.4-0.6,1-1.8,1.7-3.6c0.9-2.3,2.2-5.2,3.9-8.9
		c2-4.4,3.6-8.1,4.8-10.9c1.1-2.3,2.4-5.4,3.9-9.3c3.7-8.5,6.5-13.8,8.3-16c0.3-0.3,0.9-1.1,1.8-2.5c0.6-1.1,1.2-1.9,1.8-2.5
		c0.3-0.5,0.7-1.1,1.2-2.1c0.6-1.1,1.6-1.5,3-1.4c0.9,0,1.3,0.3,1.3,1c-0.1,0.7-0.3,1.3-0.8,1.8s-0.7,1-0.7,1.3
		c0.2,0.6,0.8,0.3,1.8-0.9c0.9-1.1,1.6-1.6,2-1.6s1.3,0.5,2.7,1.4c0.9,0.6,1.8,1.4,2.8,2.3c0.9,0.9,1.7,1.7,2.3,2.5s0.9,1.2,0.8,1.4
		c-0.1,0.2,0.1,0.3,0.6,0.6c0.5,0.2,1.2,1,2.2,2.2s1.5,2,1.5,2.3s-0.2,0.8-0.7,1.4l-0.7,0.9l0.7-0.5c1.2-0.8,2.4-0.5,3.5,0.9
		c0.8,0.9,1.2,1.7,1.4,2.5c0.2,0.6,0.1,1.1-0.2,1.5s-1.5,1.7-3.5,4c-0.8,0.8-4.7,7.9-11.8,21.4c-7.4,14.3-14.7,28.3-21.9,42.2
		c-13.5,25.5-26.1,50.6-37.6,75.2c-1.7,3.5-3.7,8-6.1,13.6c-2.4,5.5-3.6,8.4-3.6,8.5c0,0.3,0.2,0.4,0.7,0.2
		c4.6-1.5,17.5-3.9,38.8-7.1c17.7-2.9,35.1-4.8,52.4-5.7c9.2-0.6,14.1-0.8,14.8-0.5c1.7,0.8,2.3,1.3,1.7,1.7
		c-0.5,0.4-0.5,0.6,0.1,0.8c0.2,0.1,0.3,0.2,0.5,0.2c0.6-0.2,1.4,0.3,2.3,1.4c1.5,2.1,2.7,4.3,3.5,6.4c0.3,1.2,0.8,2.4,1.4,3.6
		c0.6,1.2,0.9,2.2,0.9,3C630.8,288.8,631,289.1,631.3,289.1z M482.5,315.1c0.3-0.3,0.7-0.6,1-0.8c0.4-0.2,0.7-0.4,0.9-0.6
		c0.2-0.2,0.3-0.2,0.2-0.2c-0.1,0-0.9,0.3-2.5,1s-3.2,1.4-4.8,2.3c-1.6,0.8-2.4,1.3-2.4,1.4s0.5-0.1,1.4-0.5s2-0.8,3.2-1.4
		C480.7,315.8,481.7,315.4,482.5,315.1z M479.2,287.1c-0.3,0.3-0.5,0.4-0.7,0.3s-0.4-0.5-0.7-1.3c-0.5-1.1-0.5-1.8-0.2-2.3
		c0.3-0.6,1.3-2.2,3-4.8c7.7-12,19.5-35.1,35.3-69.3c2.5-5.2,7.5-15.3,15-30.3c12-24.3,21.1-43.9,27.5-58.8c3.8-9.3,6.8-15.7,9-19.1
		c0.5-0.8,1.5-1,3-0.7c0.6,0,0.6,0.8,0,2.3c-0.3,0.6-0.9,1.7-1.8,3.4c-1.7,3.2-3.9,8.1-6.7,14.8c-6,14-17.4,37.8-34.1,71.3
		c-2.9,5.8-6.7,13.5-11.3,23.3c-10.5,22.2-17.9,37.6-22.4,46.3c-2,4-4.7,8.9-8.2,14.7C482.3,282.8,480.2,286.2,479.2,287.1z"/>
	<path className="st1" d="M690.6,289.1c0.5,0,0.8,0.8,1,2.3s0.2,2.5-0.1,3c-0.6,1.1-2.5,2-5.5,2.7c-1.1,0.1-2.1-0.2-3-0.9
		c-1.2-1.1-4.5-1.7-9.9-1.8c-8.5-0.3-26.3,2.2-53.5,7.5c-9.4,1.8-17.8,3.9-25.4,6.4c-4.9,1.5-10.5,3.3-16.8,5.2
		c-10.6,3.2-17.6,5.7-21,7.5c-1.7,0.9-3.7,2.4-6,4.3c-2.5,1.8-4.9,3.5-7.4,5s-4.5,2.8-6.2,3.9c-2.3,1.7-4.2,2.3-5.8,1.8
		c-0.8-0.3-1.4-0.8-1.8-1.4c-2-1.8-3-3.3-3-4.3c-0.2-0.5-0.3-0.6-0.5-0.5c-0.5,0-2.8-3.4-6.9-10.3c-2.2-3.6-3.5-8.3-3.9-13.9
		c-0.2-1.5,0.1-2.6,0.8-3.2s2.7-1.6,5.9-3c2-0.9,5.5-2.1,10.6-3.6c5.1-1.7,8-2.6,8.8-2.7l1.2-0.5l-1.4-1.6c-0.9-1.1-1.2-1.9-0.9-2.5
		c0.5-0.8,0.9-1.7,1.4-2.7c0.6-1.2,1.8-3.3,3.5-6.2c7.1-11.4,17.8-32.2,32.1-62.5c3.5-7.9,7.5-16,11.8-24.4
		c9.8-19.9,15.4-31.3,16.6-34.2c0.8-1.7,1.3-2.8,1.7-3.4c0.4-0.6,1-1.8,1.7-3.6c0.9-2.3,2.2-5.2,3.9-8.9c2-4.4,3.6-8.1,4.8-10.9
		c1.1-2.3,2.4-5.4,3.9-9.3c3.7-8.5,6.5-13.8,8.3-16c0.3-0.3,0.9-1.1,1.8-2.5c0.6-1.1,1.2-1.9,1.8-2.5c0.3-0.5,0.7-1.1,1.2-2.1
		c0.6-1.1,1.6-1.5,3-1.4c0.9,0,1.3,0.3,1.3,1c-0.1,0.7-0.3,1.3-0.8,1.8s-0.7,1-0.7,1.3c0.2,0.6,0.8,0.3,1.8-0.9
		c0.9-1.1,1.6-1.6,2-1.6s1.3,0.5,2.7,1.4c0.9,0.6,1.8,1.4,2.8,2.3c0.9,0.9,1.7,1.7,2.3,2.5s0.9,1.2,0.8,1.4
		c-0.1,0.2,0.1,0.3,0.6,0.6c0.5,0.2,1.2,1,2.2,2.2s1.5,2,1.5,2.3s-0.2,0.8-0.7,1.4l-0.7,0.9l0.7-0.5c1.2-0.8,2.4-0.5,3.5,0.9
		c0.8,0.9,1.2,1.7,1.4,2.5c0.2,0.6,0.1,1.1-0.2,1.5s-1.5,1.7-3.5,4c-0.8,0.8-4.7,7.9-11.8,21.4c-7.4,14.3-14.7,28.3-21.9,42.2
		c-13.5,25.5-26.1,50.6-37.6,75.2c-1.7,3.5-3.7,8-6.1,13.6c-2.4,5.5-3.6,8.4-3.6,8.5c0,0.3,0.2,0.4,0.7,0.2
		c4.6-1.5,17.5-3.9,38.8-7.1c17.7-2.9,35.1-4.8,52.4-5.7c9.2-0.6,14.1-0.8,14.8-0.5c1.7,0.8,2.3,1.3,1.7,1.7
		c-0.5,0.4-0.5,0.6,0.1,0.8c0.2,0.1,0.3,0.2,0.5,0.2c0.6-0.2,1.4,0.3,2.3,1.4c1.5,2.1,2.7,4.3,3.5,6.4c0.3,1.2,0.8,2.4,1.4,3.6
		c0.6,1.2,0.9,2.2,0.9,3C690.1,288.8,690.2,289.1,690.6,289.1z M541.8,315.1c0.3-0.3,0.7-0.6,1-0.8c0.4-0.2,0.7-0.4,0.9-0.6
		s0.3-0.2,0.2-0.2s-0.9,0.3-2.5,1s-3.2,1.4-4.8,2.3c-1.6,0.8-2.4,1.3-2.4,1.4s0.5-0.1,1.4-0.5s2-0.8,3.2-1.4
		C540,315.8,541,315.4,541.8,315.1z M538.5,287.1c-0.3,0.3-0.5,0.4-0.7,0.3s-0.4-0.5-0.7-1.3c-0.5-1.1-0.5-1.8-0.2-2.3
		c0.3-0.6,1.3-2.2,3-4.8c7.7-12,19.5-35.1,35.3-69.3c2.5-5.2,7.5-15.3,15-30.3c12-24.3,21.1-43.9,27.5-58.8c3.8-9.3,6.8-15.7,9-19.1
		c0.5-0.8,1.5-1,3-0.7c0.6,0,0.6,0.8,0,2.3c-0.3,0.6-0.9,1.7-1.8,3.4c-1.7,3.2-3.9,8.1-6.7,14.8c-6,14-17.4,37.8-34.1,71.3
		c-2.9,5.8-6.7,13.5-11.3,23.3c-10.5,22.2-17.9,37.6-22.4,46.3c-2,4-4.7,8.9-8.2,14.7C541.6,282.8,539.4,286.2,538.5,287.1z"/>
	<path className="st1" d="M772,139.1c0.2,1.7,0,2.8-0.6,3.5c-0.5,0.7-1.9,1.3-4,1.7c-3.1,0.8-5.1,0.7-6-0.2c-1.2-1.1-4.4-2.3-9.5-3.6
		c-2.6-0.6-7.5-1.3-14.6-2.1c-7.2-0.8-13.2-1.1-18.1-1.1l-7.6-0.2l-2.3,1.4c-2.9,1.7-4.8,2-5.8,0.9c-0.5-0.5-1.2-0.1-2.3,0.9
		c-2.8,2.9-7.2,8.4-13.2,16.4c-6,8.1-8.8,12.3-8.5,12.8c0.2,0.3,4.3,0,12.6-0.8c8.2-0.8,12.6-1,13.3-0.6c0.8,0.5,1.2,0.8,1.2,0.9
		c0,0.2-0.4,0.5-1.2,1.1l-1.4,1.1h1.4c1.2-0.1,2.1-0.3,2.5-0.5c0.5,0,1.3,0.8,2.5,2.3c0.8,0.9,1.7,2.4,2.8,4.6
		c1.1,2.1,1.6,3.3,1.6,3.6c0,0.2-0.6,0.4-1.8,0.7l-1.8,0.5h2.1h2.1l1.2,2.7c0.6,1.8,0.9,2.8,0.9,3s-0.5,0.5-1.6,0.9
		c-2.3,0.8-2.2,1.1,0.5,1.1h2.5l0.5,1.8c0.6,2.1,0.3,3.7-0.9,4.8c-0.8,0.6-2,1.3-3.7,1.9c-1.7,0.7-3.1,1-4.2,1c-1.1,0-3,0.1-5.8,0.2
		c-3.8,0-11.9,0.5-24.1,1.4c-12.2,0.9-18.8,1.5-19.7,1.8c-0.2,0-1.2,2.1-3.1,6.2c-1.9,4.1-3.6,7.9-5,11.4
		c-2.9,7.1-5.1,13.7-6.5,19.6c-0.6,2-1.2,5.3-1.7,9.9c-0.5,4.6-0.7,7.1-0.3,7.4c0.3,0.3,1.9,0,4.7-0.8c2.8-0.8,5.6-1.8,8.2-2.8
		c14.3-6.1,29.2-15.4,44.8-28c1.8-1.4,3.2-2,4.2-1.8l1.4,0.5l-0.9,1.1c-0.6,1.1-3.3,3.5-8.2,7.2c-4.8,3.7-9.3,7-13.5,9.7l-3.2,2.3
		c0.2,0,0.6-0.2,1.4-0.7c7.1-4.1,14.3-9.1,21.7-15c2.8-2.1,4.3-3.2,4.6-3.2c0.5,0,1.5,0.7,3.2,2.2c1.7,1.4,2.8,2.6,3.5,3.5l1.2,1.6
		l-1.2,0.9v0.5c0.8-0.5,1.3-0.6,1.7-0.5c0.4,0.2,1,0.8,1.7,2.1l1.6,1.8l-3.7,3.4l-3.9,3.6l4.4-3l4.4-2.7l1.2,1.6c1.4,2,1,4-1.2,5.9
		c-2.5,2.3-8.6,6.4-18.5,12.3c-17.5,10.5-31.8,16.8-42.9,18.9c-5.7,1.1-10.5,0.9-14.3-0.5c-2-0.6-3.7-1.5-5.1-2.7
		c-1.4-1.2-3.5-3.6-6.2-7.3c-3.1-4.1-5.3-7.6-6.6-10.4c-1.3-2.8-2.3-6.5-3.1-11.1c-0.2-1.7-0.2-3.9-0.1-6.6c0.1-2.7,0.3-5.8,0.8-9.2
		s1-6.3,1.6-8.5c3.2-12.9,8.1-26.1,14.5-39.7c1.7-3.5,2.6-6,2.8-7.5c0-2.1,0.5-3.2,1.6-3.2c0.6,0,1.8-1.8,3.7-5.5
		c4.8-8.8,10-17.9,15.7-27.4l3.9-6.6l-1.4-4.3c-2.6-7.9-3.2-12.5-1.8-13.9c0.3-0.5,0.3-1.1,0-2.1c-0.2-0.9,0-1.9,0.3-3
		c0.4-1.1,1-1.7,1.7-2.1c2.5-1.1,12-1.3,28.6-0.7c39.7,1.5,61.3,3.9,64.8,7.1c0.8,0.6,1,1.2,0.8,1.7s0.1,1,1,1.3
		c2,0.9,3.6,4.2,4.8,9.8c0.3,1.5,0.3,2.3,0,2.4c-0.3,0.1-0.2,0.3,0.2,0.8c0.3,0.3,0.7,1.2,1.2,2.7s0.7,2.5,0.7,3
		c-0.2,0.3-0.4,0.5-0.7,0.5c-0.5,0-0.7,0.2-0.7,0.5l1.2,0.9C771.5,137.2,771.8,138.1,772,139.1z"/>
	<path className="st1" d="M963.6,104.6c0.2,0.4,0.3,1.4,0.3,3.2c0,1.7-0.4,3-1.2,3.8c-1.5,1.5-4.2,2.1-8.1,1.8c-1.2-0.1-2.1-0.7-2.5-1.7
		c-0.5-1-0.7-1.9-0.6-2.7c0.1-0.8-0.6-1.7-2-2.6c-5.1-3.2-12.3-5.7-21.7-7.5c-7.8-1.4-18.5-2.3-32.1-2.7
		c-17.1-0.6-35.9-0.4-56.5,0.7c-0.8,1.7-1.7,3.6-2.8,5.7c-2.5,4.9-4.5,9-6,12.3s-2.9,5.7-4.2,7.1c-0.2,0.3-1.6,2.8-4.4,7.6
		c-2.8,4.8-6.1,10.6-10,17.4c-3.9,6.8-6.7,11.9-8.4,15c-24.3,42.1-41.9,76.7-52.8,103.7c-2.8,6.7-4.2,10.4-4.4,11.2
		c-0.2,0.6-0.2,0.9-0.2,1s0.2-0.1,0.7-0.6c0.6-0.5,1.3-0.5,2.2-0.1c0.8,0.4,1.7,0.9,2.4,1.7c1.1,1.1,0.8,3-0.9,5.9
		c-0.9,1.2-2.5,2.9-4.7,5.1s-3.8,3.5-4.7,4c-1.8,0.8-3.8,0.6-5.8-0.5c-0.9-0.6-1.5-1.1-1.6-1.5c-0.2-0.4-0.5-0.6-1-0.7
		s-1.9-0.8-4.2-2.3c-2.2-1.4-3.4-2.2-3.6-2.2c-0.3,0-1.5-0.8-3.5-2.5s-3.2-2.8-3.7-3.4c-0.6-0.9-0.9-1.7-0.8-2.5
		c0.1-0.8-0.3-1.1-1-1.1c-1.2,0-1.8-1.1-1.8-3.4c0-1.5,3.2-8.5,9.5-21c1.5-2.9,5.4-10.7,11.5-23.4s9.5-19.6,9.9-20.6
		c8.8-17.6,19.1-37.8,30.9-60.4c13.1-24.8,21.5-41,25.4-48.6c-0.2,0-0.3,0-0.5,0s-0.3,0-0.5,0c-1.5,3.6-2.8,5.8-3.7,6.4
		c-0.3,0-0.6-0.1-0.8-0.5c-0.2-0.3-0.4-0.8-0.5-1.5s-0.1-1.3-0.1-1.9c0-0.5,0.2-1.1,0.5-2.1c-11.4,1.4-22.2,2.9-32.5,4.6l-9,1.4
		l0.7,1.6l0.7,1.8l-1.4,0.2c-1.4,0.5-1.1,1,0.9,1.6c1.2,0.5,2.1,1.3,2.5,2.5c1.1,2.4,0.8,4.3-0.9,5.7c-1.2,1.2-3,2.3-5.4,3.2
		c-2.4,0.9-3.9,1.2-4.5,0.9c-0.2-0.1-3.2-0.9-9-2.4c-5.8-1.4-9.3-2.5-10.4-3.1c-0.8-0.3-1.5-0.8-2.1-1.5s-1.2-1.4-1.6-2.2
		c-0.5-0.8-0.7-1.4-0.7-2.1c-0.2-0.9-0.4-1.7-0.8-2.3c-0.4-0.6-1.2-2.3-2.4-5c-1.1-2.9-1.7-4.5-1.8-4.8c-0.2-0.1-0.3-0.5-0.5-1
		s-0.3-1.2-0.6-1.9c-0.2-0.8-0.4-1.6-0.6-2.4c-0.2-0.8-0.3-1.6-0.5-2.3c-0.2-0.7-0.2-1.2-0.2-1.5c-0.2-1.1,0.1-1.9,0.7-2.5
		c0.6-0.6,0.7-1.1,0.1-1.5c-0.5-0.4-0.7-1.1-0.6-2.3c0.2-1.1,0.5-1.9,0.9-2.4c1.7-1.7,13.2-4,34.4-6.8c68.3-9,125.1-10.6,170.5-4.8
		c11.7,1.5,20.4,3.3,26.1,5.5c5.1,1.7,8.1,3.4,9,5.2c0.5,0.8,1,1.5,1.6,2.3c0.9,1.1,1.9,3.5,3,7.4s1.7,7.4,1.8,10.6
		C963.3,103.4,963.4,104.2,963.6,104.6z M782.4,145.8c11.7-21.9,17.5-33.1,17.3-33.5c0-0.5-3,4.8-8.9,15.6
		c-5.9,10.9-12.7,23.5-20.2,38c-6.2,11.7-21.6,42.7-46.4,93c-2.8,5.8-4.2,8.8-4.4,9.1c0,0.6,0.5,0.2,1.4-1.4
		c1.2-1.8,2.9-4.9,5.1-9.3c0.8-1.5,2.4-5,5-10.4c2.5-5.4,5.2-11,8.1-16.9c2.8-5.8,4.6-9.4,5.2-10.6
		C755.6,196.6,768.2,172,782.4,145.8z M785.8,76l0.5-0.2c-0.2-0.1-0.4-0.2-0.7-0.2L785.8,76z M787.9,75.5h0.7
		c-0.2-0.3-0.5-0.4-0.9-0.2L787.9,75.5z M790.5,75.3h0.5c-0.3-0.3-0.6-0.4-0.9-0.2c-0.2,0-0.2,0.1-0.2,0.2H790.5z M793,75.1h0.5
		c-0.3-0.3-0.6-0.4-0.9-0.2c-0.2,0-0.2,0-0.1,0.1C792.5,75.1,792.7,75.1,793,75.1z M795.3,74.9h0.9c-0.3-0.3-0.8-0.4-1.4-0.2
		c-0.2,0-0.2,0-0.1,0.1C794.8,74.8,795,74.9,795.3,74.9z M797.8,74.6h0.9c-0.3-0.3-0.8-0.4-1.4-0.2c-0.2,0-0.2,0-0.1,0.1
		C797.3,74.6,797.5,74.6,797.8,74.6z M800.6,74.4h0.7c-0.3-0.3-0.8-0.4-1.4-0.2c-0.2,0-0.2,0,0,0.1S800.3,74.4,800.6,74.4z
		 M803.1,74.2h0.7c-0.3-0.1-0.7-0.2-1.2-0.2c-0.3,0-0.4,0-0.2,0.1C802.6,74.1,802.8,74.2,803.1,74.2z M808.2,73.9
		c1.1-0.1,1.2-0.3,0.2-0.5c-0.6,0-1.4,0.1-2.3,0.2c-0.8,0-1.2,0-1.2,0.1s0.2,0.1,0.7,0.1C806.4,74.1,807.3,74.1,808.2,73.9z
		 M814.9,73.5l2.3-0.5c-0.8-0.1-2.2-0.1-4.4,0.2l-2.1,0.2C811.4,73.6,812.8,73.6,814.9,73.5z M869.1,71.7l0.5-0.2
		c-1.4-0.3-9.2-0.3-23.4,0.1s-23,0.8-26.2,1.3l-1.8,0.2h2.1c1.4,0,5.9-0.2,13.6-0.7C851.8,71.6,863.6,71.4,869.1,71.7z M874.2,71.4
		h1.6h-0.2c-0.9-0.1-1.8-0.2-2.8-0.2c-0.6,0-0.6,0.1,0,0.2C873.1,71.4,873.6,71.4,874.2,71.4z M880.7,71.7h1.8H882
		c-0.9-0.3-1.8-0.5-2.8-0.5c-0.5,0.2-0.5,0.2,0,0.2C879.6,71.4,880,71.5,880.7,71.7z M890.1,72.1h1.6l-0.2-0.2
		c-0.8-0.1-1.6-0.2-2.5-0.2c-0.5,0-0.5,0.1,0,0.2L890.1,72.1z"/>
</g>
<text transform="matrix(0.6983 1.2311 -0.8748 0.4844 153.9455 192.0302)" className="st1 st2 st3">i</text>
<g>
	<path className="st1" d="M613,381.7v-46.5h13.7c5,0,8.8,1,11.3,3.1c2.6,2.1,3.9,5.1,3.9,9.1c0,2.4-0.7,4.5-2,6.3
		c-1.3,1.8-3.1,3.1-5.4,3.8c2.7,0.6,4.9,1.9,6.5,4c1.6,2.1,2.5,4.4,2.5,7.1c0,4.1-1.3,7.3-4,9.6c-2.6,2.3-6.3,3.5-11.1,3.5H613z
		 M616.9,356h10.7c3.3-0.1,5.8-0.8,7.6-2.3c1.8-1.5,2.7-3.6,2.7-6.5c0-3-0.9-5.2-2.8-6.6c-1.9-1.4-4.7-2.1-8.4-2.1h-9.8V356z
		 M616.9,359.4v19h11.8c3.4,0,6-0.9,8-2.6c2-1.7,3-4.1,3-7.1c0-2.9-0.9-5.1-2.8-6.8c-1.9-1.7-4.5-2.5-7.8-2.5H616.9z"/>
	<path className="st1" d="M678.7,359.4H657v19h25v3.3h-28.9v-46.5h28.8v3.3H657v17.6h21.7V359.4z"/>
	<path className="st1" d="M722.4,338.5h-15.9v43.2h-3.9v-43.2h-15.9v-3.3h35.8V338.5z"/>
	<path className="st1" d="M752.5,368.6h-21.1l-4.8,13.1h-4.1l17.6-46.5h3.7l17.6,46.5h-4.1L752.5,368.6z M732.6,365.3h18.6l-9.3-25.3
		L732.6,365.3z"/>
</g>
</svg>
