<?xml version="1.0" encoding="utf-8"?>
<!-- Generator: Adobe Illustrator 26.0.2, SVG Export Plug-In . SVG Version: 6.00 Build 0)  -->
<svg version="1.1" id="Layer_1" xmlns="http://www.w3.org/2000/svg" xmlns:xlink="http://www.w3.org/1999/xlink" x="0px" y="0px"
	 viewBox="0 0 138 48" style="enable-background:new 0 0 138 48;" xml:space="preserve">
<style type="text/css">
	.st0{fill:none;}
	.st1{fill:#565B63;}
	.st2{fill:#8F96A3;}
	.st3{fill:#C6D0E0;}
	.st4{fill:#E5E5E5;}
	.st5{fill:#AAB3C1;}
	.st6{fill:#747B84;}
	.st7{fill:#848B96;}
</style>
<path class="st0" d="M0,0"/>
<path id="path4061" class="st1" d="M98.1,20.3H77.7v-5.2h20.4V20.3z"/>
<path id="path4103" class="st2" d="M95.4,20.3H77.7v-13h17.7V20.3L95.4,20.3z"/>
<path id="path4089" class="st3" d="M88.1,20.3H77.7V2.1h10.4V20.3z"/>
<path id="path4075" class="st4" d="M90.2,20.3H77.7V4.1h12.4V20.3z"/>
<path id="path4688" class="st2" d="M77.7,4.1v16.2h10.4V4.1C88.1,4.1,77.7,4.1,77.7,4.1z"/>
<path id="path4119" class="st2" d="M67.3,20.3h10.4V23H67.3L67.3,20.3L67.3,20.3z"/>
<path id="path4698" class="st2" d="M77.7,7.3v13h12.5v-13H77.7z"/>
<path id="path4693" class="st5" d="M77.7,7.3v13h10.4v-13H77.7z"/>
<path id="path4117" class="st6" d="M84.2,20.3h-6.5v-7.8h6.5V20.3L84.2,20.3z"/>
<path id="path4713" class="st5" d="M77.7,15.1v5.2h17.7v-5.2H77.7z"/>
<path id="path4708" class="st6" d="M77.7,15.1v5.2h12.5v-5.2H77.7z"/>
<path id="path4703" class="st7" d="M77.7,15.1v5.2h10.4v-5.2H77.7z"/>
<path id="path4625" class="st2" d="M77.7,15.1v5.2h6.5v-5.2H77.7z"/>
<g id="g2925" transform="translate(-128.49892,323.79178)">
	<path id="path2850" class="st2" d="M208.5-293.6c-1.8,0.3-2.7,1.7-2.7,4c0,2.4,1.3,3.9,3.1,3.9c0.9,0,1.7-0.3,3.4-1.1
		c0,1.9,0,1.9,0,1.9c-2,0.9-3.2,1.2-4.8,1.2c-1.8,0-3-0.4-4-1.5c-1-1-1.6-2.4-1.6-3.9c0-3.4,2.5-5.7,6.2-5.7c2.4,0,4.1,1.1,4.1,2.8
		c0,1.1-0.8,1.8-1.9,1.8c-0.6,0-1.1-0.2-1.7-0.6"/>
	<path id="path2852" class="st2" d="M199.6-289.1c1.6-2,2.2-2.8,2.2-3.8c0-1-0.8-1.9-1.9-1.9c-0.6,0-1.2,0.4-1.5,0.7
		c0,4.1,0,4.1,0,4.1c-2.6,3.5-2.6,3.5-2.6,3.5c0-8,0-8,0-8c-2.5,0-2.5,0-2.5,0c-4.2,6.9-4.2,6.9-4.2,6.9c0-6.9,0-6.9,0-6.9
		c-1.4,0-1.4,0-1.4,0c-3.8,0.9-3.8,0.9-3.8,0.9c0,1,0,1,0,1c2.1,0.2,2.1,0.2,2.1,0.2c0,8.6,0,8.6,0,8.6c2.6,0,2.6,0,2.6,0
		c4-6.6,4-6.6,4-6.6c0,6.6,0,6.6,0,6.6c3,0,3,0,3,0"/>
	<path id="path2862" class="st2" d="M175.8-285.2c0.3,0,0.4,0,0.6,0c2.1,0,3.3-1.3,3.3-3.9c0-2.2-0.9-3.4-2.7-3.4
		c-0.2,0-0.6,0-1.2,0.2V-285.2L175.8-285.2z M175.8-280.6c1.7,0.4,1.7,0.4,1.7,0.4c0,1,0,1,0,1c-6.8,0-6.8,0-6.8,0c0-1,0-1,0-1
		c1.6-0.4,1.6-0.4,1.6-0.4c0-11.9,0-11.9,0-11.9c-1.7,0-1.7,0-1.7,0c0-1,0-1,0-1c4.1-1.3,4.1-1.3,4.1-1.3c1.1,0,1.1,0,1.1,0
		c0,1.4,0,1.4,0,1.4c1.9-1.2,2.6-1.4,3.6-1.4c2.3,0,4,2.1,4,5.1c0,3.4-2.3,5.7-5.9,5.7c-0.4,0-1.1,0-1.8-0.1"/>
</g>
</svg>
